<svg width="56" height="56" viewBox="0 0 56 56" fill="none" xmlns="http://www.w3.org/2000/svg">
<path d="M46.3751 29.7334C48.7654 29.7334 51.0578 30.6978 52.7479 32.4148C54.4381 34.1318 55.3874 36.4606 55.3874 38.8888C55.3874 41.317 54.4381 43.6458 52.7479 45.3627C51.0578 47.0797 48.7654 48.0442 46.3751 48.0442C43.9849 48.0442 41.6925 47.0797 40.0023 45.3627C38.3122 43.6458 37.3628 41.317 37.3628 38.8888C37.3628 36.4606 38.3122 34.1318 40.0023 32.4148C41.6925 30.6978 43.9849 29.7334 46.3751 29.7334ZM46.3751 31.3775C44.4142 31.3775 42.534 32.1694 41.1473 33.578C39.7607 34.9866 38.9812 36.8967 38.9812 38.8888C38.9812 40.8809 39.7607 42.7909 41.1473 44.1995C42.534 45.6082 44.4142 46.4001 46.3751 46.4001C48.3361 46.4001 50.2163 45.6082 51.6029 44.1995C52.9895 42.7909 53.769 40.8809 53.769 38.8888C53.769 36.8967 52.9895 34.9866 51.6029 33.578C50.2163 32.1694 48.3361 31.3775 46.3751 31.3775ZM46.4554 34.1813C46.6406 34.2001 46.8149 34.2834 46.9476 34.4183C47.0994 34.5725 47.1843 34.7818 47.1843 34.9999V38.0667H50.2032C50.4179 38.0667 50.6239 38.153 50.7758 38.3072C50.9276 38.4614 51.0124 38.6707 51.0124 38.8888C51.0124 39.1068 50.9276 39.3162 50.7758 39.4704C50.6239 39.6246 50.4179 39.7108 50.2032 39.7108H47.1843V42.7777C47.1843 42.9957 47.0994 43.205 46.9476 43.3593C46.7958 43.5135 46.5898 43.5997 46.3751 43.5997C46.1605 43.5997 45.9544 43.5135 45.8026 43.3593C45.6508 43.205 45.5659 42.9957 45.5659 42.7777V39.7108H42.547C42.3324 39.7108 42.1263 39.6246 41.9745 39.4704C41.8227 39.3162 41.7378 39.1068 41.7378 38.8888L41.7412 38.8072C41.7597 38.6191 41.8417 38.442 41.9745 38.3072C42.1263 38.153 42.3324 38.0667 42.547 38.0667H45.5659V34.9999C45.5659 34.7818 45.6508 34.5725 45.8026 34.4183C45.9544 34.2641 46.1605 34.1778 46.3751 34.1778L46.4554 34.1813Z" fill="#905BC3" stroke="#905BC3"/>
<path d="M47.4775 27.3333V30.4444" stroke="#905BC3" stroke-width="3.1"/>
<path d="M29.0938 7.77783C30.3121 7.77783 31.4801 8.26985 32.3417 9.14503C33.2032 10.0202 33.6875 11.2068 33.6875 12.4445V14.0001H44.4062C45.6246 14.0001 46.7926 14.4921 47.6542 15.3673C48.5157 16.2425 49 17.429 49 18.6667V28.5955C48.1532 28.3516 47.2708 28.2223 46.375 28.2223C46.2288 28.2223 46.0829 28.226 45.9375 28.2327V26.9141L25.6818 32.3993C24.9074 32.6088 24.0926 32.6088 23.3182 32.3993L3.0625 26.9115V43.5556C3.0625 43.9681 3.22395 44.3637 3.51111 44.6554C3.79827 44.9472 4.18764 45.1112 4.59375 45.1112H39.7732C41.5537 46.8172 43.9086 47.7738 46.363 47.7769C45.7565 48.0671 45.0894 48.2223 44.4062 48.2223H4.59375C3.37541 48.2223 2.20732 47.7303 1.34583 46.8551C0.48433 45.9799 0 44.7933 0 43.5556V18.6667C0 17.429 0.48433 16.2425 1.34583 15.3673C2.20732 14.4921 3.37541 14.0001 4.59375 14.0001H15.3125V12.4445C15.3125 11.2068 15.7968 10.0202 16.6583 9.14503C17.5199 8.26985 18.6879 7.77783 19.9062 7.77783H29.0938ZM4.59375 17.1112C4.18764 17.1112 3.79827 17.2752 3.51111 17.5669C3.22395 17.8586 3.0625 18.2542 3.0625 18.6667V23.6945L24.1052 29.3942C24.3638 29.4642 24.6362 29.4642 24.8948 29.3942L45.9375 23.6945V18.6667C45.9375 18.2542 45.7761 17.8586 45.4889 17.5669C45.2017 17.2752 44.8123 17.1112 44.4062 17.1112H4.59375ZM19.9062 10.8889C19.5002 10.8889 19.1108 11.0529 18.8236 11.3447C18.5364 11.6364 18.375 12.032 18.375 12.4445V14.0001H30.625V12.4445C30.625 12.032 30.4636 11.6364 30.1764 11.3447C29.8892 11.0529 29.4998 10.8889 29.0938 10.8889H19.9062Z" fill="#905BC3"/>
</svg>
