<?xml version="1.0" encoding="utf-8" ?>
<svg xmlns="http://www.w3.org/2000/svg" xmlns:xlink="http://www.w3.org/1999/xlink" width="64" height="64">
	<path fill="#915DC2" transform="scale(0.125 0.125)" d="M252.534 133.368Q256.455 133.259 260.374 133.408Q264.294 133.557 268.195 133.964Q272.097 134.37 275.963 135.032Q279.829 135.694 283.643 136.609Q285.054 136.956 286.456 137.337Q287.858 137.718 289.25 138.133Q290.642 138.549 292.024 138.999Q293.405 139.448 294.775 139.932Q296.145 140.415 297.503 140.933Q298.86 141.45 300.205 142Q301.549 142.551 302.88 143.134Q304.211 143.717 305.526 144.333Q306.842 144.949 308.142 145.598Q309.443 146.246 310.727 146.926Q312.01 147.606 313.277 148.317Q314.544 149.028 315.793 149.771Q317.042 150.513 318.272 151.286Q319.502 152.059 320.713 152.862Q321.924 153.665 323.114 154.498Q324.305 155.33 325.475 156.192Q326.644 157.053 327.793 157.943Q328.941 158.834 330.067 159.752Q331.193 160.67 332.296 161.615Q333.399 162.561 334.478 163.534Q335.557 164.506 336.612 165.505Q337.668 166.503 338.698 167.528Q339.728 168.552 340.733 169.602Q341.737 170.651 342.716 171.725Q343.694 172.799 344.646 173.897Q345.598 174.994 346.522 176.115Q347.447 177.236 348.343 178.379Q349.24 179.522 350.108 180.687Q350.976 181.852 351.815 183.038Q352.655 184.224 353.464 185.43Q354.274 186.637 355.054 187.862Q355.834 189.088 356.583 190.333Q357.323 191.566 358.033 192.817Q358.742 194.068 359.421 195.336Q360.1 196.604 360.747 197.888Q361.395 199.172 362.011 200.472Q362.627 201.772 363.21 203.086Q363.794 204.401 364.345 205.729Q364.897 207.057 365.415 208.399Q365.934 209.74 366.42 211.094Q366.905 212.448 367.357 213.813Q367.81 215.178 368.228 216.554Q368.647 217.93 369.032 219.316Q369.417 220.702 369.767 222.097Q370.118 223.491 370.434 224.894Q370.751 226.297 371.033 227.708Q371.315 229.118 371.562 230.535Q371.809 231.952 372.021 233.374Q372.234 234.797 372.411 236.224Q372.589 237.651 372.731 239.082Q372.874 240.513 372.981 241.948Q373.089 243.382 373.161 244.818Q373.233 246.255 373.27 247.692Q373.307 249.13 373.308 250.568Q373.31 252.007 373.276 253.444Q373.243 254.882 373.174 256.319Q373.105 257.755 373.001 259.19Q372.897 260.624 372.758 262.056Q372.618 263.487 372.444 264.915Q372.27 266.342 372.061 267.765Q371.851 269.188 371.607 270.606Q371.363 272.023 371.085 273.434Q370.806 274.845 370.493 276.249Q370.18 277.652 369.832 279.048Q369.477 280.45 369.089 281.844Q368.7 283.237 368.277 284.621Q367.854 286.004 367.398 287.377Q366.941 288.749 366.451 290.11Q365.961 291.471 365.438 292.82Q364.914 294.169 364.358 295.504Q363.802 296.839 363.213 298.161Q362.625 299.482 362.004 300.789Q361.383 302.095 360.73 303.386Q360.077 304.677 359.393 305.952Q358.709 307.226 357.994 308.484Q357.279 309.741 356.533 310.98Q355.787 312.22 355.011 313.441Q354.235 314.662 353.429 315.863Q352.624 317.065 351.789 318.246Q350.954 319.427 350.09 320.588Q349.227 321.748 348.335 322.888Q347.443 324.027 346.524 325.143Q345.605 326.26 344.658 327.354Q343.712 328.448 342.739 329.519Q341.766 330.589 340.767 331.635Q339.768 332.682 338.744 333.703Q337.719 334.725 336.67 335.721Q335.621 336.717 334.548 337.687Q333.475 338.657 332.379 339.601Q331.282 340.544 330.163 341.461Q329.044 342.377 327.902 343.266Q326.761 344.154 325.598 345.015Q324.435 345.875 323.251 346.707Q322.068 347.538 320.864 348.341Q319.66 349.143 318.437 349.916Q317.214 350.689 315.973 351.431C290.85 366.454 258.657 372.336 230.058 365.124C225.952 364.116 221.846 363.059 217.86 361.642C214.075 360.295 210.406 358.656 206.608 357.34C202.06 358.964 197.631 361.074 193.2 362.992L170.361 372.883C165.937 374.8 161.354 377.172 156.724 378.505Q155.388 378.879 154.006 378.766C151.067 378.548 148.212 376.943 146.336 374.695C145.016 373.113 144.178 371.196 144.09 369.126C143.88 364.223 145.576 358.593 146.508 353.762L151.843 326.125C152.842 320.952 154.147 315.678 154.679 310.442L154.722 309.994C152.932 305.865 150.481 301.968 148.634 297.825Q147.499 295.274 146.491 292.671Q145.482 290.067 144.601 287.418Q143.721 284.768 142.971 282.079Q142.221 279.39 141.603 276.667Q140.985 273.945 140.501 271.195Q140.016 268.445 139.667 265.675Q139.317 262.905 139.104 260.122Q138.89 257.338 138.812 254.547Q138.761 253.122 138.744 251.696Q138.728 250.27 138.747 248.845Q138.765 247.419 138.818 245.994Q138.872 244.569 138.96 243.146Q139.048 241.723 139.171 240.302Q139.293 238.881 139.451 237.464Q139.608 236.047 139.8 234.634Q139.992 233.221 140.219 231.813Q140.445 230.405 140.706 229.004Q140.967 227.602 141.262 226.207Q141.556 224.812 141.885 223.424Q142.214 222.037 142.577 220.658Q142.94 219.279 143.336 217.909Q143.732 216.539 144.162 215.179Q144.591 213.82 145.054 212.471Q145.517 211.122 146.012 209.785Q146.508 208.448 147.035 207.123Q147.563 205.799 148.124 204.488Q148.684 203.176 149.276 201.879Q149.868 200.582 150.491 199.3Q151.115 198.017 151.769 196.75Q152.424 195.484 153.109 194.233Q153.795 192.983 154.511 191.75Q155.226 190.516 155.972 189.301Q156.717 188.085 157.493 186.889Q158.268 185.692 159.072 184.514Q159.876 183.337 160.708 182.179Q161.541 181.021 162.402 179.884Q163.262 178.747 164.15 177.632Q165.038 176.516 165.953 175.423Q166.869 174.329 167.81 173.258Q168.752 172.188 169.719 171.14Q170.708 170.065 171.724 169.015Q172.74 167.965 173.781 166.941Q174.823 165.917 175.889 164.919Q176.956 163.921 178.047 162.95Q179.139 161.979 180.254 161.036Q181.369 160.092 182.507 159.177Q183.646 158.262 184.807 157.375Q185.967 156.488 187.15 155.631Q188.332 154.773 189.536 153.945Q190.74 153.118 191.963 152.32Q193.187 151.523 194.431 150.756Q195.674 149.989 196.936 149.254Q198.198 148.518 199.478 147.814Q200.758 147.111 202.055 146.439Q203.352 145.767 204.666 145.128Q205.979 144.489 207.308 143.883Q208.637 143.277 209.981 142.704Q211.325 142.131 212.682 141.592Q214.04 141.053 215.411 140.547Q216.781 140.042 218.164 139.571Q219.547 139.101 220.941 138.664Q222.335 138.228 223.74 137.827Q225.144 137.426 226.558 137.059Q227.972 136.693 229.395 136.363Q230.818 136.032 232.248 135.736Q233.679 135.441 235.117 135.182Q236.554 134.922 237.998 134.699Q239.441 134.475 240.89 134.288Q242.338 134.1 243.791 133.949Q245.244 133.798 246.7 133.683Q248.157 133.568 249.615 133.489Q251.074 133.41 252.534 133.368ZM168.946 350.277C175.91 346.981 183.092 344.059 190.163 340.995C194.702 339.029 199.686 336.298 204.5 335.19C206.638 334.698 208.591 334.687 210.672 335.438C213.426 336.432 215.97 337.918 218.657 339.067Q223.258 340.989 228.028 342.44Q232.798 343.892 237.689 344.858C263.36 349.484 289.083 344.413 310.582 329.445Q311.555 328.773 312.511 328.077Q313.467 327.38 314.406 326.661Q315.344 325.941 316.265 325.199Q317.185 324.457 318.087 323.692Q318.989 322.927 319.872 322.14Q320.755 321.353 321.618 320.545Q322.481 319.736 323.324 318.907Q324.167 318.078 324.99 317.228Q325.812 316.378 326.613 315.508Q327.414 314.638 328.193 313.748Q328.973 312.859 329.73 311.95Q330.487 311.042 331.222 310.115Q331.956 309.188 332.668 308.244Q333.38 307.299 334.068 306.337Q334.756 305.375 335.42 304.397Q336.084 303.418 336.724 302.424Q337.363 301.429 337.979 300.419Q338.594 299.409 339.184 298.384Q339.774 297.359 340.338 296.32Q340.903 295.281 341.441 294.228Q341.98 293.175 342.493 292.109Q343.005 291.044 343.492 289.966Q343.978 288.888 344.437 287.798Q344.897 286.708 345.329 285.608Q345.762 284.507 346.167 283.396Q346.572 282.285 346.95 281.164Q347.328 280.043 347.678 278.914Q348.028 277.784 348.35 276.646Q348.672 275.508 348.966 274.363Q349.259 273.217 349.525 272.065Q349.791 270.912 350.028 269.754Q350.265 268.595 350.473 267.431Q350.679 266.274 350.857 265.112Q351.034 263.951 351.183 262.785Q351.332 261.619 351.453 260.45Q351.573 259.281 351.664 258.11Q351.756 256.938 351.819 255.765Q351.882 254.591 351.915 253.417Q351.949 252.242 351.954 251.067Q351.959 249.892 351.936 248.717Q351.912 247.542 351.859 246.368Q351.806 245.194 351.725 244.022Q351.643 242.849 351.533 241.679Q351.423 240.509 351.284 239.342Q351.145 238.176 350.977 237.012Q350.81 235.849 350.614 234.691Q350.418 233.532 350.193 232.378Q349.969 231.225 349.716 230.077Q349.463 228.93 349.182 227.788Q348.901 226.647 348.592 225.514Q348.284 224.38 347.947 223.254Q347.61 222.128 347.246 221.011Q346.882 219.893 346.491 218.785Q346.099 217.677 345.68 216.579Q345.262 215.481 344.816 214.394Q344.371 213.306 343.899 212.23Q343.427 211.154 342.929 210.089Q342.43 209.025 341.906 207.973Q341.382 206.922 340.832 205.883Q340.282 204.845 339.706 203.82Q339.131 202.795 338.531 201.785Q337.93 200.775 337.306 199.78Q336.681 198.784 336.031 197.805Q335.382 196.825 334.709 195.862Q334.036 194.894 333.34 193.943Q332.643 192.992 331.923 192.059Q331.204 191.125 330.461 190.21Q329.719 189.294 328.954 188.397Q328.19 187.5 327.403 186.623Q326.617 185.745 325.809 184.886Q325.001 184.028 324.172 183.19Q323.343 182.352 322.494 181.534Q321.645 180.717 320.776 179.92Q319.907 179.124 319.019 178.349Q318.13 177.575 317.223 176.822Q316.316 176.069 315.391 175.339Q314.466 174.609 313.523 173.902Q312.58 173.195 311.62 172.511Q310.659 171.827 309.683 171.167Q308.706 170.507 307.714 169.872Q306.721 169.236 305.713 168.625Q304.705 168.014 303.683 167.428Q302.66 166.841 301.623 166.281Q300.586 165.72 299.536 165.185Q298.486 164.65 297.423 164.14Q296.36 163.631 295.285 163.148Q294.209 162.666 293.123 162.209Q292.036 161.753 290.938 161.324Q289.84 160.894 288.732 160.492Q287.624 160.09 286.507 159.715Q285.389 159.34 284.263 158.993Q283.137 158.646 282.002 158.326Q280.868 158.007 279.725 157.715Q278.583 157.424 277.434 157.161Q276.286 156.897 275.13 156.662Q273.975 156.427 272.815 156.221Q268.129 155.409 263.384 155.071Q258.64 154.732 253.886 154.871Q252.695 154.891 251.505 154.942Q250.316 154.992 249.127 155.072Q247.939 155.152 246.753 155.261Q245.567 155.371 244.385 155.51Q243.202 155.649 242.023 155.818Q240.844 155.987 239.67 156.186Q238.496 156.384 237.327 156.611Q236.158 156.839 234.995 157.096Q233.832 157.353 232.676 157.639Q231.52 157.924 230.371 158.239Q229.223 158.554 228.082 158.897Q226.942 159.241 225.811 159.612Q224.679 159.984 223.558 160.384Q222.436 160.784 221.324 161.212Q220.213 161.64 219.113 162.096Q218.012 162.551 216.924 163.034Q215.835 163.517 214.759 164.027Q213.683 164.538 212.62 165.074Q211.557 165.611 210.508 166.175Q209.459 166.738 208.424 167.327Q207.389 167.917 206.369 168.532Q205.35 169.147 204.346 169.788Q203.341 170.428 202.354 171.093Q201.366 171.759 200.395 172.449Q199.425 173.139 198.472 173.853Q197.518 174.567 196.583 175.304Q195.648 176.042 194.732 176.803Q193.816 177.564 192.919 178.347Q192.022 179.13 191.145 179.936Q190.268 180.742 189.412 181.569Q188.555 182.397 187.72 183.245Q186.884 184.094 186.07 184.963Q185.263 185.818 184.478 186.693Q183.692 187.568 182.929 188.462Q182.165 189.356 181.423 190.269Q180.682 191.181 179.963 192.112Q179.244 193.042 178.549 193.99Q177.853 194.938 177.181 195.903Q176.509 196.868 175.861 197.849Q175.212 198.83 174.588 199.827Q173.965 200.823 173.365 201.835Q172.766 202.847 172.192 203.873Q171.618 204.899 171.069 205.939Q170.521 206.979 169.998 208.032Q169.475 209.085 168.978 210.151Q168.481 211.216 168.011 212.294Q167.54 213.372 167.096 214.46Q166.653 215.549 166.236 216.649Q165.819 217.748 165.429 218.857Q165.039 219.967 164.677 221.085Q164.315 222.204 163.98 223.331Q163.646 224.458 163.339 225.593Q163.032 226.729 162.753 227.871Q162.474 229.013 162.224 230.162Q161.973 231.311 161.751 232.465Q161.529 233.62 161.335 234.78Q161.141 235.939 160.976 237.104Q160.811 238.268 160.674 239.436Q160.538 240.603 160.43 241.774Q160.322 242.945 160.243 244.118Q160.165 245.291 160.115 246.466Q160.065 247.641 160.044 248.817Q160.022 249.992 160.03 251.168Q160.038 252.344 160.075 253.519Q160.149 255.877 160.338 258.228Q160.527 260.579 160.832 262.918Q161.136 265.257 161.555 267.579Q161.974 269.9 162.507 272.198Q163.039 274.496 163.684 276.765Q164.328 279.034 165.084 281.269Q165.839 283.503 166.703 285.698Q167.567 287.893 168.538 290.043C170.529 294.433 176.331 302.975 176.665 306.951C177.045 311.479 174.741 320.204 173.799 325.11L168.946 350.277Z"/>
	<path fill="#915DC2" transform="scale(0.125 0.125)" d="M203.356 218.606L273.37 218.583L296.387 218.58C300.842 218.581 305.464 218.327 309.888 218.796C312.233 219.045 314.105 219.555 316.003 221.058C318.267 222.849 319.566 225.525 319.891 228.367Q319.945 228.874 319.948 229.383Q319.952 229.893 319.904 230.4Q319.856 230.907 319.758 231.407Q319.661 231.907 319.513 232.395Q319.366 232.882 319.171 233.353Q318.975 233.824 318.734 234.272Q318.493 234.721 318.208 235.144Q317.923 235.566 317.598 235.958C315.372 238.666 312.603 239.723 309.22 240.013C286.658 240.512 264.005 240.079 241.434 240.083L215.988 240.09C211.555 240.092 206.942 240.371 202.534 239.972C200.311 239.771 198.344 239.344 196.488 238.019Q196.046 237.71 195.639 237.358Q195.231 237.005 194.862 236.613Q194.492 236.22 194.165 235.792Q193.837 235.364 193.556 234.904Q193.274 234.445 193.041 233.959Q192.808 233.473 192.626 232.966Q192.443 232.458 192.314 231.935Q192.185 231.412 192.11 230.878C191.685 227.689 192.598 224.876 194.599 222.389C196.913 219.512 199.897 218.946 203.356 218.606Z"/>
	<path fill="#915DC2" transform="scale(0.125 0.125)" d="M202.439 261.35C213.366 260.955 224.416 261.32 235.357 261.307L248.784 261.292C251.49 261.292 254.347 261.153 257.034 261.461C258.746 261.658 260.403 262.203 261.853 263.142Q262.304 263.435 262.723 263.774Q263.141 264.112 263.522 264.492Q263.903 264.872 264.243 265.29Q264.583 265.707 264.877 266.157Q265.172 266.608 265.418 267.086Q265.665 267.565 265.86 268.066Q266.056 268.567 266.198 269.086Q266.341 269.605 266.429 270.136Q266.521 270.671 266.558 271.212Q266.596 271.754 266.579 272.296Q266.562 272.839 266.492 273.377Q266.421 273.915 266.296 274.443Q266.172 274.972 265.995 275.485Q265.819 275.998 265.592 276.491Q265.365 276.984 265.09 277.452Q264.815 277.92 264.494 278.358C262.518 281.009 259.792 282.267 256.594 282.716C245.472 283.215 234.158 282.811 223.011 282.817C216.58 282.821 207.457 283.375 201.407 282.64C199.667 282.428 198.035 281.755 196.603 280.75C194.251 279.098 192.541 276.583 192.114 273.718C191.641 270.542 192.534 267.718 194.496 265.225C196.579 262.578 199.211 261.682 202.439 261.35Z"/>
	<path fill="#915DC2" transform="scale(0.125 0.125)" d="M255.459 26.6165Q271.092 26.7043 286.571 28.9002Q288.611 29.2057 290.644 29.5516Q292.677 29.8975 294.702 30.2837Q296.728 30.6698 298.746 31.0961Q300.764 31.5223 302.773 31.9884Q304.782 32.4546 306.781 32.9605Q308.78 33.4664 310.769 34.0118Q312.758 34.5572 314.735 35.142Q316.713 35.7267 318.679 36.3506Q320.644 36.9744 322.597 37.6371Q324.55 38.2998 326.49 39.001Q328.429 39.7023 330.354 40.4419Q332.279 41.1815 334.189 41.9591Q336.099 42.7367 337.993 43.552Q339.888 44.3674 341.766 45.2201Q343.643 46.0728 345.504 46.9626Q347.364 47.8524 349.207 48.7789Q351.049 49.7053 352.873 50.6682Q354.696 51.631 356.501 52.6298Q358.305 53.6286 360.089 54.663Q361.873 55.6974 363.636 56.7669Q365.4 57.8364 367.141 58.9407Q368.883 60.045 370.603 61.1836Q372.322 62.3222 374.019 63.4947Q375.715 64.6672 377.388 65.8731Q379.061 67.0789 380.71 68.3177Q382.359 69.5565 383.983 70.8278Q385.606 72.099 387.205 73.4022Q388.803 74.7054 390.375 76.0401Q391.947 77.3747 393.493 78.7402Q395.038 80.1057 396.556 81.5016Q398.074 82.8976 399.564 84.3233Q401.054 85.749 402.516 87.204Q403.987 88.6617 405.429 90.1485Q406.87 91.6354 408.282 93.1506Q409.693 94.6659 411.074 96.209Q412.456 97.7522 413.806 99.3226Q415.156 100.893 416.474 102.49Q417.792 104.087 419.079 105.71Q420.365 107.333 421.619 108.981Q422.872 110.63 424.093 112.303Q425.313 113.976 426.5 115.673Q427.687 117.37 428.84 119.09Q429.993 120.811 431.111 122.554Q432.229 124.297 433.313 126.062Q434.396 127.827 435.444 129.613Q436.491 131.399 437.503 133.206Q438.515 135.013 439.491 136.84Q440.467 138.666 441.406 140.512Q442.345 142.358 443.247 144.222Q444.149 146.086 445.014 147.968Q445.878 149.85 446.705 151.748Q447.532 153.647 448.321 155.562Q449.11 157.477 449.861 159.407Q450.611 161.337 451.323 163.282Q452.035 165.226 452.708 167.185Q453.381 169.143 454.014 171.115Q454.648 173.087 455.242 175.07Q455.837 177.054 456.391 179.05Q456.946 181.045 457.46 183.051Q457.975 185.057 458.449 187.073Q458.924 189.088 459.358 191.113Q459.792 193.138 460.186 195.171Q460.58 197.205 460.933 199.245Q461.286 201.286 461.598 203.333C463.455 215.731 463.988 228.058 464.035 240.573Q465.224 241.127 466.39 241.729Q467.555 242.33 468.696 242.978Q469.836 243.627 470.949 244.32Q472.063 245.014 473.147 245.752Q474.232 246.49 475.285 247.271Q476.339 248.053 477.36 248.876Q478.382 249.699 479.369 250.563Q480.356 251.426 481.308 252.329Q482.259 253.232 483.174 254.173Q484.088 255.113 484.964 256.09Q485.839 257.067 486.675 258.078Q487.51 259.089 488.305 260.133Q489.098 261.177 489.85 262.253Q490.601 263.328 491.308 264.433Q492.015 265.538 492.677 266.67Q493.339 267.803 493.955 268.961Q494.685 270.351 495.346 271.776Q496.007 273.201 496.597 274.656Q497.187 276.111 497.705 277.594Q498.223 279.076 498.668 280.582Q499.113 282.089 499.483 283.615Q499.853 285.141 500.148 286.683Q500.443 288.226 500.662 289.781Q500.88 291.336 501.023 292.9Q501.165 294.464 501.23 296.033Q501.296 297.602 501.284 299.172Q501.272 300.743 501.183 302.311Q501.094 303.878 500.929 305.44Q500.763 307.002 500.521 308.553Q500.279 310.105 499.961 311.643Q499.643 313.181 499.25 314.701Q498.857 316.222 498.39 317.721C492.795 335.427 480.43 348.341 464.168 356.778C463.853 359.47 464.004 362.285 464.007 364.991C464.014 371.367 464.24 377.815 463.788 384.175Q463.72 385.229 463.625 386.28Q463.531 387.332 463.41 388.381Q463.29 389.43 463.143 390.475Q462.997 391.521 462.824 392.562Q462.652 393.604 462.454 394.641Q462.256 395.678 462.032 396.71Q461.808 397.742 461.559 398.768Q461.31 399.794 461.035 400.813Q460.76 401.833 460.461 402.845Q460.161 403.858 459.836 404.862Q459.511 405.867 459.162 406.863Q458.812 407.859 458.438 408.847Q458.064 409.834 457.665 410.812Q457.266 411.789 456.844 412.757Q456.421 413.724 455.975 414.681Q455.528 415.638 455.058 416.583Q454.588 417.529 454.095 418.462Q453.601 419.396 453.085 420.317Q452.569 421.238 452.03 422.145Q451.491 423.053 450.929 423.948Q450.368 424.842 449.784 425.722Q449.201 426.602 448.596 427.467Q447.991 428.332 447.365 429.183Q446.739 430.033 446.092 430.867Q445.445 431.701 444.777 432.519Q444.109 433.337 443.422 434.138Q442.734 434.939 442.027 435.723Q441.319 436.507 440.593 437.273Q439.866 438.039 439.121 438.787Q438.376 439.535 437.612 440.264Q436.849 440.994 436.067 441.704Q435.286 442.414 434.487 443.104Q433.234 444.196 431.94 445.239Q430.646 446.282 429.312 447.273Q427.978 448.265 426.607 449.204Q425.235 450.143 423.828 451.027Q422.421 451.912 420.981 452.741Q419.54 453.57 418.068 454.343Q416.597 455.115 415.096 455.829Q413.595 456.544 412.068 457.199Q410.541 457.855 408.989 458.45Q407.437 459.046 405.863 459.58Q404.29 460.115 402.696 460.587Q401.103 461.06 399.492 461.47Q397.882 461.881 396.256 462.228Q394.631 462.575 392.993 462.859Q391.356 463.142 389.708 463.362Q388.061 463.582 386.406 463.737C380.134 464.293 373.729 464.087 367.438 464.086L342.438 464.082L313.332 464.085C308.489 464.088 303.52 464.399 298.699 464.046C298.508 468.764 297.07 473.319 294.137 477.056C290.451 481.754 285.15 484.577 279.247 485.251C275.549 485.673 271.739 485.498 268.019 485.494L250.877 485.468L233.534 485.492C229.158 485.498 224.645 485.737 220.322 484.977Q218.975 484.749 217.667 484.353Q216.36 483.956 215.113 483.397Q213.866 482.839 212.7 482.126Q211.534 481.414 210.468 480.56C206.062 476.997 203.452 471.858 202.871 466.258C202.31 460.845 202.196 442.336 203.38 437.431Q203.657 436.269 204.065 435.146Q204.472 434.023 205.005 432.954Q205.537 431.884 206.187 430.883Q206.838 429.881 207.598 428.959C211.399 424.371 216.676 421.936 222.551 421.411C225.922 421.111 229.418 421.292 232.804 421.304L248.934 421.302L268.13 421.292C272.543 421.291 277.217 420.977 281.561 421.802Q282.883 422.066 284.161 422.495Q285.439 422.924 286.653 423.511Q287.867 424.097 288.997 424.833Q290.127 425.568 291.155 426.44C296.091 430.603 298.184 436.195 298.743 442.481C314.444 442.829 330.189 442.59 345.895 442.585C357.625 442.581 369.455 442.926 381.173 442.526Q382.723 442.467 384.268 442.333Q385.813 442.198 387.349 441.989Q388.886 441.779 390.411 441.495Q391.935 441.211 393.444 440.852Q394.953 440.494 396.442 440.062Q397.932 439.63 399.399 439.127Q400.866 438.623 402.306 438.048Q403.746 437.473 405.157 436.829Q406.568 436.185 407.945 435.472Q409.323 434.76 410.664 433.981Q412.005 433.202 413.306 432.359Q414.608 431.515 415.867 430.609Q417.125 429.704 418.339 428.737Q419.552 427.771 420.716 426.747Q421.881 425.723 422.994 424.643Q424.107 423.563 425.166 422.43C442.169 404.06 443.362 386.422 442.539 362.703C437.485 363.014 432.331 362.843 427.264 362.852C423.147 362.859 418.514 363.293 414.478 362.52C412.42 362.126 410.133 361.238 408.584 359.786C405.879 357.249 405.406 354.001 405.304 350.501C405.075 342.59 405.306 334.611 405.311 326.695L405.313 279.736L405.308 256.602C405.301 252.275 404.904 247.479 405.587 243.217C405.901 241.26 407.071 239.137 408.456 237.733C409.729 236.442 411.393 235.593 413.135 235.134C417.839 233.894 426.391 234.569 431.562 234.59Q437.087 234.512 442.596 234.946C442.38 231.926 442.509 228.856 442.38 225.825Q442.022 217.7 440.92 209.643Q440.485 206.427 439.938 203.227Q439.391 200.028 438.733 196.85Q438.075 193.671 437.306 190.518Q436.537 187.365 435.659 184.24Q434.78 181.115 433.794 178.023Q432.807 174.931 431.713 171.875Q430.619 168.819 429.419 165.804Q428.219 162.788 426.914 159.816Q425.61 156.844 424.203 153.919Q422.795 150.994 421.287 148.12Q419.778 145.247 418.17 142.427Q416.562 139.608 414.857 136.846Q413.152 134.084 411.351 131.384Q409.55 128.683 407.657 126.047Q405.763 123.411 403.778 120.843Q401.794 118.275 399.721 115.777Q398.276 114.026 396.789 112.311Q395.302 110.597 393.774 108.918Q392.245 107.24 390.677 105.6Q389.108 103.96 387.499 102.358Q385.891 100.756 384.244 99.1942Q382.597 97.6323 380.913 96.1109Q379.228 94.5896 377.507 93.1097Q375.786 91.6299 374.029 90.1924Q372.272 88.755 370.481 87.3608Q368.69 85.9666 366.865 84.6165Q365.041 83.2664 363.184 81.9611Q361.327 80.6559 359.438 79.3963Q357.55 78.1367 355.632 76.9236Q353.713 75.7104 351.766 74.5443Q349.818 73.3783 347.843 72.2601Q345.868 71.1418 343.866 70.0721Q341.864 69.0023 339.837 67.9817Q337.809 66.9611 335.757 65.9902Q333.706 65.0193 331.631 64.0987Q329.556 63.1781 327.46 62.3084Q325.363 61.4386 323.246 60.6203Q321.129 59.8019 318.992 59.0354Q316.856 58.2688 314.701 57.5546Q312.547 56.8404 310.375 56.1789Q308.204 55.5174 306.017 54.9091Q303.83 54.3007 301.629 53.7459Q299.428 53.191 297.215 52.6899Q295.001 52.1889 292.775 51.742Q290.55 51.295 288.314 50.9025Q286.079 50.5099 283.834 50.172Q281.59 49.8341 279.337 49.551Q277.085 49.2678 274.827 49.0397Q272.539 48.8086 270.245 48.6339Q267.952 48.4592 265.655 48.3411Q263.358 48.2229 261.059 48.1614Q258.759 48.0998 256.459 48.095Q254.159 48.0901 251.86 48.1418Q249.561 48.1936 247.263 48.302Q244.966 48.4104 242.671 48.5753Q240.377 48.7402 238.088 48.9616Q235.799 49.183 233.515 49.4607Q231.232 49.7384 228.957 50.0723Q226.681 50.4062 224.414 50.796Q222.147 51.1858 219.891 51.6313Q217.634 52.0768 215.39 52.5778Q213.145 53.0788 210.913 53.6349Q208.681 54.191 206.464 54.8019Q204.246 55.4128 202.045 56.0781Q199.843 56.7434 197.658 57.4628Q195.474 58.1822 193.307 58.9551Q191.141 59.728 188.995 60.5541Q186.848 61.3802 184.722 62.2589Q182.597 63.1376 180.494 64.0683Q178.39 64.9991 176.311 65.9814Q174.231 66.9637 172.176 67.9969Q170.121 69.0301 168.092 70.1136Q166.063 71.1972 164.062 72.3303Q162.06 73.4635 160.087 74.6456Q158.114 75.8277 156.171 77.0581Q154.228 78.2884 152.315 79.5663Q150.403 80.8441 148.523 82.1687Q146.642 83.4932 144.795 84.8637Q142.948 86.2341 141.135 87.6497Q139.322 89.0652 137.545 90.525Q135.928 91.8513 134.341 93.2136Q132.755 94.5758 131.199 95.9733Q129.643 97.3708 128.119 98.8028Q126.595 100.235 125.103 101.701Q123.612 103.167 122.153 104.666Q120.695 106.165 119.271 107.696Q117.846 109.227 116.457 110.79Q115.067 112.353 113.713 113.947Q112.359 115.54 111.041 117.164Q109.722 118.787 108.441 120.44Q107.16 122.093 105.916 123.774Q104.672 125.455 103.466 127.164Q102.26 128.872 101.093 130.608Q99.9255 132.343 98.7974 134.104Q97.6693 135.865 96.581 137.651Q95.4927 139.437 94.4448 141.246Q93.3968 143.056 92.3898 144.889Q91.3827 146.722 90.417 148.577Q89.4512 150.432 88.5274 152.308Q87.6035 154.184 86.722 156.081Q85.8404 157.977 85.0017 159.893Q84.1629 161.809 83.3673 163.743Q82.5717 165.677 81.8197 167.628Q81.0677 169.58 80.3597 171.547Q79.6517 173.515 78.9879 175.498Q78.3242 177.482 77.7052 179.479Q77.0861 181.477 76.512 183.488Q75.938 185.499 75.4091 187.522Q74.8803 189.545 74.397 191.58Q73.9137 193.615 73.4761 195.66Q73.0386 197.705 72.647 199.759Q72.2555 201.813 71.9101 203.876Q70.2734 213.721 69.692 223.684C69.469 227.401 69.5341 231.128 69.1806 234.837C74.5235 234.448 93.3143 234.029 98.022 235.003C101.069 235.634 103.552 237.27 105.216 239.941C106.31 241.696 106.537 244.037 106.628 246.072C106.965 253.608 106.678 261.28 106.674 268.829L106.662 313.005L106.675 338.409C106.678 343.468 107.325 349.927 106.122 354.8C105.424 357.627 103.805 359.791 101.245 361.236C99.9035 361.993 98.4208 362.438 96.8998 362.647C93.5945 363.101 90.0912 362.808 86.7584 362.812C81.0603 362.819 75.2339 363.082 69.5582 362.545Q63.955 362.017 58.4996 360.634Q56.9586 360.224 55.4397 359.738Q53.9208 359.252 52.4277 358.692Q50.9347 358.132 49.471 357.499Q48.0074 356.866 46.5767 356.162Q45.1461 355.457 43.7519 354.683Q42.3578 353.909 41.0035 353.067Q39.6492 352.225 38.3381 351.317Q37.027 350.409 35.7623 349.438Q34.4976 348.467 33.2823 347.434Q32.067 346.402 30.9041 345.31Q29.7412 344.219 28.6336 343.072Q27.5259 341.925 26.4762 340.724Q25.4265 339.524 24.4373 338.273Q23.448 337.022 22.5217 335.724Q21.5953 334.426 20.7341 333.084Q19.873 331.742 19.079 330.359Q18.3048 329.003 17.5978 327.61Q16.8908 326.217 16.2526 324.792Q15.6144 323.366 15.0466 321.911Q14.4788 320.456 13.9827 318.975Q13.4866 317.494 13.0634 315.991Q12.6402 314.487 12.291 312.965Q11.9417 311.443 11.6672 309.905Q11.3926 308.368 11.1935 306.819Q10.9944 305.269 10.8711 303.712Q10.7479 302.155 10.7008 300.594Q10.6537 299.033 10.683 297.472Q10.7122 295.91 10.8176 294.352Q10.923 292.793 11.1044 291.242Q11.2858 289.691 11.5427 288.15Q11.7996 286.61 12.1314 285.083Q12.4632 283.557 12.8692 282.049Q13.2302 280.713 13.6485 279.394Q14.0668 278.076 14.5415 276.776Q15.0163 275.476 15.5466 274.198Q16.0769 272.92 16.6619 271.666Q17.2468 270.412 17.8853 269.185Q18.5238 267.957 19.2146 266.758Q19.9054 265.56 20.6472 264.392Q21.389 263.224 22.1805 262.089Q22.9721 260.954 23.8118 259.854Q24.6515 258.754 25.5378 257.692Q26.4241 256.629 27.3555 255.606Q28.2868 254.583 29.2614 253.601Q30.2359 252.618 31.2519 251.679Q32.268 250.74 33.3235 249.845Q34.3791 248.951 35.4722 248.103Q36.5654 247.254 37.6941 246.454C40.9684 244.147 44.45 242.4 47.9072 240.413C48.2584 236.174 48.0376 231.736 48.1767 227.469Q48.504 216.883 49.9492 206.392C55.4576 164.797 74.6513 123.631 103.629 93.175C136.353 58.7817 176.988 36.3243 224.12 29.1123C234.533 27.5189 244.938 26.8767 255.459 26.6165ZM50.5959 333.788C57.5776 338.694 65.7525 341.058 74.2461 341.27C77.9295 341.363 81.6584 341.161 85.332 341.383C84.9251 324.531 85.3121 307.575 85.3102 290.714L85.3049 268.525C85.3007 264.426 85.1238 260.242 85.3771 256.152C81.8377 256.116 78.2769 256.003 74.7395 256.11C62.2983 256.664 51.5818 260.705 43.0601 270.048Q42.3511 270.831 41.6818 271.648Q41.0124 272.465 40.3844 273.314Q39.7564 274.163 39.1712 275.042Q38.586 275.922 38.045 276.829Q37.5041 277.736 37.0088 278.669Q36.5135 279.601 36.065 280.558Q35.6165 281.514 35.2159 282.491Q34.8153 283.468 34.4636 284.464Q34.112 285.46 33.8101 286.472Q33.5082 287.484 33.2568 288.51Q33.0054 289.536 32.8051 290.573Q32.6048 291.61 32.4562 292.656Q32.3075 293.701 32.2109 294.753Q32.1142 295.805 32.0698 296.86Q32.0253 297.915 32.0332 298.971Q32.0411 300.028 32.1013 301.082Q32.1605 302.129 32.2712 303.172Q32.3819 304.215 32.544 305.251Q32.706 306.287 32.9188 307.314Q33.1317 308.341 33.395 309.357Q33.6582 310.372 33.9712 311.373Q34.2842 312.374 34.6461 313.358Q35.0081 314.343 35.4181 315.308Q35.8281 316.273 36.2852 317.217Q36.7423 318.161 37.2454 319.082Q37.7485 320.002 38.2963 320.896Q38.8442 321.79 39.4354 322.657Q40.0267 323.523 40.6599 324.359Q41.2932 325.195 41.9668 325.999Q42.6405 326.803 43.353 327.572Q44.0655 328.342 44.815 329.076Q45.5646 329.809 46.3494 330.505C47.6964 331.712 49.0966 332.779 50.5959 333.788ZM426.6 341.192C442.163 341.587 454.47 341.011 466.441 329.59Q466.84 329.213 467.226 328.823C475.415 320.473 480.099 309.94 479.933 298.128Q479.919 297.072 479.853 296.018Q479.786 294.964 479.668 293.914Q479.549 292.864 479.378 291.822Q479.208 290.78 478.986 289.747Q478.764 288.714 478.491 287.694Q478.218 286.674 477.895 285.668Q477.571 284.662 477.199 283.674Q476.826 282.686 476.404 281.717Q475.983 280.749 475.514 279.802Q475.045 278.856 474.53 277.934Q474.015 277.011 473.455 276.116Q472.894 275.221 472.29 274.354Q471.686 273.488 471.04 272.652Q470.394 271.817 469.707 271.014Q469.02 270.212 468.294 269.445Q467.568 268.677 466.805 267.947C458.734 260.151 448.764 256.503 437.662 256.144C434.054 256.027 430.278 256.435 426.713 256.013C426.498 263.453 426.658 270.937 426.662 278.381L426.673 318.215C426.674 325.809 427.062 333.619 426.6 341.192ZM224.008 463.949L261.986 463.976C265.823 463.978 274.012 464.503 277.245 463.915L277.318 442.852L240.05 442.821C236.706 442.825 226.708 443.382 224.105 442.616C223.807 449.711 224.068 456.847 224.008 463.949Z"/>
</svg>
