<svg width="64" height="64" viewBox="0 0 64 64" fill="none" xmlns="http://www.w3.org/2000/svg">
<path d="M52.2738 21.1058C52.3696 21.0998 52.4655 21.096 52.5615 21.0944C53.5447 21.081 54.5297 21.0935 55.513 21.0929C56.308 21.0924 57.3754 21.0041 58.1298 21.1923C58.2515 21.2236 58.3706 21.2629 58.487 21.3101C58.6035 21.3574 58.7164 21.4122 58.8255 21.4745C58.9347 21.5368 59.0392 21.6061 59.139 21.6824C59.239 21.7587 59.3333 21.8413 59.4222 21.9303C59.8689 22.3738 60.1399 22.9389 60.2173 23.5631C60.2709 23.9959 60.2522 24.4403 60.2518 24.8758L60.2495 26.8189V33.2946L60.2503 55.2281C60.8305 55.2024 62.1809 55.1244 62.6193 55.4663C62.8218 55.6241 62.8999 55.8295 62.9249 56.0799C62.9283 56.1106 62.9302 56.1415 62.9305 56.1724C62.9308 56.2033 62.9296 56.2342 62.9269 56.265C62.9242 56.2958 62.9199 56.3265 62.914 56.3569C62.9083 56.3872 62.901 56.4172 62.8923 56.4469C62.8835 56.4766 62.8732 56.5057 62.8615 56.5344C62.85 56.5631 62.8369 56.5911 62.8224 56.6184C62.808 56.6457 62.7922 56.6723 62.7752 56.6981C62.7581 56.7239 62.7397 56.7488 62.7202 56.7728C62.506 57.0311 62.2779 57.0913 61.9594 57.114C61.3263 57.1593 60.6735 57.1286 60.0384 57.1288L56.5875 57.1285L45.7209 57.1281L11.9108 57.1279L5.17831 57.1284L3.13991 57.1305C2.72991 57.1308 2.30264 57.1529 1.89547 57.1039C1.68156 57.0781 1.50549 57.0243 1.34344 56.8754C1.14903 56.697 1.0451 56.4391 1.04541 56.1766C1.0457 55.9336 1.13844 55.6916 1.31226 55.52C1.7642 55.0736 3.1421 55.2258 3.75555 55.2323C3.73476 54.1634 3.75834 53.0884 3.75874 52.0186L3.75979 46.7335C3.76557 45.8215 3.94687 45.0425 4.62129 44.3854C4.70715 44.302 4.79818 44.2246 4.89436 44.1534C4.99054 44.0821 5.09104 44.0176 5.19584 43.9598C5.30064 43.9019 5.40881 43.8513 5.52037 43.8079C5.63194 43.7645 5.74589 43.7287 5.86222 43.7005C6.66344 43.5069 7.86591 43.6031 8.7203 43.6044C9.63574 43.6058 10.555 43.5813 11.47 43.6029C12.3301 43.6234 13.078 43.8715 13.6778 44.5116C14.0135 44.87 14.2499 45.3046 14.3467 45.7868C14.4635 46.3694 14.4302 46.979 14.4304 47.5708L14.4302 49.664C14.4293 51.5105 14.483 53.3711 14.4237 55.2154C15.964 55.2491 17.5153 55.1711 19.0528 55.2426C18.9985 54.6958 19.05 54.0985 19.0504 53.5458L19.0519 49.8905L19.052 37.0343L19.0512 32.8699C19.0507 32.094 19.0318 31.3129 19.0559 30.5375C19.0815 29.7111 19.3448 28.9695 19.9614 28.3958C20.0505 28.3138 20.1446 28.2383 20.2438 28.169C20.343 28.0998 20.4464 28.0374 20.5539 27.982C20.6615 27.9267 20.7723 27.8787 20.8863 27.8381C21.0003 27.7976 21.1165 27.7649 21.2349 27.74C21.9808 27.5758 23.0097 27.6655 23.7874 27.6644C24.8007 27.663 25.8243 27.629 26.8364 27.6646C27.6433 27.693 28.4008 27.9654 28.9559 28.5718C29.0046 28.6245 29.0511 28.6791 29.0955 28.7354C29.14 28.7917 29.1821 28.8497 29.222 28.9093C29.262 28.9688 29.2996 29.0299 29.3348 29.0924C29.37 29.1549 29.4028 29.2187 29.433 29.2838C29.4633 29.3488 29.491 29.415 29.516 29.4821C29.5412 29.5494 29.5637 29.6175 29.5835 29.6864C29.6034 29.7553 29.6205 29.8249 29.6349 29.8953C29.6494 29.9655 29.6611 30.0362 29.67 30.1074C29.7203 30.5315 29.7027 30.9675 29.7024 31.394L29.6999 33.2416L29.6998 39.3939L29.7007 49.7911L29.7027 53.1776C29.703 53.8533 29.7202 54.5331 29.6904 55.2079C31.2305 55.2416 32.7725 55.1875 34.3122 55.2289L34.3205 43.1565C34.3203 41.4869 34.2762 39.8044 34.3208 38.1361C34.3447 37.2404 34.5934 36.4869 35.2624 35.8645C35.6127 35.5385 36.0793 35.3234 36.5452 35.2269C37.3009 35.0704 38.5678 35.1566 39.3882 35.1579C40.2982 35.1593 41.2195 35.1226 42.1282 35.1595C42.9448 35.1926 43.6818 35.47 44.2407 36.0834C44.2858 36.1324 44.3291 36.183 44.3705 36.2351C44.412 36.2873 44.4515 36.3409 44.489 36.3959C44.5265 36.451 44.562 36.5073 44.5954 36.565C44.6288 36.6227 44.6601 36.6815 44.6892 36.7414C44.7182 36.8014 44.7451 36.8623 44.7697 36.9243C44.7942 36.9862 44.8166 37.0489 44.8367 37.1124C44.8567 37.176 44.8743 37.2402 44.8895 37.305C44.9049 37.3698 44.9178 37.4352 44.9283 37.501C45.0424 38.2603 44.9739 39.0904 44.9737 39.8586L44.9735 44.1294L44.9743 51.3875C44.9749 52.6611 45.0275 53.9535 44.9647 55.2245L49.5962 55.2316L49.6042 33.1163L49.6039 26.8163L49.603 24.9393C49.6025 24.4924 49.5853 24.0371 49.6332 23.5925C49.6932 23.0356 49.8853 22.5539 50.2422 22.1186C50.7722 21.4724 51.4553 21.1831 52.2738 21.1058ZM51.4508 55.2235L57.7575 55.2281L58.364 55.2309L58.3692 34.45L58.369 27.4526L58.371 25.226C58.3713 24.7969 58.3873 24.36 58.3564 23.9321C58.3385 23.6841 58.2759 23.4319 58.0925 23.2525C57.9623 23.1251 57.787 23.043 57.6075 23.016C56.9965 22.924 56.2468 22.9863 55.6202 22.9868C54.5134 22.9876 53.399 22.9573 52.2937 23.0026C52.2438 23.0046 52.1949 23.0083 52.1453 23.0136C51.891 23.109 51.6692 23.2569 51.5559 23.514C51.4889 23.6661 51.4745 23.8569 51.4648 24.022C51.4288 24.6286 51.4605 25.2508 51.4619 25.8588L51.4615 29.1505L51.461 46.766L51.4615 52.3625C51.4619 53.3051 51.5179 54.2844 51.4508 55.2235ZM6.35786 45.5148C6.09505 45.5988 5.87327 45.7344 5.7414 45.9854C5.66085 46.1388 5.65006 46.3314 5.64012 46.502C5.57859 47.5589 5.62991 48.6481 5.62992 49.7093L5.63237 55.229C6.3266 55.2021 7.02842 55.2276 7.72374 55.2279L11.8826 55.2285C12.0992 55.2306 12.3181 55.2266 12.5342 55.241L12.532 55.2051C12.494 54.5023 12.5357 53.7761 12.5358 53.0704V48.5655C12.5363 47.8826 12.6107 46.8475 12.4994 46.2169C12.4637 46.0148 12.3548 45.8441 12.2019 45.7089C12.0514 45.5756 11.8648 45.5376 11.6701 45.5124C10.9802 45.4231 10.0543 45.4853 9.34009 45.4854C8.39297 45.4856 7.34096 45.4271 6.41087 45.5098L6.35786 45.5148ZM43.0825 55.2239C43.1173 53.8171 43.098 52.4071 43.0979 50.9999L43.0978 44.0181L43.0992 40.0626C43.0997 39.3646 43.1473 38.6245 43.0774 37.9309C43.0529 37.6876 42.9763 37.4773 42.8059 37.2973C42.6692 37.1529 42.4608 37.1049 42.27 37.0759C41.744 36.9956 41.1664 37.0415 40.6334 37.0418L37.6247 37.0455C37.5882 37.0455 37.5517 37.0458 37.5152 37.0465C37.136 37.0548 36.7175 37.0315 36.4374 37.3375C36.2858 37.5033 36.2303 37.6839 36.2085 37.9018C36.1534 38.4531 36.187 39.0304 36.187 39.5849L36.1872 42.6943L36.1894 50.9138C36.1899 52.3408 36.229 53.78 36.1827 55.2059C38.0604 55.2433 39.9419 55.2203 41.82 55.2189C42.2404 55.22 42.6624 55.2135 43.0825 55.2239ZM20.8932 55.2224L26.5467 55.2281C26.9655 55.2289 27.3914 55.2149 27.8092 55.2424L27.8068 55.2019C27.7728 54.5389 27.8068 53.8599 27.8072 53.1953L27.8079 49.1084L27.807 36.5841L27.8093 32.4893C27.8097 31.7919 27.8632 31.0521 27.787 30.3616C27.7645 30.1584 27.6718 29.9194 27.5114 29.7844C27.3622 29.6589 27.1303 29.5981 26.9413 29.5724C26.347 29.4914 25.6908 29.5418 25.0902 29.5429C24.1363 29.5448 23.1807 29.5318 22.227 29.5469C21.848 29.5574 21.4348 29.5371 21.157 29.8445C21.016 30.0004 20.9357 30.2015 20.9168 30.4091C20.8522 31.1234 20.8999 31.8776 20.9003 32.5959L20.9018 36.868L20.902 49.016L20.9019 52.9988C20.9019 53.7384 20.9219 54.4836 20.8932 55.2224Z" fill="#915DC2"/>
<path d="M54.6135 6.918C54.7087 6.90722 54.81 6.90104 54.906 6.90554C55.1728 6.91806 55.4254 7.00526 55.601 7.21467C55.83 7.4876 55.845 7.84187 55.8148 8.18014C55.7692 8.6907 55.6743 9.20402 55.6004 9.71146L55.2815 11.9967L55.038 13.7487C54.9909 14.0857 54.9637 14.4466 54.8692 14.7741C54.8099 14.9795 54.7115 15.1363 54.5428 15.27C54.3427 15.4283 54.0742 15.5246 53.8177 15.4848C53.6029 15.4515 53.3145 15.2561 53.1899 15.0791C53.1003 14.9517 53.0563 14.7963 53.0479 14.642C53.0212 14.1451 53.1522 13.5923 53.2223 13.0987C53.3289 12.2999 53.4441 11.5022 53.5678 10.7058C52.9193 11.3762 52.3025 12.0821 51.6753 12.7728L48.481 16.2882L45.5113 19.5547C44.8743 20.2542 44.2219 20.9455 43.6107 21.6673C43.8515 21.9886 44.0517 22.3334 44.2113 22.7017C44.243 22.7754 44.2729 22.8498 44.3009 22.9248C44.329 23 44.3552 23.0758 44.3795 23.1522C44.4039 23.2286 44.4264 23.3056 44.4469 23.3831C44.4675 23.4606 44.4862 23.5385 44.5029 23.617C44.5197 23.6954 44.5345 23.7742 44.5474 23.8533C44.5602 23.9325 44.5712 24.0119 44.5802 24.0916C44.5892 24.1713 44.5962 24.2512 44.6013 24.3312C44.6064 24.4113 44.6094 24.4914 44.6105 24.5716C44.6117 24.6518 44.6109 24.7319 44.608 24.8121C44.6053 24.8923 44.6005 24.9723 44.5938 25.0522C44.587 25.1321 44.5784 25.2118 44.5678 25.2912C44.5571 25.3707 44.5445 25.4499 44.53 25.5288C44.5155 25.6077 44.4991 25.6861 44.4807 25.7642C44.4623 25.8423 44.4421 25.9199 44.4199 25.997C44.3977 26.074 44.3737 26.1504 44.3478 26.2263C44.3218 26.3023 44.294 26.3775 44.2644 26.452C44.2333 26.5296 44.2003 26.6065 44.1654 26.6826C44.1305 26.7587 44.0937 26.8338 44.055 26.908C44.0164 26.9822 43.976 27.0555 43.9338 27.1277C43.8914 27.2 43.8474 27.2711 43.8017 27.3412C43.7559 27.4112 43.7084 27.4801 43.6593 27.5478C43.61 27.6155 43.5592 27.682 43.5068 27.7472C43.4543 27.8124 43.4002 27.8762 43.3445 27.9387C43.2889 28.0012 43.2318 28.0623 43.1732 28.1221C43.1145 28.1818 43.0544 28.24 42.9929 28.2967C42.9313 28.3534 42.8684 28.4085 42.8042 28.4622C42.7399 28.5158 42.6744 28.5678 42.6075 28.6181C42.5407 28.6684 42.4727 28.7171 42.4034 28.7641C42.3342 28.8111 42.2638 28.8563 42.1923 28.8998C42.1208 28.9434 42.0483 28.9852 41.9748 29.0251C41.9012 29.065 41.8267 29.1031 41.7513 29.1393C41.6759 29.1755 41.5996 29.2098 41.5224 29.2423C41.4481 29.2733 41.373 29.3024 41.2973 29.3297C41.2215 29.357 41.1452 29.3823 41.0682 29.4058C40.9912 29.4294 40.9136 29.451 40.8355 29.4707C40.7574 29.4905 40.6789 29.5083 40.6 29.5241C40.521 29.5399 40.4417 29.5538 40.3622 29.5658C40.2825 29.5778 40.2026 29.5878 40.1225 29.5958C40.0424 29.6039 39.9622 29.61 39.8818 29.6141C39.8014 29.6182 39.7209 29.6203 39.6403 29.6205C39.5598 29.6206 39.4793 29.6188 39.3989 29.615C39.3185 29.6112 39.2382 29.6055 39.158 29.5977C39.0779 29.59 38.9979 29.5803 38.9183 29.5686C38.8386 29.5569 38.7593 29.5433 38.6803 29.5278C38.6013 29.5123 38.5227 29.4948 38.4445 29.4753C38.3664 29.4559 38.2888 29.4346 38.2117 29.4113C38.1346 29.3882 38.0581 29.3631 37.9823 29.3361C37.9064 29.3091 37.8312 29.2803 37.7568 29.2496C37.6803 29.2183 37.6046 29.1851 37.5298 29.1501C37.4549 29.115 37.381 29.0781 37.3079 29.0395C37.2349 29.0008 37.1629 28.9603 37.0918 28.9181C37.0208 28.8758 36.9508 28.8319 36.8819 28.7862C36.8131 28.7405 36.7454 28.6932 36.6789 28.6441C36.6123 28.5951 36.547 28.5445 36.483 28.4922C36.419 28.4399 36.3563 28.386 36.2949 28.3307C36.2336 28.2754 36.1736 28.2185 36.115 28.1602C36.0564 28.1019 35.9994 28.0422 35.9438 27.9811C35.8881 27.9199 35.834 27.8575 35.7815 27.7937C35.7289 27.7299 35.678 27.6648 35.6287 27.5985C35.5793 27.5321 35.5317 27.4646 35.4858 27.396C35.4398 27.3273 35.3955 27.2575 35.3529 27.1867C35.3103 27.1159 35.2695 27.044 35.2305 26.9711C35.1915 26.8983 35.1544 26.8245 35.119 26.7498C35.0837 26.6751 35.0502 26.5995 35.0185 26.5232C34.4575 25.1573 34.5915 23.8032 35.1533 22.4693L30.3375 18.8931C29.4644 18.2456 28.5994 17.581 27.7103 16.9557C27.633 17.0262 27.5537 17.0943 27.4723 17.16C27.3909 17.2256 27.3077 17.2888 27.2224 17.3495C27.1372 17.41 27.0503 17.468 26.9615 17.5235C26.8729 17.5789 26.7826 17.6315 26.6907 17.6815C26.5987 17.7314 26.5054 17.7785 26.4107 17.8227C26.3159 17.867 26.2199 17.9085 26.1227 17.947C26.0254 17.9854 25.9271 18.0209 25.8278 18.0535C25.7284 18.086 25.6281 18.1155 25.5269 18.142C24.1079 18.5003 22.784 18.1545 21.554 17.429C20.8349 18.0825 20.1619 18.813 19.4754 19.5017L15.4469 23.5458C14.6953 24.3018 13.958 25.0845 13.1807 25.813C13.518 26.4917 13.858 27.0515 13.9892 27.814C14.0036 27.8953 14.0159 27.9769 14.0263 28.0587C14.0366 28.1406 14.0449 28.2228 14.0513 28.3051C14.0575 28.3874 14.0617 28.4699 14.0638 28.5525C14.0659 28.635 14.066 28.7175 14.064 28.8001C14.0621 28.8826 14.0581 28.965 14.0519 29.0473C14.0458 29.1297 14.0377 29.2118 14.0275 29.2938C14.0174 29.3758 14.0052 29.4574 13.9909 29.5387C13.9767 29.62 13.9604 29.7009 13.942 29.7815C13.9237 29.862 13.9034 29.942 13.8812 30.0215C13.8589 30.101 13.8347 30.1798 13.8084 30.2581C13.7822 30.3364 13.754 30.414 13.7239 30.4908C13.6938 30.5678 13.6618 30.6438 13.6279 30.7191C13.594 30.7944 13.5582 30.8688 13.5207 30.9423C13.4831 31.0158 13.4437 31.0883 13.4024 31.1598C13.3612 31.2314 13.3182 31.3019 13.2735 31.3712C13.2288 31.4406 13.1823 31.5089 13.1342 31.576C12.3723 32.6347 11.1885 33.4032 9.89413 33.6063C8.62868 33.805 7.2773 33.525 6.23404 32.7681C6.17633 32.7282 6.1195 32.687 6.06354 32.6446C6.00759 32.6023 5.95257 32.5588 5.89848 32.5141C5.84439 32.4693 5.79129 32.4235 5.73915 32.3765C5.68702 32.3295 5.63592 32.2814 5.58585 32.2322C5.53578 32.183 5.48677 32.1328 5.43884 32.0816C5.39091 32.0303 5.34411 31.9781 5.29841 31.9248C5.25272 31.8715 5.20819 31.8173 5.16481 31.7621C5.12144 31.7069 5.07926 31.6509 5.03829 31.594C4.99731 31.537 4.95758 31.4791 4.91908 31.4205C4.88057 31.3618 4.84334 31.3023 4.80738 31.2421C4.77142 31.1818 4.73676 31.1207 4.7034 31.059C4.67005 30.9972 4.63804 30.9348 4.60735 30.8717C4.57667 30.8086 4.54735 30.7449 4.51939 30.6805C4.49144 30.6161 4.46487 30.5512 4.43969 30.4857C4.41451 30.4202 4.39074 30.3542 4.36838 30.2876C4.34602 30.2211 4.32509 30.1541 4.3056 30.0867C4.28325 30.0075 4.26284 29.9278 4.24438 29.8476C4.2259 29.7674 4.20939 29.6868 4.19483 29.6058C4.18027 29.5248 4.16769 29.4435 4.15709 29.362C4.14649 29.2803 4.13787 29.1985 4.13124 29.1165C4.12461 29.0345 4.11999 28.9523 4.11735 28.8701C4.11472 28.7878 4.11408 28.7055 4.11544 28.6232C4.11681 28.541 4.12017 28.4588 4.12553 28.3766C4.13089 28.2945 4.13824 28.2126 4.14758 28.1308C4.15692 28.0491 4.16824 27.9676 4.18155 27.8863C4.19485 27.8052 4.21012 27.7243 4.22735 27.6438C4.24459 27.5633 4.26376 27.4833 4.28488 27.4038C4.306 27.3243 4.32904 27.2453 4.354 27.1668C4.37896 27.0884 4.40581 27.0107 4.43455 26.9336C4.46329 26.8565 4.49388 26.7801 4.52634 26.7045C4.55879 26.6288 4.59306 26.554 4.62914 26.4801C4.66523 26.4061 4.70309 26.333 4.74273 26.261C4.7821 26.189 4.82326 26.118 4.86619 26.0482C4.90912 25.9783 4.95378 25.9095 5.00016 25.8418C5.04655 25.7742 5.0946 25.7077 5.14431 25.6425C5.19403 25.5772 5.24535 25.5133 5.29828 25.4506C5.3512 25.3879 5.40566 25.3266 5.46166 25.2666C5.51766 25.2067 5.57514 25.1482 5.63408 25.0911C5.69301 25.0341 5.75334 24.9785 5.81506 24.9245C5.87678 24.8705 5.93982 24.818 6.00418 24.7671C6.06853 24.7163 6.13411 24.667 6.20094 24.6195C6.26776 24.5719 6.33574 24.526 6.40486 24.4818C6.47398 24.4377 6.54417 24.3953 6.61543 24.3546C6.68668 24.3139 6.7589 24.2751 6.8321 24.2381C6.9053 24.201 6.97939 24.1658 7.05435 24.1326C7.12931 24.0993 7.20506 24.0678 7.2816 24.0383C7.35814 24.0088 7.43538 23.9813 7.5133 23.9556C7.59123 23.9299 7.66974 23.9063 7.74885 23.8846C9.2562 23.4686 10.521 23.7778 11.8531 24.5251C12.4641 23.8326 13.1653 23.1915 13.8183 22.5373L18.0589 18.2897C18.7839 17.5632 19.5507 16.8536 20.2375 16.0927C20.0338 15.7965 19.8662 15.4811 19.7349 15.1465C19.7051 15.0705 19.6771 14.994 19.6509 14.9167C19.6248 14.8395 19.6006 14.7616 19.5783 14.6832C19.556 14.6047 19.5357 14.5258 19.5172 14.4463C19.4987 14.3669 19.4822 14.2871 19.4677 14.2068C19.4532 14.1266 19.4406 14.046 19.4299 13.9651C19.4193 13.8843 19.4107 13.8032 19.404 13.7218C19.3974 13.6406 19.3927 13.5592 19.39 13.4777C19.3873 13.3962 19.3866 13.3147 19.3879 13.2331C19.3892 13.1516 19.3925 13.0701 19.3978 12.9887C19.403 12.9073 19.4103 12.8261 19.4195 12.7451C19.4288 12.6641 19.44 12.5833 19.4532 12.5028C19.4663 12.4223 19.4814 12.3422 19.4985 12.2625C19.5157 12.1827 19.5347 12.1034 19.5557 12.0246C19.5767 11.9458 19.5995 11.8675 19.6243 11.7898C19.6491 11.7121 19.6758 11.6351 19.7043 11.5587C19.7329 11.4823 19.7633 11.4067 19.7955 11.3317C20.3343 10.098 21.3094 9.13754 22.57 8.65517C22.6467 8.62554 22.724 8.59783 22.802 8.57204C22.8801 8.54624 22.9587 8.5224 23.0379 8.5005C23.1172 8.47861 23.1969 8.45869 23.277 8.44075C23.3573 8.42281 23.4379 8.40687 23.5189 8.39292C23.5999 8.37897 23.6812 8.36704 23.7628 8.35714C23.8444 8.34722 23.9261 8.33934 24.008 8.33349C24.09 8.32763 24.1721 8.32381 24.2543 8.32202C24.3364 8.32023 24.4186 8.32048 24.5008 8.32277C24.5829 8.32507 24.665 8.32939 24.7469 8.33575C24.8288 8.34211 24.9106 8.35049 24.9922 8.3609C25.0737 8.37132 25.1549 8.38374 25.2358 8.39817C25.3167 8.41262 25.3972 8.42905 25.4773 8.44749C25.5574 8.46592 25.6369 8.48633 25.716 8.50871C25.7951 8.53109 25.8736 8.55541 25.9514 8.58169C26.0293 8.60796 26.1065 8.63615 26.183 8.66625C26.2594 8.69635 26.3351 8.72832 26.41 8.76217C26.4845 8.79582 26.5582 8.83126 26.6309 8.8685C26.7037 8.90575 26.7755 8.94475 26.8464 8.98551C26.9172 9.02628 26.987 9.06875 27.0558 9.11294C27.1246 9.15712 27.1923 9.20296 27.2588 9.25046C27.3253 9.29796 27.3906 9.34706 27.4548 9.39776C27.5189 9.44846 27.5817 9.5007 27.6433 9.55447C27.7049 9.60825 27.7651 9.6635 27.8239 9.72024C27.8828 9.77696 27.9403 9.8351 27.9963 9.89464C28.0523 9.95418 28.1068 10.0151 28.1598 10.0773C28.2129 10.1395 28.2644 10.203 28.3143 10.2677C28.3642 10.3324 28.4125 10.3983 28.4592 10.4654C28.5058 10.5325 28.5508 10.6007 28.5942 10.67C28.6376 10.7393 28.6792 10.8097 28.719 10.881C28.7589 10.9524 28.7971 11.0246 28.8335 11.0978C28.8699 11.1711 28.9044 11.2451 28.9372 11.32C28.9699 11.3949 29.0008 11.4706 29.0298 11.547C29.5167 12.8505 29.4179 14.2078 28.8422 15.462C29.5274 15.9326 30.1872 16.4497 30.855 16.9453L34.1947 19.4217C34.6998 19.7985 35.8097 20.7086 36.3133 20.9492C36.8473 20.466 37.4496 20.1022 38.1374 19.8828C39.6243 19.4083 40.8927 19.6886 42.2438 20.3822C42.7083 19.8092 43.2367 19.2793 43.7292 18.7307L47.2192 14.888L50.8725 10.8633C51.4125 10.2746 51.9378 9.67592 52.4984 9.10619C51.5777 9.24884 50.6558 9.3831 49.7327 9.50897C49.2214 9.58156 48.6263 9.72549 48.111 9.6993C47.9532 9.69127 47.7948 9.63017 47.6637 9.54324C47.6384 9.5266 47.6141 9.50869 47.5907 9.48952C47.5672 9.47037 47.5449 9.45005 47.5235 9.42856C47.5022 9.40708 47.482 9.38455 47.463 9.36099C47.444 9.33741 47.4263 9.31292 47.4099 9.28752C47.3934 9.26212 47.3783 9.23593 47.3647 9.20896C47.3509 9.18199 47.3386 9.15439 47.3277 9.12614C47.3168 9.0979 47.3074 9.06917 47.2995 9.03995C47.2916 9.01073 47.2852 8.98119 47.2804 8.95131C47.2369 8.6933 47.2878 8.39845 47.4507 8.18979C47.5792 8.0252 47.7335 7.93087 47.9313 7.87136C48.4717 7.7087 49.533 7.62885 50.1363 7.54395C51.6269 7.33415 53.119 7.09477 54.6135 6.918ZM39.8285 27.7291C39.8791 27.7259 39.9296 27.7215 39.9799 27.716C40.0302 27.7104 40.0804 27.7035 40.1304 27.6955C40.1804 27.6875 40.2302 27.6782 40.2798 27.6677C40.3293 27.6572 40.3785 27.6455 40.4275 27.6326C40.4765 27.6197 40.5252 27.6056 40.5734 27.5903C40.6217 27.5751 40.6697 27.5586 40.7172 27.541C40.7646 27.5234 40.8116 27.5046 40.8582 27.4846C40.9047 27.4647 40.9508 27.4436 40.9964 27.4215C41.0419 27.3993 41.0869 27.376 41.1313 27.3516C41.1756 27.3273 41.2194 27.3018 41.2625 27.2752C41.3057 27.2487 41.3482 27.2212 41.39 27.1926C41.4318 27.1639 41.4728 27.1343 41.5132 27.1037C41.5536 27.0731 41.5932 27.0415 41.6319 27.009C41.6707 26.9764 41.7087 26.9429 41.7459 26.9085C41.7831 26.874 41.8194 26.8388 41.8548 26.8026C41.8902 26.7664 41.9247 26.7294 41.9584 26.6915C41.992 26.6536 42.0247 26.615 42.0564 26.5755C42.0882 26.536 42.1189 26.4957 42.1487 26.4547C42.1784 26.4138 42.2072 26.3721 42.2349 26.3297C42.2626 26.2873 42.2893 26.2443 42.3149 26.2006C42.3405 26.1568 42.365 26.1125 42.3885 26.0677C42.4119 26.0228 42.4343 25.9773 42.4555 25.9313C42.4767 25.8853 42.4968 25.8388 42.5158 25.7918C42.5347 25.7449 42.5525 25.6975 42.5692 25.6496C42.5857 25.6018 42.6012 25.5535 42.6154 25.505C42.6297 25.4564 42.6427 25.4075 42.6547 25.3582C42.6665 25.309 42.6772 25.2595 42.6867 25.2097C42.6961 25.16 42.7043 25.11 42.7113 25.0598C42.7183 25.0097 42.7241 24.9593 42.7287 24.9088C42.7332 24.8584 42.7364 24.8079 42.7385 24.7573C42.7406 24.7067 42.7414 24.656 42.741 24.6055C42.7406 24.5548 42.7389 24.5042 42.736 24.4536C42.7331 24.403 42.729 24.3525 42.7237 24.3022C42.7183 24.2518 42.7117 24.2016 42.7039 24.1516C42.6961 24.1015 42.687 24.0517 42.6768 24.0021C42.6665 23.9525 42.6551 23.9032 42.6424 23.8541C42.6297 23.8051 42.6158 23.7564 42.6008 23.708C42.5857 23.6596 42.5694 23.6117 42.552 23.5641C42.5346 23.5165 42.5161 23.4694 42.4964 23.4227C42.4767 23.376 42.4558 23.3299 42.4339 23.2843C42.4119 23.2387 42.3888 23.1936 42.3647 23.1491C42.3405 23.1046 42.3152 23.0607 42.2889 23.0173C42.2626 22.9741 42.2352 22.9315 42.2068 22.8896C42.1784 22.8477 42.1489 22.8065 42.1185 22.766C42.088 22.7255 42.0566 22.6857 42.0243 22.6467C41.9919 22.6078 41.9586 22.5697 41.9244 22.5323C41.8902 22.495 41.855 22.4585 41.8189 22.423C41.7829 22.3873 41.746 22.3526 41.7083 22.3188C41.6706 22.285 41.6321 22.2521 41.5928 22.2202C41.5534 22.1883 41.5132 22.1574 41.4724 22.1275C41.4316 22.0975 41.39 22.0685 41.3478 22.0406C41.3055 22.0127 41.2626 21.9858 41.219 21.96C41.1754 21.9342 41.1312 21.9095 41.0864 21.8858C41.0417 21.8622 40.9963 21.8396 40.9504 21.8182C40.9045 21.7968 40.8581 21.7765 40.8113 21.7573C40.7644 21.7382 40.717 21.7201 40.6693 21.7032C40.6214 21.6864 40.5733 21.6707 40.5248 21.6562C40.4763 21.6418 40.4274 21.6285 40.3782 21.6163C40.329 21.6043 40.2795 21.5934 40.2298 21.5837C40.1801 21.574 40.1302 21.5656 40.08 21.5583C40.0299 21.5511 39.9796 21.5451 39.9292 21.5403C39.8787 21.5356 39.8282 21.532 39.7777 21.5297C39.7271 21.5275 39.6764 21.5264 39.6258 21.5266C39.5751 21.5268 39.5245 21.5282 39.4739 21.5308C39.423 21.5335 39.3722 21.5374 39.3215 21.5426C39.2709 21.5478 39.2203 21.5542 39.1699 21.5618C39.1196 21.5695 39.0694 21.5784 39.0195 21.5886C38.9695 21.5987 38.9199 21.61 38.8705 21.6226C38.8211 21.6352 38.7721 21.649 38.7234 21.664C38.6747 21.679 38.6264 21.6951 38.5785 21.7125C38.5306 21.7299 38.4832 21.7484 38.4362 21.7681C38.3892 21.7878 38.3427 21.8087 38.2968 21.8307C38.2508 21.8527 38.2054 21.8758 38.1605 21.9C38.1157 21.9242 38.0715 21.9495 38.0279 21.976C37.9843 22.0024 37.9414 22.0298 37.8993 22.0583C37.857 22.0868 37.8155 22.1164 37.7748 22.147C37.734 22.1775 37.694 22.2091 37.6548 22.2416C37.6155 22.2742 37.5771 22.3077 37.5395 22.3421C37.502 22.3765 37.4654 22.4118 37.4295 22.4481C37.3937 22.4843 37.3588 22.5213 37.3248 22.5593C37.2908 22.5973 37.2577 22.636 37.2257 22.6756C37.1935 22.7152 37.1624 22.7555 37.1323 22.7966C37.1022 22.8378 37.0731 22.8796 37.045 22.9221C37.017 22.9647 36.9901 23.0079 36.9642 23.0517C36.9382 23.0956 36.9134 23.1401 36.8897 23.1852C36.8659 23.2303 36.8433 23.2759 36.8218 23.3221C36.8004 23.3683 36.78 23.415 36.7608 23.4622C36.7416 23.5095 36.7236 23.5571 36.7068 23.6052C36.6899 23.6533 36.6743 23.7018 36.6599 23.7506C36.6454 23.7994 36.6322 23.8486 36.6202 23.8982C36.6082 23.9477 36.5974 23.9975 36.5878 24.0475C36.5782 24.0975 36.5699 24.1478 36.5628 24.1982C36.5557 24.2487 36.5498 24.2993 36.5452 24.3501C36.5406 24.4008 36.5372 24.4517 36.5352 24.5026C36.533 24.5535 36.5321 24.6044 36.5325 24.6553C36.5329 24.7063 36.5346 24.7573 36.5375 24.8081C36.5404 24.8589 36.5446 24.9097 36.55 24.9603C36.5554 25.011 36.5621 25.0615 36.57 25.112C36.5779 25.1623 36.587 25.2124 36.5974 25.2622C36.6077 25.3121 36.6193 25.3618 36.6322 25.4111C36.645 25.4604 36.659 25.5094 36.6742 25.558C36.6894 25.6066 36.7058 25.6548 36.7234 25.7026C36.741 25.7504 36.7597 25.7978 36.7797 25.8447C36.7996 25.8916 36.8207 25.938 36.8429 25.9838C36.8651 26.0297 36.8884 26.075 36.9129 26.1197C36.9373 26.1645 36.9628 26.2085 36.9894 26.252C37.0161 26.2954 37.0437 26.3382 37.0724 26.3803C37.1012 26.4224 37.1309 26.4638 37.1617 26.5043C37.1924 26.545 37.2241 26.5848 37.2568 26.6238C37.2895 26.6629 37.3232 26.7012 37.3578 26.7386C37.3924 26.776 37.4279 26.8125 37.4643 26.8482C37.5007 26.8839 37.5379 26.9186 37.576 26.9525C37.6142 26.9863 37.6531 27.0191 37.6928 27.051C37.7325 27.0829 37.773 27.1138 37.8143 27.1437C37.8555 27.1736 37.8975 27.2025 37.9402 27.2303C37.9828 27.2583 38.0262 27.285 38.0702 27.3107C38.1142 27.3365 38.1587 27.3611 38.2039 27.3846C38.2492 27.4081 38.2949 27.4305 38.3413 27.4517C38.3875 27.473 38.4343 27.4932 38.4817 27.5121C38.5289 27.5311 38.5766 27.5489 38.6248 27.5655C38.6729 27.582 38.7215 27.5975 38.7705 27.6117C38.8194 27.626 38.8687 27.639 38.9183 27.6507C38.9678 27.6625 39.0176 27.6731 39.0677 27.6825C39.1178 27.6918 39.1681 27.6999 39.2185 27.7067C39.269 27.7135 39.3197 27.7192 39.3705 27.7236C39.4213 27.7279 39.4721 27.731 39.523 27.733C39.5739 27.7348 39.6249 27.7354 39.6758 27.7347C39.7268 27.7341 39.7777 27.7323 39.8285 27.7291ZM9.07828 31.7892C9.129 31.7893 9.1797 31.7881 9.23036 31.7857C9.28104 31.7833 9.33162 31.7796 9.3821 31.7747C9.43259 31.7699 9.48294 31.7638 9.53313 31.7563C9.58332 31.749 9.6333 31.7404 9.68306 31.7306C9.73284 31.7208 9.78234 31.7098 9.83156 31.6976C9.8808 31.6853 9.9297 31.6719 9.97826 31.6572C10.0268 31.6426 10.075 31.6268 10.1228 31.6098C10.1706 31.5928 10.218 31.5747 10.2649 31.5553C10.3118 31.536 10.3582 31.5155 10.4041 31.494C10.45 31.4724 10.4953 31.4497 10.5401 31.4258C10.5849 31.4021 10.6291 31.3772 10.6727 31.3512C10.7162 31.3252 10.7591 31.2982 10.8014 31.2701C10.8436 31.242 10.8851 31.2129 10.926 31.1828C10.9668 31.1527 11.0068 31.1215 11.0461 31.0895C11.0854 31.0574 11.1239 31.0244 11.1616 30.9905C11.1992 30.9565 11.2361 30.9216 11.272 30.8858C11.308 30.85 11.343 30.8134 11.3772 30.776C11.4114 30.7385 11.4446 30.7001 11.4769 30.661C11.5092 30.6219 11.5405 30.582 11.5708 30.5413C11.6012 30.5007 11.6305 30.4593 11.6588 30.4172C11.6871 30.3751 11.7144 30.3323 11.7406 30.2888C11.7668 30.2454 11.7919 30.2014 11.8159 30.1567C11.84 30.112 11.8629 30.0668 11.8848 30.0211C11.9066 29.9753 11.9273 29.929 11.9469 29.8822C11.9664 29.8354 11.9848 29.7881 12.0021 29.7405C12.0193 29.6927 12.0354 29.6446 12.0503 29.5961C12.0651 29.5476 12.0788 29.4988 12.0913 29.4496C12.1038 29.4004 12.1151 29.351 12.1252 29.3013C12.1352 29.2516 12.1441 29.2016 12.1517 29.1515C12.1593 29.1014 12.1657 29.0511 12.1709 29.0006C12.176 28.9501 12.18 28.8995 12.1826 28.849C12.1853 28.7983 12.1867 28.7476 12.1869 28.6968C12.1871 28.6461 12.1861 28.5954 12.1838 28.5447C12.1815 28.494 12.1779 28.4435 12.1732 28.393C12.1684 28.3425 12.1624 28.2921 12.1551 28.242C12.1479 28.1917 12.1394 28.1417 12.1297 28.092C12.12 28.0421 12.1091 27.9926 12.097 27.9433C12.0849 27.8941 12.0715 27.8452 12.057 27.7966C12.0425 27.7479 12.0268 27.6997 12.0099 27.6518C11.993 27.604 11.975 27.5566 11.9558 27.5097C11.9365 27.4628 11.9162 27.4163 11.8947 27.3703C11.8732 27.3244 11.8506 27.279 11.8269 27.2342C11.8032 27.1894 11.7784 27.1451 11.7525 27.1015C11.7266 27.0578 11.6997 27.0148 11.6717 26.9726C11.6437 26.9303 11.6147 26.8886 11.5847 26.8477C11.5547 26.8069 11.5236 26.7668 11.4917 26.7273C11.4597 26.688 11.4267 26.6495 11.3928 26.6117C11.3589 26.574 11.3242 26.5371 11.2885 26.5011C11.2528 26.465 11.2162 26.4298 11.1788 26.3956C11.1414 26.3613 11.1031 26.328 11.0641 26.2957C11.025 26.2633 10.9852 26.2319 10.9446 26.2015C10.904 26.171 10.8627 26.1416 10.8207 26.1132C10.7787 26.0848 10.736 26.0575 10.6926 26.0312C10.6492 26.0049 10.6052 25.9796 10.5606 25.9555C10.516 25.9313 10.4708 25.9083 10.4251 25.8863C10.3793 25.8644 10.3331 25.8436 10.2863 25.824C10.2396 25.8043 10.1924 25.7858 10.1447 25.7685C10.097 25.751 10.049 25.7348 10.0005 25.7198C9.95205 25.7048 9.90325 25.691 9.85412 25.6785C9.80498 25.6659 9.75556 25.6545 9.70586 25.6443C9.65617 25.6342 9.60626 25.6252 9.55613 25.6175C9.50599 25.6097 9.4557 25.6032 9.40524 25.598C9.35479 25.5927 9.30424 25.5887 9.25359 25.5858C9.20294 25.5831 9.15225 25.5815 9.10153 25.5812C9.05065 25.5809 8.9998 25.5818 8.94898 25.5841C8.89815 25.5863 8.84741 25.5897 8.79675 25.5943C8.74609 25.5991 8.69559 25.605 8.64523 25.6122C8.59486 25.6194 8.5447 25.6278 8.49475 25.6373C8.44479 25.647 8.39511 25.6579 8.34569 25.67C8.29627 25.682 8.24718 25.6953 8.19841 25.7098C8.14966 25.7243 8.10128 25.74 8.05329 25.7568C8.00529 25.7738 7.95774 25.7918 7.91064 25.811C7.86353 25.8302 7.81692 25.8506 7.77081 25.8721C7.72471 25.8936 7.67917 25.9162 7.63418 25.94C7.58918 25.9637 7.54479 25.9885 7.50103 26.0145C7.45725 26.0404 7.41414 26.0674 7.3717 26.0955C7.32925 26.1235 7.28752 26.1525 7.24651 26.1826C7.2055 26.2128 7.16524 26.2438 7.12575 26.2758C7.08627 26.3079 7.04759 26.341 7.00973 26.375C6.97187 26.409 6.93486 26.4438 6.89871 26.4796C6.86256 26.5154 6.82732 26.5521 6.79298 26.5896C6.75863 26.6272 6.72522 26.6655 6.69276 26.7047C6.66031 26.7439 6.62883 26.7838 6.59834 26.8245C6.56784 26.8652 6.53836 26.9067 6.5099 26.9488C6.48144 26.991 6.45404 27.0338 6.42769 27.0773C6.40134 27.1209 6.37607 27.1651 6.35189 27.2098C6.32771 27.2546 6.30465 27.2999 6.28269 27.3458C6.26074 27.3917 6.23993 27.438 6.22026 27.485C6.20059 27.5319 6.18208 27.5793 6.16474 27.6271C6.1474 27.6749 6.13124 27.7232 6.11628 27.7718C6.1013 27.8204 6.08754 27.8694 6.07498 27.9187C6.06241 27.968 6.05106 28.0175 6.04094 28.0673C6.03081 28.1173 6.02192 28.1673 6.01425 28.2176C6.00659 28.2679 6.00017 28.3184 5.99499 28.369C5.98981 28.4195 5.98587 28.4703 5.98318 28.5211C5.98049 28.5719 5.97904 28.6228 5.97885 28.6736C5.97866 28.7244 5.97972 28.7753 5.98204 28.8261C5.98435 28.8769 5.9879 28.9277 5.9927 28.9783C5.99751 29.029 6.00356 29.0795 6.01084 29.1298C6.01813 29.1802 6.02665 29.2303 6.0364 29.2802C6.04616 29.3301 6.05714 29.3798 6.06933 29.4292C6.08152 29.4786 6.09492 29.5277 6.10953 29.5763C6.12414 29.6251 6.13993 29.6735 6.15691 29.7215C6.1739 29.7694 6.19205 29.8169 6.21136 29.864C6.23069 29.911 6.25116 29.9576 6.27276 30.0036C6.29437 30.0497 6.3171 30.0952 6.34094 30.1401C6.36478 30.185 6.38971 30.2293 6.41574 30.2731C6.44176 30.3168 6.46885 30.3599 6.49699 30.4022C6.52513 30.4446 6.5543 30.4863 6.58449 30.5272C6.61468 30.5681 6.64586 30.6083 6.67803 30.6477C6.71019 30.6871 6.7433 30.7258 6.77736 30.7636C6.81142 30.8013 6.84639 30.8383 6.88228 30.8743C6.91815 30.9104 6.95489 30.9456 6.9925 30.9798C7.03011 31.0141 7.06854 31.0474 7.10779 31.0797C7.14703 31.1121 7.18705 31.1435 7.22784 31.174C7.26862 31.2044 7.31013 31.2338 7.35236 31.2621C7.3946 31.2904 7.4375 31.3177 7.48108 31.344C7.52465 31.3702 7.56885 31.3954 7.61366 31.4195C7.65848 31.4435 7.70386 31.4665 7.7498 31.4883C7.79574 31.5103 7.84219 31.531 7.88915 31.5505C7.93611 31.57 7.98352 31.5885 8.03139 31.6057C8.07926 31.623 8.12751 31.639 8.17616 31.6538C8.22482 31.6687 8.27381 31.6823 8.32314 31.6948C8.37246 31.7073 8.42206 31.7185 8.47194 31.7285C8.52182 31.7385 8.57192 31.7473 8.62223 31.7548C8.67254 31.7624 8.723 31.7687 8.77361 31.7737C8.82424 31.7788 8.87495 31.7826 8.92575 31.7852C8.97656 31.7878 9.0274 31.7891 9.07828 31.7892ZM24.6723 16.3835C24.7229 16.3783 24.7733 16.3719 24.8235 16.3642C24.8738 16.3565 24.9238 16.3476 24.9735 16.3375C25.0234 16.3273 25.0729 16.316 25.1222 16.3035C25.1714 16.2909 25.2203 16.2771 25.2689 16.2621C25.3175 16.2472 25.3657 16.231 25.4135 16.2137C25.4613 16.1964 25.5086 16.1779 25.5555 16.1582C25.6024 16.1385 25.6487 16.1178 25.6945 16.0958C25.7404 16.0739 25.7857 16.0509 25.8304 16.0267C25.8752 16.0025 25.9193 15.9773 25.9628 15.951C26.0062 15.9246 26.049 15.8973 26.0912 15.8688C26.1333 15.8403 26.1747 15.8109 26.2154 15.7805C26.2561 15.75 26.296 15.7185 26.3352 15.6861C26.3743 15.6537 26.4127 15.6203 26.4502 15.586C26.4877 15.5517 26.5243 15.5165 26.56 15.4803C26.5958 15.4443 26.6307 15.4073 26.6647 15.3695C26.6986 15.3316 26.7316 15.293 26.7637 15.2536C26.7957 15.2142 26.8268 15.174 26.8569 15.133C26.887 15.092 26.916 15.0503 26.944 15.008C26.9721 14.9655 26.9991 14.9225 27.025 14.8787C27.0509 14.835 27.0758 14.7906 27.0995 14.7457C27.1233 14.7008 27.1459 14.6553 27.1674 14.6092C27.1889 14.5631 27.2093 14.5166 27.2285 14.4696C27.2477 14.4225 27.2657 14.375 27.2827 14.3271C27.2996 14.2791 27.3153 14.2308 27.3298 14.1821C27.3443 14.1333 27.3576 14.0843 27.3697 14.035C27.3818 13.9855 27.3927 13.9359 27.4024 13.8861C27.412 13.8362 27.4204 13.786 27.4277 13.7357C27.4348 13.6854 27.4408 13.6349 27.4455 13.5843C27.4503 13.5338 27.4538 13.483 27.456 13.4322C27.4582 13.3815 27.4592 13.3307 27.4589 13.2798C27.4587 13.229 27.4572 13.1782 27.4544 13.1275C27.4517 13.0767 27.4477 13.026 27.4424 12.9755C27.4372 12.9249 27.4307 12.8745 27.4229 12.8242C27.4152 12.774 27.4063 12.724 27.3962 12.6742C27.3859 12.6244 27.3745 12.5748 27.3619 12.5256C27.3493 12.4764 27.3355 12.4275 27.3204 12.3789C27.3054 12.3304 27.2892 12.2822 27.2719 12.2344C27.2545 12.1867 27.2359 12.1394 27.2163 12.0925C27.1965 12.0456 27.1757 11.9993 27.1537 11.9535C27.1317 11.9076 27.1087 11.8624 27.0844 11.8177C27.0602 11.773 27.0349 11.7289 27.0085 11.6854C26.9822 11.642 26.9548 11.5992 26.9263 11.5571C26.8978 11.515 26.8683 11.4736 26.8378 11.433C26.8073 11.3923 26.7758 11.3524 26.7434 11.3133C26.7109 11.2742 26.6775 11.2359 26.6432 11.1984C26.6088 11.161 26.5736 11.1244 26.5374 11.0886C26.5012 11.0529 26.4642 11.018 26.4264 10.9841C26.3885 10.9502 26.3498 10.9172 26.3104 10.8852C26.2709 10.8532 26.2307 10.8222 26.1897 10.7921C26.1487 10.7621 26.1069 10.7331 26.0645 10.7051C26.0221 10.6771 25.979 10.6501 25.9353 10.6242C25.8915 10.5984 25.8472 10.5736 25.8022 10.5499C25.7572 10.5262 25.7117 10.5036 25.6657 10.4821C25.6196 10.4607 25.573 10.4404 25.5259 10.4212C25.4788 10.402 25.4313 10.384 25.3833 10.3672C25.3354 10.3503 25.287 10.3347 25.2383 10.3202C25.1895 10.3058 25.1405 10.2925 25.0912 10.2804C25.0417 10.2684 24.9921 10.2576 24.9422 10.2479C24.8922 10.2383 24.8421 10.2299 24.7918 10.2228C24.7414 10.2156 24.691 10.2097 24.6404 10.2051C24.5897 10.2004 24.539 10.197 24.4883 10.1948C24.4375 10.1926 24.3867 10.1917 24.3359 10.192C24.2851 10.1923 24.2343 10.1939 24.1835 10.1967C24.1328 10.1995 24.0821 10.2035 24.0315 10.2088C23.981 10.2141 23.9307 10.2206 23.8805 10.2284C23.8304 10.2362 23.7804 10.2452 23.7307 10.2554C23.681 10.2656 23.6316 10.277 23.5824 10.2896C23.5332 10.3023 23.4844 10.3161 23.4359 10.3311C23.3874 10.3462 23.3393 10.3624 23.2917 10.3798C23.2439 10.3972 23.1967 10.4157 23.1499 10.4354C23.1032 10.4552 23.0569 10.476 23.0112 10.498C22.9653 10.52 22.9201 10.5431 22.8755 10.5672C22.8309 10.5914 22.7869 10.6167 22.7435 10.6431C22.7001 10.6694 22.6574 10.6969 22.6154 10.7253C22.5733 10.7538 22.532 10.7832 22.4914 10.8137C22.4508 10.8442 22.411 10.8756 22.3719 10.9081C22.3329 10.9405 22.2947 10.9739 22.2573 11.0082C22.2199 11.0425 22.1833 11.0777 22.1477 11.1138C22.1119 11.1499 22.0771 11.1869 22.0433 11.2247C22.0094 11.2625 21.9764 11.3011 21.9445 11.3405C21.9125 11.38 21.8815 11.4202 21.8515 11.4611C21.8215 11.502 21.7925 11.5437 21.7645 11.5861C21.7366 11.6284 21.7097 11.6715 21.6838 11.7152C21.6579 11.7589 21.6332 11.8031 21.6095 11.848C21.5859 11.893 21.5633 11.9384 21.5418 11.9844C21.5204 12.0304 21.5001 12.0769 21.4809 12.1239C21.4617 12.171 21.4437 12.2184 21.4269 12.2663C21.4101 12.3142 21.3944 12.3625 21.3799 12.4111C21.3655 12.4598 21.3522 12.5088 21.3402 12.5581C21.3281 12.6074 21.3172 12.657 21.3077 12.7068C21.298 12.7567 21.2896 12.8067 21.2824 12.857C21.2752 12.9072 21.2693 12.9576 21.2645 13.0081C21.2599 13.0587 21.2564 13.1093 21.2542 13.1601C21.252 13.2108 21.251 13.2615 21.2513 13.3122C21.2515 13.363 21.253 13.4138 21.2558 13.4645C21.2585 13.5151 21.2625 13.5657 21.2678 13.6162C21.273 13.6667 21.2795 13.717 21.2872 13.7672C21.2949 13.8174 21.3039 13.8673 21.314 13.9171C21.3242 13.9668 21.3356 14.0163 21.3482 14.0655C21.3607 14.1146 21.3745 14.1635 21.3895 14.212C21.4045 14.2605 21.4207 14.3086 21.438 14.3563C21.4554 14.404 21.4739 14.4513 21.4935 14.4981C21.5132 14.5448 21.534 14.5911 21.5559 14.637C21.5778 14.6827 21.6009 14.7279 21.625 14.7726C21.6492 14.8173 21.6744 14.8613 21.7008 14.9047C21.727 14.9481 21.7544 14.9908 21.7828 15.0328C21.8112 15.0749 21.8406 15.1163 21.871 15.157C21.9015 15.1975 21.9329 15.2374 21.9653 15.2765C21.9977 15.3155 22.031 15.3538 22.0653 15.3913C22.0996 15.4288 22.1348 15.4653 22.1708 15.5011C22.2069 15.5368 22.2438 15.5715 22.2817 15.6055C22.3194 15.6394 22.3579 15.6724 22.3973 15.7045C22.4367 15.7365 22.4769 15.7675 22.5178 15.7975C22.5587 15.8275 22.6003 15.8566 22.6427 15.8846C22.685 15.9126 22.728 15.9395 22.7717 15.9655C22.8153 15.9914 22.8596 16.0162 22.9045 16.0398C22.9494 16.0636 22.9948 16.0862 23.0408 16.1077C23.0868 16.1292 23.1333 16.1496 23.1803 16.1688C23.2273 16.188 23.2747 16.206 23.3225 16.223C23.3704 16.2398 23.4187 16.2555 23.4673 16.2701C23.5159 16.2846 23.5649 16.2979 23.6143 16.31C23.6635 16.3221 23.7131 16.333 23.7629 16.3427C23.8127 16.3524 23.8628 16.3608 23.913 16.3681C23.9633 16.3753 24.0137 16.3813 24.0643 16.3861C24.1148 16.3908 24.1654 16.3943 24.2162 16.3966C24.2668 16.3988 24.3175 16.3999 24.3683 16.3997C24.419 16.3995 24.4698 16.398 24.5205 16.3953C24.5712 16.3926 24.6218 16.3886 24.6723 16.3835Z" fill="#915DC2"/>
</svg>
