<svg width="24" height="24" viewBox="0 0 24 24" fill="none" xmlns="http://www.w3.org/2000/svg">
<path fill-rule="evenodd" clip-rule="evenodd" d="M2.47 2.47012C2.77 2.17012 3.24 2.17012 3.53 2.47012L21.53 20.4701C21.6037 20.5388 21.6628 20.6216 21.7038 20.7136C21.7448 20.8056 21.7668 20.9049 21.7686 21.0056C21.7704 21.1063 21.7518 21.2063 21.7141 21.2997C21.6764 21.3931 21.6203 21.4779 21.549 21.5492C21.4778 21.6204 21.393 21.6765 21.2996 21.7142C21.2062 21.752 21.1062 21.7705 21.0055 21.7687C20.9048 21.7669 20.8055 21.7449 20.7135 21.7039C20.6215 21.6629 20.5387 21.6038 20.47 21.5301L18.07 19.1301C16.2362 20.223 14.1345 20.784 12 20.7501C8.28 20.7501 5.6 19.2801 3.83 17.4501C2.11 15.6701 1.25 13.5001 1.25 12.0001C1.25 10.3101 2.36 7.68012 4.69 5.75012L2.47 3.53012C2.32955 3.38949 2.25066 3.19887 2.25066 3.00012C2.25066 2.80137 2.32955 2.61074 2.47 2.47012ZM5.75 6.82012C3.65 8.51012 2.75 10.7901 2.75 12.0001C2.75 13.0201 3.39 14.8401 4.92 16.4201C5.84139 17.3543 6.94594 18.0879 8.16431 18.5749C9.38268 19.0619 10.6886 19.2918 12 19.2501C14.02 19.2501 15.66 18.7701 16.98 18.0401L14.07 15.1301C13.3487 15.6107 12.4832 15.8265 11.6207 15.741C10.7583 15.6555 9.95203 15.2738 9.33917 14.661C8.72631 14.0481 8.34466 13.2419 8.25912 12.3794C8.17359 11.5169 8.38945 10.6514 8.87 9.93012L5.75 6.82012ZM9.97 11.0301C9.76948 11.45 9.70405 11.9217 9.78273 12.3803C9.86141 12.8389 10.0803 13.2618 10.4093 13.5908C10.7383 13.9198 11.1613 14.1387 11.6199 14.2174C12.0784 14.2961 12.5501 14.2306 12.97 14.0301L9.97 11.0301ZM12 4.75012C10.8921 4.74498 9.78971 4.90679 8.73 5.23012C8.54037 5.29112 8.33427 5.27429 8.15705 5.18333C7.97983 5.09238 7.846 4.93475 7.785 4.74512C7.724 4.55549 7.74083 4.34939 7.83178 4.17217C7.92274 3.99495 8.08037 3.86112 8.27 3.80012L8.81 3.65012C9.78 3.39012 10.84 3.25012 12 3.25012C15.72 3.25012 18.4 4.72012 20.17 6.55012C21.89 8.34012 22.75 10.5201 22.75 12.0001C22.75 13.0901 22.29 14.5301 21.4 15.9001L21.02 16.4501C20.9609 16.5289 20.8869 16.5953 20.8021 16.6455C20.7174 16.6957 20.6236 16.7287 20.5261 16.7426C20.4286 16.7565 20.3293 16.7511 20.2339 16.7267C20.1385 16.7022 20.0488 16.6592 19.97 16.6001C19.8912 16.541 19.8248 16.467 19.7746 16.3822C19.7245 16.2975 19.6915 16.2037 19.6775 16.1062C19.6636 16.0087 19.669 15.9094 19.6935 15.814C19.7179 15.7186 19.7609 15.6289 19.82 15.5501L20.14 15.0901C20.7801 14.1781 21.1634 13.1109 21.25 12.0001C21.25 10.9801 20.61 9.16012 19.08 7.58012C18.1586 6.64597 17.0541 5.91236 15.8357 5.42536C14.6173 4.93836 13.3114 4.70847 12 4.75012Z" fill="#111827"/>
</svg>
