<svg width="24" height="24" viewBox="0 0 24 24" fill="none" xmlns="http://www.w3.org/2000/svg">
<path fill-rule="evenodd" clip-rule="evenodd" d="M4.92 7.58001C3.39 9.16001 2.75 10.98 2.75 12C2.75 13.02 3.39 14.84 4.92 16.42C5.84139 17.3542 6.94594 18.0878 8.16431 18.5748C9.38268 19.0618 10.6886 19.2917 12 19.25C15.28 19.25 17.6 17.97 19.08 16.42C20.61 14.84 21.25 13.02 21.25 12C21.25 10.98 20.61 9.16001 19.08 7.58001C18.1586 6.64586 17.0541 5.91226 15.8357 5.42525C14.6173 4.93825 13.3114 4.70836 12 4.75001C10.6886 4.70836 9.38268 4.93825 8.16431 5.42525C6.94594 5.91226 5.84139 6.64586 4.92 7.58001ZM3.83 6.54001C4.8924 5.45933 6.16628 4.60939 7.57203 4.04331C8.97777 3.47723 10.4852 3.20717 12 3.25001C15.72 3.25001 18.4 4.72001 20.17 6.55001C21.89 8.34001 22.75 10.52 22.75 12C22.75 13.48 21.89 15.66 20.17 17.46C19.1076 18.5407 17.8337 19.3906 16.428 19.9567C15.0222 20.5228 13.5148 20.7929 12 20.75C8.28 20.75 5.6 19.28 3.83 17.45C2.11 15.67 1.25 13.5 1.25 12C1.25 10.52 2.11 8.34001 3.83 6.54001ZM12 9.75001C11.4033 9.75001 10.831 9.98706 10.409 10.409C9.98705 10.831 9.75 11.4033 9.75 12C9.75 12.5967 9.98705 13.169 10.409 13.591C10.831 14.013 11.4033 14.25 12 14.25C12.5967 14.25 13.169 14.013 13.591 13.591C14.0129 13.169 14.25 12.5967 14.25 12C14.25 11.4033 14.0129 10.831 13.591 10.409C13.169 9.98706 12.5967 9.75001 12 9.75001ZM8.25 12C8.25 11.0054 8.64509 10.0516 9.34835 9.34836C10.0516 8.6451 11.0054 8.25001 12 8.25001C12.9946 8.25001 13.9484 8.6451 14.6517 9.34836C15.3549 10.0516 15.75 11.0054 15.75 12C15.75 12.9946 15.3549 13.9484 14.6517 14.6517C13.9484 15.3549 12.9946 15.75 12 15.75C11.0054 15.75 10.0516 15.3549 9.34835 14.6517C8.64509 13.9484 8.25 12.9946 8.25 12Z" fill="#111827"/>
</svg>
