<svg width="56" height="56" viewBox="0 0 56 56" fill="none" xmlns="http://www.w3.org/2000/svg">
<path d="M26.7202 0H41.8011C42.2094 0.192941 42.5484 0.355099 42.7201 0.810692C42.8411 1.13145 42.8556 1.65393 42.7083 1.96594C42.5201 2.36424 42.288 2.7438 42.0693 3.12607L41.0523 4.90314L37.7767 10.61L34.2626 16.7557C33.8635 17.4556 33.4607 18.1534 33.0542 18.849C32.8359 19.2276 32.6344 19.6233 32.3948 19.9885L32.3947 20.0297C32.7353 20.1272 33.8758 20.0657 34.3108 20.0653L40.6434 20.064C41.1783 20.0641 42.8612 20.0075 43.2249 20.1062C43.5107 20.1837 43.7734 20.4089 43.9197 20.6623C44.1059 20.9844 44.1756 21.4986 44.0655 21.8614C43.9286 22.3126 42.0911 24.575 41.6956 25.0983L35.4742 33.2861L25.0491 47.0034L20.9223 52.4331C20.1746 53.4354 19.4177 54.4307 18.6516 55.4191C18.5339 55.5696 18.4369 55.6876 18.2626 55.7771C18.1394 55.8402 18.0133 55.8958 17.8881 55.9543C17.8516 55.9712 17.8608 55.9685 17.819 56H17.2532C17.148 55.9368 17.0391 55.8957 16.9288 55.8436C16.6065 55.6915 16.2984 55.4377 16.1794 55.0928C16.0633 54.7565 16.1057 54.3182 16.1945 53.9787C16.3045 53.5581 16.4673 53.1401 16.6067 52.7274L17.3077 50.6284L19.7705 43.2342L22.3849 35.2854L23.1296 33.0501C23.2796 32.6006 23.4092 32.1197 23.6202 31.6955C22.6852 31.669 21.7465 31.6848 20.8112 31.685L15.9376 31.6856C15.0291 31.6857 14.0212 31.7343 13.1255 31.6835C12.9563 31.6739 12.7741 31.6525 12.618 31.5844C12.2879 31.4406 12.0159 31.0944 11.8963 30.7604C11.7928 30.4719 11.8404 30.0859 11.9451 29.8044C12.0285 29.5801 12.1649 29.385 12.2621 29.1681C12.3725 28.922 12.4643 28.6676 12.5791 28.4236C12.8313 27.8879 13.1131 27.3638 13.3733 26.8314C13.5214 26.5287 13.6397 26.2134 13.7852 25.9097L15.6171 22.1223L21.6714 9.37025L23.8517 4.79364C24.2395 3.98721 24.6368 3.19543 25.006 2.3798C25.2059 1.93806 25.767 0.694366 26.0764 0.384015C26.2605 0.199432 26.4801 0.090937 26.7202 0ZM15.4029 28.9064C16.3381 28.9352 17.2752 28.916 18.2108 28.9151L22.9063 28.915C23.9173 28.9154 24.9572 28.8678 25.9651 28.9436C26.1983 28.9612 26.4769 29.1993 26.6188 29.3687C26.8645 29.6623 26.9677 30.0379 26.9269 30.4164C26.8677 30.9657 26.639 31.522 26.4649 32.0452L25.7469 34.1891L22.8278 43.0673L21.8692 45.9561C21.721 46.4043 21.508 46.8944 21.4246 47.357C22.5042 45.88 23.6267 44.4371 24.7271 42.9761L25.7212 41.6481C25.8705 41.4483 26.0203 41.1988 26.1963 41.0267L26.21 41.0057C26.4936 40.5782 26.8452 40.1941 27.1509 39.7824L30.2007 35.7512L39.6477 23.2746C39.7103 23.1925 39.9085 22.9756 39.8917 22.8818L39.9226 22.8595C39.836 22.8018 39.5751 22.8085 39.4618 22.8058C38.7607 22.7887 38.0538 22.8122 37.3519 22.8115L32.4547 22.8108C31.7918 22.8118 30.1436 22.8963 29.5976 22.7053C29.1506 22.5488 28.8272 22.1877 28.7265 21.7245C28.6717 21.4727 28.6594 21.1302 28.763 20.8925C28.9572 20.4462 29.2156 20.0231 29.4582 19.6021L30.3023 18.1281L33.1647 13.1179L37.1563 6.13045L38.2045 4.29334C38.5234 3.72269 38.8306 3.14347 39.1874 2.5949C37.6811 2.53663 36.1637 2.57379 34.6559 2.57365L27.8644 2.57239C27.7168 2.98892 27.5012 3.38203 27.3132 3.78143C27.0065 4.43267 26.7065 5.08364 26.3904 5.73098C26.2303 6.05875 26.0941 6.39669 25.9376 6.72595L24.4501 9.83518L17.9868 23.528L16.1316 27.4513C15.9134 27.9108 15.7417 28.5255 15.4029 28.9064Z" fill="#915DC2"/>
</svg>
