<svg width="64" height="64" viewBox="0 0 64 64" fill="none" xmlns="http://www.w3.org/2000/svg">
<g clip-path="url(#clip0_683_10)">
<path d="M16.9083 21.3581C16.9735 21.3511 17.0388 21.3458 17.1042 21.3422C17.1696 21.3384 17.2351 21.3363 17.3007 21.3359C17.3662 21.3354 17.4317 21.3366 17.4972 21.3393C17.5627 21.3421 17.6281 21.3464 17.6933 21.3523C17.7586 21.3583 17.8237 21.3658 17.8886 21.3749C17.9534 21.3841 18.0181 21.3948 18.0825 21.4072C18.1468 21.4195 18.2108 21.4334 18.2745 21.4489C18.3381 21.4644 18.4014 21.4815 18.4643 21.5001C18.5272 21.5186 18.5895 21.5388 18.6513 21.5604C18.7132 21.5821 18.7745 21.6053 18.8352 21.6299C18.8959 21.6546 18.9559 21.6807 19.0153 21.7083C19.0748 21.736 19.1336 21.7651 19.1916 21.7956C19.2496 21.8261 19.3068 21.858 19.3632 21.8913C19.4196 21.9246 19.4752 21.9593 19.53 21.9954C19.5846 22.0314 19.6384 22.0688 19.6913 22.1076C19.7442 22.1462 19.7961 22.1862 19.8471 22.2274C19.898 22.2687 19.9479 22.3112 19.9967 22.3549C20.0456 22.3986 20.0933 22.4435 20.1398 22.4896C20.1864 22.5356 20.2319 22.5828 20.2762 22.6311C20.3206 22.6794 20.3636 22.7288 20.4055 22.7792C20.4474 22.8296 20.488 22.881 20.5273 22.9333C20.5667 22.9857 20.6047 23.0391 20.6415 23.0934C20.6782 23.1477 20.7136 23.2028 20.7476 23.2588C20.7816 23.3148 20.8142 23.3716 20.8455 23.4293C20.8767 23.4869 20.9065 23.5452 20.9348 23.6043C20.9632 23.6634 20.9901 23.7231 21.0155 23.7836C21.0409 23.844 21.0648 23.905 21.0872 23.9666C21.1096 24.0281 21.1305 24.0902 21.1498 24.1528C21.1693 24.2155 21.1871 24.2785 21.2033 24.3419C21.2196 24.4054 21.2343 24.4693 21.2475 24.5336C21.2606 24.5977 21.2721 24.6622 21.282 24.7269C21.292 24.7918 21.3003 24.8568 21.3071 24.9219C21.3138 24.9871 21.319 25.0524 21.3226 25.1178C21.3261 25.1833 21.328 25.2488 21.3283 25.3143C21.3287 25.3799 21.3274 25.4454 21.3245 25.5108C21.3216 25.5763 21.3171 25.6417 21.311 25.7069C21.3049 25.7722 21.2972 25.8372 21.2878 25.9021C21.2785 25.967 21.2676 26.0316 21.2552 26.0959C21.2427 26.1603 21.2286 26.2242 21.213 26.2878C21.1974 26.3515 21.1802 26.4147 21.1615 26.4776C21.1427 26.5403 21.1224 26.6026 21.1006 26.6644C21.0788 26.7263 21.0556 26.7875 21.0307 26.8481C21.0059 26.9087 20.9796 26.9688 20.9518 27.0282C20.9241 27.0875 20.8949 27.1461 20.8642 27.2041C20.8336 27.262 20.8015 27.3191 20.7681 27.3754C20.7346 27.4318 20.6998 27.4873 20.6636 27.5419C20.6274 27.5966 20.5899 27.6503 20.5511 27.7032C20.5123 27.7559 20.4722 27.8077 20.4308 27.8586C20.3894 27.9094 20.3468 27.9592 20.303 28.0079C20.2591 28.0566 20.2141 28.1042 20.168 28.1508C20.1218 28.1973 20.0746 28.2426 20.0262 28.2868C19.9778 28.331 19.9283 28.3739 19.8778 28.4157C19.8273 28.4575 19.7758 28.498 19.7233 28.5372C19.6708 28.5764 19.6174 28.6143 19.5631 28.6509C19.5087 28.6875 19.4534 28.7228 19.3973 28.7567C19.3413 28.7906 19.2844 28.8231 19.2267 28.8542C19.169 28.8853 19.1106 28.9149 19.0515 28.9431C18.9923 28.9713 18.9325 28.9981 18.872 29.0233C18.8116 29.0486 18.7505 29.0724 18.6888 29.0947C18.6272 29.1169 18.5651 29.1377 18.5025 29.1569C18.4398 29.1761 18.3767 29.1938 18.3132 29.2099C18.2496 29.226 18.1857 29.2406 18.1215 29.2536C18.0573 29.2665 17.9928 29.2778 17.928 29.2877C17.8631 29.2975 17.7981 29.3057 17.733 29.3123C17.668 29.3189 17.6028 29.3239 17.5376 29.3273C17.4723 29.3306 17.4071 29.3324 17.3417 29.3327C17.2764 29.3328 17.2111 29.3314 17.1457 29.3284C17.0805 29.3254 17.0153 29.3208 16.9503 29.3146C16.8853 29.3084 16.8204 29.3006 16.7557 29.2912C16.6911 29.2818 16.6267 29.2709 16.5626 29.2583C16.4984 29.2458 16.4346 29.2317 16.3712 29.2161C16.3078 29.2004 16.2448 29.1832 16.1822 29.1644C16.1196 29.1456 16.0576 29.1253 15.996 29.1036C15.9343 29.0817 15.8733 29.0584 15.8128 29.0337C15.7524 29.0088 15.6926 28.9826 15.6335 28.9549C15.5743 28.9272 15.5158 28.898 15.4581 28.8674C15.4003 28.8368 15.3434 28.8048 15.2872 28.7714C15.2311 28.7381 15.1757 28.7033 15.1212 28.6672C15.0668 28.6311 15.0133 28.5937 14.9606 28.5551C14.908 28.5163 14.8563 28.4763 14.8056 28.4351C14.7549 28.3938 14.7053 28.3513 14.6567 28.3077C14.6081 28.264 14.5607 28.2191 14.5143 28.1731C14.4679 28.1271 14.4227 28.08 14.3786 28.0318C14.3345 27.9836 14.2916 27.9343 14.25 27.8839C14.2083 27.8336 14.1679 27.7823 14.1287 27.7299C14.0896 27.6776 14.0517 27.6243 14.0152 27.5702C13.9786 27.516 13.9434 27.461 13.9096 27.4052C13.8758 27.3493 13.8433 27.2926 13.8122 27.2351C13.7812 27.1776 13.7516 27.1193 13.7233 27.0604C13.6952 27.0015 13.6684 26.9419 13.6431 26.8817C13.6178 26.8214 13.5941 26.7606 13.5717 26.6992C13.5494 26.6378 13.5286 26.5758 13.5093 26.5134C13.4901 26.451 13.4724 26.3881 13.4562 26.3248C13.44 26.2615 13.4253 26.1978 13.4123 26.1338C13.3993 26.0698 13.3878 26.0055 13.3778 25.9409C13.3679 25.8763 13.3596 25.8116 13.3528 25.7466C13.3461 25.6816 13.341 25.6164 13.3375 25.5512C13.3339 25.4859 13.3319 25.4206 13.3316 25.3553C13.3313 25.29 13.3325 25.2247 13.3353 25.1594C13.3382 25.0941 13.3426 25.0289 13.3487 24.9639C13.3548 24.8988 13.3624 24.834 13.3716 24.7693C13.3808 24.7046 13.3917 24.6402 13.4041 24.5761C13.4165 24.5119 13.4305 24.4481 13.446 24.3846C13.4615 24.3211 13.4785 24.2581 13.4971 24.1954C13.5158 24.1328 13.5359 24.0706 13.5575 24.0091C13.5791 23.9474 13.6023 23.8863 13.627 23.8258C13.6516 23.7653 13.6778 23.7054 13.7053 23.6462C13.7329 23.5869 13.7619 23.5284 13.7923 23.4706C13.8228 23.4128 13.8547 23.3558 13.888 23.2996C13.9212 23.2433 13.9558 23.1879 13.9918 23.1333C14.0278 23.0787 14.065 23.0251 14.1036 22.9724C14.1422 22.9197 14.1821 22.8679 14.2232 22.8172C14.2644 22.7664 14.3067 22.7167 14.3502 22.6679C14.3938 22.6193 14.4386 22.5717 14.4845 22.5252C14.5304 22.4787 14.5774 22.4333 14.6255 22.3892C14.6736 22.3449 14.7228 22.3019 14.7731 22.2602C14.8233 22.2184 14.8746 22.1779 14.9267 22.1386C14.979 22.0993 15.0321 22.0613 15.0862 22.0247C15.1403 21.988 15.1953 21.9527 15.2511 21.9187C15.3068 21.8848 15.3634 21.8522 15.4208 21.8209C15.4783 21.7898 15.5364 21.76 15.5953 21.7317C15.6542 21.7033 15.7137 21.6764 15.7738 21.6509C15.8341 21.6255 15.8949 21.6016 15.9562 21.5792C16.0176 21.5568 16.0794 21.5358 16.1418 21.5164C16.2043 21.497 16.2671 21.4791 16.3303 21.4628C16.3936 21.4464 16.4572 21.4316 16.5212 21.4184C16.5852 21.4052 16.6495 21.3935 16.7141 21.3834C16.7786 21.3734 16.8433 21.365 16.9083 21.3581ZM17.5475 26.6384C17.5761 26.6336 17.6046 26.6278 17.633 26.6212C17.6613 26.6145 17.6894 26.6069 17.7172 26.5984C17.745 26.5899 17.7725 26.5805 17.7997 26.5702C17.8269 26.5598 17.8537 26.5485 17.8801 26.5364C17.9066 26.5243 17.9326 26.5114 17.9582 26.4976C17.9838 26.4837 18.0089 26.4691 18.0335 26.4536C18.0581 26.4381 18.0823 26.4218 18.1058 26.4047C18.1293 26.3877 18.1523 26.3699 18.1747 26.3513C18.1971 26.3326 18.2188 26.3133 18.2398 26.2933C18.261 26.2733 18.2815 26.2526 18.3012 26.2312C18.3209 26.2098 18.3399 26.1879 18.3582 26.1653C18.3765 26.1426 18.394 26.1194 18.4107 26.0957C18.4275 26.0718 18.4434 26.0475 18.4586 26.0227C18.4738 25.9978 18.4881 25.9726 18.5016 25.9468C18.515 25.9211 18.5276 25.8948 18.5393 25.8682C18.5511 25.8416 18.562 25.8146 18.572 25.7873C18.582 25.76 18.591 25.7323 18.5991 25.7044C18.6073 25.6765 18.6145 25.6483 18.6208 25.6199C18.6271 25.5915 18.6324 25.5629 18.6368 25.5342C18.6413 25.5054 18.6447 25.4766 18.6472 25.4477C18.6497 25.4187 18.6513 25.3896 18.6518 25.3606C18.6524 25.3315 18.6521 25.3024 18.6507 25.2733C18.6494 25.2442 18.6471 25.2152 18.6438 25.1863C18.6406 25.1575 18.6364 25.1287 18.6312 25.1001C18.6261 25.0714 18.6201 25.043 18.613 25.0148C18.606 24.9866 18.5981 24.9586 18.5892 24.9309C18.5803 24.9032 18.5705 24.8758 18.5598 24.8487C18.5492 24.8217 18.5376 24.795 18.5252 24.7687C18.5128 24.7423 18.4995 24.7165 18.4853 24.6911C18.4713 24.6656 18.4563 24.6407 18.4405 24.6163C18.4247 24.5919 18.4082 24.568 18.3908 24.5447C18.3734 24.5213 18.3553 24.4986 18.3365 24.4764C18.3176 24.4543 18.2981 24.4328 18.2777 24.4119C18.2575 24.3911 18.2366 24.3709 18.215 24.3514C18.1933 24.3319 18.1711 24.3132 18.1482 24.2952C18.1254 24.2772 18.102 24.26 18.078 24.2436C18.054 24.2271 18.0295 24.2114 18.0045 24.1966C17.9795 24.1817 17.954 24.1677 17.9281 24.1546C17.9021 24.1414 17.8757 24.1291 17.849 24.1177C17.8222 24.1063 17.7951 24.0957 17.7677 24.0861C17.7402 24.0764 17.7125 24.0677 17.6845 24.0599C17.6565 24.0521 17.6282 24.0452 17.5997 24.0393C17.5712 24.0333 17.5426 24.0283 17.5138 24.0243C17.485 24.0202 17.4561 24.0171 17.4271 24.0149C17.3981 24.0128 17.3691 24.0117 17.34 24.0114C17.3109 24.0112 17.2818 24.0119 17.2527 24.0136C17.2237 24.0153 17.1948 24.018 17.1658 24.0216C17.137 24.0251 17.1083 24.0297 17.0797 24.0352C17.0586 24.0393 17.0377 24.0438 17.0168 24.0489C16.9959 24.054 16.9752 24.0596 16.9546 24.0657C16.934 24.0718 16.9136 24.0783 16.8933 24.0854C16.873 24.0925 16.8529 24.1001 16.833 24.1081C16.8131 24.1161 16.7935 24.1247 16.774 24.1337C16.7545 24.1428 16.7352 24.1523 16.7162 24.1622C16.6971 24.1722 16.6783 24.1826 16.6598 24.1934C16.6413 24.2043 16.6231 24.2157 16.6051 24.2274C16.5872 24.2392 16.5695 24.2514 16.5521 24.2641C16.5348 24.2766 16.5177 24.2897 16.501 24.3032C16.4842 24.3166 16.4678 24.3304 16.4517 24.3447C16.4356 24.3589 16.4199 24.3736 16.4046 24.3886C16.3893 24.4036 16.3743 24.4191 16.3597 24.4348C16.3451 24.4506 16.3309 24.4666 16.3171 24.4831C16.3033 24.4995 16.2898 24.5162 16.2768 24.5333C16.2638 24.5504 16.2513 24.5678 16.2391 24.5856C16.2269 24.6032 16.2152 24.6212 16.204 24.6396C16.1927 24.6578 16.1819 24.6763 16.1715 24.6952C16.1611 24.7139 16.1512 24.733 16.1417 24.7523C16.1323 24.7716 16.1233 24.7911 16.1148 24.8108C16.1063 24.8306 16.0983 24.8505 16.0908 24.8706C16.0833 24.8906 16.0763 24.9109 16.0697 24.9314C16.0632 24.9518 16.0572 24.9724 16.0516 24.9932C16.0461 25.0139 16.0411 25.0348 16.0366 25.0558C16.0321 25.0768 16.0281 25.0979 16.0246 25.1191C16.0211 25.1403 16.0181 25.1616 16.0156 25.1829C16.0132 25.2043 16.0113 25.2256 16.0098 25.2471C16.0084 25.2685 16.0076 25.2899 16.0072 25.3114C16.0068 25.3328 16.007 25.3543 16.0077 25.3758C16.0084 25.3972 16.0096 25.4186 16.0112 25.4401C16.013 25.4615 16.0152 25.4828 16.018 25.5042C16.0207 25.5254 16.024 25.5466 16.0278 25.5678C16.0317 25.589 16.036 25.61 16.0407 25.6309C16.0456 25.6518 16.0509 25.6726 16.0567 25.6933C16.0626 25.714 16.0689 25.7345 16.0757 25.7548C16.0826 25.7752 16.0899 25.7954 16.0977 25.8154C16.1056 25.8354 16.1138 25.8552 16.1226 25.8748C16.1314 25.8944 16.1407 25.9138 16.1503 25.9329C16.1601 25.9521 16.1703 25.971 16.181 25.9896C16.1916 26.0082 16.2027 26.0266 16.2142 26.0447C16.2258 26.0628 16.2378 26.0807 16.2502 26.0982C16.2626 26.1157 16.2755 26.1329 16.2887 26.1498C16.302 26.1667 16.3156 26.1833 16.3296 26.1996C16.3437 26.2158 16.3581 26.2317 16.373 26.2472C16.3878 26.2628 16.403 26.2779 16.4186 26.2927C16.4341 26.3075 16.45 26.3219 16.4663 26.3359C16.4826 26.3499 16.4992 26.3636 16.5161 26.3768C16.533 26.39 16.5503 26.4027 16.5678 26.4151C16.5854 26.4275 16.6033 26.4394 16.6213 26.4509C16.6395 26.4624 16.6579 26.4735 16.6766 26.4841C16.6953 26.4946 16.7142 26.5048 16.7333 26.5146C16.7525 26.5242 16.7719 26.5334 16.7916 26.5422C16.8112 26.5508 16.831 26.5591 16.851 26.5669C16.8711 26.5747 16.8913 26.5819 16.9116 26.5887C16.932 26.5955 16.9526 26.6018 16.9732 26.6076C16.9939 26.6134 17.0147 26.6187 17.0356 26.6234C17.0565 26.6282 17.0776 26.6324 17.0987 26.6362C17.1199 26.6399 17.1411 26.6432 17.1625 26.6459C17.1837 26.6486 17.2051 26.6508 17.2265 26.6524C17.2479 26.6542 17.2693 26.6553 17.2908 26.6559C17.3123 26.6566 17.3337 26.6567 17.3552 26.6563C17.3767 26.6559 17.3982 26.6549 17.4196 26.6534C17.441 26.652 17.4624 26.65 17.4837 26.6474C17.5051 26.6449 17.5263 26.6419 17.5475 26.6384Z" fill="#915DC2"/>
<path d="M43.575 21.3584C43.6401 21.3515 43.7053 21.3462 43.7707 21.3426C43.836 21.3388 43.9014 21.3367 43.9668 21.3362C44.0322 21.3357 44.0976 21.3368 44.1629 21.3396C44.2283 21.3422 44.2936 21.3465 44.3588 21.3524C44.4239 21.3583 44.4889 21.3659 44.5536 21.3751C44.6185 21.3841 44.683 21.3948 44.7473 21.4071C44.8115 21.4194 44.8754 21.4333 44.939 21.4487C45.0026 21.4641 45.0658 21.4811 45.1287 21.4996C45.1914 21.5181 45.2537 21.5381 45.3154 21.5597C45.3772 21.5813 45.4384 21.6043 45.499 21.6289C45.5596 21.6535 45.6196 21.6796 45.679 21.7071C45.7384 21.7346 45.797 21.7635 45.8549 21.7939C45.9129 21.8243 45.9701 21.8561 46.0264 21.8893C46.0828 21.9226 46.1384 21.9571 46.193 21.9931C46.2477 22.029 46.3014 22.0662 46.3543 22.1048C46.4071 22.1434 46.459 22.1832 46.5099 22.2243C46.5608 22.2655 46.6107 22.3078 46.6595 22.3514C46.7084 22.3949 46.7561 22.4396 46.8027 22.4856C46.8492 22.5315 46.8947 22.5785 46.939 22.6267C46.9834 22.6748 47.0265 22.7241 47.0684 22.7743C47.1102 22.8246 47.1509 22.8758 47.1903 22.928C47.2297 22.9803 47.2678 23.0335 47.3045 23.0876C47.3413 23.1417 47.3767 23.1967 47.4108 23.2526C47.4449 23.3084 47.4775 23.3651 47.5088 23.4226C47.5401 23.4801 47.57 23.5383 47.5984 23.5972C47.6268 23.6561 47.6538 23.7157 47.6793 23.7759C47.7048 23.8362 47.7288 23.897 47.7513 23.9584C47.7738 24.0199 47.7948 24.0819 47.8143 24.1443C47.8338 24.2068 47.8517 24.2697 47.8682 24.3331C47.8845 24.3964 47.8993 24.4601 47.9125 24.5242C47.9259 24.5883 47.9376 24.6526 47.9477 24.7172C47.9577 24.7818 47.9662 24.8467 47.9732 24.9118C47.9801 24.9769 47.9854 25.0421 47.9892 25.1074C47.9928 25.1728 47.9949 25.2381 47.9954 25.3035C47.9959 25.369 47.9948 25.4343 47.9922 25.4997C47.9895 25.5651 47.9852 25.6304 47.9793 25.6955C47.9734 25.7607 47.9659 25.8257 47.9568 25.8904C47.9476 25.9553 47.9369 26.0198 47.9247 26.0841C47.9124 26.1484 47.8986 26.2123 47.8832 26.2759C47.8677 26.3395 47.8508 26.4027 47.8323 26.4654C47.8138 26.5282 47.7937 26.5904 47.7722 26.6522C47.7507 26.714 47.7276 26.7752 47.703 26.8358C47.6784 26.8965 47.6524 26.9565 47.6249 27.0159C47.5974 27.0753 47.5684 27.1339 47.538 27.1918C47.5076 27.2498 47.4758 27.307 47.4426 27.3633C47.4095 27.4197 47.3749 27.4753 47.3389 27.5299C47.303 27.5846 47.2658 27.6384 47.2273 27.6913C47.1887 27.7441 47.1488 27.796 47.1077 27.8469C47.0666 27.8978 47.0242 27.9477 46.9807 27.9966C46.9372 28.0453 46.8924 28.093 46.8465 28.1397C46.8006 28.1863 46.7536 28.2318 46.7054 28.276C46.6573 28.3204 46.6082 28.3635 46.5579 28.4054C46.5077 28.4473 46.4564 28.488 46.4042 28.5274C46.3519 28.5668 46.2987 28.6048 46.2445 28.6417C46.1904 28.6784 46.1354 28.7138 46.0795 28.7479C46.0237 28.782 45.9671 28.8147 45.9097 28.8459C45.8522 28.8773 45.7939 28.9071 45.735 28.9355C45.6761 28.964 45.6165 28.991 45.5563 29.0166C45.496 29.0421 45.4352 29.066 45.3738 29.0885C45.3123 29.111 45.2503 29.1321 45.1879 29.1516C45.1254 29.1711 45.0625 29.189 44.9992 29.2054C44.9358 29.2218 44.8721 29.2367 44.808 29.2499C44.7439 29.2632 44.6796 29.2749 44.615 29.2851C44.5504 29.2951 44.4855 29.3036 44.4204 29.3105C44.3553 29.3175 44.2901 29.3228 44.2248 29.3266C44.1594 29.3303 44.0941 29.3324 44.0287 29.3329C43.9632 29.3334 43.8977 29.3323 43.8324 29.3297C43.767 29.3269 43.7017 29.3226 43.6365 29.3167C43.5714 29.3108 43.5064 29.3034 43.4415 29.2943C43.3767 29.2851 43.3122 29.2744 43.2479 29.2622C43.1837 29.2499 43.1197 29.2361 43.056 29.2207C42.9924 29.2053 42.9293 29.1883 42.8665 29.1698C42.8037 29.1513 42.7414 29.1313 42.6797 29.1098C42.6178 29.0882 42.5566 29.0651 42.496 29.0406C42.4354 29.016 42.3753 28.9899 42.3159 28.9624C42.2566 28.9349 42.1979 28.906 42.1399 28.8756C42.082 28.8451 42.0248 28.8133 41.9684 28.7802C41.912 28.7469 41.8564 28.7123 41.8018 28.6764C41.7471 28.6405 41.6933 28.6033 41.6404 28.5647C41.5876 28.5261 41.5357 28.4863 41.4848 28.4452C41.4339 28.404 41.384 28.3617 41.3352 28.3182C41.2863 28.2746 41.2386 28.2298 41.1919 28.1839C41.1452 28.138 41.0998 28.091 41.0555 28.0428C41.0112 27.9946 40.9681 27.9454 40.9262 27.8952C40.8842 27.8449 40.8436 27.7937 40.8042 27.7414C40.7647 27.6892 40.7267 27.636 40.6899 27.5818C40.6532 27.5277 40.6177 27.4727 40.5837 27.4168C40.5496 27.361 40.5169 27.3043 40.4855 27.2468C40.4542 27.1893 40.4243 27.1311 40.3959 27.0722C40.3675 27.0133 40.3405 26.9537 40.315 26.8934C40.2895 26.8331 40.2655 26.7722 40.2429 26.7108C40.2204 26.6494 40.1994 26.5874 40.1799 26.5249C40.1604 26.4624 40.1425 26.3995 40.1262 26.3362C40.1097 26.2728 40.0949 26.2091 40.0817 26.1451C40.0684 26.081 40.0567 26.0166 40.0465 25.9519C40.0364 25.8873 40.0279 25.8224 40.021 25.7573C40.0141 25.6922 40.0088 25.627 40.005 25.5617C40.0014 25.4963 39.9993 25.431 39.9988 25.3656C39.9983 25.3001 39.9994 25.2346 40.002 25.1693C40.0048 25.1039 40.0091 25.0386 40.0149 24.9734C40.0208 24.9083 40.0284 24.8433 40.0375 24.7784C40.0466 24.7136 40.0573 24.649 40.0695 24.5848C40.0818 24.5205 40.0956 24.4565 40.111 24.3929C40.1264 24.3293 40.1434 24.2662 40.1619 24.2034C40.1805 24.1406 40.2005 24.0783 40.222 24.0166C40.2436 23.9548 40.2667 23.8936 40.2913 23.8329C40.3159 23.7723 40.3419 23.7122 40.3695 23.6528C40.397 23.5935 40.426 23.5348 40.4564 23.4768C40.4868 23.4189 40.5186 23.3617 40.5518 23.3053C40.585 23.249 40.6196 23.1934 40.6555 23.1387C40.6914 23.084 40.7287 23.0303 40.7673 22.9774C40.8059 22.9245 40.8457 22.8726 40.8869 22.8217C40.928 22.7708 40.9703 22.7209 41.0139 22.6722C41.0575 22.6233 41.1022 22.5756 41.1482 22.5289C41.1941 22.4823 41.2411 22.4368 41.2893 22.3926C41.3374 22.3482 41.3867 22.3051 41.4369 22.2632C41.4872 22.2213 41.5385 22.1806 41.5908 22.1413C41.643 22.1019 41.6962 22.0638 41.7504 22.0271C41.8045 21.9902 41.8595 21.9548 41.9154 21.9207C41.9712 21.8867 42.0279 21.854 42.0854 21.8227C42.1429 21.7914 42.2011 21.7616 42.26 21.7331C42.319 21.7046 42.3787 21.6777 42.4389 21.6522C42.4992 21.6267 42.56 21.6027 42.6214 21.5802C42.6829 21.5577 42.7449 21.5367 42.8074 21.5172C42.8698 21.4977 42.9327 21.4798 42.9962 21.4634C43.0595 21.447 43.1232 21.4322 43.1873 21.4189C43.2514 21.4057 43.3157 21.394 43.3804 21.3839C43.4451 21.3738 43.5099 21.3653 43.575 21.3584ZM44.235 26.6354C44.2564 26.6315 44.2776 26.6271 44.2988 26.6222C44.3199 26.6172 44.3409 26.6117 44.3618 26.6057C44.3826 26.5997 44.4033 26.5932 44.4239 26.5862C44.4445 26.5792 44.4649 26.5717 44.485 26.5637C44.5052 26.5557 44.5252 26.5472 44.5449 26.5382C44.5647 26.5292 44.5842 26.5197 44.6034 26.5097C44.6227 26.4998 44.6418 26.4893 44.6605 26.4784C44.6794 26.4675 44.6979 26.4562 44.716 26.4444C44.7343 26.4326 44.7522 26.4203 44.7698 26.4077C44.7874 26.395 44.8047 26.3819 44.8217 26.3683C44.8387 26.3548 44.8553 26.3408 44.8715 26.3264C44.8879 26.3121 44.9038 26.2973 44.9193 26.2822C44.9349 26.2671 44.9501 26.2516 44.9649 26.2357C44.9797 26.2198 44.994 26.2035 45.008 26.1869C45.022 26.1703 45.0356 26.1534 45.0488 26.1362C45.0619 26.1189 45.0747 26.1013 45.0869 26.0834C45.0992 26.0655 45.1111 26.0473 45.1225 26.0288C45.1339 26.0104 45.1449 25.9916 45.1553 25.9726C45.1658 25.9536 45.1758 25.9343 45.1853 25.9148C45.1949 25.8953 45.2039 25.8756 45.2124 25.8557C45.221 25.8357 45.2291 25.8155 45.2367 25.7952C45.2442 25.7748 45.2513 25.7543 45.2578 25.7336C45.2644 25.7129 45.2704 25.6921 45.2759 25.6711C45.2814 25.6501 45.2864 25.6289 45.2909 25.6077C45.2954 25.5864 45.2994 25.5651 45.3028 25.5437C45.3063 25.5223 45.3092 25.5008 45.3115 25.4792C45.3139 25.4576 45.3158 25.436 45.317 25.4143C45.3184 25.3926 45.3192 25.3709 45.3194 25.3492C45.3197 25.3275 45.3194 25.3058 45.3185 25.2842C45.3177 25.2624 45.3164 25.2408 45.3145 25.2192C45.3126 25.1975 45.3102 25.1759 45.3073 25.1544C45.3043 25.1329 45.3008 25.1115 45.2968 25.0902C45.2928 25.0688 45.2882 25.0476 45.2832 25.0266C45.2782 25.0054 45.2726 24.9844 45.2665 24.9635C45.2604 24.9427 45.2538 24.9221 45.2467 24.9016C45.2396 24.8811 45.232 24.8607 45.2239 24.8406C45.2158 24.8205 45.2072 24.8006 45.1982 24.7808C45.1891 24.7611 45.1795 24.7416 45.1694 24.7223C45.1594 24.7031 45.1489 24.6841 45.1379 24.6654C45.1269 24.6467 45.1154 24.6282 45.1035 24.6101C45.0917 24.5919 45.0794 24.574 45.0667 24.5564C45.0539 24.5389 45.0407 24.5217 45.027 24.5048C45.0134 24.4879 44.9994 24.4713 44.985 24.4551C44.9705 24.4389 44.9557 24.423 44.9405 24.4075C44.9253 24.392 44.9097 24.3769 44.8938 24.3622C44.8778 24.3475 44.8615 24.3332 44.8449 24.3193C44.8282 24.3054 44.8112 24.2919 44.7939 24.2788C44.7766 24.2657 44.7589 24.253 44.7409 24.2408C44.723 24.2286 44.7048 24.2169 44.6863 24.2056C44.6678 24.1942 44.649 24.1833 44.6299 24.1729C44.6108 24.1626 44.5915 24.1527 44.572 24.1432C44.5524 24.1338 44.5327 24.1248 44.5127 24.1163C44.4927 24.1079 44.4725 24.0999 44.4522 24.0924C44.4317 24.085 44.4111 24.0781 44.3904 24.0716C44.3697 24.0651 44.3489 24.0591 44.3278 24.0537C44.3068 24.0483 44.2857 24.0433 44.2644 24.0389C44.2432 24.0346 44.2218 24.0308 44.2004 24.0274C44.1789 24.024 44.1574 24.0212 44.1358 24.0189C44.1142 24.0167 44.0926 24.0149 44.0709 24.0137C44.0492 24.0125 44.0276 24.0118 44.0059 24.0117C43.9842 24.0115 43.9624 24.0119 43.9408 24.0128C43.9191 24.0137 43.8974 24.0152 43.8758 24.0172C43.8542 24.0192 43.8327 24.0217 43.8112 24.0247C43.7897 24.0278 43.7682 24.0313 43.7469 24.0354C43.7257 24.0395 43.7047 24.0441 43.6837 24.0492C43.6627 24.0543 43.6418 24.06 43.6212 24.0661C43.6005 24.0722 43.5799 24.0788 43.5595 24.0859C43.5392 24.0931 43.519 24.1007 43.499 24.1088C43.479 24.117 43.4592 24.1256 43.4397 24.1347C43.4201 24.1438 43.4007 24.1533 43.3815 24.1634C43.3624 24.1734 43.3436 24.1839 43.325 24.1949C43.3064 24.2058 43.2881 24.2172 43.27 24.2291C43.252 24.241 43.2343 24.2533 43.2169 24.2661C43.1995 24.2787 43.1824 24.2918 43.1655 24.3054C43.1488 24.319 43.1323 24.333 43.1162 24.3473C43.1001 24.3617 43.0843 24.3765 43.0689 24.3916C43.0536 24.4067 43.0386 24.4223 43.0239 24.4382C43.0093 24.454 42.9951 24.4702 42.9813 24.4868C42.9674 24.5034 42.954 24.5203 42.941 24.5376C42.928 24.5547 42.9154 24.5723 42.9033 24.5902C42.8911 24.608 42.8794 24.6261 42.8682 24.6446C42.8569 24.663 42.8461 24.6816 42.8358 24.7006C42.8254 24.7195 42.8156 24.7387 42.8062 24.7582C42.7967 24.7776 42.7878 24.7972 42.7794 24.817C42.771 24.837 42.763 24.8571 42.7555 24.8773C42.7481 24.8976 42.7412 24.918 42.7347 24.9385C42.7282 24.9591 42.7223 24.9799 42.7168 25.0008C42.7114 25.0216 42.7064 25.0426 42.702 25.0638C42.6976 25.085 42.6937 25.1062 42.6903 25.1274C42.6869 25.1488 42.6841 25.1702 42.6818 25.1917C42.6794 25.2131 42.6777 25.2346 42.6764 25.2562C42.6752 25.2777 42.6744 25.2992 42.6742 25.3208C42.6739 25.3424 42.6742 25.364 42.675 25.3856C42.6759 25.4071 42.6772 25.4287 42.6792 25.4502C42.6811 25.4717 42.6835 25.4931 42.6864 25.5146C42.6893 25.5359 42.6928 25.5572 42.6968 25.5784C42.7008 25.5997 42.7053 25.6208 42.7103 25.6417C42.7153 25.6627 42.7208 25.6836 42.7269 25.7043C42.7329 25.7251 42.7394 25.7456 42.7465 25.7661C42.7535 25.7864 42.7611 25.8066 42.7692 25.8267C42.7772 25.8467 42.7857 25.8665 42.7947 25.8862C42.8037 25.9058 42.8132 25.9251 42.8232 25.9443C42.8331 25.9635 42.8435 25.9824 42.8544 26.001C42.8652 26.0196 42.8765 26.038 42.8883 26.0561C42.9001 26.0741 42.9124 26.0919 42.925 26.1094C42.9376 26.1269 42.9507 26.1441 42.9642 26.1609C42.9777 26.1778 42.9916 26.1944 43.0059 26.2106C43.0202 26.2267 43.0348 26.2425 43.0499 26.2579C43.065 26.2734 43.0804 26.2885 43.0963 26.3032C43.112 26.3178 43.1282 26.3321 43.1448 26.3461C43.1613 26.36 43.1781 26.3735 43.1953 26.3865C43.2124 26.3996 43.2299 26.4123 43.2477 26.4246C43.2655 26.4367 43.2836 26.4485 43.3019 26.4598C43.3203 26.4711 43.3389 26.482 43.3578 26.4924C43.3767 26.5029 43.3959 26.5129 43.4153 26.5223C43.4346 26.5318 43.4542 26.5408 43.474 26.5494C43.4939 26.5579 43.5139 26.566 43.5342 26.5736C43.5544 26.5811 43.5748 26.5881 43.5953 26.5947C43.6159 26.6013 43.6366 26.6073 43.6575 26.6128C43.6784 26.6183 43.6993 26.6233 43.7204 26.6279C43.7416 26.6324 43.7628 26.6364 43.784 26.6398C43.8054 26.6433 43.8267 26.6463 43.8482 26.6487C43.8697 26.6511 43.8912 26.653 43.9127 26.6544C43.9342 26.6558 43.9558 26.6566 43.9774 26.6569C43.999 26.6573 44.0206 26.6571 44.0422 26.6563C44.0637 26.6556 44.0852 26.6543 44.1068 26.6524C44.1283 26.6507 44.1497 26.6484 44.171 26.6456C44.1924 26.6427 44.2138 26.6393 44.235 26.6354Z" fill="#915DC2"/>
<path d="M30.24 21.3584C30.3052 21.3515 30.3706 21.3462 30.436 21.3424C30.5015 21.3387 30.567 21.3366 30.6326 21.3361C30.6982 21.3356 30.7638 21.3367 30.8293 21.3394C30.8948 21.3422 30.9603 21.3465 31.0256 21.3524C31.0909 21.3584 31.1561 21.366 31.221 21.3752C31.2859 21.3843 31.3506 21.395 31.415 21.4073C31.4794 21.4196 31.5435 21.4336 31.6072 21.4491C31.671 21.4646 31.7343 21.4816 31.7972 21.5002C31.8601 21.5188 31.9224 21.539 31.9844 21.5607C32.0463 21.5823 32.1076 21.6055 32.1683 21.6302C32.2291 21.6549 32.2892 21.6811 32.3487 21.7087C32.4082 21.7363 32.467 21.7655 32.525 21.7961C32.5831 21.8266 32.6403 21.8585 32.6967 21.8919C32.7532 21.9253 32.8088 21.96 32.8636 21.9961C32.9183 22.0321 32.9722 22.0696 33.0251 22.1083C33.078 22.1471 33.1299 22.1871 33.1808 22.2284C33.2318 22.2698 33.2818 22.3123 33.3306 22.3561C33.3794 22.3998 33.4272 22.4447 33.4738 22.4908C33.5205 22.5369 33.566 22.5841 33.6103 22.6326C33.6546 22.6809 33.6977 22.7303 33.7396 22.7807C33.7815 22.8312 33.8221 22.8827 33.8615 22.9352C33.9008 22.9876 33.9388 23.041 33.9756 23.0953C34.0123 23.1496 34.0477 23.2048 34.0817 23.2609C34.1157 23.317 34.1483 23.3739 34.1795 23.4316C34.2107 23.4893 34.2405 23.5478 34.2689 23.6069C34.2972 23.666 34.3241 23.7258 34.3495 23.7863C34.3749 23.8468 34.3988 23.9078 34.4211 23.9694C34.4435 24.0311 34.4644 24.0933 34.4837 24.1559C34.5031 24.2186 34.5208 24.2817 34.537 24.3453C34.5532 24.4089 34.5679 24.4728 34.581 24.5371C34.5941 24.6013 34.6056 24.6658 34.6155 24.7307C34.6254 24.7955 34.6337 24.8606 34.6403 24.9258C34.647 24.9911 34.6521 25.0564 34.6556 25.1219C34.6591 25.1874 34.661 25.253 34.6612 25.3186C34.6615 25.3841 34.6601 25.4497 34.6572 25.5152C34.6542 25.5807 34.6496 25.6461 34.6435 25.7114C34.6373 25.7767 34.6295 25.8418 34.6201 25.9067C34.6107 25.9716 34.5997 26.0363 34.5871 26.1007C34.5746 26.165 34.5605 26.229 34.5447 26.2927C34.529 26.3563 34.5117 26.4196 34.4928 26.4824C34.474 26.5453 34.4536 26.6076 34.4317 26.6694C34.4099 26.7313 34.3865 26.7925 34.3616 26.8532C34.3367 26.9138 34.3103 26.9739 34.2824 27.0333C34.2545 27.0926 34.2252 27.1513 34.1945 27.2092C34.1637 27.2671 34.1316 27.3243 34.098 27.3807C34.0644 27.437 34.0295 27.4925 33.9932 27.5471C33.9569 27.6017 33.9193 27.6554 33.8804 27.7082C33.8414 27.7609 33.8011 27.8127 33.7597 27.8636C33.7182 27.9144 33.6755 27.9641 33.6315 28.0128C33.5876 28.0615 33.5425 28.1091 33.4962 28.1556C33.45 28.2021 33.4026 28.2473 33.354 28.2914C33.3055 28.3356 33.2559 28.3786 33.2054 28.4203C33.1547 28.462 33.1031 28.5024 33.0505 28.5416C32.9979 28.5807 32.9443 28.6186 32.8898 28.6551C32.8353 28.6916 32.78 28.7268 32.7238 28.7606C32.6677 28.7944 32.6107 28.8268 32.5529 28.8578C32.495 28.8888 32.4365 28.9183 32.3772 28.9464C32.318 28.9746 32.2581 29.0013 32.1976 29.0264C32.137 29.0516 32.0759 29.0753 32.0141 29.0974C31.9524 29.1196 31.8901 29.1402 31.8274 29.1593C31.7646 29.1784 31.7014 29.1959 31.6378 29.2119C31.5743 29.2279 31.5103 29.2423 31.446 29.2552C31.3816 29.268 31.3171 29.2793 31.2522 29.2889C31.1873 29.2986 31.1222 29.3067 31.057 29.3132C30.992 29.3196 30.9269 29.3244 30.8617 29.3277C30.7966 29.3309 30.7313 29.3326 30.666 29.3327C30.6007 29.3327 30.5355 29.3311 30.4702 29.3281C30.4051 29.3249 30.34 29.3201 30.275 29.3138C30.21 29.3075 30.1452 29.2996 30.0806 29.2901C30.016 29.2806 29.9517 29.2695 29.8877 29.2568C29.8236 29.2441 29.7599 29.2299 29.6966 29.2141C29.6333 29.1983 29.5704 29.181 29.5079 29.1622C29.4454 29.1433 29.3833 29.1229 29.3218 29.1011C29.2603 29.0791 29.1994 29.0557 29.1391 29.0308C29.0787 29.006 29.019 28.9796 28.96 28.9518C28.9009 28.924 28.8425 28.8947 28.7849 28.8641C28.7273 28.8334 28.6704 28.8013 28.6143 28.7679C28.5583 28.7344 28.5031 28.6996 28.4487 28.6636C28.3943 28.6274 28.3409 28.5899 28.2884 28.5511C28.2359 28.5123 28.1843 28.4723 28.1337 28.4311C28.0831 28.3897 28.0336 28.3472 27.9852 28.3034C27.9367 28.2598 27.8893 28.2149 27.8431 28.1688C27.7968 28.1228 27.7516 28.0757 27.7076 28.0274C27.6637 27.9792 27.6209 27.9298 27.5793 27.8794C27.5378 27.8291 27.4975 27.7778 27.4585 27.7254C27.4194 27.6731 27.3816 27.6198 27.3452 27.5657C27.3088 27.5115 27.2737 27.4565 27.24 27.4007C27.2062 27.3448 27.1739 27.2881 27.143 27.2306C27.112 27.1731 27.0824 27.115 27.0543 27.0561C27.0263 26.9971 26.9996 26.9376 26.9743 26.8773C26.9492 26.8171 26.9255 26.7562 26.9032 26.6948C26.8811 26.6335 26.8604 26.5716 26.8412 26.5092C26.822 26.4468 26.8043 26.3839 26.7882 26.3207C26.7721 26.2574 26.7576 26.1938 26.7446 26.1298C26.7316 26.0658 26.7202 26.0016 26.7103 25.9371C26.7005 25.8725 26.6923 25.8077 26.6856 25.7428C26.6789 25.6779 26.6739 25.6128 26.6704 25.5476C26.6669 25.4824 26.665 25.4172 26.6647 25.3519C26.6644 25.2866 26.6657 25.2213 26.6686 25.1562C26.6715 25.0909 26.676 25.0258 26.6821 24.9608C26.6883 24.8958 26.696 24.831 26.7052 24.7664C26.7145 24.7018 26.7253 24.6374 26.7377 24.5733C26.7501 24.5092 26.7641 24.4455 26.7797 24.3821C26.7953 24.3186 26.8124 24.2557 26.831 24.1932C26.8496 24.1306 26.8698 24.0685 26.8915 24.0069C26.9131 23.9453 26.9363 23.8843 26.961 23.8238C26.9856 23.7634 27.0118 23.7036 27.0394 23.6444C27.0669 23.5853 27.0959 23.5268 27.1264 23.4691C27.1569 23.4113 27.1887 23.3543 27.222 23.2982C27.2552 23.242 27.2898 23.1867 27.3257 23.1322C27.3617 23.0777 27.399 23.0241 27.4376 22.9714C27.4762 22.9188 27.516 22.8671 27.5571 22.8164C27.5982 22.7657 27.6405 22.716 27.6841 22.6673C27.7276 22.6187 27.7723 22.5712 27.8182 22.5247C27.8641 22.4783 27.911 22.433 27.9591 22.3888C28.0073 22.3446 28.0564 22.3017 28.1066 22.2601C28.1568 22.2183 28.2079 22.1778 28.2601 22.1386C28.3123 22.0993 28.3655 22.0613 28.4195 22.0247C28.4736 21.9881 28.5285 21.9528 28.5842 21.9189C28.64 21.8849 28.6965 21.8523 28.7539 21.8212C28.8113 21.79 28.8694 21.7603 28.9281 21.7319C28.9869 21.7036 29.0464 21.6767 29.1066 21.6513C29.1667 21.6259 29.2274 21.602 29.2887 21.5796C29.3501 21.5571 29.4119 21.5362 29.4742 21.5168C29.5366 21.4974 29.5993 21.4795 29.6625 21.4632C29.7257 21.4468 29.7893 21.4321 29.8532 21.4188C29.9171 21.4056 29.9814 21.394 30.0459 21.3839C30.1104 21.3738 30.1751 21.3653 30.24 21.3584ZM30.9223 26.6313C30.9435 26.6271 30.9646 26.6223 30.9855 26.6171C31.0064 26.6118 31.0272 26.6061 31.0478 26.5998C31.0685 26.5936 31.089 26.5868 31.1094 26.5794C31.1296 26.5722 31.1497 26.5644 31.1697 26.5562C31.1896 26.5479 31.2093 26.5392 31.2288 26.5299C31.2483 26.5208 31.2676 26.5111 31.2866 26.5009C31.3057 26.4908 31.3245 26.4801 31.343 26.4689C31.3615 26.4578 31.3797 26.4463 31.3977 26.4344C31.4156 26.4224 31.4333 26.41 31.4506 26.3972C31.4679 26.3843 31.4849 26.3711 31.5016 26.3574C31.5184 26.3437 31.5347 26.3296 31.5507 26.3152C31.5667 26.3007 31.5824 26.2858 31.5976 26.2706C31.6129 26.2553 31.6277 26.2397 31.6422 26.2237C31.6568 26.2078 31.6709 26.1915 31.6846 26.1748C31.6984 26.1581 31.7116 26.1411 31.7245 26.1238C31.7374 26.1065 31.7499 26.0888 31.7619 26.0709C31.7739 26.053 31.7854 26.0348 31.7966 26.0163C31.8077 25.9978 31.8183 25.9791 31.8286 25.9601C31.8388 25.9411 31.8485 25.9218 31.8577 25.9023C31.867 25.8828 31.8758 25.8631 31.8841 25.8432C31.8924 25.8233 31.9002 25.8032 31.9075 25.7829C31.9148 25.7626 31.9216 25.7421 31.928 25.7214C31.9343 25.7008 31.9401 25.6801 31.9454 25.6592C31.9507 25.6383 31.9555 25.6172 31.9597 25.5961C31.964 25.5749 31.9677 25.5536 31.971 25.5323C31.9742 25.511 31.9769 25.4896 31.9791 25.4681C31.9813 25.4466 31.9829 25.4251 31.984 25.4036C31.9851 25.3821 31.9858 25.3605 31.9858 25.3389C31.9858 25.3173 31.9854 25.2958 31.9845 25.2742C31.9835 25.2526 31.9819 25.2311 31.9799 25.2096C31.9779 25.1881 31.9753 25.1667 31.9722 25.1453C31.9691 25.124 31.9655 25.1027 31.9613 25.0816C31.9572 25.0604 31.9525 25.0393 31.9473 25.0183C31.9423 24.9974 31.9366 24.9766 31.9303 24.9559C31.9242 24.9353 31.9175 24.9148 31.9104 24.8944C31.9032 24.8741 31.8955 24.8539 31.8874 24.8339C31.8792 24.8139 31.8705 24.7942 31.8614 24.7747C31.8522 24.7551 31.8426 24.7358 31.8325 24.7167C31.8224 24.6976 31.8118 24.6788 31.8008 24.6603C31.7898 24.6417 31.7784 24.6234 31.7665 24.6054C31.7546 24.5874 31.7422 24.5697 31.7295 24.5523C31.7167 24.5349 31.7036 24.5178 31.69 24.5011C31.6764 24.4843 31.6624 24.4679 31.648 24.4519C31.6336 24.4358 31.6188 24.4201 31.6036 24.4048C31.5884 24.3895 31.5729 24.3745 31.557 24.3599C31.5411 24.3453 31.5248 24.3311 31.5082 24.3173C31.4916 24.3036 31.4746 24.2902 31.4573 24.2772C31.4401 24.2643 31.4226 24.2518 31.4047 24.2397C31.3868 24.2276 31.3686 24.2159 31.3502 24.2047C31.3318 24.1935 31.3131 24.1828 31.2941 24.1724C31.2752 24.1622 31.256 24.1524 31.2365 24.1431C31.2171 24.1336 31.1974 24.1248 31.1775 24.1164C31.1576 24.108 31.1376 24.1001 31.1172 24.0927C31.097 24.0853 31.0766 24.0784 31.056 24.0721C31.0354 24.0656 31.0146 24.0597 30.9937 24.0543C30.9728 24.049 30.9518 24.0441 30.9307 24.0397C30.9096 24.0353 30.8883 24.0315 30.867 24.0282C30.8456 24.0248 30.8243 24.0221 30.8029 24.0198C30.7814 24.0176 30.7598 24.0158 30.7383 24.0146C30.7168 24.0133 30.6952 24.0126 30.6736 24.0126C30.652 24.0124 30.6305 24.0127 30.609 24.0136C30.5874 24.0145 30.5658 24.0159 30.5443 24.0178C30.5228 24.0198 30.5014 24.0223 30.4801 24.0253C30.4587 24.0283 30.4374 24.0318 30.4162 24.0358C30.3949 24.0399 30.3737 24.0445 30.3526 24.0496C30.3315 24.0546 30.3106 24.0603 30.2897 24.0664C30.269 24.0725 30.2483 24.0791 30.2278 24.0863C30.2073 24.0935 30.1871 24.1011 30.167 24.1093C30.1468 24.1175 30.1269 24.1261 30.1072 24.1352C30.0876 24.1443 30.0681 24.154 30.0489 24.1641C30.0297 24.1741 30.0107 24.1847 29.992 24.1957C29.9733 24.2067 29.9549 24.2182 29.9368 24.2302C29.9187 24.2421 29.9009 24.2544 29.8834 24.2672C29.8659 24.28 29.8486 24.2933 29.8317 24.3069C29.8149 24.3206 29.7984 24.3346 29.7822 24.3491C29.7661 24.3636 29.7502 24.3784 29.7347 24.3937C29.7193 24.4089 29.7043 24.4245 29.6896 24.4404C29.6749 24.4564 29.6607 24.4728 29.6469 24.4896C29.6329 24.5062 29.6195 24.5232 29.6065 24.5406C29.5934 24.5579 29.5808 24.5756 29.5686 24.5936C29.5564 24.6115 29.5447 24.6297 29.5335 24.6483C29.5222 24.6669 29.5114 24.6857 29.5011 24.7047C29.4908 24.7238 29.4809 24.7431 29.4715 24.7627C29.4621 24.7823 29.4533 24.8021 29.4449 24.8221C29.4364 24.8421 29.4285 24.8623 29.4211 24.8827C29.4137 24.903 29.4068 24.9236 29.4004 24.9443C29.3939 24.9651 29.3881 24.9859 29.3827 25.0069C29.3773 25.0279 29.3724 25.0491 29.3681 25.0704C29.3638 25.0917 29.3599 25.113 29.3566 25.1344C29.3533 25.1558 29.3506 25.1774 29.3484 25.1991C29.3462 25.2206 29.3445 25.2423 29.3433 25.2639C29.3422 25.2856 29.3416 25.3073 29.3415 25.3289C29.3413 25.3506 29.3417 25.3723 29.3427 25.3939C29.3437 25.4157 29.3452 25.4373 29.3472 25.4589C29.3493 25.4805 29.3519 25.5021 29.355 25.5236C29.3581 25.545 29.3617 25.5663 29.3659 25.5877C29.37 25.609 29.3747 25.6302 29.3799 25.6512C29.3851 25.6723 29.3908 25.6932 29.397 25.7141C29.4032 25.7348 29.41 25.7554 29.4172 25.7759C29.4245 25.7963 29.4322 25.8166 29.4405 25.8367C29.4486 25.8568 29.4574 25.8766 29.4666 25.8963C29.4759 25.9159 29.4856 25.9353 29.4957 25.9544C29.5059 25.9736 29.5165 25.9925 29.5276 26.0112C29.5387 26.0298 29.5502 26.0482 29.5622 26.0663C29.5742 26.0844 29.5867 26.1021 29.5996 26.1196C29.6125 26.1371 29.6258 26.1542 29.6395 26.1709C29.6532 26.1878 29.6674 26.2042 29.6819 26.2203C29.6964 26.2365 29.7114 26.2522 29.7267 26.2676C29.742 26.283 29.7576 26.298 29.7737 26.3126C29.7897 26.3271 29.8061 26.3413 29.8228 26.3552C29.8396 26.369 29.8567 26.3824 29.8741 26.3953C29.8915 26.4082 29.9092 26.4207 29.9272 26.4328C29.9453 26.4449 29.9636 26.4566 29.9822 26.4678C30.0008 26.479 30.0197 26.4897 30.0389 26.4999C30.0579 26.5102 30.0773 26.52 30.0968 26.5293C30.1165 26.5386 30.1364 26.5473 30.1564 26.5557C30.1764 26.564 30.1966 26.5718 30.2171 26.5792C30.2375 26.5865 30.2581 26.5933 30.2789 26.5997C30.2996 26.6059 30.3205 26.6117 30.3415 26.6171C30.3626 26.6223 30.3837 26.6271 30.405 26.6313C30.4263 26.6356 30.4477 26.6393 30.4691 26.6424C30.4906 26.6457 30.5121 26.6483 30.5337 26.6504C30.5553 26.6526 30.5769 26.6542 30.5986 26.6553C30.6203 26.6564 30.642 26.6569 30.6637 26.6569C30.6854 26.6569 30.7071 26.6564 30.7287 26.6553C30.7504 26.6542 30.772 26.6526 30.7936 26.6504C30.8153 26.6483 30.8368 26.6457 30.8582 26.6424C30.8797 26.6393 30.9011 26.6356 30.9223 26.6313Z" fill="#915DC2"/>
<path d="M48.1431 64C47.7611 63.8532 46.8161 63.7916 46.3533 63.7015C44.8424 63.4071 43.3408 62.8073 42.0113 62.037C41.9071 61.9768 41.8036 61.9154 41.7008 61.8527C41.598 61.79 41.496 61.7261 41.3948 61.6608C41.2936 61.5957 41.1933 61.5293 41.0937 61.4616C40.9941 61.3939 40.8954 61.3251 40.7976 61.255C40.6996 61.1849 40.6026 61.1136 40.5066 61.0411C40.4104 60.9687 40.3152 60.8951 40.2209 60.8202C40.1266 60.7454 40.0332 60.6694 39.9408 60.5923C39.8483 60.5153 39.7568 60.4371 39.6663 60.3577C39.5758 60.2784 39.4863 60.1979 39.3977 60.1163C39.3092 60.0348 39.2217 59.9521 39.1352 59.8685C39.0486 59.7848 38.9631 59.7001 38.8787 59.6142C38.7943 59.5284 38.7109 59.4415 38.6286 59.3537C38.5463 59.2659 38.4651 59.1771 38.3849 59.0872C38.3049 58.9974 38.2259 58.9066 38.1479 58.8148C38.0701 58.723 37.9933 58.6303 37.9177 58.5366C37.8421 58.4429 37.7676 58.3483 37.6943 58.2528C37.6211 58.1573 37.549 58.061 37.4781 57.9637C37.4071 57.8665 37.3374 57.7683 37.2689 57.6693C37.2004 57.5703 37.1331 57.4705 37.0671 57.37C37.001 57.2693 36.9362 57.1678 36.8727 57.0656C36.8091 56.9634 36.7468 56.8605 36.6857 56.7567C36.6247 56.653 36.5649 56.5485 36.5064 56.4432C36.448 56.338 36.3908 56.2321 36.3349 56.1255C36.2791 56.0188 36.2246 55.9115 36.1713 55.8035C36.1181 55.6956 36.0661 55.587 36.0156 55.4777C35.9651 55.3685 35.9158 55.2586 35.8679 55.1482C35.8201 55.0377 35.7736 54.9267 35.7284 54.8151C35.6833 54.7035 35.6396 54.5914 35.5972 54.4787C35.5548 54.366 35.5138 54.2529 35.4742 54.1392C35.4346 54.0256 35.3964 53.9114 35.3596 53.7967C35.3228 53.6821 35.2874 53.5671 35.2534 53.4516C35.2195 53.3361 35.187 53.2202 35.1558 53.104C35.125 52.9877 35.0956 52.8711 35.0676 52.7541C35.0396 52.6371 35.013 52.5198 34.9879 52.4021C34.9628 52.2844 34.9391 52.1665 34.9169 52.0482C34.8948 51.93 34.874 51.8115 34.8547 51.6928C34.8354 51.5741 34.8176 51.4551 34.8012 51.3358C34.7848 51.2167 34.77 51.0973 34.7566 50.9778C34.7431 50.8583 34.7312 50.7386 34.7207 50.6187C34.7102 50.4989 34.7012 50.3789 34.6937 50.2588C34.6862 50.1388 34.6801 50.0186 34.6756 49.8985C34.671 49.7782 34.6679 49.658 34.6663 49.5377C34.6646 49.4174 34.6645 49.2971 34.6658 49.1768C34.6671 49.0565 34.67 48.9363 34.6743 48.8161C34.6786 48.6958 34.6844 48.5757 34.6917 48.4556C34.6989 48.3355 34.7076 48.2155 34.7178 48.0957C34.7281 47.9758 34.7398 47.8561 34.7529 47.7365C34.7661 47.6169 34.7807 47.4975 34.7968 47.3783C34.8129 47.2591 34.8304 47.1401 34.8494 47.0213C34.8684 46.9025 34.8889 46.784 34.9108 46.6657C34.9328 46.5474 34.9562 46.4294 34.9811 46.3117C35.0059 46.194 35.0321 46.0766 35.0598 45.9596C35.0876 45.8425 35.1167 45.7258 35.1473 45.6095C35.1779 45.4931 35.2099 45.3772 35.2434 45.2616C35.2768 45.146 35.3117 45.0309 35.3481 44.9162C35.3843 44.8015 35.422 44.6872 35.4611 44.5735C35.5001 44.4597 35.5406 44.3465 35.5826 44.2337C35.6244 44.1209 35.6676 44.0086 35.7123 43.897C35.7569 43.7852 35.8029 43.6741 35.8503 43.5635C35.8976 43.4529 35.9464 43.3429 35.9964 43.2336C36.0465 43.1242 36.0979 43.0154 36.1507 42.9073C36.2034 42.7992 36.2575 42.6917 36.3129 42.585C36.3683 42.4782 36.4251 42.3721 36.4831 42.2667C36.5411 42.1613 36.6003 42.0566 36.6609 41.9527C36.7212 41.8488 36.7827 41.7457 36.8454 41.6433C36.9083 41.5409 36.9723 41.4393 37.0376 41.3385C37.1029 41.2377 37.1694 41.1378 37.2372 41.0386C37.3049 40.9394 37.3739 40.8411 37.4441 40.7436C37.5143 40.6462 37.5857 40.5496 37.6583 40.4538C37.7308 40.3582 37.8045 40.2634 37.8794 40.1695C37.9543 40.0756 38.0304 39.9827 38.1077 39.8907C38.1848 39.7987 38.2632 39.7077 38.3427 39.6176C38.4221 39.5275 38.5026 39.4384 38.5843 39.3503C38.666 39.2623 38.7487 39.1752 38.8324 39.0892C38.9163 39.0031 39.0011 38.9181 39.0871 38.8342C39.173 38.7503 39.2599 38.6674 39.3478 38.5856C39.4357 38.5038 39.5246 38.423 39.6146 38.3435C39.7046 38.2639 39.7955 38.1854 39.8873 38.1081C39.9791 38.0307 40.0719 37.9544 40.1657 37.8793C40.2594 37.8043 40.3541 37.7304 40.4497 37.6577C40.5453 37.585 40.6417 37.5134 40.7391 37.4431C40.8364 37.3727 40.9346 37.3035 41.0337 37.2356C41.1328 37.1677 41.2326 37.101 41.3333 37.0355C41.434 36.9701 41.5355 36.9058 41.6378 36.8428C41.7401 36.7799 41.8431 36.7183 41.9469 36.6578C42.0507 36.5974 42.1552 36.5383 42.2604 36.4805C42.3657 36.4226 42.4716 36.3661 42.5783 36.3108C42.685 36.2556 42.7923 36.2017 42.9003 36.1491C43.0083 36.0966 43.1169 36.0454 43.2262 35.9955C43.3354 35.9455 43.4453 35.897 43.5557 35.8498C43.6662 35.8027 43.7772 35.7568 43.8888 35.7123C44.0003 35.6679 44.1124 35.6249 44.2251 35.5832C44.3377 35.5415 44.4509 35.5013 44.5646 35.4623C44.6781 35.4235 44.7922 35.386 44.9068 35.35C45.0214 35.3139 45.1364 35.2792 45.2518 35.246C45.3672 35.2127 45.483 35.1809 45.5992 35.1506C45.7153 35.1198 45.8318 35.0906 45.9487 35.0627C46.0655 35.0348 46.1827 35.0083 46.3002 34.9833C46.4178 34.9584 46.5356 34.9349 46.6537 34.9128C46.7718 34.8908 46.8901 34.8701 47.0087 34.851C47.1273 34.8318 47.2461 34.8141 47.3652 34.7978C47.4842 34.7817 47.6034 34.7669 47.7228 34.7536C47.8422 34.7403 47.9618 34.7286 48.0814 34.7182C48.2011 34.7079 48.3209 34.6991 48.4408 34.6917C48.5607 34.6843 48.6807 34.6784 48.8008 34.674C48.9209 34.6696 49.041 34.6667 49.1611 34.6652C49.2812 34.6638 49.4013 34.6638 49.5214 34.6653C49.6416 34.6668 49.7617 34.6698 49.8818 34.6743C50.0018 34.6788 50.1218 34.6848 50.2417 34.6922C50.3616 34.6997 50.4814 34.7087 50.6011 34.7191C50.7208 34.7294 50.8403 34.7413 50.9597 34.7547C51.0791 34.7681 51.1983 34.7828 51.3173 34.7991C51.4364 34.8154 51.5552 34.8332 51.6738 34.8525C51.7924 34.8716 51.9107 34.8923 52.0288 34.9145C52.1469 34.9366 52.2647 34.9603 52.3822 34.9853C52.4997 35.0103 52.6168 35.0368 52.7337 35.0648C52.8505 35.0928 52.967 35.1221 53.0831 35.153C53.1992 35.1838 53.315 35.216 53.4303 35.2497C53.5456 35.2834 53.6604 35.3185 53.7749 35.355C53.8893 35.3915 54.0033 35.4294 54.1169 35.4687C54.2304 35.5081 54.3434 35.5488 54.4559 35.5908C54.5684 35.633 54.6804 35.6765 54.7919 35.7213C54.9033 35.7663 55.0142 35.8125 55.1244 35.8601C55.2348 35.9078 55.3445 35.9568 55.4536 36.0071C55.5626 36.0573 55.6711 36.109 55.7789 36.162C55.8868 36.215 55.9939 36.2693 56.1003 36.325C56.2068 36.3806 56.3126 36.4376 56.4177 36.4958C56.5228 36.5541 56.6271 36.6136 56.7307 36.6745C56.8323 36.7341 56.9333 36.7948 57.0334 36.8567C57.1337 36.9187 57.2331 36.9819 57.3318 37.0462C57.4305 37.1106 57.5283 37.1762 57.6254 37.2428C57.7225 37.3096 57.8188 37.3775 57.9143 37.4465C58.0098 37.5155 58.1044 37.5857 58.1982 37.657C58.292 37.7283 58.3849 37.8007 58.4769 37.8742C58.569 37.9478 58.6602 38.0224 58.7504 38.0981C58.8407 38.1738 58.93 38.2506 59.0184 38.3285C59.1068 38.4064 59.1944 38.4853 59.2809 38.5652C59.3674 38.6452 59.453 38.7262 59.5376 38.8082C59.6221 38.8902 59.7057 38.9733 59.7883 39.0573C59.8709 39.1413 59.9524 39.2263 60.0329 39.3123C60.1135 39.3983 60.193 39.4853 60.2714 39.5732C60.3498 39.6611 60.4272 39.7498 60.5036 39.8396C60.5799 39.9293 60.6551 40.02 60.7293 40.1116C60.8035 40.2032 60.8765 40.2956 60.9484 40.389C61.0203 40.4822 61.0911 40.5764 61.1608 40.6715C61.2305 40.7665 61.299 40.8623 61.3663 40.959C61.4336 41.0556 61.4998 41.1531 61.5648 41.2513C61.6299 41.3496 61.6937 41.4486 61.7563 41.5483C61.819 41.6481 61.8804 41.7486 61.9407 41.8498C62.0009 41.9511 62.0599 42.0531 62.1177 42.1558C62.1754 42.2585 62.232 42.3618 62.2873 42.4658C62.3426 42.5698 62.3966 42.6745 62.4494 42.7798C62.5022 42.8852 62.5537 42.9911 62.6039 43.0977C62.6542 43.2043 62.7031 43.3115 62.7508 43.4192C62.7985 43.527 62.8448 43.6353 62.8899 43.7441C62.9349 43.8529 62.9787 43.9623 63.0212 44.0722C63.0636 44.1821 63.1047 44.2926 63.1444 44.4035C63.1843 44.5144 63.2227 44.6257 63.2598 44.7375C63.297 44.8493 63.3328 44.9616 63.3672 45.0742C63.4016 45.1869 63.4346 45.3 63.4663 45.4135C63.6111 45.9197 63.7222 46.4333 63.7994 46.9541C63.8594 47.369 63.8822 47.8227 63.9913 48.2255C63.9941 48.2358 63.9972 48.2461 64.0001 48.2563V50.4537C63.9971 50.4637 63.9939 50.4736 63.9912 50.4836C63.8681 50.917 63.8416 51.4117 63.7743 51.859C63.6961 52.3795 63.5693 52.9013 63.4231 53.407C63.3897 53.5205 63.3551 53.6336 63.3191 53.7463C63.2831 53.859 63.2457 53.9712 63.2069 54.083C63.1682 54.1948 63.1281 54.3061 63.0868 54.417C63.0454 54.5278 63.0026 54.6381 62.9586 54.748C62.9146 54.8577 62.8692 54.967 62.8226 55.0757C62.7759 55.1845 62.7279 55.2926 62.6787 55.4002C62.6294 55.5077 62.5789 55.6147 62.5271 55.7211C62.4752 55.8274 62.4221 55.9331 62.3678 56.0382C62.3134 56.1433 62.2578 56.2477 62.2009 56.3515C62.1441 56.4552 62.086 56.5583 62.0267 56.6606C61.9674 56.7629 61.9068 56.8646 61.8449 56.9655C61.7832 57.0664 61.7202 57.1665 61.6561 57.266C61.5919 57.3653 61.5265 57.4639 61.4599 57.5617C61.3933 57.6595 61.3256 57.7566 61.2568 57.8528C61.1879 57.949 61.1178 58.0443 61.0467 58.1388C60.9755 58.2333 60.9032 58.327 60.8298 58.4198C60.7565 58.5126 60.682 58.6045 60.6063 58.6955C60.5307 58.7865 60.454 58.8766 60.3762 58.9657C60.2984 59.0548 60.2196 59.143 60.1397 59.2303C60.0598 59.3176 59.9789 59.4039 59.8969 59.4892C59.815 59.5745 59.7321 59.6588 59.6481 59.7421C59.5641 59.8254 59.4791 59.9078 59.3931 59.9891C59.3071 60.0703 59.2202 60.1506 59.1323 60.2298C59.0444 60.309 58.9556 60.3871 58.8658 60.4642C58.7761 60.5413 58.6854 60.6173 58.5938 60.6922C58.5022 60.7671 58.4098 60.8408 58.3164 60.9135C58.223 60.9861 58.1288 61.0577 58.0337 61.1281C57.9387 61.1985 57.8428 61.2678 57.7461 61.336C57.6493 61.404 57.5518 61.471 57.4534 61.5367C57.3551 61.6026 57.256 61.6671 57.1561 61.7305C57.0561 61.7939 56.9555 61.8561 56.8541 61.9171C56.7527 61.9781 56.6506 62.0378 56.5478 62.0963C55.2327 62.846 53.7601 63.4225 52.2731 63.7171C51.8046 63.81 50.9796 63.8331 50.5797 64H48.1431ZM49.6096 61.3221C49.8057 61.3175 50.0016 61.3081 50.1973 61.294C50.393 61.2798 50.5881 61.2608 50.7828 61.2371C50.9776 61.2133 51.1716 61.1847 51.3649 61.1515C51.5583 61.1181 51.7507 61.0801 51.9422 61.0375C52.1336 60.9947 52.3239 60.9473 52.5131 60.8952C52.7022 60.8431 52.89 60.7865 53.0763 60.7252C53.2627 60.6639 53.4475 60.598 53.6306 60.5277C53.8137 60.4574 53.995 60.3826 54.1744 60.3033C54.3539 60.2241 54.5314 60.1405 54.7067 60.0526C54.882 59.9646 55.0551 59.8724 55.2259 59.776C55.3968 59.6795 55.5651 59.5789 55.7311 59.4742C55.897 59.3695 56.0602 59.2607 56.2208 59.148C56.3813 59.0353 56.539 58.9187 56.6938 58.7982C56.8486 58.6778 57.0004 58.5536 57.1492 58.4257C57.2979 58.2978 57.4435 58.1663 57.5858 58.0312C57.7281 57.8961 57.8669 57.7577 58.0024 57.6158C58.1379 57.4739 58.2698 57.3288 58.3982 57.1805C58.5266 57.0321 58.6513 56.8807 58.7722 56.7262C58.8932 56.5718 59.0103 56.4145 59.1234 56.2542C59.2367 56.0941 59.3459 55.9312 59.4512 55.7656C59.5563 55.6 59.6574 55.432 59.7544 55.2615C59.8514 55.0909 59.9442 54.9181 60.0327 54.743C60.1212 54.5679 60.2053 54.3908 60.2851 54.2116C60.3649 54.0323 60.4403 53.8513 60.5112 53.6683C60.5821 53.4854 60.6485 53.3009 60.7103 53.1147C60.7722 52.9286 60.8295 52.741 60.8822 52.552C60.9348 52.363 60.9827 52.1729 61.0261 51.9816C61.0694 51.7903 61.108 51.598 61.1419 51.4047C61.1758 51.2115 61.2049 51.0175 61.2293 50.8228C61.2536 50.6282 61.2732 50.4331 61.2881 50.2375C61.3028 50.0418 61.3128 49.8459 61.3179 49.6498C61.3231 49.4538 61.3235 49.2576 61.3191 49.0615C61.3146 48.8653 61.3054 48.6694 61.2913 48.4737C61.2772 48.2781 61.2584 48.0828 61.2347 47.8881C61.2111 47.6933 61.1827 47.4993 61.1496 47.306C61.1164 47.1126 61.0785 46.9202 61.0358 46.7287C60.9932 46.5372 60.946 46.3469 60.8941 46.1577C60.8421 45.9686 60.7855 45.7808 60.7243 45.5943C60.6631 45.4079 60.5975 45.2231 60.5273 45.04C60.4571 44.8568 60.3823 44.6755 60.3032 44.496C60.224 44.3164 60.1405 44.1389 60.0527 43.9635C59.9648 43.7881 59.8728 43.615 59.7764 43.4441C59.6801 43.2732 59.5796 43.1048 59.4751 42.9388C59.3704 42.7728 59.2618 42.6095 59.1492 42.4488C59.0365 42.2883 58.92 42.1305 58.7997 41.9756C58.6793 41.8207 58.5553 41.6688 58.4274 41.52C58.2996 41.3711 58.1682 41.2255 58.0332 41.0832C57.8983 40.9408 57.7599 40.8018 57.6181 40.6662C57.4763 40.5306 57.3313 40.3986 57.1831 40.2702C57.0347 40.1417 56.8834 40.0169 56.7291 39.8958C56.5746 39.7748 56.4173 39.6577 56.2572 39.5443C56.0971 39.431 55.9343 39.3217 55.7688 39.2163C55.6033 39.111 55.4353 39.0098 55.2648 38.9127C55.0943 38.8156 54.9216 38.7228 54.7466 38.6342C54.5716 38.5456 54.3945 38.4614 54.2153 38.3815C54.0361 38.3016 53.8551 38.226 53.6722 38.155C53.4894 38.084 53.3048 38.0175 53.1187 37.9555C52.9326 37.8935 52.7451 37.8361 52.5561 37.7833C52.3671 37.7306 52.177 37.6825 51.9857 37.639C51.7944 37.5956 51.6021 37.5568 51.4089 37.5228C51.2157 37.4888 51.0218 37.4596 50.8272 37.4351C50.6325 37.4106 50.4374 37.3909 50.2418 37.376C50.0461 37.3611 49.8503 37.351 49.6542 37.3457C49.4581 37.3404 49.262 37.3399 49.0658 37.3442C48.8696 37.3486 48.6735 37.3577 48.4776 37.3716C48.2817 37.3856 48.0864 37.4044 47.8914 37.428C47.6965 37.4515 47.5023 37.4798 47.3088 37.5128C47.1153 37.5459 46.9227 37.5838 46.7311 37.6263C46.5393 37.6689 46.3488 37.7162 46.1594 37.7681C45.9701 37.82 45.7821 37.8765 45.5956 37.9376C45.409 37.9988 45.224 38.0645 45.0407 38.1347C44.8574 38.2049 44.6758 38.2796 44.4962 38.3587C44.3165 38.4379 44.1389 38.5214 43.9633 38.6092C43.7877 38.6971 43.6144 38.7893 43.4433 38.8856C43.2722 38.982 43.1036 39.0825 42.9376 39.1872C42.7715 39.2919 42.608 39.4005 42.4472 39.5132C42.2864 39.6259 42.1285 39.7425 41.9734 39.863C41.8184 39.9834 41.6664 40.1076 41.5174 40.2355C41.3685 40.3634 41.2228 40.4949 41.0803 40.63C40.9378 40.765 40.7987 40.9034 40.6631 41.0453C40.5273 41.1873 40.3952 41.3324 40.2667 41.4808C40.1381 41.6292 40.0132 41.7806 39.8921 41.9352C39.771 42.0897 39.6537 42.2471 39.5403 42.4073C39.4269 42.5677 39.3175 42.7307 39.2122 42.8963C39.1068 43.062 39.0055 43.2301 38.9083 43.4007C38.8112 43.5714 38.7183 43.7443 38.6297 43.9195C38.5411 44.0946 38.4568 44.2719 38.3768 44.4512C38.2969 44.6305 38.2214 44.8118 38.1504 44.9948C38.0793 45.1778 38.0128 45.3625 37.9509 45.5488C37.8889 45.7351 37.8316 45.9228 37.7789 46.112C37.7262 46.3011 37.6781 46.4913 37.6347 46.6828C37.5913 46.8743 37.5526 47.0668 37.5187 47.2601C37.4848 47.4535 37.4556 47.6476 37.4312 47.8425C37.4068 48.0372 37.3871 48.2325 37.3723 48.4283C37.3575 48.6241 37.3475 48.8201 37.3423 49.0163C37.3371 49.2127 37.3368 49.409 37.3412 49.6052C37.3456 49.8015 37.3548 49.9975 37.3689 50.1933C37.383 50.3892 37.4019 50.5845 37.4256 50.7795C37.4493 50.9744 37.4778 51.1686 37.5109 51.3621C37.5442 51.5556 37.5821 51.7482 37.6248 51.9398C37.6675 52.1315 37.7148 52.322 37.7668 52.5113C37.8189 52.7006 37.8756 52.8885 37.9368 53.0751C37.9981 53.2616 38.0638 53.4465 38.1342 53.6298C38.2045 53.8131 38.2793 53.9946 38.3586 54.1742C38.4378 54.3538 38.5214 54.5314 38.6094 54.707C38.6974 54.8825 38.7897 55.0557 38.8862 55.2267C38.9826 55.3977 39.0832 55.5662 39.1881 55.7322C39.2928 55.8983 39.4016 56.0617 39.5143 56.2225C39.6271 56.3831 39.7438 56.541 39.8643 56.696C39.9849 56.8509 40.1092 57.0028 40.2372 57.1517C40.3652 57.3005 40.4968 57.4462 40.6319 57.5886C40.7671 57.731 40.9057 57.87 41.0477 58.0056C41.1896 58.1413 41.3348 58.2733 41.4833 58.4017C41.6318 58.5302 41.7833 58.655 41.9379 58.776C42.0925 58.8971 42.25 59.0142 42.4103 59.1275C42.5707 59.2408 42.7338 59.3501 42.8994 59.4553C43.0652 59.5606 43.2334 59.6618 43.4041 59.7588C43.5747 59.8558 43.7477 59.9486 43.9229 60.0371C44.0982 60.1257 44.2755 60.2099 44.4549 60.2897C44.6343 60.3695 44.8156 60.4448 44.9986 60.5157C45.1816 60.5866 45.3664 60.653 45.5528 60.7148C45.7391 60.7768 45.9269 60.834 46.1161 60.8866C46.3051 60.9392 46.4955 60.9871 46.6871 61.0305C46.8786 61.0737 47.071 61.1123 47.2643 61.1461C47.4577 61.1799 47.6519 61.209 47.8467 61.2332C48.0415 61.2576 48.2368 61.2771 48.4327 61.2917C48.6284 61.3064 48.8244 61.3163 49.0207 61.3213C49.217 61.3264 49.4133 61.3267 49.6096 61.3221Z" fill="#915DC2"/>
<path d="M48.8986 40.0128C50.392 39.9596 51.8422 40.239 53.1545 40.9732C54.3945 41.6668 55.4439 42.7735 55.8317 44.1641C56.1395 45.2671 56.0151 46.5095 55.4476 47.5092C54.4684 49.2343 52.489 49.9434 50.6826 50.4387C50.6221 51.0908 50.804 52.0732 50.492 52.6413C50.311 52.971 49.9672 53.2259 49.6029 53.3163C49.277 53.397 48.9232 53.3125 48.642 53.1385C48.3581 52.9629 48.1224 52.6803 48.048 52.3499C47.9462 51.8982 47.9591 49.4875 48.0574 48.9918C48.0874 48.8399 48.1501 48.7162 48.2349 48.588C48.5805 48.0649 49.1309 48.0121 49.6954 47.8958C50.8117 47.6683 52.2884 47.3099 52.9992 46.3432C53.281 45.96 53.3717 45.4931 53.2939 45.0289C53.1889 44.4025 52.7291 43.8709 52.2217 43.5178C51.0807 42.7237 49.5672 42.5412 48.2219 42.7927C47.1536 42.9923 45.7816 43.622 45.4314 44.7518C45.3147 45.1282 45.3156 45.5297 45.0774 45.8625C44.8662 46.1575 44.5486 46.3565 44.1872 46.4023C44.1404 46.4078 44.0934 46.4109 44.0462 46.4117C43.9992 46.4123 43.9521 46.4106 43.9051 46.4065C43.8581 46.4024 43.8115 46.3958 43.7652 46.3869C43.7189 46.378 43.6732 46.3667 43.6281 46.353C43.5829 46.3394 43.5386 46.3234 43.4951 46.3053C43.4516 46.2871 43.4092 46.2667 43.3679 46.2442C43.3264 46.2216 43.2863 46.1969 43.2474 46.1703C43.2085 46.1436 43.1712 46.115 43.1352 46.0844C42.863 45.8555 42.7114 45.5608 42.6826 45.2068C42.6 44.1887 43.2072 42.987 43.8594 42.2417C45.1389 40.7793 47.0065 40.1439 48.8986 40.0128Z" fill="#915DC2"/>
<path d="M49.0895 56.0385C49.1109 56.0346 49.1324 56.0312 49.154 56.0283C49.1756 56.0254 49.1972 56.0231 49.219 56.0213C49.2406 56.0194 49.2624 56.0181 49.2842 56.0174C49.306 56.0166 49.3277 56.0164 49.3495 56.0168C49.3713 56.0171 49.3931 56.018 49.4149 56.0194C49.4365 56.0208 49.4582 56.0228 49.4798 56.0253C49.5015 56.0278 49.5231 56.0308 49.5446 56.0343C49.5661 56.0378 49.5875 56.0419 49.6087 56.0465C49.6301 56.0511 49.6512 56.0562 49.6722 56.0619C49.6933 56.0675 49.7142 56.0737 49.735 56.0804C49.7556 56.087 49.7762 56.0942 49.7966 56.1019C49.817 56.1095 49.8372 56.1178 49.8571 56.1265C49.8771 56.1352 49.8968 56.1443 49.9163 56.154C49.9359 56.1637 49.9552 56.1738 49.9742 56.1844C49.9932 56.195 50.012 56.206 50.0305 56.2176C50.049 56.2291 50.0671 56.2411 50.085 56.2536C50.1029 56.266 50.1205 56.2789 50.1377 56.2921C50.155 56.3055 50.1719 56.3192 50.1885 56.3334C50.2051 56.3475 50.2213 56.362 50.2371 56.377C50.2529 56.3919 50.2684 56.4072 50.2836 56.4229C50.2987 56.4386 50.3134 56.4547 50.3277 56.4711C50.342 56.4875 50.3558 56.5043 50.3693 56.5214C50.3828 56.5385 50.3959 56.556 50.4085 56.5738C50.4211 56.5915 50.4333 56.6095 50.445 56.6279C50.4567 56.6462 50.468 56.6648 50.4788 56.6838C50.4896 56.7027 50.4999 56.7218 50.5099 56.7413C50.5197 56.7608 50.5291 56.7804 50.538 56.8003C50.5469 56.8202 50.5553 56.8403 50.5631 56.8605C50.571 56.8808 50.5784 56.9013 50.5854 56.922C50.5923 56.9427 50.5986 56.9635 50.6045 56.9845C50.6103 57.0055 50.6156 57.0266 50.6205 57.0479C50.6253 57.0691 50.6296 57.0905 50.6333 57.1119C50.6371 57.1333 50.6403 57.1548 50.6431 57.1765C50.6458 57.1981 50.6479 57.2198 50.6496 57.2415C50.6512 57.2633 50.6523 57.285 50.6528 57.3068C50.6534 57.3285 50.6534 57.3503 50.6528 57.3721C50.6523 57.3939 50.6513 57.4156 50.6497 57.4374C50.6481 57.459 50.646 57.4807 50.6434 57.5024C50.6407 57.524 50.6375 57.5455 50.6339 57.567C50.6301 57.5884 50.6258 57.6098 50.6211 57.631C50.6163 57.6523 50.6109 57.6734 50.6051 57.6944C50.5994 57.7154 50.593 57.7362 50.5861 57.7569C50.5793 57.7776 50.5719 57.7981 50.5641 57.8184C50.5563 57.8387 50.5479 57.8588 50.539 57.8788C50.5301 57.8987 50.5208 57.9183 50.511 57.9378C50.5011 57.9573 50.4909 57.9765 50.4801 57.9954C50.4694 58.0143 50.4581 58.033 50.4465 58.0514C50.4347 58.0697 50.4226 58.0878 50.41 58.1056C50.3974 58.1234 50.3844 58.1408 50.371 58.158C50.3576 58.1751 50.3437 58.1919 50.3294 58.2084C50.3151 58.2248 50.3004 58.2409 50.2853 58.2566C50.2703 58.2724 50.2549 58.2877 50.2391 58.3026C50.2233 58.3176 50.2071 58.3322 50.1905 58.3464C50.174 58.3605 50.1571 58.3743 50.1398 58.3876C50.1226 58.401 50.1051 58.4139 50.0872 58.4264C50.0694 58.4389 50.0512 58.4509 50.0327 58.4624C50.0143 58.474 49.9956 58.4851 49.9766 58.4958C49.9576 58.5064 49.9384 58.5166 49.9189 58.5263C49.8994 58.536 49.8796 58.5453 49.8596 58.554C49.8396 58.5627 49.8194 58.5709 49.7991 58.5786C49.7788 58.5864 49.7582 58.5936 49.7375 58.6003C49.7167 58.607 49.6958 58.6132 49.6748 58.6189C49.6538 58.6246 49.6327 58.6298 49.6113 58.6344C49.5901 58.639 49.5687 58.6432 49.5472 58.6468C49.526 58.6503 49.5046 58.6534 49.4832 58.6559C49.4618 58.6584 49.4404 58.6603 49.4189 58.6618C49.3974 58.6633 49.3758 58.6642 49.3542 58.6646C49.3327 58.665 49.3112 58.6649 49.2896 58.6643C49.2681 58.6636 49.2466 58.6624 49.2251 58.6608C49.2036 58.6591 49.1821 58.6569 49.1607 58.6541C49.1394 58.6514 49.1181 58.6481 49.0968 58.6443C49.0756 58.6405 49.0545 58.6362 49.0335 58.6314C49.0125 58.6265 48.9916 58.6212 48.9709 58.6154C48.9501 58.6095 48.9295 58.6032 48.9091 58.5964C48.8886 58.5895 48.8683 58.5822 48.8482 58.5744C48.8281 58.5666 48.8083 58.5583 48.7886 58.5495C48.7689 58.5407 48.7495 58.5314 48.7302 58.5216C48.7111 58.5119 48.6921 58.5017 48.6733 58.491C48.6546 58.4803 48.6361 58.4692 48.618 58.4576C48.5998 58.446 48.5819 58.434 48.5644 58.4216C48.5468 58.4091 48.5295 58.3963 48.5125 58.383C48.4955 58.3697 48.4788 58.356 48.4626 58.3419C48.4463 58.3278 48.4303 58.3133 48.4147 58.2984C48.3991 58.2835 48.3839 58.2683 48.3691 58.2526C48.3543 58.237 48.3398 58.2211 48.3257 58.2048C48.3116 58.1883 48.298 58.1716 48.2847 58.1546C48.2715 58.1376 48.2586 58.1203 48.2462 58.1028C48.2339 58.0851 48.2219 58.0672 48.2104 58.049C48.1989 58.0308 48.1878 58.0123 48.1771 57.9935C48.1665 57.9748 48.1564 57.9558 48.1466 57.9365C48.1369 57.9173 48.1277 57.8978 48.119 57.8781C48.1102 57.8584 48.102 57.8385 48.0942 57.8184C48.0864 57.7983 48.0791 57.778 48.0724 57.7575C48.0656 57.7371 48.0593 57.7165 48.0535 57.6958C48.0477 57.6749 48.0425 57.654 48.0377 57.633C48.033 57.612 48.0287 57.5909 48.025 57.5696C48.0212 57.5484 48.018 57.5271 48.0153 57.5058C48.0127 57.4843 48.0105 57.4629 48.0089 57.4414C48.0073 57.4199 48.0061 57.3983 48.0055 57.3768C48.0049 57.3553 48.0049 57.3337 48.0054 57.3121C48.0059 57.2906 48.0068 57.2691 48.0083 57.2476C48.0098 57.2261 48.0119 57.2047 48.0145 57.1833C48.0171 57.1618 48.0201 57.1405 48.0237 57.1193C48.0273 57.098 48.0314 57.0768 48.0361 57.0558C48.0407 57.0348 48.0458 57.0138 48.0515 56.993C48.0571 56.9723 48.0633 56.9516 48.07 56.9311C48.0766 56.9106 48.0838 56.8903 48.0915 56.8701C48.0991 56.85 48.1073 56.83 48.116 56.8103C48.1246 56.7905 48.1337 56.771 48.1434 56.7516C48.1529 56.7324 48.163 56.7133 48.1735 56.6945C48.184 56.6757 48.1949 56.6571 48.2064 56.6389C48.2178 56.6205 48.2296 56.6025 48.242 56.5849C48.2543 56.5672 48.2671 56.5498 48.2802 56.5328C48.2933 56.5157 48.3068 56.4989 48.3208 56.4825C48.3348 56.4661 48.3492 56.45 48.364 56.4343C48.3787 56.4186 48.3938 56.4033 48.4093 56.3883C48.4248 56.3733 48.4407 56.3587 48.457 56.3445C48.4731 56.3303 48.4897 56.3165 48.5066 56.3031C48.5235 56.2897 48.5407 56.2768 48.5582 56.2643C48.5757 56.2517 48.5936 56.2395 48.6117 56.2279C48.6298 56.2162 48.6482 56.205 48.6668 56.1941C48.6855 56.1834 48.7044 56.1731 48.7236 56.1633C48.7428 56.1533 48.7622 56.1439 48.7819 56.135C48.8014 56.1262 48.8213 56.1178 48.8413 56.1098C48.8613 56.1018 48.8816 56.0944 48.902 56.0874C48.9224 56.0805 48.9429 56.074 48.9636 56.0681C48.9844 56.0621 49.0052 56.0567 49.0262 56.0518C49.0472 56.0468 49.0683 56.0424 49.0895 56.0385Z" fill="#915DC2"/>
<path d="M10.8917 0H50.4168C50.4254 0.00316683 50.434 0.00649278 50.4427 0.00950049C50.7746 0.124242 51.1558 0.126992 51.5011 0.18821C51.9641 0.27026 52.429 0.393108 52.8774 0.533885C52.9738 0.564033 53.0698 0.595386 53.1655 0.627946C53.2612 0.660505 53.3564 0.69426 53.4512 0.72921C53.5461 0.76416 53.6404 0.800295 53.7342 0.837614C53.8282 0.874933 53.9216 0.913425 54.0145 0.953089C54.1075 0.992753 54.2 1.03358 54.2919 1.07556C54.3838 1.11755 54.4751 1.16068 54.5659 1.20496C54.6567 1.24924 54.747 1.29465 54.8368 1.34119C54.9264 1.38774 55.0155 1.4354 55.104 1.48417C55.1925 1.53296 55.2804 1.58285 55.3676 1.63384C55.4548 1.68482 55.5414 1.73689 55.6274 1.79005C55.7133 1.84322 55.7985 1.89745 55.8831 1.95275C55.9677 2.00805 56.0515 2.0644 56.1346 2.12181C56.2178 2.17922 56.3002 2.23766 56.382 2.29714C56.4637 2.35661 56.5446 2.4171 56.6247 2.47861C56.7049 2.54012 56.7843 2.60263 56.8629 2.66613C56.9415 2.72963 57.0192 2.7941 57.0962 2.85955C57.1732 2.92501 57.2494 2.99142 57.3247 3.05879C57.4 3.12615 57.4745 3.19445 57.5481 3.26369C57.6217 3.33292 57.6944 3.40307 57.7663 3.47412C57.8381 3.54518 57.909 3.61713 57.979 3.68998C58.0491 3.76282 58.1182 3.83652 58.1864 3.9111C58.2545 3.98567 58.3218 4.0611 58.3881 4.13736C58.4544 4.21363 58.5197 4.29071 58.584 4.36861C58.6483 4.44652 58.7117 4.52522 58.7741 4.60471C58.8365 4.68421 58.8979 4.76448 58.9582 4.84551C59.0186 4.92655 59.0779 5.00832 59.1362 5.09085C59.1946 5.17337 59.2518 5.25662 59.308 5.34059C59.3642 5.42455 59.4194 5.5092 59.4735 5.59455C59.5276 5.6799 59.5806 5.76591 59.6325 5.85259C59.6845 5.93927 59.7353 6.02659 59.785 6.11454C59.8347 6.2025 59.8834 6.29106 59.931 6.38024C59.9785 6.46941 60.0249 6.55917 60.0701 6.64951C60.2285 6.96566 60.3725 7.28825 60.502 7.61729C60.6315 7.94633 60.7461 8.2805 60.8457 8.61979C60.9453 8.95908 61.0296 9.30214 61.0985 9.64898C61.1673 9.99582 61.2206 10.345 61.2583 10.6966C61.3861 11.9249 61.3339 13.1766 61.3341 14.4105L61.3334 20.1899V28.9182C61.3335 30.3777 61.3844 31.8571 61.3286 33.3145C61.3227 33.4704 61.2992 33.6195 61.2477 33.7675C61.2329 33.8102 61.216 33.852 61.1969 33.8929C61.1779 33.9338 61.1568 33.9737 61.1338 34.0125C61.1108 34.0513 61.0858 34.0888 61.059 34.1251C61.0322 34.1615 61.0036 34.1964 60.9734 34.2299C60.943 34.2633 60.9111 34.2951 60.8776 34.3254C60.8441 34.3556 60.8092 34.3841 60.7729 34.4109C60.7365 34.4376 60.699 34.4625 60.6601 34.4855C60.6212 34.5085 60.5813 34.5295 60.5404 34.5485C60.4998 34.5669 60.4584 34.5832 60.4161 34.5975C60.3739 34.6117 60.331 34.6236 60.2875 34.6334C60.244 34.6431 60.2001 34.6506 60.1559 34.6559C60.1116 34.6611 60.0672 34.6641 60.0226 34.6647C59.978 34.6655 59.9335 34.6639 59.8891 34.66C59.8447 34.6561 59.8006 34.6499 59.7569 34.6415C59.7131 34.6331 59.6699 34.6224 59.6273 34.6095C59.5846 34.5966 59.5427 34.5815 59.5015 34.5644C59.194 34.438 58.8734 34.1644 58.7583 33.8439C58.576 33.337 58.663 30.2069 58.6631 29.5064L58.6647 18.8586L58.6649 14.7022C58.6649 12.7992 58.7937 10.898 58.1856 9.06284C58.138 8.91994 58.0869 8.77827 58.0324 8.63783C57.9779 8.49738 57.92 8.35834 57.8587 8.2207C57.7976 8.08306 57.7331 7.94697 57.6652 7.81244C57.5975 7.67791 57.5265 7.5451 57.4523 7.414C57.3781 7.2829 57.3008 7.15366 57.2204 7.02629C57.1399 6.89892 57.0564 6.77357 56.9699 6.65024C56.8834 6.5269 56.794 6.40572 56.7016 6.2867C56.6093 6.16768 56.5141 6.05096 56.4161 5.93654C56.3181 5.82211 56.2175 5.71012 56.1141 5.60056C56.0107 5.491 55.9047 5.38399 55.7961 5.27955C55.6876 5.1751 55.5766 5.07333 55.4631 4.97425C55.3496 4.87517 55.2338 4.77888 55.1157 4.68539C54.9976 4.5919 54.8772 4.5013 54.7547 4.41361C54.6323 4.32593 54.5078 4.24125 54.3811 4.15959C54.2546 4.07791 54.1262 3.99934 53.9958 3.92388C53.8653 3.84841 53.7332 3.77613 53.5994 3.70705C52.6144 3.19851 51.4984 2.84084 50.391 2.73944C49.5965 2.66668 48.7918 2.68386 47.9948 2.68379L44.7477 2.68399L34.2499 2.68423L19.298 2.685L14.4634 2.68409C13.5529 2.68354 12.6327 2.65543 11.7232 2.69653C10.814 2.7376 9.9449 2.86365 9.07718 3.14274C8.9324 3.19035 8.78887 3.24147 8.6466 3.29612C8.50433 3.35077 8.36349 3.40886 8.22406 3.47041C8.08464 3.53196 7.9468 3.59689 7.81056 3.66519C7.67432 3.7335 7.53983 3.8051 7.4071 3.87999C7.27437 3.95488 7.14355 4.03298 7.01464 4.11429C6.88574 4.1956 6.7589 4.28001 6.63413 4.36754C6.50936 4.45505 6.38681 4.54558 6.26649 4.63911C6.14615 4.73264 6.02818 4.82906 5.91257 4.92837C5.79697 5.02768 5.68386 5.12976 5.57326 5.23461C5.46266 5.33947 5.3547 5.44697 5.24936 5.55711C5.14403 5.66726 5.04145 5.77992 4.94164 5.89509C4.84183 6.01026 4.7449 6.12781 4.65084 6.24774C4.55679 6.36766 4.46573 6.48982 4.37766 6.6142C4.2896 6.73858 4.20464 6.86505 4.12278 6.9936C4.04091 7.12215 3.96224 7.25263 3.88676 7.38504C3.81129 7.51745 3.7391 7.65162 3.67021 7.78756C3.53844 8.04871 3.41922 8.31547 3.31256 8.58785C3.2059 8.86022 3.11228 9.13701 3.03169 9.4182C2.9511 9.69939 2.8839 9.98375 2.83009 10.2713C2.77627 10.5588 2.73608 10.8482 2.70953 11.1395C2.64775 11.8066 2.65806 12.4785 2.65804 13.1477L2.65901 15.6729L2.6594 23.7235L2.65943 47.3013L2.6596 55.0706C2.65968 56.3653 2.70746 57.6779 2.65689 58.9706C3.08319 58.5108 3.47297 58.0135 3.87279 57.5306L5.68649 55.3485L11.1248 48.8225L12.7144 46.9147C13.0784 46.4727 13.4419 45.9485 13.8861 45.5855C14.1337 45.3831 14.554 45.3365 14.8645 45.3252C15.9644 45.2855 17.0771 45.3225 18.1787 45.323L24.5615 45.3234L28.6244 45.3229C29.2937 45.3229 30.0041 45.2711 30.6686 45.3364C30.9991 45.3689 31.3263 45.4684 31.5769 45.6955C31.8299 45.925 31.9754 46.2646 31.991 46.6043C32.0075 46.9645 31.865 47.3255 31.6191 47.5871C31.2334 47.9976 30.7618 48.0035 30.2393 48.0085C25.2531 48.0564 20.264 47.9535 15.2781 48.0177L6.1652 58.9456L3.54312 62.0916C3.12397 62.5953 2.71994 63.1709 2.2484 63.6231C2.0567 63.807 1.83279 63.8591 1.62185 64H1.02952C0.41336 63.62 0.378796 63.6765 0 62.9948V10.8527C0.0851 10.6966 0.270616 9.43635 0.353473 9.10069C0.463363 8.65517 0.599031 8.21764 0.760477 7.7881C0.921923 7.35857 1.10803 6.94 1.3188 6.5324C1.36394 6.44396 1.41017 6.35609 1.4575 6.26879C1.50482 6.1815 1.55322 6.0948 1.6027 6.0087C1.65217 5.92261 1.70271 5.83715 1.75431 5.75231C1.80591 5.66747 1.85856 5.58328 1.91225 5.49975C1.96593 5.41623 2.02065 5.33338 2.0764 5.2512C2.13215 5.16903 2.18891 5.08757 2.24669 5.0068C2.30446 4.92604 2.36323 4.84601 2.42299 4.76671C2.48275 4.68741 2.54348 4.60887 2.6052 4.53108C2.66691 4.45328 2.72958 4.37626 2.7932 4.30002C2.85683 4.22379 2.92139 4.14836 2.98689 4.07373C3.05239 3.99909 3.1188 3.92528 3.18614 3.8523C3.25347 3.77932 3.3217 3.70718 3.39083 3.6359C3.45994 3.56462 3.52994 3.4942 3.60081 3.42465C3.67169 3.3551 3.74342 3.28644 3.816 3.21867C3.88857 3.15091 3.96198 3.08405 4.03622 3.01811C4.11047 2.95217 4.18551 2.88716 4.26136 2.82308C4.33722 2.759 4.41386 2.69587 4.49129 2.6337C4.5687 2.57152 4.64689 2.51032 4.72584 2.45009C4.80478 2.38985 4.88446 2.33061 4.96488 2.27235C5.04528 2.2141 5.12641 2.15685 5.20825 2.10061C5.29008 2.04438 5.3726 1.98917 5.45581 1.93498C5.53902 1.88079 5.62289 1.82765 5.70743 1.77554C5.79195 1.72343 5.87711 1.67238 5.96291 1.6224C6.04871 1.57241 6.13512 1.52349 6.22213 1.47565C6.30914 1.42781 6.39673 1.38105 6.4849 1.33539C6.57307 1.28972 6.6618 1.24515 6.75109 1.20169C6.84036 1.15823 6.93017 1.11588 7.0205 1.07465C7.11083 1.03342 7.20167 0.993311 7.293 0.954336C7.38433 0.91536 7.47612 0.877525 7.56839 0.840829C7.66066 0.804134 7.75338 0.76859 7.84653 0.734197C7.93968 0.699806 8.03324 0.666576 8.12721 0.634507C8.2212 0.60244 8.31556 0.571544 8.4103 0.54182C8.87074 0.400334 9.35087 0.281393 9.82561 0.199135C10.1626 0.140739 10.5448 0.116602 10.8663 0.00897651C10.8748 0.0061241 10.8832 0.00299218 10.8917 0Z" fill="#915DC2"/>
</g>
<defs>
<clipPath id="clip0_683_10">
<rect width="64" height="64" fill="white"/>
</clipPath>
</defs>
</svg>
