<svg width="160" height="160" viewBox="0 0 160 160" fill="none" xmlns="http://www.w3.org/2000/svg">
<path d="M79.9891 21.6162C80.5087 20.9321 81.2506 20.3077 81.8606 19.6995L85.6297 15.9379L93.5297 8.03282C94.4403 7.11611 96.6644 4.64301 97.6122 4.07361C98.2322 3.7012 99.5862 3.82379 100.257 4.03154C101.108 4.29486 101.921 4.83551 102.703 5.26164C104.453 6.21579 106.177 7.21807 107.928 8.16951L114.37 11.663C115.314 12.1854 116.335 12.6588 117.22 13.2761C117.789 13.6729 118.312 14.1874 118.618 14.8165C119.052 15.7091 118.808 16.6955 118.5 17.5791C119.252 17.7282 123.101 19.8514 123.77 20.4058C122.94 21.9068 123.489 23.7963 124.994 24.6185C126.5 25.4408 128.386 24.8822 129.201 23.373C129.883 23.4984 133.18 25.4286 133.854 25.9368C134.391 25.168 135.021 24.6539 135.968 24.4859C136.8 24.3383 137.406 24.4485 138.171 24.7694C139.524 25.3372 140.813 26.1882 142.098 26.8995L149.446 30.9452L155.76 34.4177C156.748 34.9596 157.905 35.4399 158.802 36.113C159.332 36.5105 159.73 37.259 160 37.8555V39.358C159.673 39.9912 159.321 40.5355 158.847 41.0687C157.749 42.3052 156.491 43.4524 155.32 44.623L148.46 51.4787L144.444 55.4909C143.733 56.2027 143.065 57.0215 142.232 57.5934C142.562 58.2084 144.627 60.0659 145.216 60.6543L154.315 69.7468C155.817 71.2471 157.47 72.7196 158.859 74.3212C159.293 74.8218 159.728 75.4012 160 76.0071V77.4934C159.705 78.0599 159.425 78.7065 158.928 79.128C157.687 80.1812 155.965 80.8787 154.542 81.6612L145.844 86.4637C144.195 87.3612 142.389 88.1752 140.844 89.2371C140.84 89.269 140.835 89.3009 140.831 89.3327C140.699 90.3749 140.76 91.4793 140.761 92.5293L140.77 97.7296L140.766 114.907V119.135C140.767 120.151 140.824 121.219 140.637 122.221C140.539 122.749 140.332 123.108 139.915 123.449C138.791 124.368 137.405 125.015 136.129 125.695L132.015 127.93L115.712 136.882L93.2175 149.236L86.8147 152.763C84.6378 153.979 82.4831 155.272 80.1506 156.159C79.4275 155.999 78.765 155.795 78.1003 155.464C77.0569 154.944 76.0519 154.324 75.0259 153.768L67.1125 149.422L50.3416 140.208L28.3013 128.102C26.0905 126.877 23.8158 125.746 21.6327 124.473C20.9602 124.081 20.2061 123.683 19.7159 123.061C19.7196 123.019 19.7244 122.976 19.7272 122.934C19.7492 122.597 19.6042 122.228 19.5648 121.89C19.5103 121.421 19.5326 120.935 19.5323 120.464C19.53 116.995 19.6972 90.2362 19.3847 89.4952C19.3519 89.4177 19.2724 89.3696 19.2163 89.3068C19.1528 89.2634 19.0885 89.2212 19.0265 89.1759C18.4018 88.7187 17.7148 88.3962 17.0364 88.0262L13.7234 86.2202L5.31794 81.5755C3.97959 80.8474 2.42301 80.2105 1.23055 79.2512C0.691644 78.8174 0.350506 78.2137 0 77.6305V75.8877C0.350353 75.2996 0.650481 74.7743 1.1047 74.2559C2.03545 73.1934 3.10815 72.2184 4.1085 71.2196L9.81888 65.5184L14.6608 60.6705C15.6733 59.6574 16.6693 58.5668 17.7915 57.6752C16.9151 56.9202 16.1136 56.0287 15.2954 55.2096L10.7522 50.6609L4.88728 44.8024C3.35619 43.278 1.03256 41.3065 0 39.4627V37.7521C0.331006 37.2655 0.526878 36.6605 0.948931 36.2365C1.49509 35.6877 4.26194 34.3602 5.1255 33.8827L19.3929 26.0548L47.6988 10.5069L53.8553 7.12529C55.6925 6.09464 57.5444 5.00782 59.43 4.06998C59.8516 3.86039 60.3547 3.85132 60.8172 3.85536C61.4344 3.86073 61.9266 3.83995 62.4481 4.20082C63.2731 4.77117 63.9791 5.58823 64.6859 6.29479L68.1359 9.74717L79.9891 21.6162Z" fill="#905BC3"/>
<path d="M99.6345 10.7131C100.611 11.3251 101.654 11.8541 102.664 12.4095L107.904 15.2876L111.752 17.4012C112.6 17.8692 113.447 18.3872 114.34 18.7655C114.953 19.0256 115.448 19.202 116.129 19.119C117.165 18.9925 117.875 18.3592 118.5 17.5792C119.252 17.7283 123.101 19.8515 123.77 20.4059C122.94 21.9069 123.49 23.7964 124.995 24.6186C126.5 25.4409 128.386 24.8823 129.201 23.3731C129.883 23.4984 133.18 25.4287 133.854 25.9369C133.525 26.7527 133.38 27.6493 133.671 28.4999C133.9 29.1702 134.299 29.5771 134.855 29.9879C135.714 30.6219 136.699 31.1031 137.633 31.615L141.745 33.8713L148.104 37.3694C149.302 38.0281 150.496 38.7406 151.728 39.3325C146.905 44.1747 142.013 48.9547 137.235 53.8416C135.394 52.7309 133.45 51.7447 131.565 50.7084L120.868 44.8391L99.2173 32.9453C94.5264 30.3696 89.7979 27.845 85.1479 25.1968C87.3389 23.1816 89.4023 20.9743 91.5095 18.8679C94.2195 16.1586 96.9958 13.4909 99.6345 10.7131Z" fill="#F3EFFF"/>
<path d="M79.9982 93.8268C80.9773 94.8824 82.0354 95.8805 83.0539 96.899L88.8895 102.733L93.8101 107.653C94.7148 108.561 95.6001 109.516 96.5492 110.376C96.9961 110.781 97.6061 111.303 98.1839 111.482C98.8889 111.7 99.5964 111.632 100.272 111.357C101.626 110.806 102.942 109.971 104.223 109.266L111.166 105.444C119.009 101.164 126.911 96.943 134.675 92.5227C134.612 93.6774 134.66 94.8555 134.663 96.0124L134.667 102.129C134.667 107.856 134.611 113.589 134.687 119.314C132.859 120.238 131.075 121.274 129.28 122.261L117.779 128.568C115.033 130.156 112.208 131.635 109.426 133.162L92.7067 142.342C89.5076 144.082 86.3189 145.841 83.1398 147.618C83.0523 140.141 83.1311 132.654 83.1317 125.176L83.1339 119.026C83.1345 117.861 83.2117 116.645 83.0642 115.489C82.9676 114.732 82.7123 114.026 82.1792 113.465C81.6457 112.903 80.9304 112.614 80.1598 112.596C79.3211 112.577 78.4476 112.836 77.8457 113.437C77.3064 113.976 77.042 114.697 76.9429 115.442C76.772 116.726 76.8645 118.096 76.8707 119.393L76.8754 125.44L76.8673 147.609L25.3407 119.31C25.2603 114.962 25.3413 110.596 25.3421 106.247C25.3428 101.689 25.2666 97.119 25.3481 92.563C25.9517 92.8215 26.5444 93.1996 27.1196 93.5174L30.3009 95.2733L49.7182 105.933L55.5814 109.15C56.7854 109.816 57.9836 110.54 59.2248 111.133C59.7661 111.391 60.3017 111.628 60.9148 111.612C61.6173 111.593 62.1892 111.371 62.7461 110.956C63.6261 110.303 64.3826 109.459 65.1564 108.685L68.5895 105.252C72.3932 101.449 76.2501 97.6843 79.9982 93.8268Z" fill="#F3EFFF"/>
<path d="M79.7621 102.219C81.4524 102.087 82.9321 103.345 83.0727 105.034C83.2133 106.724 81.9621 108.21 80.273 108.358C78.573 108.508 77.0752 107.247 76.9336 105.546C76.7921 103.845 78.0605 102.353 79.7621 102.219Z" fill="#905BC3"/>
<path d="M80.0024 29.5151C81.1833 30.119 82.3362 30.8048 83.4996 31.445L91.0055 35.5713L117.611 50.1794C122.169 52.6841 126.699 55.2863 131.313 57.6831L80.0127 85.8619C78.1258 84.9825 76.2805 83.821 74.4502 82.8138L63.3008 76.6897L28.6655 57.6741C30.8116 56.6969 32.8933 55.3997 34.9612 54.2641L47.1171 47.5856L68.7924 35.6819C72.529 33.63 76.2952 31.6188 80.0024 29.5151Z" fill="#F3EFFF"/>
<path d="M60.3076 10.7739C60.7373 10.9161 73.1445 23.5964 74.8532 25.2021C73.0273 26.3017 71.0992 27.28 69.2298 28.307L58.0676 34.4341L22.8394 53.7795C22.3712 53.6448 9.90694 40.9482 8.29688 39.3607C10.1533 38.2491 12.1 37.2516 13.9972 36.2091L25.0205 30.1594L60.3076 10.7739Z" fill="#F3EFFF"/>
<path d="M22.714 61.6152C23.1841 61.6596 31.5568 66.3946 32.9143 67.1399L60.513 82.2946L69.5605 87.2646C71.3202 88.2312 73.0699 89.2343 74.858 90.1468L60.3749 104.626C59.4658 104.29 58.5677 103.627 57.7061 103.169C54.5868 101.482 51.4765 99.7777 48.3761 98.0562L21.0719 83.0655L12.7998 78.5221C11.2974 77.6971 9.80339 76.818 8.26758 76.0577C9.93867 74.4727 11.539 72.7937 13.1685 71.1637L22.714 61.6152Z" fill="#F3EFFF"/>
<path d="M137.14 61.6313C137.22 61.6326 137.289 61.6573 137.357 61.7023C137.718 61.941 138.107 62.4385 138.419 62.7507L141.018 65.3504C144.577 68.9095 148.096 72.5198 151.706 76.0257C149.316 77.4929 146.743 78.7685 144.282 80.1204L130.366 87.7532L99.7117 104.587C99.663 104.583 99.6102 104.594 99.5658 104.573C99.3964 104.493 97.293 102.286 96.9717 101.964L85.1602 90.1426C87.0452 89.2395 88.8814 88.1163 90.7158 87.1079L101.314 81.2926L137.14 61.6313Z" fill="#F3EFFF"/>
<path d="M123.77 20.406C124.594 18.9156 126.467 18.371 127.962 19.1875C129.456 20.004 130.01 21.8747 129.201 23.3732C128.386 24.8824 126.5 25.441 124.995 24.6187C123.49 23.7965 122.94 21.907 123.77 20.406Z" fill="#905BC3"/>
<path d="M19.2164 89.3069C19.2725 89.3697 19.3521 89.4178 19.3848 89.4953C19.6974 90.2363 19.5302 116.995 19.5324 120.464C19.5327 120.935 19.5105 121.422 19.565 121.89C19.6044 122.228 19.7493 122.598 19.7273 122.934C19.7245 122.977 19.7198 123.019 19.716 123.061C19.6909 123.031 19.6641 123.003 19.6407 122.972C19.415 122.672 19.2474 122.296 19.2167 121.923C19.0285 119.634 19.1624 117.237 19.162 114.938L19.1623 101.529L19.1609 93.3113C19.1608 92.0388 19.0163 90.5556 19.2164 89.3069Z" fill="#905BC3"/>
<rect x="76.875" y="26.5625" width="6.25" height="59.375" fill="#905BC3"/>
</svg>
