<svg width="28" height="28" viewBox="0 0 28 28" fill="none" xmlns="http://www.w3.org/2000/svg">
<g clip-path="url(#clip0_751_15)">
<path d="M13.727 1.65625C13.8498 1.41326 14.1548 1.4134 14.2778 1.65625L18.1 9.22852L18.2416 9.50781L18.5512 9.55176L27.1225 10.7705H27.1235C27.244 10.7874 27.343 10.871 27.3852 11.0127C27.4276 11.1552 27.3945 11.3025 27.2875 11.4043H27.2866L21.1235 17.2773L20.8911 17.499L20.9467 17.8154L22.3989 26.0928C22.427 26.2525 22.3644 26.3824 22.269 26.458C22.1992 26.5134 22.1201 26.5351 22.0395 26.5195L21.9584 26.4912L14.2739 22.5439L13.9995 22.4023L13.726 22.5439L6.04633 26.4912C5.93859 26.5462 5.82969 26.5316 5.73676 26.458C5.64136 26.3824 5.57875 26.2525 5.60687 26.0928L7.05902 17.8154L7.11469 17.499L6.88226 17.2773L0.716248 11.4043H0.717224C0.610942 11.3028 0.578027 11.1566 0.620544 11.0137C0.662846 10.8717 0.760903 10.7875 0.881287 10.7705H0.882263L9.45355 9.55176L9.7641 9.50781L9.90472 9.22852L13.727 1.65625Z" stroke="#B8B8B8" stroke-width="1.2"/>
</g>
<defs>
<clipPath id="clip0_751_15">
<rect width="28" height="28" fill="white"/>
</clipPath>
</defs>
</svg>
