<svg width="56" height="56" viewBox="0 0 56 56" fill="none" xmlns="http://www.w3.org/2000/svg">
<g clip-path="url(#clip0_1088_16)">
<path d="M20.8564 1.06128L21.582 1.06226C25.215 1.14441 28.849 2.33573 31.8789 4.30542L32.29 4.58179C36.4969 7.47799 39.4399 11.8809 40.502 16.8894L40.584 17.2966C41.3576 21.376 40.8315 25.596 39.0791 29.3601L38.8994 29.7351C38.4562 30.6387 37.9328 31.4803 37.3887 32.3181C37.8007 32.6896 38.1884 33.1079 38.5732 33.4929L39.9893 34.9207C40.4532 35.3875 40.9203 35.8505 41.3945 36.3054C41.5162 36.3197 41.6388 36.3299 41.7646 36.3396C41.9004 36.35 42.0395 36.3615 42.1787 36.3826L42.3408 36.4109C43.0282 36.55 43.5732 36.8896 44.0742 37.3425L44.3027 37.5593L51.1514 44.407L53.0615 46.3162L53.7109 46.9548C53.9273 47.1758 54.1344 47.4082 54.3066 47.6589H54.3076L54.4521 47.8894C54.7686 48.4375 54.9334 49.0619 54.9268 49.698L54.918 49.9744C54.8384 51.1351 54.2606 51.8384 53.5186 52.5955L53.165 52.9509C52.2211 53.8959 51.4038 54.8247 49.9775 54.9294L49.6836 54.9392C49.0685 54.9333 48.4656 54.7744 47.9297 54.4783L47.7041 54.3425C47.5059 54.2138 47.3272 54.0607 47.1582 53.9001L45.5977 52.3396L41.6543 48.3972L38.9219 45.6648C38.6212 45.3641 38.1707 44.9471 37.7637 44.533C37.4049 44.1679 37.0603 43.7863 36.8428 43.448L36.7578 43.3054C36.4294 42.7094 36.3439 42.082 36.3203 41.4314C36.1927 41.2567 35.9783 41.033 35.7461 40.8074L35.0781 40.1677L32.3076 37.4021C31.8049 37.7068 31.3104 38.0312 30.7988 38.3337L30.2578 38.6394C27.6756 40.0199 24.8628 40.7548 21.959 40.9158L21.377 40.9402C16.2938 41.0883 11.0788 39.0517 7.39551 35.5603V35.5593C3.6059 32.0318 1.35093 27.1675 1.09961 22.0095L1.08105 21.5095C0.937913 16.2898 2.85768 11.2241 6.42383 7.40991L6.4248 7.40894L6.79395 7.02905C10.6389 3.16278 15.3709 1.20164 20.8555 1.06128H20.8564ZM41.3203 38.8826C41.2128 38.9092 41.1295 38.9396 41.0459 38.988L40.959 39.0457C40.803 39.1596 40.3635 39.568 39.9326 39.9949C39.7185 40.207 39.5083 40.4217 39.3398 40.6033C39.2545 40.6953 39.1812 40.7768 39.124 40.8445L39.0029 41.0027C38.8551 41.2443 38.8036 41.5637 38.8809 41.8328L38.9248 41.9578C38.976 42.0793 39.048 42.1903 39.1387 42.2898L39.6484 42.8279C40.1687 43.3594 40.7141 43.8727 41.2432 44.4011L45.29 48.448L47.6465 50.8064L47.9824 51.155C48.1131 51.2921 48.258 51.4434 48.4043 51.5906C48.5508 51.7379 48.6983 51.8801 48.833 51.9988C48.969 52.1186 49.0873 52.2107 49.1777 52.2605L49.2568 52.2996C49.4445 52.3813 49.6568 52.4023 49.8652 52.3738C49.9965 52.3396 50.1026 52.3011 50.208 52.24L50.3164 52.1687C50.4685 52.0577 50.9067 51.6426 51.335 51.2097C51.5478 50.9946 51.7563 50.7772 51.9219 50.5955C52.0906 50.4103 52.2069 50.2701 52.2451 50.2048L52.2959 50.1091C52.3859 49.914 52.4111 49.7048 52.3721 49.4929L52.3467 49.3865C52.3063 49.2443 52.2355 49.1258 52.1426 49.0095L52.043 48.8933C51.8093 48.6361 51.5628 48.3886 51.3125 48.1433L50.5586 47.406L47.8271 44.6736L44.2646 41.1111C44.1656 41.012 43.9994 40.8387 43.8008 40.6335C43.6016 40.4278 43.3689 40.1888 43.1367 39.9558C42.9044 39.7227 42.6725 39.4968 42.4756 39.3171C42.3252 39.1799 42.201 39.0749 42.1133 39.0134L42.0381 38.9666C41.8278 38.86 41.5814 38.8663 41.3203 38.8826ZM35.4072 34.7312L34.9482 35.1941C34.7295 35.4071 34.5055 35.6007 34.3047 35.8132C35.0928 36.5284 35.8326 37.3315 36.5781 38.0779L37.042 38.5593C37.1752 38.6947 37.3119 38.8224 37.4541 38.9324C37.8567 38.4548 38.4649 37.8753 38.9297 37.448C38.6722 37.1809 37.9756 36.4663 37.2949 35.782C36.9155 35.4005 36.5412 35.0286 36.252 34.7488C36.1073 34.6089 35.9842 34.4927 35.8926 34.4099C35.8539 34.375 35.8217 34.3464 35.7959 34.325C35.6665 34.4591 35.5377 34.5957 35.4072 34.7312ZM20.4404 3.61792C11.041 3.91427 3.54207 11.6597 3.60547 21.1179L3.61426 21.5662C3.9153 30.9653 11.6639 38.4604 21.1221 38.3923L21.5713 38.3835C30.8145 38.0826 38.2137 30.5795 38.3857 21.3328L38.3877 20.8845C38.3234 11.2831 30.4902 3.55061 20.8887 3.61011L20.4404 3.61792Z" fill="#905BC3" stroke="#905BC3" stroke-width="0.2"/>
<path d="M20.7329 10.8516L21.0493 10.8535C21.1549 10.8572 21.2605 10.8633 21.3657 10.873L21.6802 10.9023L21.6724 10.9111C22.8515 11.0779 23.9265 11.6025 24.769 12.4414L24.9478 12.6289L24.9507 12.6318L25.1255 12.832L25.1294 12.8359L25.1343 12.8428L25.3091 13.0674L25.311 13.0703L25.4683 13.293C26.2261 14.4228 26.5755 15.7862 26.4468 17.1533C26.3429 18.295 25.8764 19.3706 25.1196 20.2246L25.1177 20.2275L24.9673 20.3906L24.9644 20.3926C24.8419 20.5193 24.7116 20.6353 24.5825 20.7471C25.6159 21.1417 26.5726 21.7395 27.395 22.4717L27.7661 22.8193L27.7671 22.8213L27.9058 22.9629L27.9077 22.9648L28.1548 23.249C28.7014 23.9293 29.0322 24.7297 29.0347 25.6699V25.6738L29.0308 25.8584V25.8613C28.9896 26.7523 28.6387 27.6011 28.0415 28.2617L28.0396 28.2646L27.9126 28.3975L27.9106 28.4004C27.4967 28.815 26.9721 29.1462 26.4097 29.3359L26.4048 29.3379L26.1714 29.4072L26.1665 29.4082C25.5722 29.562 24.9188 29.5558 24.3345 29.5439V29.543L23.7671 29.5361V29.5352H17.8101C17.2499 29.5352 16.5582 29.5833 15.938 29.498L15.8091 29.4795V29.4766C15.4038 29.4093 15.0114 29.2761 14.6489 29.0801L14.5698 29.0381V29.0342C13.741 28.5662 13.1376 27.8149 12.8296 26.9268L12.8286 26.9229L12.772 26.7441L12.771 26.7412C12.4864 25.7756 12.6188 24.7771 13.0942 23.9082L13.0962 23.9033L13.2251 23.9795L13.0972 23.9033L13.2749 23.6045L13.2778 23.5996L13.4565 23.3418C14.3367 22.1483 15.7565 21.2518 17.1069 20.7441C17.0516 20.6953 16.9944 20.6471 16.9399 20.5957L16.937 20.5928L16.7358 20.3926L16.7329 20.3896C15.9161 19.5319 15.3945 18.4369 15.2427 17.2646L15.2173 17.0293V17.0254L15.1987 16.7461V16.7432C15.1401 15.3102 15.6243 13.9032 16.5591 12.8086L16.7544 12.5908C17.7486 11.5399 19.08 10.9776 20.4985 10.8623L20.5054 10.8604L20.5249 10.8594L20.73 10.8516H20.7329ZM20.9019 22.1855L20.9048 22.1885H20.5259L20.5073 22.1895C19.7546 22.2294 18.8954 22.3968 18.0688 22.6836L17.7173 22.8135C16.9009 23.135 16.1546 23.5682 15.6021 24.0938L15.3735 24.3281C15.0366 24.7052 14.8133 25.1447 14.7817 25.6035L14.7798 25.7969L14.7964 25.9707L14.8247 26.1143C14.9047 26.4439 15.0859 26.7444 15.3452 26.9717L15.5034 27.0947C15.6684 27.2074 15.8531 27.2907 16.0366 27.3311L16.229 27.3643L16.5591 27.3916C16.6757 27.3969 16.7987 27.3994 16.9253 27.3994C17.0927 27.3994 17.2623 27.3964 17.4282 27.3926L17.9087 27.3848L21.1938 27.3828L23.9985 27.3838H24.0015L24.4292 27.3916H24.4302L24.8677 27.3984L25.0815 27.3945C25.2871 27.3879 25.4751 27.3703 25.6382 27.333L25.7534 27.3008C25.9984 27.2221 26.2369 27.074 26.4214 26.8906L26.5347 26.7656C26.7773 26.4675 26.9088 26.0923 26.9038 25.7051V25.7021L26.8921 25.5137C26.8399 25.0774 26.6161 24.6727 26.2925 24.3135V24.3125L26.1284 24.1426L25.939 23.9688C24.9642 23.1197 23.5353 22.5415 22.228 22.3037V22.3047L21.9468 22.2588V22.2578C21.6044 22.2077 21.2558 22.1886 20.9019 22.1855ZM20.6401 13.002L20.6411 13.0029C18.6976 13.1145 17.218 14.7814 17.3315 16.7188L17.3481 16.9072C17.5548 18.7541 19.1765 20.1379 21.0571 20.0225L21.2456 20.0059C23.0296 19.8011 24.3725 18.2788 24.3579 16.4873L24.3511 16.3037L24.3364 16.1289C24.1413 14.3429 22.6235 12.9851 20.8237 12.9961L20.6401 13.002Z" fill="#905BC3" stroke="#905BC3" stroke-width="0.3"/>
</g>
<defs>
<clipPath id="clip0_1088_16">
<rect width="56" height="56" fill="white"/>
</clipPath>
</defs>
</svg>
