<svg width="56" height="56" viewBox="0 0 56 56" fill="none" xmlns="http://www.w3.org/2000/svg">
<path d="M0 4.35284L0.0267634 4.30594C0.0848817 4.2019 0.121185 4.08829 0.174624 3.98199C0.375825 3.58176 0.68799 3.26518 1.12728 3.13745C1.64105 2.98807 3.23955 3.06151 3.87769 3.06149L8.32405 3.06116L20.0809 3.06099C22.0511 3.06111 24.0261 3.0321 25.9958 3.06286C26.2305 3.06652 26.5811 3.05664 26.7945 3.15143C27.0004 3.24291 27.1899 3.34143 27.3596 3.49246C27.9383 4.00733 28.4737 4.59751 29.0222 5.14599L32.2623 8.38591L35.9588 12.08C36.6125 12.7331 37.3 13.3731 37.9236 14.0545C38.0623 14.206 38.1962 14.4007 38.2702 14.5936C38.3537 14.8106 38.3669 15.0954 38.3767 15.3254C38.4086 16.072 38.3838 16.8299 38.384 17.5775V21.7623L38.3833 25.1387C38.3832 25.7229 38.4134 26.3251 38.3754 26.9073C39.6961 26.9153 41.018 26.8968 42.3384 26.9138C42.3295 26.1944 42.3349 25.4745 42.3351 24.7552C42.3353 24.1842 42.2706 23.5243 42.4128 22.9697C42.4753 22.726 42.6331 22.4758 42.8078 22.2963C43.11 21.9858 43.5431 21.8174 43.9743 21.8147C44.343 21.8125 44.6417 21.9284 44.9393 22.1402C45.4877 22.5307 46.0766 23.1459 46.5817 23.61L49.3962 26.175L53.4686 29.8902C54.1411 30.5033 54.8605 31.0984 55.4983 31.7457C55.7555 32.0068 55.869 32.2914 56 32.6255V33.2415C55.8754 33.4946 55.7946 33.7808 55.5988 33.992C55.1131 34.5157 54.5339 34.9829 54.0053 35.4637L51.134 38.0822L47.1092 41.7497C46.4542 42.3469 45.8148 42.978 45.1372 43.5487C44.9416 43.7135 44.713 43.8781 44.4691 43.9602C44.0636 44.0968 43.6102 44.0459 43.2333 43.848C42.8671 43.6557 42.5459 43.3184 42.4253 42.919C42.2566 42.3608 42.3372 41.393 42.3376 40.787C42.3382 40.1756 42.3251 39.5603 42.3463 38.9494C41.4411 38.9256 40.5332 38.9398 39.6277 38.9405C39.2173 38.9408 38.7915 38.9662 38.3833 38.932L38.3824 47.6416L38.384 50.1079C38.3843 50.5793 38.4184 51.0814 38.3497 51.5475C38.3432 51.5895 38.3351 51.6312 38.3253 51.6726C38.3156 51.7139 38.3044 51.7549 38.2915 51.7954C38.2787 51.8359 38.2643 51.8758 38.2484 51.9153C38.2325 51.9547 38.2152 51.9935 38.1963 52.0315C38.1774 52.0696 38.1571 52.1069 38.1353 52.1434C38.1136 52.18 38.0905 52.2156 38.0661 52.2504C38.0417 52.2852 38.0159 52.319 37.9889 52.3518C37.9618 52.3846 37.9336 52.4163 37.9041 52.447C37.8707 52.481 37.8358 52.5135 37.7996 52.5444C37.7633 52.5754 37.7257 52.6048 37.6868 52.6326C37.648 52.6603 37.608 52.6862 37.5669 52.7104C37.5259 52.7347 37.4838 52.7572 37.4407 52.7778C37.3977 52.7984 37.3538 52.817 37.3091 52.8338C37.2645 52.8506 37.2192 52.8654 37.1733 52.8782C37.1273 52.8911 37.0808 52.902 37.0339 52.9108C36.9871 52.9196 36.9399 52.9263 36.8924 52.931C36.4203 52.9781 35.9292 52.9555 35.4549 52.9548L33.2338 52.9528L25.7925 52.9526L2.11116 52.955C1.50705 52.9531 0.935017 52.9243 0.484865 52.4701C0.234791 52.2178 0.179029 51.9277 0 51.6467V4.35284ZM3.27856 49.6599L35.1036 49.662L35.1037 41.4944C35.104 40.6467 35.0925 39.7972 35.1087 38.9497C33.5488 38.9109 31.9825 38.9407 30.4218 38.9414C29.806 38.9417 28.8502 39.0054 28.2871 38.8931C27.9332 38.8225 27.6437 38.6739 27.3926 38.4113C27.2052 38.2152 27.0455 37.9658 26.9974 37.6965C26.9124 37.2206 26.9409 36.7269 26.9409 36.2455L26.9404 34.2947L26.9402 30.6084C26.9402 29.9354 26.9244 29.2588 26.9465 28.5862C26.9617 28.1233 27.1153 27.67 27.4643 27.349C27.6829 27.1479 27.9636 27.0042 28.2559 26.9526C28.8774 26.8429 29.8949 26.9119 30.5542 26.9124L35.1036 26.912L35.104 16.8383C32.9585 16.8213 30.813 16.8168 28.6674 16.8249L27.1358 16.8287C26.7495 16.8307 26.3365 16.8637 25.9567 16.7908C25.9142 16.7824 25.8722 16.7723 25.8305 16.7606C25.7888 16.749 25.7477 16.7357 25.7071 16.7209C25.6664 16.7062 25.6263 16.6899 25.5869 16.672C25.5475 16.6542 25.5088 16.6348 25.4708 16.6141C25.4329 16.5933 25.3958 16.5711 25.3596 16.5475C25.3233 16.5238 25.288 16.4989 25.2537 16.4725C25.2193 16.4462 25.186 16.4186 25.1537 16.3898C25.1215 16.361 25.0904 16.3309 25.0604 16.2997C24.8286 16.057 24.6927 15.7622 24.6421 15.4313C24.5832 15.0467 24.6112 14.635 24.6125 14.2467L24.6167 12.414C24.6162 10.3954 24.5824 8.37156 24.6198 6.35364C22.7951 6.32909 20.9684 6.34586 19.1434 6.3459L9.50972 6.346L5.30852 6.34702L4.04715 6.34829C3.79522 6.34869 3.53316 6.3651 3.28289 6.33623L3.27856 49.6599ZM27.9102 8.70294C27.8634 9.26346 27.8927 9.84785 27.8928 10.4106L27.8947 13.5322C28.4862 13.5156 29.0823 13.5365 29.6743 13.5369L32.7411 13.5406C32.6203 13.3301 27.9699 8.72672 27.9102 8.70294ZM30.2069 35.6378C33.2749 35.6817 36.3475 35.6479 39.416 35.6472L42.5378 35.6459C43.1165 35.6459 43.7736 35.5845 44.3382 35.7007C44.6323 35.7611 44.9188 35.9239 45.1321 36.1336C45.5835 36.5774 45.6192 37.0933 45.6191 37.6845C45.619 38.0209 45.6143 38.3586 45.6249 38.6949C46.1191 38.1569 46.7007 37.6829 47.2388 37.1879L50.3907 34.3118C50.7433 33.9959 51.0935 33.6773 51.4413 33.356C51.5949 33.2157 51.7704 33.0809 51.91 32.9275C51.5149 32.4893 45.7171 27.2439 45.627 27.2138C45.5918 28.0723 45.7998 29.0878 45.0986 29.74C44.8538 29.9678 44.5403 30.1285 44.2078 30.1724C43.5894 30.2539 42.8349 30.198 42.2002 30.1973L38.3418 30.1962L32.8221 30.196L31.1206 30.1993C30.8587 30.2007 30.5878 30.2217 30.327 30.2057C30.2893 30.2033 30.2516 30.2002 30.2141 30.1962L30.2154 33.5653C30.2155 34.2552 30.2292 34.9483 30.2069 35.6378Z" fill="#905BC3"/>
<path d="M8.06117 26.37C8.8239 26.3272 9.60276 26.3573 10.3671 26.3574L14.5582 26.3588L17.1947 26.3575C17.7003 26.3559 18.2407 26.3171 18.7428 26.3748C19.0571 26.4108 19.3514 26.5137 19.6047 26.7067C19.6474 26.7393 19.6884 26.7739 19.7276 26.8105C19.7668 26.8471 19.8042 26.8856 19.8396 26.9259C19.875 26.9663 19.9083 27.0084 19.9395 27.052C19.9707 27.0957 19.9997 27.1408 20.0264 27.1874C20.0531 27.234 20.0774 27.2817 20.0994 27.3307C20.1213 27.3797 20.1408 27.4297 20.1578 27.4806C20.1747 27.5315 20.1891 27.5832 20.2009 27.6355C20.2127 27.6879 20.2219 27.7407 20.2284 27.794C20.2349 27.8468 20.2388 27.8996 20.2401 27.9526C20.2414 28.0057 20.2402 28.0587 20.2364 28.1117C20.2326 28.1647 20.2262 28.2173 20.2173 28.2696C20.2084 28.322 20.197 28.3738 20.183 28.425C20.1691 28.4762 20.1527 28.5266 20.1338 28.5763C20.115 28.6259 20.0939 28.6745 20.0704 28.7221C20.0468 28.7697 20.0211 28.816 19.9931 28.8611C19.965 28.9062 19.9348 28.9499 19.9026 28.992C19.6082 29.3731 19.2098 29.5733 18.7371 29.6343C17.9591 29.6716 17.1728 29.6496 16.3939 29.6498L12.4342 29.6505L9.65438 29.6506C9.15614 29.6507 8.6374 29.6812 8.14195 29.6339C7.80548 29.6019 7.54836 29.543 7.26689 29.3501C6.90492 29.1019 6.65161 28.7244 6.58025 28.2885C6.50826 27.8487 6.61276 27.3769 6.87977 27.0187C7.18067 26.6152 7.57171 26.4401 8.06117 26.37Z" fill="#905BC3"/>
<path d="M8.20282 39.468C8.98561 39.4411 9.77725 39.4642 10.5609 39.4644L15.0521 39.466L17.3867 39.4632C17.8562 39.4618 18.3525 39.4267 18.8167 39.4926C19.1489 39.5397 19.4585 39.673 19.7101 39.8987C19.7493 39.934 19.7866 39.9711 19.822 40.0101C19.8575 40.0491 19.8909 40.0898 19.9224 40.132C19.9539 40.1743 19.9832 40.218 20.0104 40.2632C20.0376 40.3084 20.0625 40.3547 20.0851 40.4024C20.1077 40.45 20.1279 40.4986 20.1458 40.5482C20.1636 40.5977 20.1789 40.6481 20.1918 40.6992C20.2047 40.7503 20.215 40.8019 20.2228 40.8541C20.2306 40.9062 20.2358 40.9586 20.2384 41.0112C20.2413 41.0648 20.2416 41.1184 20.2392 41.172C20.2369 41.2256 20.2319 41.279 20.2242 41.3322C20.2166 41.3852 20.2064 41.4378 20.1937 41.49C20.1809 41.5421 20.1656 41.5935 20.1479 41.6441C20.1301 41.6947 20.1099 41.7444 20.0873 41.7931C20.0646 41.8417 20.0396 41.8891 20.0122 41.9352C19.985 41.9815 19.9555 42.0262 19.9237 42.0696C19.8921 42.1128 19.8584 42.1544 19.8226 42.1945C19.4904 42.5651 19.0727 42.723 18.5832 42.7495C17.8201 42.7857 17.0408 42.7557 16.2765 42.7556L11.914 42.755L9.37917 42.7565C8.93992 42.7571 8.4671 42.7947 8.03279 42.7399C7.95032 42.7303 7.86896 42.7148 7.78871 42.6933C7.70847 42.672 7.63017 42.6449 7.55381 42.6123C7.47746 42.5797 7.40384 42.5418 7.33295 42.4985C7.26206 42.4552 7.19463 42.4071 7.13067 42.3542C7.09065 42.3207 7.05237 42.2853 7.01582 42.2481C6.97928 42.2109 6.94465 42.172 6.91194 42.1314C6.87922 42.0907 6.84858 42.0485 6.82001 42.0049C6.79144 41.9612 6.76508 41.9163 6.74093 41.8701C6.71678 41.8238 6.69495 41.7765 6.67545 41.7281C6.65595 41.6797 6.63887 41.6305 6.62422 41.5804C6.60955 41.5304 6.59738 41.4798 6.58771 41.4285C6.57803 41.3773 6.57089 41.3256 6.56629 41.2736C6.56097 41.2184 6.55841 41.1631 6.5586 41.1077C6.55879 41.0522 6.56175 40.9969 6.56746 40.9418C6.57317 40.8866 6.58161 40.8319 6.59278 40.7776C6.60395 40.7233 6.6178 40.6697 6.63431 40.6167C6.65084 40.5638 6.66995 40.5118 6.69165 40.4608C6.71335 40.4097 6.73755 40.3599 6.76422 40.3114C6.79089 40.2627 6.81992 40.2155 6.85129 40.1698C6.88267 40.1241 6.91624 40.0801 6.95201 40.0377C7.28783 39.643 7.70454 39.5044 8.20282 39.468Z" fill="#905BC3"/>
<path d="M7.98533 32.9313C8.61831 32.8722 9.27808 32.9115 9.91467 32.9123L13.4318 32.9129L16.9124 32.9128C17.489 32.9127 18.0915 32.8711 18.6643 32.9211C18.9689 32.9477 19.2557 33.0297 19.5136 33.1975C19.5589 33.227 19.6025 33.2588 19.6445 33.2927C19.6866 33.3266 19.7269 33.3625 19.7653 33.4005C19.8036 33.4385 19.84 33.4783 19.8744 33.52C19.9089 33.5617 19.9411 33.605 19.971 33.6499C20.0011 33.6948 20.0287 33.7411 20.054 33.7889C20.0794 33.8366 20.1023 33.8854 20.1227 33.9355C20.1431 33.9855 20.1609 34.0364 20.1761 34.0882C20.1914 34.1401 20.204 34.1926 20.2139 34.2456C20.2239 34.2986 20.2311 34.352 20.2357 34.4057C20.2404 34.4594 20.2424 34.5132 20.2418 34.5671C20.2412 34.6211 20.2379 34.6748 20.232 34.7284C20.2261 34.782 20.2176 34.8352 20.2064 34.8879C20.1953 34.9407 20.1816 34.9928 20.1654 35.0442C20.1491 35.0956 20.1304 35.1461 20.1093 35.1957C20.0881 35.2453 20.0645 35.2937 20.0385 35.3409C20.0126 35.3882 19.9844 35.434 19.954 35.4785C19.7007 35.8472 19.3087 36.0895 18.8713 36.1708C18.3126 36.2415 17.7107 36.1995 17.1463 36.1997L13.957 36.2006L10.1103 36.2007C9.45264 36.2006 8.76384 36.2427 8.1107 36.1841C7.79637 36.1559 7.53537 36.0883 7.2701 35.9101C7.22565 35.8803 7.1828 35.8483 7.14155 35.8141C7.1003 35.78 7.06085 35.7439 7.02322 35.7058C6.98558 35.6677 6.94994 35.6279 6.91629 35.5863C6.88264 35.5445 6.85115 35.5013 6.82181 35.4565C6.79249 35.4118 6.76547 35.3656 6.74075 35.3181C6.71604 35.2706 6.69376 35.222 6.6739 35.1723C6.65406 35.1225 6.63673 35.0719 6.62194 35.0205C6.60715 34.969 6.59496 34.9169 6.58538 34.8643C6.50994 34.4424 6.59724 33.9829 6.8418 33.6289C7.12674 33.2162 7.49926 33.0244 7.98533 32.9313Z" fill="#905BC3"/>
<path d="M8.21881 19.8101C10.5487 19.7662 12.8868 19.8081 15.2178 19.8077L17.4701 19.8075C17.9263 19.8074 18.4009 19.778 18.8532 19.8424C19.1772 19.8886 19.4607 20.0139 19.7046 20.2345C19.7441 20.2703 19.7817 20.3078 19.8175 20.3472C19.8533 20.3866 19.8871 20.4277 19.9188 20.4704C19.9506 20.5132 19.9802 20.5574 20.0076 20.603C20.035 20.6486 20.0602 20.6954 20.083 20.7436C20.1058 20.7916 20.1262 20.8407 20.1442 20.8908C20.1622 20.9409 20.1778 20.9917 20.1908 21.0434C20.2039 21.095 20.2143 21.1471 20.2222 21.1998C20.2302 21.2524 20.2355 21.3053 20.2382 21.3585C20.241 21.4123 20.2411 21.466 20.2385 21.5198C20.236 21.5736 20.2309 21.6272 20.2231 21.6805C20.2153 21.7338 20.2049 21.7866 20.1919 21.8388C20.1789 21.891 20.1634 21.9425 20.1454 21.9933C20.1274 22.044 20.1069 22.0938 20.084 22.1426C20.0611 22.1913 20.0358 22.2387 20.0083 22.285C19.9806 22.3312 19.9509 22.376 19.9189 22.4194C19.8869 22.4627 19.8529 22.5043 19.8168 22.5443C19.4755 22.9186 19.0569 23.0615 18.5603 23.087C16.2812 23.1404 13.9517 23.0938 11.6674 23.0938L9.40388 23.095C8.91496 23.0958 8.4065 23.1228 7.92127 23.056C7.84853 23.0455 7.77691 23.03 7.70641 23.0093C7.63591 22.9886 7.56724 22.963 7.5004 22.9325C7.43357 22.9019 7.36926 22.8668 7.30746 22.827C7.24567 22.7873 7.18704 22.7433 7.13155 22.6951C7.09068 22.6608 7.05161 22.6245 7.01435 22.5863C6.9771 22.5481 6.94183 22.5081 6.90855 22.4664C6.87528 22.4247 6.84416 22.3814 6.81519 22.3366C6.78623 22.2918 6.75956 22.2456 6.73519 22.1981C6.71082 22.1507 6.68888 22.1021 6.66935 22.0524C6.64982 22.0028 6.63281 21.9523 6.61831 21.9009C6.60382 21.8495 6.59191 21.7976 6.58259 21.745C6.57327 21.6925 6.56659 21.6396 6.56253 21.5864C6.52855 21.1242 6.67114 20.6956 6.97877 20.3482C7.31588 19.9674 7.72703 19.8421 8.21881 19.8101Z" fill="#905BC3"/>
<path d="M7.95931 13.2739C8.6316 13.2172 9.33051 13.2537 10.0057 13.254L13.6612 13.2548L16.9989 13.2555C17.5618 13.2553 18.1487 13.2167 18.7085 13.2673C18.9999 13.2936 19.2858 13.3797 19.5296 13.5446C19.5735 13.5737 19.6158 13.605 19.6565 13.6384C19.6972 13.6717 19.7362 13.7071 19.7735 13.7444C19.8107 13.7817 19.8459 13.8207 19.8793 13.8614C19.9126 13.9022 19.9438 13.9445 19.9729 13.9884C20.002 14.0324 20.0289 14.0776 20.0535 14.1242C20.0781 14.1707 20.1003 14.2184 20.1201 14.2672C20.1399 14.316 20.1573 14.3657 20.1723 14.4162C20.1871 14.4667 20.1995 14.5179 20.2092 14.5696C20.2197 14.6224 20.2275 14.6755 20.2328 14.729C20.2379 14.7825 20.2405 14.8361 20.2404 14.8899C20.2403 14.9437 20.2376 14.9974 20.2322 15.0509C20.2268 15.1043 20.2188 15.1574 20.2083 15.2101C20.1976 15.2629 20.1844 15.3149 20.1687 15.3663C20.1529 15.4177 20.1347 15.4682 20.114 15.5178C20.0932 15.5675 20.07 15.616 20.0445 15.6633C20.019 15.7106 19.9912 15.7565 19.9612 15.8011C19.695 16.1953 19.3223 16.4176 18.8604 16.5106C18.1915 16.5784 17.4886 16.5367 16.8149 16.5364L13.1506 16.5358L9.79892 16.5357C9.23911 16.5359 8.65374 16.5787 8.09808 16.5254C7.80562 16.4973 7.52758 16.4122 7.28148 16.2491C7.2364 16.2198 7.19291 16.1882 7.15102 16.1545C7.10912 16.1207 7.06903 16.085 7.03075 16.0472C6.99248 16.0094 6.9562 15.9698 6.92193 15.9283C6.88766 15.8869 6.85557 15.8438 6.82565 15.7991C6.79574 15.7544 6.76816 15.7083 6.74291 15.6608C6.71766 15.6133 6.69487 15.5647 6.67454 15.5149C6.6542 15.4651 6.63643 15.4144 6.62123 15.3628C6.60603 15.3112 6.59346 15.259 6.58354 15.2061C6.57386 15.1525 6.56679 15.0985 6.56233 15.0442C6.55787 14.9899 6.55603 14.9355 6.55682 14.881C6.55761 14.8265 6.56103 14.7722 6.56708 14.7181C6.57312 14.6639 6.58176 14.6101 6.59299 14.5568C6.60422 14.5035 6.61801 14.4508 6.63433 14.3988C6.65066 14.3468 6.66945 14.2957 6.6907 14.2456C6.71197 14.1954 6.7356 14.1464 6.7616 14.0985C6.7876 14.0505 6.81584 14.004 6.84633 13.9589C7.11647 13.5636 7.49709 13.3601 7.95931 13.2739Z" fill="#905BC3"/>
</svg>
