<svg width="56" height="56" viewBox="0 0 56 56" fill="none" xmlns="http://www.w3.org/2000/svg">
<path d="M27.5874 4.8511C28.1067 4.80538 28.6227 4.8406 29.1151 5.02277C29.529 5.176 29.9227 5.39054 30.3163 5.58898L31.9835 6.42841L37.8034 9.35241L43.3319 12.1304L44.9845 12.9599C45.3957 13.1663 45.8192 13.3622 46.2012 13.6205C46.2627 13.6624 46.3227 13.7063 46.3812 13.7523C46.4397 13.7983 46.4965 13.8463 46.5517 13.8961C46.6069 13.946 46.6603 13.9977 46.712 14.0512C46.7636 14.1048 46.8134 14.1601 46.8613 14.2171C46.9091 14.274 46.9549 14.3326 46.9987 14.3927C47.0426 14.4528 47.0844 14.5143 47.124 14.5773C47.1636 14.6403 47.201 14.7045 47.2362 14.7701C47.2714 14.8356 47.3043 14.9023 47.335 14.9701C47.7636 15.9219 47.6392 17.0755 47.6056 18.0937C47.5873 18.6692 47.557 19.244 47.5147 19.8183C47.4724 20.3924 47.4182 20.9655 47.352 21.5374C47.2858 22.1094 47.2077 22.6797 47.1177 23.2484C47.0278 23.817 46.926 24.3836 46.8124 24.9479C46.6988 25.5124 46.5735 26.0742 46.4364 26.6334C46.2994 27.1926 46.1507 27.7487 45.9904 28.3017C45.8302 28.8547 45.6585 29.4041 45.4754 29.95C45.2922 30.4958 45.0977 31.0376 44.892 31.5753L50.5596 37.2396L52.5366 39.2146C52.8895 39.5672 53.2592 39.9121 53.5939 40.2817C53.7102 40.41 53.848 40.5656 53.9196 40.7238C54.0925 41.1065 54.1086 41.5706 53.9595 41.9636C53.8514 42.2487 53.669 42.5035 53.416 42.6771C52.9688 42.984 52.3694 43.1471 51.8631 43.3369L49.2109 44.3318C48.7451 44.5069 48.2564 44.662 47.8071 44.8747L47.764 44.8952C47.5819 45.2124 47.4724 45.6066 47.3447 45.9494L46.2437 48.9027C46.0746 49.3532 45.9321 49.8475 45.7189 50.2778C45.6783 50.3614 45.631 50.4411 45.5769 50.5168C45.5228 50.5924 45.4627 50.6629 45.3966 50.7284C45.3606 50.7643 45.3229 50.7983 45.2834 50.8303C45.244 50.8625 45.2032 50.8926 45.1608 50.9208C45.1184 50.9489 45.0748 50.9749 45.0299 50.9987C44.985 51.0225 44.939 51.0441 44.892 51.0634C44.8449 51.0827 44.7971 51.0997 44.7484 51.1143C44.6996 51.1289 44.6504 51.141 44.6005 51.1508C44.5506 51.1606 44.5003 51.1679 44.4497 51.1727C44.399 51.1775 44.3483 51.1798 44.2975 51.1796C44.0307 51.1767 43.6971 51.096 43.476 50.9423C43.1091 50.6873 42.7981 50.3327 42.4831 50.0175L41.1435 48.6772L36.0139 43.5497C35.4599 43.8623 34.9481 44.2823 34.4047 44.6196C32.9114 45.5468 30.0677 47.0062 28.3651 47.2958C27.996 47.3454 27.6134 47.3038 27.2525 47.2207C26.7772 47.1114 26.3109 46.9216 25.8574 46.7444C25.1784 46.4825 24.5116 46.1923 23.8572 45.8738C23.2027 45.5553 22.5629 45.2097 21.9378 44.8369C21.2605 44.4327 20.6218 43.977 19.9642 43.5432C19.503 44.0586 18.977 44.5378 18.4874 45.027L15.5647 47.9482L13.7096 49.8071C13.3678 50.1501 13.0297 50.5391 12.6462 50.8332C12.3868 51.0321 12.0895 51.1616 11.7592 51.1783C11.7298 51.1797 11.7003 51.1803 11.6708 51.1801C11.6414 51.1799 11.6119 51.1788 11.5825 51.1769C11.5531 51.1751 11.5238 51.1723 11.4945 51.1687C11.4652 51.1652 11.4361 51.1608 11.4071 51.1556C11.3781 51.1504 11.3493 51.1443 11.3206 51.1375C11.2919 51.1306 11.2634 51.123 11.2352 51.1145C11.207 51.106 11.179 51.0968 11.1513 51.0867C11.1236 51.0767 11.0962 51.0658 11.0692 51.0542C11.042 51.0426 11.0153 51.0302 10.9889 51.017C10.9625 51.0039 10.9365 50.9901 10.9109 50.9755C10.8853 50.9608 10.8602 50.9455 10.8355 50.9294C10.8107 50.9134 10.7865 50.8967 10.7627 50.8792C10.7389 50.8618 10.7157 50.8437 10.6929 50.825C10.6702 50.8062 10.648 50.7869 10.6263 50.7669C10.6047 50.7469 10.5836 50.7263 10.5631 50.7051C10.5426 50.6839 10.5228 50.6621 10.5035 50.6398C10.3946 50.5125 10.3081 50.3695 10.2371 50.2182C10.0214 49.7587 9.86613 49.2437 9.68942 48.7669L8.67318 46.0369C8.55621 45.7212 8.42713 45.2239 8.24642 44.9494C8.19081 44.8648 8.10402 44.8218 8.01408 44.7815C7.78908 44.6805 7.54106 44.624 7.31128 44.5327C6.331 44.1433 5.33547 43.7837 4.34633 43.4166C3.80587 43.216 2.83135 42.9493 2.4142 42.559C2.09821 42.2632 1.93191 41.8572 1.92836 41.4279C1.92794 41.3855 1.92923 41.3431 1.93222 41.3008C1.9352 41.2585 1.93987 41.2164 1.94623 41.1745C1.9526 41.1326 1.96063 41.091 1.97033 41.0497C1.98003 41.0084 1.99136 40.9676 2.00434 40.9272C2.01731 40.8869 2.03188 40.8471 2.04805 40.8079C2.06421 40.7686 2.08193 40.7301 2.10118 40.6924C2.12044 40.6546 2.14118 40.6177 2.1634 40.5816C2.18561 40.5454 2.20924 40.5102 2.23428 40.476C2.49609 40.1176 2.85408 39.8056 3.16816 39.4918L4.80843 37.8535C6.90188 35.7592 9.02487 33.6883 11.0916 31.568C10.7931 30.75 10.4939 29.9357 10.2341 29.1042C9.90752 28.0462 9.62388 26.9767 9.3832 25.8959C9.14251 24.8151 8.94557 23.7263 8.79236 22.6296C8.57766 21.114 8.45948 19.605 8.39237 18.0764C8.35828 17.2999 8.28825 16.4519 8.43639 15.6851C8.46015 15.5611 8.4911 15.4388 8.52923 15.3185C8.56736 15.198 8.61241 15.0802 8.66438 14.9652C8.71636 14.85 8.7749 14.7384 8.84 14.6302C8.9051 14.5219 8.97631 14.4178 9.05364 14.318C9.33161 13.9527 9.63646 13.6917 10.0328 13.4602C10.9003 12.9533 11.9432 12.4874 12.8496 12.0329L18.1031 9.3933L23.6929 6.58597C24.6613 6.09919 25.6276 5.55481 26.6213 5.12497C26.9341 4.98967 27.2499 4.89664 27.5874 4.8511ZM11.5174 16.2799C11.4768 17.4555 11.5431 18.6401 11.6254 19.8128C12.0892 26.4235 14.1927 33.3747 18.7977 38.3039C19.0562 38.582 19.3219 38.853 19.5947 39.1169C19.8676 39.3809 20.1473 39.6374 20.4337 39.8866C20.7202 40.1358 21.013 40.3773 21.3121 40.6109C21.6114 40.8446 21.9166 41.0702 22.2277 41.2877C22.5389 41.5052 22.8556 41.7143 23.1779 41.9151C23.5001 42.1158 23.8274 42.3079 24.1597 42.4913C24.4921 42.6747 24.8292 42.8492 25.1708 43.0147C25.5124 43.1803 25.8582 43.3368 26.2081 43.4841C26.7674 43.7219 27.3763 43.9988 27.9704 44.1348C28.4882 44.0757 29.3229 43.6803 29.8147 43.4698C30.0233 43.3811 30.2304 43.2891 30.436 43.194C30.6417 43.0988 30.8458 43.0004 31.0484 42.8988C31.2509 42.7972 31.4519 42.6925 31.6512 42.5847C31.8505 42.4767 32.0481 42.3658 32.2439 42.2517C32.4398 42.1377 32.6338 42.0206 32.8259 41.9005C33.0181 41.7804 33.2084 41.6574 33.3968 41.5314C33.5851 41.4053 33.7714 41.2763 33.9557 41.1444C34.14 41.0126 34.3222 40.8779 34.5022 40.7403C34.6823 40.6027 34.8602 40.4623 35.036 40.3192C35.2116 40.176 35.385 40.0302 35.5561 39.8817C35.7274 39.7331 35.8962 39.5819 36.0626 39.4281C36.229 39.2742 36.3929 39.1178 36.5544 38.9589C36.7159 38.7999 36.8749 38.6385 37.0314 38.4746C37.1879 38.3106 37.3418 38.1442 37.4931 37.9755C37.6444 37.8068 37.793 37.6357 37.9389 37.4623C38.0848 37.2889 38.228 37.1133 38.3684 36.9354C42.1731 32.1512 43.9465 25.8283 44.3708 19.8125C44.4288 19.0633 44.4642 18.3131 44.477 17.5619C44.4874 17.1682 44.5152 16.7556 44.4725 16.3635C44.4675 16.3168 44.4598 16.2713 44.4515 16.225L32.3526 10.1403L29.4967 8.70484C29.0966 8.50322 28.4528 8.11666 28.0493 8.01733C27.5676 8.22943 27.0984 8.47883 26.6274 8.7137L24.2158 9.91648L16.8104 13.6017L13.2544 15.3724C12.7586 15.6188 11.9359 15.9523 11.5174 16.2799ZM12.47 34.6865C11.0007 36.0879 9.586 37.5568 8.15016 38.9931C7.55367 39.5898 6.9699 40.2239 6.34078 40.784C7.13096 41.1158 7.9474 41.4001 8.75067 41.6997C9.28788 41.9 10.039 42.0971 10.4876 42.4556C10.729 42.6485 10.8648 42.9113 10.9788 43.1921C11.1947 43.7236 11.3844 44.2688 11.5845 44.8066C11.7435 45.2335 11.9188 45.6612 12.06 46.094C12.1482 46.3117 12.2289 46.5321 12.3024 46.7551C14.0482 44.9992 15.7849 43.2283 17.5592 41.5015C16.1741 40.0935 14.9173 38.62 13.8444 36.9569C13.374 36.2277 13.0016 35.5013 12.5639 34.7669C12.5411 34.7286 12.5099 34.7049 12.47 34.6865ZM43.4803 34.6574C43.2791 35.0969 43.022 35.5244 42.7761 35.9408C42.3598 36.6501 41.9117 37.3387 41.432 38.0067C40.9523 38.6747 40.4429 39.3193 39.9038 39.9404C39.6251 40.2564 39.3401 40.5666 39.0486 40.8709C38.8449 41.0811 38.6181 41.2863 38.4352 41.5136C38.9193 41.9553 39.3737 42.4364 39.8371 42.8999L42.3214 45.3861C42.7784 45.8434 43.2274 46.3324 43.7159 46.7556C43.7735 46.5223 43.8581 46.2993 43.9407 46.0739L44.7305 43.9637C44.8702 43.5891 44.9936 43.1063 45.2154 42.7782C45.3975 42.5087 45.6487 42.32 45.9435 42.1893C46.7899 41.8141 47.7954 41.4916 48.675 41.1627C48.9961 41.0427 49.3314 40.9342 49.6395 40.7845L45.1871 36.3324C44.8675 36.0124 43.7767 34.8353 43.4803 34.6574Z" fill="#915DC2"/>
<path d="M27.8248 16.1707C28.1284 16.1451 28.4495 16.1858 28.7418 16.2701C28.8021 16.2877 28.8618 16.3076 28.9207 16.3296C28.9796 16.3516 29.0376 16.3757 29.0947 16.402C29.1518 16.4282 29.2079 16.4566 29.2629 16.487C29.318 16.5174 29.3718 16.5498 29.4245 16.5841C29.4772 16.6185 29.5286 16.6547 29.5786 16.6927C29.6285 16.7309 29.6771 16.7708 29.7242 16.8125C29.7713 16.8541 29.8168 16.8975 29.8607 16.9425C29.9046 16.9875 29.9468 17.0341 29.9872 17.0822C30.3257 17.4799 30.5341 17.9845 30.7631 18.45C31.122 19.1794 31.4592 19.9325 31.8529 20.6429C32.6825 20.8178 33.5521 20.8985 34.3922 21.0197C34.8392 21.0842 35.3197 21.1309 35.7443 21.29C35.8253 21.3205 35.9046 21.355 35.9823 21.3933C36.0599 21.4317 36.1354 21.4738 36.2088 21.5197C36.2823 21.5655 36.3533 21.6149 36.4219 21.6679C36.4904 21.7207 36.5562 21.7769 36.6192 21.8363C36.6505 21.8659 36.6811 21.8963 36.7109 21.9274C36.7408 21.9586 36.7698 21.9905 36.7981 22.0231C36.8263 22.0556 36.8537 22.0889 36.8804 22.1229C36.907 22.1568 36.9327 22.1914 36.9576 22.2267C36.9825 22.2619 37.0065 22.2977 37.0296 22.3342C37.0527 22.3706 37.0749 22.4075 37.0962 22.4451C37.1175 22.4826 37.1378 22.5207 37.1571 22.5592C37.1765 22.5977 37.1949 22.6367 37.2123 22.6762C37.2297 22.7156 37.2462 22.7555 37.2616 22.7957C37.2771 22.836 37.2916 22.8766 37.3051 22.9176C37.3185 22.9586 37.3309 22.9999 37.3423 23.0415C37.3536 23.0831 37.364 23.125 37.3733 23.1671C37.3826 23.2092 37.3908 23.2515 37.398 23.294C37.4053 23.3366 37.4114 23.3792 37.4164 23.4221C37.4215 23.4649 37.4256 23.5078 37.4286 23.5509C37.4315 23.594 37.4333 23.637 37.4341 23.6801C37.436 23.7393 37.4357 23.7984 37.4334 23.8574C37.4311 23.9165 37.4267 23.9754 37.4202 24.0342C37.4138 24.093 37.4053 24.1515 37.3948 24.2096C37.3842 24.2678 37.3716 24.3256 37.3569 24.3829C37.3423 24.4402 37.3257 24.4969 37.3071 24.5531C37.2885 24.6092 37.2679 24.6646 37.2455 24.7193C37.2229 24.774 37.1985 24.8278 37.1723 24.8807C37.146 24.9338 37.1179 24.9857 37.088 25.0367C36.7967 25.5352 36.3298 25.9282 35.9202 26.3277C35.357 26.8768 34.7738 27.4134 34.2335 27.9848C34.3272 28.8289 34.5196 29.6832 34.6646 30.5211C34.7405 30.9601 34.8387 31.4128 34.8241 31.8601C34.8213 31.9501 34.8139 32.0396 34.8017 32.1288C34.7894 32.218 34.7725 32.3063 34.7509 32.3937C34.7293 32.4811 34.7031 32.5671 34.6724 32.6517C34.6417 32.7364 34.6066 32.8191 34.5671 32.9C34.5478 32.9392 34.5275 32.9778 34.5063 33.016C34.485 33.0542 34.4629 33.0918 34.4398 33.1288C34.4167 33.1659 34.3928 33.2024 34.3679 33.2383C34.343 33.2743 34.3173 33.3095 34.2908 33.3442C34.2643 33.3789 34.2368 33.4129 34.2086 33.4461C34.1803 33.4794 34.1513 33.5121 34.1215 33.544C34.0917 33.5759 34.0611 33.607 34.0297 33.6374C33.9984 33.6678 33.9663 33.6974 33.9335 33.7262C33.9007 33.7551 33.8672 33.7831 33.8331 33.8103C33.7989 33.8375 33.7641 33.8639 33.7286 33.8893C33.6931 33.9148 33.657 33.9394 33.6204 33.9631C33.5838 33.9869 33.5465 34.0097 33.5088 34.0316C33.471 34.0535 33.4327 34.0744 33.3939 34.0945C33.3551 34.1145 33.3158 34.1336 33.276 34.1517C33.2363 34.1699 33.1961 34.187 33.1556 34.2031C33.1151 34.2193 33.0741 34.2345 33.0328 34.2486C31.8536 34.646 30.9201 34.0501 29.9131 33.5147C29.3307 33.1996 28.7439 32.8928 28.1527 32.5944C28.0804 32.5674 28.0171 32.5358 27.9386 32.5583C27.6541 32.6396 27.3727 32.8268 27.113 32.9663C26.4458 33.3246 25.1427 34.0924 24.4836 34.2814C24.3972 34.3056 24.3099 34.3254 24.2215 34.3406C24.1331 34.3558 24.0442 34.3664 23.9546 34.3724C23.8652 34.3785 23.7756 34.3799 23.686 34.3767C23.5964 34.3734 23.5072 34.3656 23.4184 34.3532C23.3755 34.347 23.3328 34.3399 23.2903 34.3316C23.2478 34.3234 23.2055 34.3141 23.1634 34.3038C23.1214 34.2936 23.0796 34.2822 23.0381 34.2698C22.9966 34.2574 22.9554 34.244 22.9146 34.2297C22.8737 34.2153 22.8332 34.1999 22.7932 34.1835C22.7531 34.1671 22.7134 34.1498 22.6742 34.1315C22.635 34.1131 22.5962 34.0938 22.5579 34.0735C22.5196 34.0533 22.4819 34.0322 22.4446 34.0101C22.4074 33.9879 22.3707 33.9649 22.3346 33.9409C22.2985 33.9171 22.263 33.8923 22.2282 33.8667C22.1932 33.841 22.159 33.8145 22.1255 33.7872C22.0918 33.7598 22.059 33.7316 22.0268 33.7026C21.9946 33.6737 21.9631 33.6439 21.9324 33.6135C21.9016 33.5829 21.8717 33.5516 21.8425 33.5196C21.8133 33.4877 21.7849 33.455 21.7573 33.4216C21.7297 33.3882 21.703 33.3542 21.6771 33.3195C20.9286 32.3327 21.2003 31.2768 21.3936 30.159C21.5185 29.4367 21.6562 28.7145 21.7537 27.9879C21.5538 27.7362 21.2941 27.5165 21.0632 27.2924L19.7389 26.0061C19.4673 25.7417 19.178 25.4749 18.9689 25.1567C18.9226 25.0868 18.8801 25.0148 18.8414 24.9405C18.8026 24.8662 18.768 24.79 18.7373 24.712C18.7067 24.634 18.6801 24.5547 18.6578 24.4739C18.6355 24.3932 18.6175 24.3115 18.6038 24.2288C18.4872 23.5248 18.6353 22.7728 19.0563 22.1913C19.7861 21.1834 20.8756 21.1286 22.0078 20.9667C22.7174 20.8684 23.4264 20.7658 24.1347 20.6589C24.5183 19.9508 24.8616 19.2161 25.2168 18.4932C25.45 18.0189 25.6628 17.4942 26.0013 17.0842C26.4743 16.5112 27.0964 16.2413 27.8248 16.1707ZM22.3156 24.0947C22.7097 24.4887 23.1063 24.8801 23.5056 25.2689C24.2653 26.0096 24.9456 26.6239 24.9468 27.7663C24.9472 28.2106 24.8504 28.6582 24.7762 29.0949L24.4851 30.7944C24.9826 30.5225 25.4825 30.2553 25.985 29.9928C26.3719 29.7885 26.7604 29.555 27.178 29.4205C27.4554 29.3311 27.7284 29.2981 28.0181 29.2848C28.3001 29.3039 28.5588 29.34 28.8276 29.4297C29.2799 29.5806 29.7082 29.8379 30.1296 30.0597C30.5906 30.3022 31.059 30.5371 31.513 30.7925C31.4184 30.2751 31.3274 29.7571 31.2402 29.2385C31.0628 28.2037 30.8623 27.2557 31.4913 26.3229C31.7598 25.9246 32.1397 25.5961 32.4816 25.2614C32.8735 24.8778 33.263 24.4909 33.6599 24.1126C33.079 24.0053 32.4876 23.9368 31.9026 23.8544C30.8349 23.7039 29.9818 23.5625 29.3269 22.6083C28.9909 22.1186 28.2334 20.2552 27.9756 20.0269L27.251 21.4871C26.7718 22.4579 26.408 23.2701 25.2983 23.6373C24.6838 23.8405 23.0112 24.0417 22.3156 24.0947Z" fill="#915DC2"/>
</svg>
