<svg width="64" height="64" viewBox="0 0 64 64" fill="none" xmlns="http://www.w3.org/2000/svg">
<path d="M25.5644 4.60569C26.232 4.53678 26.9945 4.63589 27.6227 4.87289C28.2893 5.12447 28.9005 5.50526 29.5154 5.86054L31.5717 7.04864L38.7823 11.2097C39.5935 11.6789 40.8694 12.5158 41.7069 12.7856C42.5059 12.2642 43.3865 11.9877 44.3437 11.9719C44.4243 11.9709 44.5048 11.9718 44.5854 11.9747C44.6659 11.9775 44.7463 11.9823 44.8267 11.9891C44.907 11.9958 44.9871 12.0045 45.067 12.0151C45.1469 12.0257 45.2265 12.0382 45.3058 12.0526C45.3851 12.0671 45.464 12.0834 45.5425 12.1017C45.621 12.1199 45.699 12.14 45.7765 12.162C45.8541 12.184 45.9311 12.2079 46.0074 12.2336C46.0838 12.2593 46.1596 12.2868 46.2347 12.3162C46.3097 12.3456 46.384 12.3767 46.4575 12.4096C46.5311 12.4426 46.6038 12.4773 46.6757 12.5137C46.7476 12.5502 46.8186 12.5884 46.8887 12.6282C46.9587 12.6681 47.0277 12.7097 47.0958 12.7528C47.1638 12.796 47.2308 12.8408 47.2967 12.8872C47.3625 12.9336 47.4272 12.9816 47.4908 13.0312C47.5544 13.0808 47.6168 13.1318 47.6779 13.1843C47.739 13.2369 47.7988 13.2909 47.8573 13.3463C48.7145 14.1587 49.5237 15.8078 50.1283 16.8581L54.7458 24.8627L56.0607 27.1437C56.2565 27.4856 56.4449 27.9057 56.6847 28.2156C56.876 28.4631 57.4314 28.6542 57.713 28.8319C57.9973 29.0135 58.2601 29.2222 58.5015 29.4578C59.5392 30.4694 59.9898 31.7747 60.0008 33.2031L60.0015 48.7028L60.0023 53.0226C60.0035 53.9648 60.0737 54.9609 59.9134 55.8896C59.8912 56.0132 59.8643 56.1357 59.8327 56.2573C59.8011 56.3789 59.7649 56.4991 59.7242 56.6179C59.6835 56.7368 59.6384 56.8539 59.5888 56.9693C59.5392 57.0847 59.4853 57.1981 59.4272 57.3093C59.369 57.4207 59.3067 57.5296 59.2402 57.6362C59.1738 57.7428 59.1034 57.8467 59.029 57.9479C58.9546 58.0492 58.8765 58.1475 58.7948 58.2428C58.713 58.3382 58.6277 58.4302 58.5389 58.5191C57.8704 59.1916 56.99 59.6966 56.0597 59.8947C55.2617 60.0647 54.399 60.0138 53.5862 60.0138L50.5013 60.0128L39.2342 60.0134L18.5378 60.0128H12.026C10.8782 60.0129 9.69029 60.0827 8.54834 59.9817C7.20208 59.8624 5.98833 59.1932 5.12621 58.1598C5.05612 58.0751 4.98899 57.9881 4.92479 57.8988C4.86061 57.8096 4.79953 57.7182 4.74154 57.6248C4.68355 57.5314 4.62879 57.4361 4.57727 57.3389C4.52574 57.2418 4.47757 57.143 4.43274 57.0426C4.38792 56.9422 4.34655 56.8404 4.30863 56.7372C4.27072 56.6339 4.23634 56.5296 4.20549 56.4241C4.17466 56.3185 4.14744 56.212 4.12382 56.1047C4.1002 55.9973 4.08025 55.8892 4.06397 55.7804C3.91872 54.7741 4.00149 53.2274 4.00167 52.1679L4.00148 45.4664L4.00071 36.9388L3.99981 34.2717C3.99969 33.6959 3.97944 33.1131 4.03038 32.5394C4.03746 32.4575 4.04657 32.3758 4.05771 32.2943C4.06884 32.2128 4.08199 32.1317 4.09716 32.0508C4.11233 31.97 4.1295 31.8896 4.14866 31.8096C4.16782 31.7296 4.18896 31.6501 4.21207 31.5712C4.23518 31.4922 4.26024 31.4139 4.28724 31.3362C4.31424 31.2585 4.34316 31.1816 4.37398 31.1053C4.40481 31.0291 4.4375 30.9536 4.47207 30.8789C4.50664 30.8043 4.54305 30.7306 4.58128 30.6578C4.61952 30.585 4.65954 30.5132 4.70134 30.4423C4.74314 30.3715 4.78668 30.3017 4.83194 30.2329C4.87721 30.1643 4.92416 30.0968 4.97278 30.0304C5.02141 29.9641 5.07164 29.899 5.12349 29.8352C5.17535 29.7714 5.22876 29.7089 5.28372 29.6477C5.33868 29.5864 5.39512 29.5267 5.45306 29.4683C5.51099 29.4099 5.57034 29.353 5.63109 29.2976C5.69185 29.2421 5.75395 29.1882 5.81738 29.1358C5.87845 29.0847 5.94075 29.0352 6.00429 28.9872C6.06784 28.9392 6.13253 28.8928 6.19838 28.8479C6.26424 28.8032 6.33117 28.7601 6.39917 28.7187C6.46718 28.6773 6.53617 28.6376 6.60616 28.5996C6.67614 28.5616 6.74703 28.5253 6.81882 28.4908C6.89062 28.4564 6.96323 28.4238 7.03664 28.3929C7.11006 28.362 7.18421 28.333 7.25908 28.3059C7.33394 28.2788 7.40944 28.2535 7.48557 28.2302C7.56169 28.2068 7.63836 28.1853 7.71556 28.1657C7.79275 28.1462 7.87038 28.1286 7.94846 28.1129C8.02653 28.0973 8.10495 28.0835 8.18372 28.0717C8.26248 28.0599 8.34148 28.0502 8.42073 28.0423C8.49998 28.0345 8.57937 28.0287 8.65891 28.0248C8.73845 28.0209 8.81804 28.019 8.89767 28.0192C8.9773 28.0193 9.05689 28.0214 9.13642 28.0254C9.21595 28.0295 9.29533 28.0356 9.37456 28.0436C9.95766 27.4129 10.394 26.5896 10.8284 25.8498L12.2552 23.3928L18.9604 11.7347L20.8292 8.48121C21.2264 7.78943 21.6025 7.02753 22.1045 6.40608C22.9723 5.33214 24.2054 4.74357 25.5644 4.60569ZM55.0298 57.9934C55.919 57.9256 56.6778 57.6368 57.2717 56.9446C57.6842 56.4638 57.8899 55.9443 57.9655 55.3204C58.0189 54.8803 58.001 54.4263 58.0012 53.9836L58.0017 51.9991L58.0009 45.3706L58.0014 37.0774L58.002 34.4252C58.002 33.8929 58.024 33.3513 57.9807 32.8211C57.9092 31.9472 57.556 31.2367 56.8795 30.6709C56.4325 30.2971 55.8744 30.0878 55.2967 30.0386C54.593 29.9788 53.8687 30.0101 53.1624 30.0106L49.5592 30.0137L38.0362 30.0138L19.4129 30.0149L12.7894 30.0128C11.5547 30.0116 10.3133 29.9832 9.07948 30.0141C8.14636 30.0696 7.37549 30.3018 6.73946 31.0262C6.69085 31.0816 6.6444 31.1388 6.60011 31.1977C6.55581 31.2566 6.5138 31.3171 6.47408 31.3792C6.43436 31.4413 6.39703 31.5048 6.36211 31.5697C6.32717 31.6345 6.29474 31.7007 6.26481 31.7681C6.23488 31.8354 6.20754 31.9038 6.18277 31.9732C6.158 32.0426 6.13589 32.1129 6.11643 32.1839C6.09697 32.255 6.08021 32.3267 6.06617 32.3991C6.05213 32.4714 6.04084 32.5442 6.03229 32.6174C5.98338 33.0263 6.00121 33.4503 6.00098 33.8617L6.00091 35.7994L6.00164 42.3438L6.00257 50.9833L6.00098 53.6018C5.99931 54.1386 5.97422 54.6883 6.01307 55.2234C6.01659 55.2729 6.02135 55.3222 6.02734 55.3714C6.03334 55.4206 6.04055 55.4696 6.04899 55.5184C6.05744 55.5674 6.06709 55.616 6.07797 55.6643C6.08884 55.7127 6.10091 55.7607 6.11418 55.8086C6.12746 55.8563 6.14192 55.9037 6.15756 55.9507C6.17319 55.9978 6.18999 56.0444 6.20797 56.0906C6.22594 56.1367 6.24505 56.1824 6.26531 56.2277C6.28557 56.2729 6.30694 56.3177 6.32943 56.3618C6.35192 56.406 6.37549 56.4496 6.40016 56.4926C6.42483 56.5356 6.45056 56.5779 6.47734 56.6197C6.50413 56.6614 6.53194 56.7024 6.56077 56.7427C6.5896 56.783 6.61942 56.8226 6.65023 56.8614C6.68105 56.9003 6.71281 56.9383 6.74552 56.9756C6.77824 57.0128 6.81186 57.0492 6.84639 57.0848C6.88092 57.1204 6.91632 57.1551 6.95258 57.1888C6.98885 57.2227 7.02594 57.2555 7.06384 57.2874C7.56882 57.7152 8.13941 57.9192 8.79211 57.9782C9.4319 58.0359 10.0982 58.0004 10.7416 57.9994L14.0467 57.9978L24.8665 57.9983L44.7454 57.9989C48.1713 57.9989 51.6048 58.0481 55.0298 57.9934ZM19.3335 27.9742C19.8122 28.0201 22.8925 28.0574 23.2753 27.9612C23.6913 27.8567 25.1014 26.9512 25.5567 26.6889L31.2068 23.4292L33.0249 22.3792C33.3177 22.2099 33.6148 22.0119 33.9173 21.8633L38.4444 19.2483C39.0293 18.9101 40.0567 18.2326 40.6325 18.0271C40.8098 17.9638 40.9962 17.9613 41.1782 18.0064C42.0163 18.2139 42.1393 19.6538 43.932 19.9256C44.346 19.9883 44.7835 19.9702 45.1875 19.8579C45.8552 19.6724 46.5565 19.0807 47.1592 19.7801C47.3338 19.9828 47.4642 20.2272 47.5964 20.4584L51.924 27.9713C52.6039 28.0539 53.5467 28.0196 54.2434 27.9947C53.9832 27.6118 53.7639 27.1943 53.5332 26.7929L52.3515 24.7397L48.5499 18.1617L47.5489 16.4248C47.2654 15.9323 47.0013 15.3981 46.621 14.9722C46.5695 14.9136 46.5158 14.8572 46.4597 14.8029C46.4035 14.7488 46.3452 14.697 46.2848 14.6477C46.2244 14.5984 46.162 14.5516 46.0977 14.5074C46.0333 14.4633 45.9673 14.4218 45.8997 14.3831C45.8319 14.3444 45.7627 14.3086 45.692 14.2756C45.6213 14.2426 45.5493 14.2126 45.4762 14.1856C45.403 14.1585 45.3288 14.1345 45.2537 14.1137C45.1785 14.0928 45.1026 14.075 45.0259 14.0604C44.7139 14.0001 44.4182 13.9959 44.1017 14.0118C43.8069 14.0593 43.5204 14.1057 43.2432 14.2203C42.5757 14.4962 41.9239 14.9491 41.296 15.3133L37.7049 17.3854L25.3453 24.5189L21.4563 26.7646C20.7575 27.1688 20.0592 27.6218 19.3335 27.9742ZM36.7029 27.9986L45.2807 27.9996C46.7237 27.9997 48.188 28.0512 49.6288 27.9941C49.2668 27.4368 48.9528 26.8431 48.6214 26.2669L46.9312 23.3388C46.6277 22.8133 46.3467 22.2334 45.9963 21.7409C44.5763 22.1214 43.2084 22.0613 41.9129 21.3144C41.6417 21.1582 41.3659 20.9737 41.1307 20.7667C40.9959 20.6482 40.8622 20.4724 40.7157 20.3751C40.6783 20.3502 40.6433 20.3413 40.6005 20.3352C39.4263 20.9813 38.2724 21.6694 37.1122 22.3406L31.2807 25.7089L28.8342 27.1236C28.3385 27.4114 27.843 27.7347 27.3205 27.9706C27.7592 28.0186 28.2053 28.0023 28.646 28.0017L30.5452 27.9991L36.7029 27.9986ZM29.6999 12.9244C28.789 13.9087 27.5322 14.5481 26.182 14.5989C26.03 14.6044 25.8779 14.6033 25.7258 14.5954C25.5738 14.5875 25.4225 14.573 25.2718 14.5518C25.121 14.5306 24.9715 14.5028 24.8232 14.4684C24.6749 14.434 24.5285 14.3932 24.3838 14.3458L19.6824 22.4881C18.8163 23.9876 17.933 25.4799 17.0913 26.9932C18.3183 26.2887 19.5563 25.5883 20.7677 24.8581L30.7483 19.0927L33.8265 17.3133C34.4055 16.9784 34.9853 16.6067 35.5885 16.3192C35.1852 16.0322 34.7274 15.7979 34.2985 15.5502L32.0777 14.2671L30.5757 13.3996C30.2993 13.2401 30.0004 13.0334 29.6999 12.9244ZM25.6034 6.63713C24.7247 6.79601 24.0233 7.14403 23.5038 7.89539C23.0269 8.58511 22.6395 9.36757 22.2179 10.0947L19.537 14.7316L11.8773 27.9926C12.6337 28.0062 13.4082 28.0298 14.1633 27.9947C14.8168 26.9806 15.3927 25.8967 15.9969 24.8519C17.4237 22.3856 18.818 19.8948 20.2797 17.4496L22.221 14.0811C22.5408 13.5273 22.8439 12.8712 23.2469 12.3769C23.3593 12.2392 23.5184 12.1543 23.6878 12.1067C24.1989 11.9628 24.7138 12.3543 25.194 12.4911C25.3061 12.5221 25.4197 12.5464 25.5347 12.5641C25.6496 12.5817 25.7652 12.5925 25.8814 12.5966C25.9977 12.6006 26.1138 12.5977 26.2297 12.5881C26.3456 12.5785 26.4605 12.5621 26.5745 12.5389C28.204 12.2088 28.4972 10.7994 29.1705 10.6368C29.407 10.5798 29.6323 10.6196 29.8558 10.7061C30.401 10.9172 31.1743 11.4425 31.6989 11.7478L35.5407 13.9689C36.2182 14.3616 36.9032 14.8246 37.6153 15.1456C38.2634 14.7659 38.9384 14.4097 39.5708 14.0066C38.743 13.4626 37.8487 12.9949 36.99 12.4996L32.1819 9.72254L28.9622 7.86373C28.3478 7.50853 27.7177 7.08317 27.0603 6.81557C26.5922 6.62501 26.1019 6.60409 25.6034 6.63713Z" fill="#915DC2"/>
<path d="M12.9264 32.0095C13.6207 31.9814 14.3204 31.9979 15.0153 31.998L18.5826 31.9984L29.4589 31.9986L43.5989 31.9988C45.9621 31.9988 48.3423 31.9455 50.7036 31.9996C50.9452 32.0051 51.2867 32.0136 51.5026 32.132C52.0952 32.457 51.9737 33.3229 52.1416 33.8841C52.1509 33.9157 52.1608 33.9472 52.1712 33.9785C52.1815 34.0098 52.1924 34.0408 52.2039 34.0718C52.2154 34.1026 52.2273 34.1333 52.2398 34.1638C52.2523 34.1943 52.2653 34.2245 52.2789 34.2546C52.2924 34.2847 52.3064 34.3145 52.3209 34.3441C52.3355 34.3736 52.3506 34.4029 52.3661 34.432C52.3816 34.4611 52.3977 34.4899 52.4142 34.5184C52.4307 34.547 52.4476 34.5752 52.4651 34.6031C52.4826 34.631 52.5005 34.6587 52.5189 34.686C52.5373 34.7133 52.5562 34.7404 52.5756 34.7671C52.5948 34.7938 52.6146 34.8202 52.6348 34.8463C52.6551 34.8723 52.6757 34.8979 52.6968 34.9232C52.7179 34.9486 52.7394 34.9735 52.7613 34.9981C52.7832 35.0227 52.8056 35.0469 52.8283 35.0708C52.8511 35.0946 52.8743 35.118 52.8978 35.141C52.9214 35.1641 52.9453 35.1868 52.9697 35.209C52.994 35.2313 53.0187 35.2531 53.0437 35.2745C53.0688 35.2958 53.0942 35.3168 53.1201 35.3374C53.1458 35.3579 53.1719 35.378 53.1983 35.3976C53.2248 35.4173 53.2516 35.4365 53.2787 35.4553C53.3059 35.474 53.3333 35.4922 53.3609 35.51C53.3887 35.5278 53.4167 35.5452 53.4451 35.562C53.4734 35.5788 53.502 35.5952 53.5308 35.6111C53.5597 35.627 53.5888 35.6425 53.6182 35.6574C53.6476 35.6722 53.6773 35.6866 53.7072 35.7005C53.737 35.7144 53.7671 35.7278 53.7976 35.7406C53.8279 35.7535 53.8584 35.7659 53.8892 35.7777C53.9199 35.7896 53.9509 35.8009 53.9821 35.8116C54.0131 35.8224 54.0444 35.8326 54.0759 35.8424C54.1074 35.852 54.1391 35.8612 54.1709 35.8699C54.2027 35.8785 54.2346 35.8867 54.2667 35.8943C54.2988 35.9018 54.331 35.9088 54.3633 35.9153C54.7439 35.9901 55.1831 35.9755 55.5279 36.172C55.7159 36.2793 55.9008 36.4655 55.9497 36.6829C56.0722 37.228 56.0027 37.9013 56.0028 38.4609L56.0034 41.5891V47.6745C56.0032 48.7228 56.0433 49.789 55.9951 50.8356C55.9837 51.0835 55.9804 51.3278 55.8403 51.5406C55.4948 52.0651 54.7988 51.995 54.2578 52.114C53.1697 52.3533 52.3199 53.2448 52.0892 54.3266C52.0017 54.7373 52.0424 55.2211 51.7963 55.5811C51.6247 55.8324 51.3976 55.9365 51.1073 55.9951C50.3827 56.029 49.6517 56.0133 48.9263 56.0134L45.4787 56.0136L34.8666 56.0138L20.5061 56.0135L15.7801 56.0134C14.9682 56.0134 14.1517 56.0315 13.3403 56.0119C13.0991 56.006 12.6571 56.0151 12.4651 55.8663C12.4526 55.8566 12.4411 55.8459 12.4289 55.8359C11.9243 55.4246 12.0272 54.8488 11.8951 54.2773C11.6483 53.209 10.7799 52.3276 9.70016 52.1043C9.27622 52.0165 8.77392 52.044 8.39968 51.7978C8.20673 51.6706 8.07437 51.4843 8.03471 51.2554C7.94296 50.7259 7.99871 50.1174 7.99903 49.5803L8.00189 46.3099L7.99969 40.2648C7.99902 39.2229 7.95561 38.1591 8.00704 37.1196C8.01897 36.8786 8.03681 36.6244 8.18192 36.4223C8.53601 35.9289 9.08144 36.0268 9.60528 35.9281C10.714 35.7194 11.6493 34.8093 11.8968 33.7129C11.9926 33.2886 11.9491 32.7615 12.211 32.3956C12.3977 32.1348 12.6259 32.0585 12.9264 32.0095ZM10.0139 37.8986C9.94839 39.3008 10.0008 40.7278 10.0014 42.1323L10.0026 50.0988C11.34 50.4011 12.4895 51.1661 13.2272 52.3305C13.5538 52.8459 13.7598 53.3954 13.8974 53.9878C16.4806 54.0475 19.0751 53.9996 21.6592 53.9996L36.2316 53.9986H45.6058L48.5523 53.9996C49.0619 54.0003 49.5889 54.0291 50.0959 53.9969C50.1127 53.9157 50.1314 53.835 50.1522 53.7549C50.1729 53.6746 50.1956 53.595 50.2203 53.5159C50.245 53.4368 50.2716 53.3583 50.3002 53.2805C50.3287 53.2028 50.3591 53.1258 50.3914 53.0495C50.4238 52.9732 50.4579 52.8977 50.4939 52.8231C50.53 52.7485 50.5679 52.6749 50.6076 52.6021C50.6472 52.5294 50.6887 52.4577 50.7319 52.387C50.7751 52.3163 50.82 52.2466 50.8667 52.1781C50.9133 52.1097 50.9616 52.0424 51.0116 51.9763C51.0615 51.9102 51.113 51.8453 51.1662 51.7818C51.2193 51.7183 51.274 51.656 51.3302 51.5951C51.3864 51.5343 51.4441 51.4748 51.5032 51.4168C51.5623 51.3588 51.6229 51.3022 51.6848 51.2471C51.7467 51.1921 51.81 51.1387 51.8746 51.0868C51.9391 51.0348 52.0049 50.9844 52.0719 50.9358C52.139 50.8871 52.2072 50.8401 52.2766 50.7948C52.8124 50.4493 53.3768 50.2479 53.9941 50.102C54.0207 48.6678 54.0012 47.23 54.0012 45.7954L54.0009 37.9033C52.7557 37.6748 51.5984 36.8774 50.8817 35.842C50.4902 35.2764 50.2648 34.69 50.1099 34.0243C49.0477 33.9819 47.9733 34.0129 46.9097 34.0129L41.0703 34.013L23.2229 34.0129L16.8318 34.0128L14.9758 34.0164C14.6273 34.0173 14.2607 34.042 13.9152 33.9981C13.4882 35.4667 12.7839 36.6201 11.4105 37.3815C10.9923 37.6134 10.4904 37.8319 10.0139 37.8986Z" fill="#915DC2"/>
<path d="M31.6162 36.0129C33.3007 35.9488 34.8115 36.4593 36.1133 37.5363C37.8008 38.9324 38.7617 41.0459 38.9589 43.2027C39.1654 45.4613 38.4944 47.8007 37.0304 49.5454C35.8635 50.9359 34.2445 51.8396 32.4303 51.9946C30.673 52.0399 29.2253 51.5789 27.8634 50.4457C26.2067 49.0672 25.2314 46.9677 25.0415 44.8392C24.8342 42.5152 25.5084 40.1574 27.0265 38.3694C27.0972 38.2846 27.17 38.2016 27.2449 38.1203C27.3197 38.0391 27.3966 37.9599 27.4755 37.8824C27.5544 37.8051 27.6351 37.7298 27.7177 37.6566C27.8003 37.5832 27.8848 37.5121 27.971 37.4431C28.0572 37.374 28.1451 37.3071 28.2347 37.2426C28.3242 37.1779 28.4154 37.1155 28.508 37.0554C28.6008 36.9954 28.6949 36.9378 28.7905 36.8824C28.8861 36.8271 28.9831 36.7742 29.0814 36.7238C29.1797 36.6733 29.2791 36.6254 29.3798 36.5799C29.4804 36.5344 29.5822 36.4915 29.685 36.4512C29.7879 36.4109 29.8916 36.3731 29.9963 36.3381C30.101 36.3029 30.2066 36.2704 30.3129 36.2406C30.4192 36.2107 30.5263 36.1836 30.634 36.1592C30.7418 36.1347 30.85 36.1129 30.9588 36.0939C31.0676 36.0749 31.1768 36.0587 31.2864 36.0452C31.3961 36.0317 31.506 36.0209 31.6162 36.0129ZM32.4145 49.9686C33.7965 49.7762 34.896 49.0844 35.7349 47.9677C36.7989 46.5512 37.1639 44.6772 36.9124 42.9433C36.6853 41.3779 35.905 39.8561 34.6205 38.9027C33.7684 38.2701 32.7179 37.9336 31.6545 38.0403C31.6502 38.0407 31.6458 38.0417 31.6413 38.0424C30.3025 38.1891 29.2232 38.8081 28.382 39.8624C27.288 41.2337 26.8485 43.1004 27.052 44.8286C27.2415 46.4377 27.9857 48.0117 29.2769 49.0243C30.1822 49.7344 31.2688 50.0594 32.4145 49.9686Z" fill="#915DC2"/>
</svg>
