<svg width="56" height="56" viewBox="0 0 56 56" fill="none" xmlns="http://www.w3.org/2000/svg">
<path d="M25.9673 14.7059C25.0965 14.1209 24.4671 13.291 24.2595 12.2495C24.056 11.2295 24.2695 10.1706 24.8522 9.30919C25.4227 8.47137 26.3069 7.89894 27.3047 7.72136C28.3113 7.53964 29.3488 7.76634 30.1879 8.35134C31.0187 8.92915 31.5835 9.8158 31.7557 10.8131C31.9315 11.8155 31.6998 12.8466 31.1122 13.6776C30.8167 14.0952 30.4532 14.4166 30.0333 14.7036C30.6248 15.5878 31.2467 16.4534 31.8568 17.3251L35.0258 21.8507L36.5346 24.0058C36.7834 24.3606 37.0313 24.7863 37.3322 25.0965C37.5652 25.0566 38.4126 24.5805 38.6731 24.4501L41.8858 22.8411L46.2363 20.6659C46.9389 20.3145 47.724 19.9744 48.3971 19.5797C48.2984 18.5291 48.5534 17.5177 49.2336 16.6952C49.8734 15.9083 50.805 15.4147 51.8154 15.3274C52.8449 15.2285 53.8704 15.5512 54.6575 16.2217C55.1919 16.6656 55.5868 17.2543 55.7945 17.9173C55.8668 18.15 55.9048 18.4101 56 18.6332V19.6007L55.9904 19.6294C55.9103 19.8741 55.8745 20.1348 55.7868 20.3759C55.4531 21.2973 54.7836 22.0585 53.9124 22.5072C53.5117 22.7138 53.0962 22.8233 52.6592 22.9198L52.6459 22.9613C52.4158 23.6857 52.245 24.7095 52.0749 25.476L50.9667 30.4635L49.2677 38.1083L48.7064 40.63C48.6065 41.0795 48.4914 41.5313 48.4094 41.9845C48.3359 42.3898 48.3597 42.8182 48.3603 43.2289L48.3634 45.8112C48.3639 46.2692 48.394 46.7467 48.3457 47.2011C48.327 47.3772 48.2829 47.5537 48.2077 47.7145C48.0993 47.9462 47.899 48.1265 47.6765 48.2478C47.3966 48.4005 47.1002 48.4154 46.7889 48.4206C45.7602 48.4379 44.7285 48.4222 43.6996 48.4222L37.6646 48.4218L19.5034 48.422L12.5017 48.4221H10.4545C9.88792 48.4222 9.04206 48.5016 8.51942 48.3334C8.22407 48.2383 7.9405 48.0348 7.80005 47.7527C7.72545 47.603 7.68103 47.4431 7.6604 47.2773C7.60413 46.8255 7.63697 46.3431 7.6377 45.887L7.64191 43.3847C7.6425 42.9776 7.66905 42.5538 7.61065 42.1507C7.50874 41.4472 7.31653 40.7412 7.16188 40.0466L6.32333 36.281L3.48312 23.4658C3.46069 23.3599 3.42945 23.0514 3.37355 22.9739C3.36066 22.956 3.22615 22.9102 3.19553 22.8992C2.93378 22.8049 2.65876 22.7525 2.39928 22.6494C1.52307 22.3024 0.807238 21.6419 0.391001 20.7965C0.320406 20.6521 0.245618 20.4975 0.198512 20.3436C0.134094 20.1333 0.107685 19.846 0 19.6586V18.5398C0.00727503 18.5246 0.0147285 18.5094 0.0218251 18.4941C0.145488 18.2271 0.186402 17.9097 0.296827 17.6327C0.685682 16.6773 1.45084 15.9243 2.41227 15.5507C3.37106 15.1791 4.43862 15.2058 5.37761 15.625C6.307 16.0409 7.0317 16.811 7.39056 17.7639C7.61387 18.363 7.65819 18.9515 7.59056 19.5829L18.675 25.1252L23.3967 18.3821C24.2525 17.1593 25.1444 15.9504 25.9673 14.7059ZM6.46795 21.8835C6.25788 22.0402 6.05036 22.2002 5.84547 22.3635L8.39746 33.866C8.90645 36.1568 9.37887 38.4624 9.93256 40.7423C12.1044 40.7798 14.2803 40.7533 16.4526 40.7531L28.1162 40.7523H39.9501C41.9847 40.7523 44.0246 40.7212 46.0586 40.7556C46.3339 39.6412 46.567 38.5142 46.8161 37.3936L48.1147 31.5494L49.4308 25.6246C49.6727 24.5353 49.9334 23.4462 50.1508 22.3519L49.5311 21.8901C49.1141 22.0606 48.7088 22.2811 48.3062 22.4838L46.3785 23.453L40.1356 26.5733L38.3563 27.4613C38.0139 27.6334 37.6635 27.8537 37.2979 27.9665C37.004 28.0572 36.7057 28.0517 36.4212 27.9301C36.2042 27.8373 36.0417 27.6993 35.8927 27.5195C35.6085 27.1766 35.3641 26.7827 35.1098 26.4168L33.7705 24.5006L29.2403 18.0312C29.0412 17.747 28.1627 16.3891 27.9655 16.2831C27.474 17.0691 26.8988 17.8219 26.3666 18.5819L23.3028 22.9584L21.1755 25.9994C20.8062 26.528 20.4508 27.1129 20.0305 27.6013C19.8756 27.7814 19.6502 27.9306 19.419 27.9892C19.1622 28.0543 18.9043 28.0362 18.6555 27.9476C18.2361 27.7982 17.8234 27.5552 17.4251 27.3551L15.2007 26.2382L9.58993 23.4351C8.55163 22.9164 7.51884 22.3759 6.46795 21.8835ZM27.7075 10.2604C27.0286 10.4202 26.608 11.1004 26.7682 11.7791C26.9283 12.4579 27.6087 12.8781 28.2873 12.7176C28.9656 12.5571 29.3855 11.8775 29.2253 11.1992C29.0653 10.521 28.3859 10.1008 27.7075 10.2604ZM51.9293 17.8869C51.25 18.0236 50.8075 18.6822 50.9379 19.3628C51.0684 20.0434 51.7228 20.4918 52.4046 20.3678C53.0954 20.242 53.5511 19.5771 53.419 18.8875C53.2868 18.1979 52.6177 17.7484 51.9293 17.8869ZM3.55714 17.8882C2.8765 18.0303 2.43856 18.6956 2.57722 19.377C2.71588 20.0583 3.37901 20.4996 4.06104 20.3643C4.74791 20.2281 5.19299 19.5592 5.05335 18.8731C4.9137 18.1869 4.24262 17.7451 3.55714 17.8882ZM10.1844 43.3071C10.1763 44.1529 10.1745 44.9988 10.179 45.8448L31.7848 45.8487H40.8789C42.5235 45.8487 44.1693 45.8341 45.8136 45.8531C45.8668 45.0171 45.8085 44.1639 45.8269 43.3253C44.7367 43.2982 43.643 43.3145 42.5523 43.3145H36.9599L19.9921 43.3146L13.1941 43.3141L11.2343 43.3169C10.8911 43.3178 10.5247 43.3471 10.1844 43.3071Z" fill="#905BC3"/>
</svg>
