<svg width="72" height="140" viewBox="0 0 72 140" fill="none" xmlns="http://www.w3.org/2000/svg">
<path d="M28.2368 45.184L36.9088 36.224C37.4421 35.6907 37.8688 35.2 38.1888 34.752C38.5088 34.304 38.7434 33.888 38.8928 33.504C39.0421 33.0987 39.1168 32.6933 39.1168 32.288C39.1168 31.4133 38.8288 30.7307 38.2528 30.24C37.6981 29.728 36.9621 29.472 36.0448 29.472C35.1488 29.472 34.3381 29.7173 33.6128 30.208C32.9088 30.6773 32.2261 31.456 31.5648 32.544L28.2048 29.632C29.1008 28.1173 30.2421 26.976 31.6288 26.208C33.0154 25.44 34.6048 25.056 36.3968 25.056C37.9541 25.056 39.2981 25.344 40.4288 25.92C41.5808 26.496 42.4661 27.3173 43.0848 28.384C43.7248 29.4507 44.0448 30.6987 44.0448 32.128C44.0448 33.024 43.9274 33.856 43.6928 34.624C43.4581 35.3707 43.0741 36.1173 42.5408 36.864C42.0288 37.5893 41.3354 38.3893 40.4608 39.264L34.4448 45.248L28.2368 45.184ZM28.2368 48V45.184L32.4928 43.712H44.4928V48H28.2368Z" fill="#111827"/>
<circle cx="36" cy="36" r="35.5" stroke="#915DC2"/>
<path d="M35 71.5V140" stroke="#915DC2"/>
</svg>
