<svg width="56" height="56" viewBox="0 0 56 56" fill="none" xmlns="http://www.w3.org/2000/svg">
<path d="M8.02475 0H27.8513C28.0585 0.0664204 28.2703 0.191707 28.4285 0.341485C29.1663 1.03966 29.8266 1.81008 30.526 2.54354L34.9268 7.16415C36.3431 8.63812 37.7758 10.0984 39.1578 11.6046C39.6142 12.1019 40.1331 12.5367 40.5182 13.0954C40.6191 13.2416 40.6092 13.5289 40.6169 13.7023C40.6714 14.9427 40.6273 16.2023 40.6274 17.4452L40.6225 24.2004C41.5163 24.4542 42.4247 24.664 43.2888 25.0138C46.098 26.1394 48.5368 28.0275 50.3303 30.4651C50.6824 30.9417 51.0346 31.4478 51.3215 31.9662C53.5108 35.8411 54.0226 40.4421 52.7386 44.7035C52.5124 45.4699 52.1949 46.1928 51.8492 46.9106C50.3519 50.0197 47.9 52.569 44.8516 54.1863C43.7232 54.7881 41.7843 55.499 40.5353 55.7072C40.039 55.79 39.5353 55.8472 39.0361 55.9117C38.8322 55.9381 38.6036 55.9419 38.4079 56H36.2162C35.8862 55.8712 35.1204 55.8443 34.7306 55.7893C34.3029 55.7292 33.8782 55.6274 33.46 55.5201C29.3373 54.4721 25.7994 51.8301 23.6237 48.1748L23.5731 48.1801C23.3098 48.2059 23.0272 48.1855 22.7622 48.1855L21.1683 48.1852L15.9819 48.1845L10.7058 48.1844C9.76983 48.185 8.41894 48.2689 7.53277 48.0966C6.43078 47.8822 5.481 47.3721 4.6253 46.658C3.69992 45.8857 2.72825 44.3078 2.61865 43.0956C2.63071 43.0854 2.64355 43.0761 2.6548 43.0651C2.74207 42.9796 2.68208 42.3286 2.67706 42.1822C2.72381 41.7913 2.67499 41.2369 2.67437 40.8255L2.67249 37.699L2.67252 27.0724L2.67275 12.2358L2.67337 7.57154C2.67417 6.69946 2.71899 5.81385 2.65278 4.9441C2.68001 4.56811 2.8566 4.14449 3.01296 3.80597C3.77245 2.16163 4.92679 0.959759 6.66266 0.351437C7.09931 0.19842 7.57215 0.172975 8.00016 0.0097191C8.0084 0.00657921 8.01656 0.0032397 8.02475 0ZM21.4299 41.6627L21.4506 41.6315L21.4495 41.6591L21.4873 41.6263C21.5419 41.3909 21.5086 38.3106 21.457 38.0472C21.4588 37.4247 21.6593 36.7847 21.743 36.1674L14.846 36.1653L12.8685 36.1656C12.4678 36.1657 12.0463 36.1923 11.6492 36.1344C11.4426 36.1044 11.2723 35.9843 11.1286 35.838C10.9123 35.6177 10.7507 35.3132 10.7591 34.998C10.7662 34.7256 10.9688 34.3213 11.1703 34.1413C11.361 33.9708 11.6219 33.89 11.8722 33.8605C12.2821 33.8123 12.7221 33.8455 13.1357 33.8469L15.3965 33.8474C17.777 33.8473 20.1617 33.8172 22.5415 33.8557C22.618 33.5645 22.7782 33.2849 22.9123 33.0163C23.3938 32.052 23.9413 31.0826 24.6238 30.243C23.7974 30.2901 22.9486 30.2472 22.1195 30.2471L17.2003 30.247L13.5765 30.2475C13.0648 30.2478 12.3992 30.2948 11.9117 30.2489C11.6441 30.2236 11.3784 30.126 11.1735 29.9491C10.9392 29.7466 10.7914 29.4068 10.774 29.0981C10.7576 28.8075 10.874 28.51 11.0675 28.2949C11.173 28.1775 11.2943 28.0956 11.4318 28.0203C11.442 28.0148 11.4519 28.0088 11.4621 28.0034C11.5777 27.943 11.7444 27.9455 11.8727 27.9413C12.4985 27.9203 13.1292 27.9367 13.7556 27.9367L17.2154 27.9366L26.7624 27.941C27.2111 27.4407 27.8323 27.0273 28.389 26.6579C30.8258 25.0228 33.6565 24.0709 36.5861 23.9014C37.1596 23.8696 37.767 23.8723 38.3399 23.9103C38.3027 22.0814 38.3343 20.2454 38.3341 18.4158L38.334 16.0034C38.3339 15.6145 38.3165 15.2172 38.3343 14.8291C37.0392 14.8513 35.739 14.8249 34.4432 14.8249L32.6272 14.8261C31.8615 14.828 31.107 14.8561 30.356 14.6722C29.4679 14.4524 28.655 13.9988 28.0014 13.3585C26.9151 12.3063 26.4244 10.8981 26.4121 9.4027L26.4112 4.83411L26.4106 3.22189C26.4105 2.93704 26.3952 2.64332 26.4166 2.35977C25.9286 2.37484 25.4388 2.35857 24.9505 2.35823L22.0309 2.35764L13.0209 2.35782L10.006 2.3564C9.4124 2.35466 8.7653 2.29551 8.1812 2.39664C7.34873 2.54077 6.53925 2.936 5.95759 3.55677C5.36646 4.18764 4.95275 5.06324 4.84662 5.92339C4.79454 6.34548 4.83165 6.80224 4.8324 7.22848L4.83516 9.75569L4.83504 18.4996L4.83499 34.3268L4.83529 39.5097C4.83524 40.3714 4.80558 41.2435 4.83635 42.1041C4.87111 43.0766 5.33331 44.0904 6.04776 44.7541C6.5306 45.2026 7.19606 45.5943 7.84301 45.7381C8.54807 45.8948 9.23423 45.8812 9.95017 45.881L11.7008 45.8797L18.9673 45.8788L21.2621 45.8791C21.671 45.8795 22.0985 45.8558 22.5053 45.8939C21.8853 44.5767 21.5731 43.1058 21.4299 41.6627ZM28.82 4.2095C28.7448 5.33606 28.7889 6.47968 28.7898 7.60924L28.7875 8.96489C28.785 9.46472 28.755 9.96741 28.8774 10.4569C28.976 10.851 29.2508 11.2338 29.5164 11.5343C30.0958 12.1896 30.8755 12.4661 31.7358 12.5124C32.3855 12.5473 33.0513 12.5179 33.7029 12.5168C34.6799 12.5238 35.6568 12.5205 36.6336 12.507L36.6581 12.4444C36.155 11.7443 35.4498 11.1365 34.845 10.5224C34.573 10.2461 34.3373 9.94022 34.0714 9.65909C33.5994 9.16002 33.1005 8.68607 32.6269 8.1884C32.3983 7.94822 32.1965 7.68411 31.9673 7.44443C31.4772 6.93183 30.9578 6.44479 30.476 5.92456C30.0622 5.47758 29.6739 5.02659 29.2378 4.59799C29.1065 4.46896 28.9697 4.31443 28.82 4.2095ZM36.1021 26.3329C28.5737 27.0438 23.047 33.7232 23.7577 41.2515C24.4684 48.78 31.1475 54.307 38.676 53.5964C46.2048 52.8859 51.732 46.2065 51.0213 38.6776C50.3104 31.1489 43.6309 25.6219 36.1021 26.3329Z" fill="#905BC3"/>
<path d="M11.7973 22.0474C12.5293 22.0019 13.2778 22.0318 14.012 22.0319L18.034 22.0326L21.6431 22.0318C22.294 22.0317 22.9621 21.999 23.6103 22.0468C23.8678 22.0657 24.172 22.1081 24.3916 22.2494C24.637 22.4074 24.7966 22.6517 24.848 22.9385C24.906 23.262 24.8761 23.6903 24.6821 23.9627C24.495 24.2253 24.1978 24.3306 23.8931 24.384C23.4324 24.5242 21.7009 24.4504 21.135 24.4498H16.2805L13.6543 24.4505C13.1832 24.4513 12.7031 24.4728 12.2332 24.4476C11.9856 24.4344 11.714 24.3957 11.4858 24.2954C11.1803 24.1612 10.9333 23.885 10.8214 23.5721C10.72 23.2885 10.7557 23.0041 10.8844 22.7352C11.0742 22.3388 11.4032 22.1813 11.7973 22.0474Z" fill="#905BC3"/>
<path d="M37.3138 30.9922C37.5388 30.9757 37.7701 31.0236 37.9625 31.1418C38.4297 31.4288 39.2143 32.4107 39.6244 32.8536L42.7259 36.1768L44.2824 37.8424C44.5692 38.146 44.9003 38.4339 45.1415 38.7752C45.2912 38.9872 45.3114 39.2809 45.3695 39.5297C45.2685 39.8286 45.2987 40.0619 45.0554 40.3043C44.8339 40.5249 44.5099 40.6678 44.1953 40.6585C43.979 40.6521 43.6889 40.5288 43.5171 40.3953C43.0461 40.0286 42.6989 39.5267 42.292 39.0973C42.015 38.8049 41.7242 38.5253 41.4504 38.2301C41.2559 38.0205 41.0803 37.7941 40.8865 37.5839C40.6173 37.2922 40.329 37.0181 40.0569 36.729C39.8393 36.4978 39.6448 36.2459 39.4286 36.0134C39.1549 35.7188 38.8609 35.4408 38.5784 35.1544C38.5031 36.4683 38.5264 37.7848 38.5265 39.1006L38.5272 44.7809L38.5299 46.7876C38.5317 47.1743 38.5534 47.5734 38.5229 47.9585C38.5062 48.1686 38.4643 48.372 38.3481 48.5518C38.194 48.79 37.9285 48.9197 37.6564 48.9696L37.4398 49.0096C37.4367 49.0107 37.4336 49.0126 37.4302 49.0129C37.1478 49.0454 36.8336 48.889 36.6323 48.7044C36.445 48.5326 36.2931 48.2913 36.2616 48.0358C36.2176 47.6785 36.2534 47.2894 36.2549 46.9279L36.2581 44.7077L36.2577 38.792C36.2582 37.5848 36.2893 36.3699 36.2317 35.1644C35.9315 35.4664 35.6253 35.7657 35.3374 36.0792C35.1524 36.2807 34.983 36.496 34.7971 36.6965L33.2707 38.3323C32.7971 38.8483 32.2903 39.3117 31.8455 39.8552C31.53 40.2407 31.1387 40.6082 30.6182 40.6501C30.312 40.6747 30.0303 40.5713 29.798 40.3726C29.5619 40.1706 29.3768 39.8545 29.3571 39.5402C29.3401 39.2684 29.4572 39.0097 29.6079 38.7902C30.078 38.1058 30.736 37.5607 31.2943 36.953L34.7974 33.1338C35.1077 32.7942 35.4578 32.4903 35.7724 32.1544C35.9309 31.9853 36.0606 31.7934 36.2106 31.617C36.504 31.2722 36.8501 31.0286 37.3138 30.9922Z" fill="#905BC3"/>
<path d="M21.4567 38.0471C21.5083 38.3105 21.5416 41.3908 21.487 41.6262L21.4493 41.659L21.4504 41.6315L21.4296 41.6626C21.3248 41.3333 21.3553 38.8196 21.3936 38.3521C21.4021 38.2479 21.4284 38.1473 21.4567 38.0471Z" fill="#905BC3"/>
<path d="M2.65255 4.94409C2.71876 5.81384 2.67394 6.69945 2.67314 7.57153L2.67252 12.2358L2.67229 27.0724L2.67226 37.699L2.67414 40.8255C2.67476 41.2369 2.72358 41.7913 2.67683 42.1822C2.66764 42.232 2.66378 42.2814 2.63844 42.3256C2.63624 42.1504 2.66424 41.8236 2.54905 41.6842C2.51768 40.7377 2.5457 39.7814 2.54566 38.8339L2.5456 33.2757L2.54583 16.406L2.5457 8.93293L2.54497 6.87078C2.54586 6.23834 2.50963 5.56206 2.65255 4.94409Z" fill="#905BC3"/>
<path d="M2.54899 41.6843C2.66419 41.8237 2.63619 42.1505 2.63839 42.3257C2.66373 42.2815 2.66759 42.2321 2.67678 42.1823C2.6818 42.3287 2.74179 42.9797 2.65452 43.0652C2.64326 43.0762 2.63042 43.0855 2.61837 43.0957L2.61176 43.0678C2.50806 42.6459 2.55373 42.118 2.54899 41.6843Z" fill="#905BC3"/>
</svg>
