<svg width="249" height="28" viewBox="0 0 249 28" fill="none" xmlns="http://www.w3.org/2000/svg">
<g clip-path="url(#clip0_517_10)">
<mask id="mask0_517_10" style="mask-type:luminance" maskUnits="userSpaceOnUse" x="0" y="0" width="249" height="28">
<path d="M1.23335 16.8794L0.834961 20.4539L1.23335 24.0284C1.23335 24.2269 1.43255 24.2269 1.43255 24.2269C1.63175 24.2269 1.63175 24.0284 1.63175 24.0284L2.22934 20.4539L1.63175 16.8794C1.63175 16.6809 1.43255 16.6808 1.43255 16.6808C1.43255 16.6808 1.23335 16.6809 1.23335 16.8794ZM3.62372 14.695L3.02613 20.4539L3.62372 26.2128C3.62372 26.4113 3.82291 26.4113 3.82291 26.4113C4.02211 26.4113 4.02211 26.2128 4.02211 26.2128L4.8189 20.4539L4.02211 14.695C4.02211 14.4965 3.82291 14.4965 3.82291 14.4965L3.62372 14.695ZM11.1932 13.9007L10.7948 20.4539L11.1932 27.4043C11.1932 27.6028 11.3924 27.8014 11.5916 27.8014C11.7908 27.8014 11.99 27.6028 11.99 27.4043L12.7868 20.4539L12.1892 13.9007C12.1892 13.7021 11.99 13.5035 11.7908 13.5035C11.3924 13.5035 11.1932 13.7021 11.1932 13.9007ZM6.21327 13.5035L5.61568 20.4539L6.21327 27.0071C6.21327 27.2057 6.41247 27.4043 6.61167 27.4043C6.61167 27.4043 6.81086 27.2057 6.81086 27.0071L7.40845 20.4539L6.81086 13.5035C6.81086 13.305 6.61167 13.1064 6.41247 13.1064C6.41247 13.305 6.21327 13.305 6.21327 13.5035ZM8.60364 13.305L8.00605 20.4539L8.60364 27.2057C8.60364 27.4043 8.80283 27.6028 9.00203 27.6028C9.20123 27.6028 9.40042 27.4043 9.40042 27.2057L9.99801 20.4539L9.40042 13.305C9.40042 13.1064 9.20123 12.9078 9.00203 12.9078C8.80283 12.9078 8.80283 13.1064 8.60364 13.305ZM13.7828 9.7305L13.1852 20.4539L13.7828 27.4043C13.7828 27.6028 13.9819 27.8014 14.1811 27.8014C14.5795 27.8014 14.7787 27.6028 14.7787 27.4043L15.3763 20.4539L14.7787 9.7305C14.7787 9.53191 14.5795 9.33333 14.3803 9.33333C13.9819 9.33333 13.7828 9.53191 13.7828 9.7305ZM16.3723 7.34752L15.9739 20.4539L16.3723 27.4043C16.3723 27.8014 16.5715 28 16.9699 28C17.1691 28 17.5675 27.8014 17.5675 27.4043L18.1651 20.4539L17.5675 7.34752C17.5675 6.95035 17.3683 6.75177 16.9699 6.75177C16.5715 6.75177 16.3723 6.95035 16.3723 7.34752ZM139.277 6.55319V14.0993V18.0709C139.078 17.6738 138.48 16.6809 138.082 16.0851L131.707 6.55319H128.321V24.6241H131.906V16.6808V12.7092C132.106 13.1064 132.703 14.0993 133.102 14.695L139.675 24.6241H142.862V6.55319H139.277ZM151.229 10.1277H153.221C157.005 10.1277 158.599 11.9149 158.599 15.6879C158.599 19.0638 156.806 21.2482 153.021 21.2482H151.229V10.1277ZM147.643 24.6241H153.021C157.603 24.6241 162.384 22.0426 162.384 15.6879C162.384 9.13475 158.599 6.75177 153.42 6.75177H147.643V6.55319V24.6241ZM183.299 6.55319V24.6241H194.255V21.0496H187.084V6.55319H183.299ZM237.879 10.1277H239.871C243.656 10.1277 245.249 11.9149 245.249 15.6879C245.249 19.0638 243.457 21.2482 239.672 21.2482H237.879V10.1277ZM234.294 24.6241H239.672C243.656 24.6241 247.839 22.6383 248.835 17.8723V13.305C248.038 8.53901 244.652 6.75177 240.07 6.75177H234.294V6.55319V24.6241ZM73.5418 11.7163C73.5418 15.2908 75.9322 16.2837 79.1193 17.078C82.5056 17.8723 83.1032 18.2695 83.1032 19.461C83.1032 20.8511 82.1073 21.4468 79.9161 21.4468C78.1233 21.4468 76.5297 20.8511 75.3346 19.461L72.745 21.844C74.1394 23.8298 76.7289 25.2199 79.7169 25.2199C84.6968 25.2199 86.888 22.8369 86.888 19.461C86.888 15.4894 83.7008 14.4965 80.9121 13.9007C78.1233 13.305 77.3265 12.9078 77.3265 11.7163C77.3265 10.922 77.9241 10.1277 79.9161 10.1277C81.5097 10.1277 82.904 10.7234 84.0992 11.9149L86.6888 9.33333C84.896 7.5461 82.904 6.55319 80.1153 6.55319C79.9161 6.55319 79.7169 6.55319 79.5177 6.55319C76.1313 6.55319 73.5418 8.53901 73.5418 11.7163ZM93.4615 15.6879C93.4615 12.5106 94.6566 9.92908 97.6446 9.92908C100.633 9.92908 101.828 12.5106 101.828 15.6879C101.828 18.8652 100.633 21.4468 97.6446 21.4468C94.6566 21.4468 93.4615 18.8652 93.4615 15.6879ZM89.6767 15.6879C89.6767 21.2482 92.6647 25.0213 97.4454 25.0213C102.425 25.0213 105.413 21.2482 105.413 15.6879C105.413 10.1277 102.425 6.35461 97.4454 6.35461C92.6647 6.35461 89.6767 10.1277 89.6767 15.6879ZM120.154 6.35461V16.6808C120.154 19.6596 118.759 21.4468 116.369 21.4468C113.979 21.4468 112.584 19.6596 112.584 16.6808V6.55319H108.999V16.6808C108.999 21.844 111.987 24.8227 116.369 24.8227C120.951 24.8227 123.739 21.844 123.739 16.4823V6.35461H120.154ZM165.372 15.6879C165.372 21.4468 168.559 25.0213 173.339 25.0213C176.726 25.0213 178.718 23.4326 180.112 20.8511L177.124 19.0638C176.128 20.6525 175.132 21.4468 173.539 21.4468C170.75 21.4468 169.156 19.0638 169.156 15.6879C169.156 12.3121 170.75 9.92908 173.339 9.92908C174.933 9.92908 175.929 10.7234 176.726 11.9149L180.112 10.3262C178.917 7.94326 176.925 6.35461 173.539 6.35461C168.758 6.35461 165.372 10.1277 165.372 15.6879ZM199.633 15.6879C199.633 12.5106 200.829 9.92908 203.816 9.92908C206.804 9.92908 208 12.5106 208 15.6879C208 18.8652 206.804 21.4468 203.816 21.4468C200.829 21.4468 199.633 18.8652 199.633 15.6879ZM195.849 15.6879C195.849 21.2482 198.837 25.0213 203.617 25.0213C208.597 25.0213 211.386 21.2482 211.386 15.6879C211.386 10.1277 208.398 6.35461 203.617 6.35461C198.837 6.35461 195.849 10.1277 195.849 15.6879ZM226.127 6.35461V16.6808C226.127 19.6596 224.732 21.4468 222.342 21.4468C219.951 21.4468 218.557 19.6596 218.557 16.6808V6.55319H214.972V16.6808C214.972 21.844 217.959 24.8227 222.342 24.8227C226.923 24.8227 229.712 21.844 229.712 16.4823V6.35461H226.127ZM26.9297 6.75177L26.5313 20.4539L26.9297 27.0071C26.9297 27.4043 27.3281 27.8014 27.7265 27.8014C28.1249 27.8014 28.5233 27.4043 28.5233 27.0071L28.9217 20.4539L28.5233 6.55319C28.5233 6.15603 28.1249 5.75887 27.7265 5.75887C27.1289 5.95745 26.9297 6.15603 26.9297 6.75177ZM18.9619 6.15603L18.5635 20.4539L18.9619 27.2057C18.9619 27.6028 19.1611 27.8014 19.5595 27.8014C19.9579 27.8014 20.157 27.6028 20.157 27.2057L20.5554 20.4539L20.157 6.15603C20.157 5.75886 19.9579 5.56028 19.5595 5.56028C19.1611 5.56028 18.9619 5.95745 18.9619 6.15603ZM24.141 6.15603L23.7426 20.4539L24.141 27.2057C24.141 27.6028 24.5394 28 24.9378 28C25.3362 28 25.7346 27.6028 25.7346 27.2057L26.133 20.4539L25.7346 6.15603C25.7346 5.75886 25.3362 5.3617 24.9378 5.3617C24.5394 5.3617 24.141 5.75886 24.141 6.15603ZM21.5514 5.75887L21.153 20.4539L21.5514 27.2057C21.5514 27.6028 21.7506 27.8014 22.149 27.8014C22.5474 27.8014 22.7466 27.6028 22.7466 27.2057L23.145 20.4539L22.7466 5.75887C22.7466 5.3617 22.3482 5.16312 22.149 5.16312C21.9498 5.16312 21.5514 5.3617 21.5514 5.75887ZM29.5193 3.97163L29.1209 20.4539L29.5193 27.0071C29.5193 27.4043 29.9177 27.8014 30.3161 27.8014C30.7145 27.8014 31.1129 27.4043 31.1129 27.0071L31.5113 20.4539L31.1129 3.97163C31.1129 3.57447 30.7145 3.1773 30.3161 3.1773C29.9177 3.1773 29.5193 3.57447 29.5193 3.97163ZM32.3081 2.58156L31.9097 20.4539L32.3081 27.0071C32.3081 27.4043 32.7064 27.8014 33.1048 27.8014C33.5032 27.8014 33.9016 27.4043 33.9016 27.0071L34.3 20.4539L33.9016 2.58156C33.9016 2.1844 33.5032 1.78723 33.1048 1.78723H32.9056C32.5073 1.78723 32.3081 2.1844 32.3081 2.58156ZM35.4952 0.794326C34.8976 0.992908 34.6984 1.19149 34.6984 1.78723V27.0071C34.6984 27.4043 35.0968 27.8014 35.4952 28H57.606C61.9884 28 65.5739 24.4255 65.5739 20.0567C65.5739 15.6879 61.9884 12.1135 57.606 12.1135C56.6101 12.1135 55.4149 12.3121 54.6181 12.7092C54.0205 5.56028 48.0446 0 40.6743 0C40.2759 0 40.0767 0 39.6783 0C38.284 0 36.8896 0.397163 35.4952 0.794326Z" fill="white"/>
</mask>
<g mask="url(#mask0_517_10)">
<path d="M248.835 0H0.834961V28H248.835V0Z" fill="#4A4A4A"/>
</g>
</g>
<defs>
<clipPath id="clip0_517_10">
<rect width="248" height="28" fill="white" transform="translate(0.834961)"/>
</clipPath>
</defs>
</svg>
