<svg width="130" height="40" viewBox="0 0 130 40" fill="none" xmlns="http://www.w3.org/2000/svg">
<g clip-path="url(#clip0_396_5)">
<path d="M20 40C31.0457 40 40 31.0457 40 20C40 8.9543 31.0457 0 20 0C8.9543 0 0 8.9543 0 20C0 31.0457 8.9543 40 20 40Z" fill="#705DC2"/>
<path d="M26.224 10.3646V26.5234C26.224 26.9575 26.1372 27.2743 25.9635 27.474C25.7465 27.7343 25.434 27.9644 25.026 28.1641C24.6267 28.3638 24.3012 28.4635 24.0495 28.4635C23.7543 28.4635 23.6067 28.2769 23.6067 27.9037V11.7448C23.6067 11.3802 23.6936 11.0894 23.8672 10.8724C24.0842 10.6033 24.3923 10.3602 24.7917 10.1432C25.191 9.9175 25.5165 9.80467 25.7682 9.80467C26.0721 9.80467 26.224 9.99133 26.224 10.3646ZM22.1093 19.6875H13.9323C13.5764 19.6875 13.3984 19.5096 13.3984 19.1537V11.7448C13.3984 11.3802 13.4896 11.0894 13.6718 10.8724C13.8976 10.6033 14.2057 10.3602 14.5963 10.1432C14.987 9.9175 15.3082 9.80467 15.5599 9.80467C15.8637 9.80467 16.0157 9.99133 16.0157 10.3646V17.0182C16.0157 17.3742 16.1936 17.5521 16.5495 17.5521H22.1093C22.3958 17.5521 22.5868 17.6302 22.6823 17.7865C22.7777 17.934 22.8255 18.2032 22.8255 18.5937C22.8255 19.0017 22.7777 19.2882 22.6823 19.4532C22.5868 19.6093 22.3958 19.6875 22.1093 19.6875ZM13.3984 27.9037V21.237C13.3984 20.9245 13.5026 20.7205 13.7109 20.625C13.9279 20.5208 14.2578 20.4687 14.7005 20.4687C15.1867 20.4687 15.5252 20.5208 15.7162 20.625C15.9158 20.7205 16.0157 20.9245 16.0157 21.237V26.5234C16.0157 26.9487 15.9245 27.2657 15.7422 27.474C15.5252 27.7343 15.217 27.9644 14.8177 28.1641C14.4271 28.3638 14.1059 28.4635 13.8542 28.4635C13.5503 28.4635 13.3984 28.2769 13.3984 27.9037Z" fill="white"/>
</g>
<path d="M60.9492 17.9805V20.5117H51.9727V17.9805H60.9492ZM52.8516 10.9375V28H49.6289V10.9375H52.8516ZM63.3398 10.9375V28H60.1172V10.9375H63.3398ZM72.082 28.2344C71.1211 28.2344 70.2578 28.0781 69.4922 27.7656C68.7266 27.4531 68.0742 27.0195 67.5352 26.4648C67.0039 25.9023 66.5938 25.25 66.3047 24.5078C66.0234 23.7578 65.8828 22.9531 65.8828 22.0938V21.625C65.8828 20.6484 66.0234 19.7617 66.3047 18.9648C66.5859 18.1602 66.9844 17.4688 67.5 16.8906C68.0156 16.3125 68.6328 15.8672 69.3516 15.5547C70.0703 15.2422 70.8633 15.0859 71.7305 15.0859C72.6289 15.0859 73.4219 15.2383 74.1094 15.543C74.7969 15.8398 75.3711 16.2617 75.832 16.8086C76.293 17.3555 76.6406 18.0117 76.875 18.7773C77.1094 19.5352 77.2266 20.375 77.2266 21.2969V22.5977H67.2891V20.4648H74.1797V20.2305C74.1641 19.7383 74.0703 19.2891 73.8984 18.8828C73.7266 18.4688 73.4609 18.1406 73.1016 17.8984C72.7422 17.6484 72.2773 17.5234 71.707 17.5234C71.2461 17.5234 70.8438 17.625 70.5 17.8281C70.1641 18.0234 69.8828 18.3047 69.6562 18.6719C69.4375 19.0312 69.2734 19.4609 69.1641 19.9609C69.0547 20.4609 69 21.0156 69 21.625V22.0938C69 22.625 69.0703 23.1172 69.2109 23.5703C69.3594 24.0234 69.5742 24.418 69.8555 24.7539C70.1445 25.082 70.4883 25.3398 70.8867 25.5273C71.293 25.707 71.7539 25.7969 72.2695 25.7969C72.918 25.7969 73.5039 25.6719 74.0273 25.4219C74.5586 25.1641 75.0195 24.7852 75.4102 24.2852L76.9688 25.9023C76.7031 26.293 76.3438 26.668 75.8906 27.0273C75.4453 27.3867 74.9062 27.6797 74.2734 27.9062C73.6406 28.125 72.9102 28.2344 72.082 28.2344ZM82.3945 17.7578V32.875H79.2891V15.3203H82.1602L82.3945 17.7578ZM90.5391 21.5312V21.7773C90.5391 22.6992 90.4297 23.5547 90.2109 24.3438C90 25.125 89.6875 25.8086 89.2734 26.3945C88.8594 26.9727 88.3438 27.4258 87.7266 27.7539C87.1172 28.0742 86.4141 28.2344 85.6172 28.2344C84.8359 28.2344 84.1562 28.0859 83.5781 27.7891C83 27.4844 82.5117 27.0547 82.1133 26.5C81.7148 25.9453 81.3945 25.3008 81.1523 24.5664C80.918 23.8242 80.7422 23.0156 80.625 22.1406V21.3555C80.7422 20.4258 80.918 19.582 81.1523 18.8242C81.3945 18.0586 81.7148 17.3984 82.1133 16.8438C82.5117 16.2812 82.9961 15.8477 83.5664 15.543C84.1445 15.2383 84.8203 15.0859 85.5938 15.0859C86.3984 15.0859 87.1055 15.2383 87.7148 15.543C88.332 15.8477 88.8516 16.2852 89.2734 16.8555C89.6953 17.4258 90.0117 18.1055 90.2227 18.8945C90.4336 19.6836 90.5391 20.5625 90.5391 21.5312ZM87.4336 21.7773V21.5312C87.4336 20.9688 87.3828 20.4492 87.2812 19.9727C87.1797 19.4883 87.0234 19.0664 86.8125 18.707C86.6016 18.3398 86.3281 18.0547 85.9922 17.8516C85.6562 17.6484 85.25 17.5469 84.7734 17.5469C84.2969 17.5469 83.8867 17.625 83.543 17.7812C83.1992 17.9375 82.918 18.1602 82.6992 18.4492C82.4805 18.7383 82.3086 19.082 82.1836 19.4805C82.0664 19.8711 81.9883 20.3047 81.9492 20.7812V22.7266C82.0195 23.3047 82.1562 23.8242 82.3594 24.2852C82.5625 24.7461 82.8594 25.1133 83.25 25.3867C83.6484 25.6602 84.1641 25.7969 84.7969 25.7969C85.2734 25.7969 85.6797 25.6914 86.0156 25.4805C86.3516 25.2695 86.625 24.9805 86.8359 24.6133C87.0469 24.2383 87.1992 23.8086 87.293 23.3242C87.3867 22.8398 87.4336 22.3242 87.4336 21.7773ZM100.406 25.3047V10H103.523V28H100.711L100.406 25.3047ZM92.2617 21.8125V21.5664C92.2617 20.5977 92.3711 19.7188 92.5898 18.9297C92.8164 18.1328 93.1445 17.4492 93.5742 16.8789C94.0039 16.3086 94.5234 15.8672 95.1328 15.5547C95.75 15.2422 96.4492 15.0859 97.2305 15.0859C97.9883 15.0859 98.6484 15.2383 99.2109 15.543C99.7812 15.8477 100.266 16.2812 100.664 16.8438C101.07 17.4062 101.395 18.0742 101.637 18.8477C101.879 19.6133 102.055 20.457 102.164 21.3789V22.0469C102.055 22.9453 101.879 23.7695 101.637 24.5195C101.395 25.2695 101.07 25.9258 100.664 26.4883C100.266 27.043 99.7812 27.4727 99.2109 27.7773C98.6406 28.082 97.9727 28.2344 97.207 28.2344C96.4336 28.2344 95.7383 28.0742 95.1211 27.7539C94.5117 27.4336 93.9922 26.9844 93.5625 26.4062C93.1406 25.8281 92.8164 25.1484 92.5898 24.3672C92.3711 23.5859 92.2617 22.7344 92.2617 21.8125ZM95.3672 21.5664V21.8125C95.3672 22.3594 95.4141 22.8711 95.5078 23.3477C95.6016 23.8242 95.7539 24.2461 95.9648 24.6133C96.1758 24.9727 96.4453 25.2539 96.7734 25.457C97.1094 25.6602 97.5156 25.7617 97.9922 25.7617C98.6016 25.7617 99.1016 25.6289 99.4922 25.3633C99.8906 25.0898 100.199 24.7188 100.418 24.25C100.637 23.7734 100.777 23.2383 100.84 22.6445V20.8047C100.809 20.3359 100.727 19.9023 100.594 19.5039C100.469 19.1055 100.289 18.7617 100.055 18.4727C99.8281 18.1836 99.5469 17.957 99.2109 17.793C98.875 17.6289 98.4766 17.5469 98.0156 17.5469C97.5391 17.5469 97.1328 17.6523 96.7969 17.8633C96.4609 18.0664 96.1875 18.3516 95.9766 18.7188C95.7656 19.0859 95.6094 19.5117 95.5078 19.9961C95.4141 20.4805 95.3672 21.0039 95.3672 21.5664ZM112.02 28.2344C111.059 28.2344 110.195 28.0781 109.43 27.7656C108.664 27.4531 108.012 27.0195 107.473 26.4648C106.941 25.9023 106.531 25.25 106.242 24.5078C105.961 23.7578 105.82 22.9531 105.82 22.0938V21.625C105.82 20.6484 105.961 19.7617 106.242 18.9648C106.523 18.1602 106.922 17.4688 107.438 16.8906C107.953 16.3125 108.57 15.8672 109.289 15.5547C110.008 15.2422 110.801 15.0859 111.668 15.0859C112.566 15.0859 113.359 15.2383 114.047 15.543C114.734 15.8398 115.309 16.2617 115.77 16.8086C116.23 17.3555 116.578 18.0117 116.812 18.7773C117.047 19.5352 117.164 20.375 117.164 21.2969V22.5977H107.227V20.4648H114.117V20.2305C114.102 19.7383 114.008 19.2891 113.836 18.8828C113.664 18.4688 113.398 18.1406 113.039 17.8984C112.68 17.6484 112.215 17.5234 111.645 17.5234C111.184 17.5234 110.781 17.625 110.438 17.8281C110.102 18.0234 109.82 18.3047 109.594 18.6719C109.375 19.0312 109.211 19.4609 109.102 19.9609C108.992 20.4609 108.938 21.0156 108.938 21.625V22.0938C108.938 22.625 109.008 23.1172 109.148 23.5703C109.297 24.0234 109.512 24.418 109.793 24.7539C110.082 25.082 110.426 25.3398 110.824 25.5273C111.23 25.707 111.691 25.7969 112.207 25.7969C112.855 25.7969 113.441 25.6719 113.965 25.4219C114.496 25.1641 114.957 24.7852 115.348 24.2852L116.906 25.9023C116.641 26.293 116.281 26.668 115.828 27.0273C115.383 27.3867 114.844 27.6797 114.211 27.9062C113.578 28.125 112.848 28.2344 112.02 28.2344ZM121.664 15.3203L123.926 19.3516L126.223 15.3203H129.586L125.859 21.5312L129.738 28H126.375L123.949 23.7695L121.512 28H118.148L122.016 21.5312L118.312 15.3203H121.664Z" fill="#111827"/>
<defs>
<clipPath id="clip0_396_5">
<rect width="40" height="40" fill="white"/>
</clipPath>
</defs>
</svg>
