<svg width="154" height="36" viewBox="0 0 154 36" fill="none" xmlns="http://www.w3.org/2000/svg">
<path d="M0 17.1471C0 15.2628 1.50493 13.7353 3.36134 13.7353H4.03361V26.7H3.36134C1.50493 26.7 0 25.1725 0 23.2882V17.1471Z" fill="#915DC2"/>
<path d="M40 17.1471C40 15.2628 38.4951 13.7353 36.6387 13.7353H35.9664V26.7H36.6387C38.4951 26.7 40 25.1725 40 23.2882V17.1471Z" fill="#915DC2"/>
<path fill-rule="evenodd" clip-rule="evenodd" d="M5.71429 16.2941C5.71429 9.22812 11.3578 3.5 18.3193 3.5H21.6807C28.6422 3.5 34.2857 9.22812 34.2857 16.2941V23.9706C34.2857 24.8621 34.151 25.7216 33.901 26.5294H26.2185C25.6616 26.5294 25.2101 26.9877 25.2101 27.5529C25.2101 28.1182 25.6616 28.5765 26.2185 28.5765H32.9564C31.4617 30.9366 28.8519 32.5 25.8824 32.5H14.1176C9.4766 32.5 5.71429 28.6813 5.71429 23.9706V16.2941ZM17.3109 15.1C17.3109 16.2306 16.408 17.1471 15.2941 17.1471C14.1803 17.1471 13.2773 16.2306 13.2773 15.1C13.2773 13.9694 14.1803 13.0529 15.2941 13.0529C16.408 13.0529 17.3109 13.9694 17.3109 15.1ZM24.7059 17.1471C25.8197 17.1471 26.7227 16.2306 26.7227 15.1C26.7227 13.9694 25.8197 13.0529 24.7059 13.0529C23.592 13.0529 22.6891 13.9694 22.6891 15.1C22.6891 16.2306 23.592 17.1471 24.7059 17.1471ZM25.7388 19.5547C26.0995 19.8511 26.1552 20.3882 25.8632 20.7543C24.32 22.6893 22.4298 23.8726 20.0336 23.9699C18.7668 24.0213 17.534 23.5606 16.5064 22.9464C15.4735 22.329 14.578 21.5155 13.9697 20.7555C13.677 20.3899 13.7317 19.8527 14.0919 19.5557C14.4521 19.2586 14.9814 19.3142 15.274 19.6798C15.7581 20.2845 16.5013 20.9637 17.3592 21.4764C18.2223 21.9923 19.1324 22.2992 19.9664 22.2654C21.7719 22.1921 23.243 21.3284 24.5569 19.681C24.8489 19.3148 25.3781 19.2583 25.7388 19.5547Z" fill="#915DC2"/>
<path d="M49.96 29V8.84H53.334V17.324H62.882V8.84H66.242V29H62.882V20.488H53.334V29H49.96ZM77.041 29.42C75.5104 29.42 74.1664 29.0887 73.009 28.426C71.8517 27.7633 70.9464 26.844 70.293 25.668C69.649 24.492 69.327 23.1387 69.327 21.608C69.327 19.956 69.6444 18.5233 70.279 17.31C70.9137 16.0873 71.7957 15.14 72.925 14.468C74.0544 13.796 75.361 13.46 76.845 13.46C78.413 13.46 79.743 13.8287 80.835 14.566C81.9364 15.294 82.753 16.3253 83.285 17.66C83.817 18.9947 84.0177 20.5673 83.887 22.378H80.541V21.146C80.5317 19.5033 80.2424 18.304 79.673 17.548C79.1037 16.792 78.2077 16.414 76.985 16.414C75.6037 16.414 74.577 16.8433 73.905 17.702C73.233 18.5513 72.897 19.7973 72.897 21.44C72.897 22.9707 73.233 24.156 73.905 24.996C74.577 25.836 75.557 26.256 76.845 26.256C77.6757 26.256 78.3897 26.074 78.987 25.71C79.5937 25.3367 80.0604 24.8 80.387 24.1L83.719 25.108C83.1404 26.4707 82.2444 27.53 81.031 28.286C79.827 29.042 78.497 29.42 77.041 29.42ZM71.833 22.378V19.83H82.235V22.378H71.833ZM93.8666 29.42C92.392 29.42 91.1553 29.07 90.1566 28.37C89.158 27.67 88.4066 26.718 87.9026 25.514C87.3986 24.3007 87.1466 22.9427 87.1466 21.44C87.1466 19.9187 87.3986 18.556 87.9026 17.352C88.4066 16.148 89.144 15.2007 90.1146 14.51C91.0946 13.81 92.3033 13.46 93.7406 13.46C95.1686 13.46 96.4053 13.81 97.4506 14.51C98.5053 15.2007 99.322 16.148 99.9006 17.352C100.479 18.5467 100.769 19.9093 100.769 21.44C100.769 22.952 100.484 24.31 99.9146 25.514C99.3453 26.718 98.5426 27.67 97.5066 28.37C96.4706 29.07 95.2573 29.42 93.8666 29.42ZM86.5726 35.72V13.88H89.5546V24.492H89.9746V35.72H86.5726ZM93.3486 26.396C94.226 26.396 94.9493 26.1767 95.5186 25.738C96.088 25.2993 96.508 24.7067 96.7786 23.96C97.0586 23.204 97.1986 22.364 97.1986 21.44C97.1986 20.5253 97.0586 19.6947 96.7786 18.948C96.4986 18.192 96.0646 17.5947 95.4766 17.156C94.8886 16.708 94.142 16.484 93.2366 16.484C92.378 16.484 91.678 16.694 91.1366 17.114C90.5953 17.5247 90.194 18.1033 89.9326 18.85C89.6806 19.5873 89.5546 20.4507 89.5546 21.44C89.5546 22.42 89.6806 23.2833 89.9326 24.03C90.194 24.7767 90.6 25.36 91.1506 25.78C91.7106 26.1907 92.4433 26.396 93.3486 26.396ZM103.855 29V8.84H110.281C110.449 8.84 110.78 8.84467 111.275 8.854C111.779 8.86333 112.264 8.896 112.731 8.952C114.327 9.15733 115.675 9.72667 116.777 10.66C117.887 11.584 118.727 12.7647 119.297 14.202C119.866 15.6393 120.151 17.212 120.151 18.92C120.151 20.628 119.866 22.2007 119.297 23.638C118.727 25.0753 117.887 26.2607 116.777 27.194C115.675 28.118 114.327 28.6827 112.731 28.888C112.273 28.944 111.793 28.9767 111.289 28.986C110.785 28.9953 110.449 29 110.281 29H103.855ZM107.285 25.822H110.281C110.561 25.822 110.915 25.8127 111.345 25.794C111.783 25.7753 112.171 25.7333 112.507 25.668C113.459 25.4907 114.233 25.066 114.831 24.394C115.428 23.722 115.867 22.9053 116.147 21.944C116.436 20.9827 116.581 19.9747 116.581 18.92C116.581 17.828 116.436 16.8013 116.147 15.84C115.857 14.8787 115.409 14.0713 114.803 13.418C114.205 12.7647 113.44 12.3493 112.507 12.172C112.171 12.0973 111.783 12.0553 111.345 12.046C110.915 12.0273 110.561 12.018 110.281 12.018H107.285V25.822ZM130.334 29.42C128.803 29.42 127.459 29.0887 126.302 28.426C125.145 27.7633 124.239 26.844 123.586 25.668C122.942 24.492 122.62 23.1387 122.62 21.608C122.62 19.956 122.937 18.5233 123.572 17.31C124.207 16.0873 125.089 15.14 126.218 14.468C127.347 13.796 128.654 13.46 130.138 13.46C131.706 13.46 133.036 13.8287 134.128 14.566C135.229 15.294 136.046 16.3253 136.578 17.66C137.11 18.9947 137.311 20.5673 137.18 22.378H133.834V21.146C133.825 19.5033 133.535 18.304 132.966 17.548C132.397 16.792 131.501 16.414 130.278 16.414C128.897 16.414 127.87 16.8433 127.198 17.702C126.526 18.5513 126.19 19.7973 126.19 21.44C126.19 22.9707 126.526 24.156 127.198 24.996C127.87 25.836 128.85 26.256 130.138 26.256C130.969 26.256 131.683 26.074 132.28 25.71C132.887 25.3367 133.353 24.8 133.68 24.1L137.012 25.108C136.433 26.4707 135.537 27.53 134.324 28.286C133.12 29.042 131.79 29.42 130.334 29.42ZM125.126 22.378V19.83H135.528V22.378H125.126ZM138.077 29L143.607 21.356L138.189 13.88H142.165L145.567 18.71L148.913 13.88H152.889L147.471 21.356L153.029 29H149.053L145.567 24.002L142.053 29H138.077Z" fill="#111827"/>
</svg>
