<svg width="117" height="28" viewBox="0 0 117 28" fill="none" xmlns="http://www.w3.org/2000/svg">
<g clip-path="url(#clip0_517_7)">
<path d="M48.7342 27.6933V8.82159H48.6112L41.0181 27.6933H38.1195L30.5082 8.82159H30.3866V27.6933H26.8256V2.05166H31.3468L39.4989 22.4858H39.6387L47.7727 2.05306H52.312V27.6947L48.7342 27.6933ZM72.0027 27.6933H68.3885V24.5305H68.3019C67.2886 26.7694 65.4214 28.0301 62.6109 28.0301C58.6138 28.0301 56.168 25.383 56.168 21.1008V8.99909H59.9387V20.3545C59.9387 23.1972 61.2664 24.7248 63.8659 24.7248C66.5912 24.7248 68.232 22.8059 68.232 19.8919V8.99909H72.0013L72.0027 27.6933ZM82.3365 8.66087C86.6131 8.66087 89.3887 11.0787 89.5117 14.5252H85.9674C85.7578 12.7139 84.4482 11.5762 82.3365 11.5762C80.2932 11.5762 78.9319 12.5881 78.9319 14.0821C78.9319 15.2547 79.7705 16.0527 81.7593 16.5153L84.7445 17.2085C88.4984 18.0974 89.9296 19.59 89.9296 22.2902C89.9296 25.7031 86.8046 28.0482 82.4762 28.0482C77.8851 28.0482 75.1249 25.7562 74.7769 22.2021H78.5126C78.862 24.156 80.1716 25.1161 82.4762 25.1161C84.7445 25.1161 86.1421 24.156 86.1421 22.6284C86.1421 21.4195 85.4615 20.7095 83.4531 20.2469L80.4679 19.5369C76.9767 18.7193 75.2479 17.0129 75.2479 14.296C75.2479 10.9543 78.1115 8.66087 82.3365 8.66087ZM92.5459 4.06C92.5459 2.83292 93.5242 1.856 94.7275 1.856C95.9322 1.856 96.8938 2.83431 96.8938 4.06C96.8938 5.26752 95.9322 6.2626 94.7275 6.2626C94.1469 6.25781 93.5917 6.0235 93.1833 5.61083C92.7748 5.19816 92.5447 4.64065 92.5459 4.06ZM92.8421 8.99909H96.6129V27.6933H92.8421V8.99909ZM112.533 15.4322C112.148 13.442 110.682 11.86 108.221 11.86C105.306 11.86 103.386 14.3295 103.386 18.3448C103.386 22.4509 105.323 24.8324 108.256 24.8324C110.576 24.8324 112.097 23.5354 112.533 21.3664H116.165C115.764 25.3467 112.639 28.0482 108.223 28.0482C102.968 28.0482 99.5464 24.3866 99.5464 18.3462C99.5464 12.4106 102.968 8.66087 108.188 8.66087C112.919 8.66087 115.799 11.7537 116.13 15.4322H112.533ZM15.2927 4.55335C14.3171 5.71894 12.77 6.64415 11.2215 6.50718C11.0188 4.9307 11.7945 3.2508 12.6694 2.22357C13.6435 1.02164 15.3262 0.166315 16.7056 0.0964355C16.8747 1.7428 16.236 3.35282 15.2941 4.55475L15.2927 4.55335ZM16.6888 6.81605C17.5609 6.88453 20.078 7.15706 21.6894 9.58328C21.5553 9.6867 18.7028 11.361 18.7363 14.8801C18.7699 19.0869 22.3603 20.4873 22.3938 20.5222C22.3603 20.6256 21.825 22.5054 20.5155 24.4522C19.3736 26.1629 18.1996 27.8372 16.3199 27.8721C14.5072 27.9057 13.9021 26.7778 11.8224 26.7778C9.74143 26.7778 9.06919 27.8372 7.35854 27.9057C5.54586 27.9728 4.17203 26.093 3.0302 24.3838C0.679452 20.9317 -1.09828 14.6426 1.31815 10.4037C2.49213 8.28492 4.64022 6.95162 6.95603 6.91668C8.73516 6.88453 10.3801 8.11441 11.4535 8.11441C12.5282 8.11441 14.4401 6.68048 16.6888 6.81605Z" fill="#4A4A4A"/>
</g>
<defs>
<clipPath id="clip0_517_7">
<rect width="116" height="28" fill="white" transform="translate(0.165283)"/>
</clipPath>
</defs>
</svg>
