<svg width="105" height="28" viewBox="0 0 105 28" fill="none" xmlns="http://www.w3.org/2000/svg">
<g clip-path="url(#clip0_512_270)">
<path d="M98.6076 13.3318L104.165 28C102.536 27.7773 100.875 27.4591 99.2144 27.2045L96.0842 19.0909L92.8582 26.5364C91.2931 26.2818 89.7279 26.1864 88.1309 25.9955L93.7845 13.1727L88.6739 0H93.4331L96.3078 7.35L99.3741 0H104.165L98.6076 13.3318ZM84.9368 0H80.6247V25.4227C82.0301 25.5182 83.4994 25.5818 84.9368 25.7409V0ZM76.9196 25.1364C72.9908 24.8818 69.0621 24.6273 65.0695 24.5636V0H69.4454V20.4273C71.9687 20.4909 74.4921 20.6818 76.9196 20.8091V25.1364ZM60.3741 9.95909V14.3182H54.3692V24.2773H50.0252V0H62.3225V4.35909H54.3692V9.92727H60.3741V9.95909ZM42.6469 4.35909V24.5C41.1776 24.5 39.6763 24.5 38.239 24.5636V4.35909H33.7034V0H47.2144V4.35909H42.6469ZM28.9761 14.5409C27.0596 14.5409 24.7599 14.5409 23.1309 14.6364V21.1273C25.7181 20.9364 28.2734 20.7455 30.8926 20.65V24.85L18.755 25.8045V0H30.8926V4.35909H23.1309V10.2455C24.8238 10.2455 27.4429 10.15 28.9761 10.15V14.5409ZM4.63703 12.0909V27.3636C3.07192 27.5545 1.66651 27.7773 0.165283 28V0H4.34956L10.067 15.9091V0H14.4749V26.1864C12.9098 26.4409 11.3446 26.5364 9.68371 26.7591L4.63703 12.0909Z" fill="#4A4A4A"/>
</g>
<defs>
<clipPath id="clip0_512_270">
<rect width="104" height="28" fill="white" transform="translate(0.165283)"/>
</clipPath>
</defs>
</svg>
