<svg width="48" height="48" viewBox="0 0 48 48" fill="none" xmlns="http://www.w3.org/2000/svg">
<path d="M0 22.9706C0 20.6965 1.80591 18.8529 4.03361 18.8529H4.84034V34.5H4.03361C1.80591 34.5 0 32.6565 0 30.3824V22.9706Z" fill="#915DC2"/>
<path d="M48 22.9706C48 20.6965 46.1941 18.8529 43.9664 18.8529H43.1597V34.5H43.9664C46.1941 34.5 48 32.6565 48 30.3824V22.9706Z" fill="#915DC2"/>
<path fill-rule="evenodd" clip-rule="evenodd" d="M6.85714 21.9412C6.85714 13.4133 13.6293 6.5 21.9832 6.5H26.0168C34.3707 6.5 41.1429 13.4133 41.1429 21.9412V31.2059C41.1429 32.2818 40.9812 33.3192 40.6812 34.2941H31.4622C30.7939 34.2941 30.2521 34.8472 30.2521 35.5294C30.2521 36.2116 30.7939 36.7647 31.4622 36.7647H39.5477C37.7541 39.6131 34.6223 41.5 31.0588 41.5H16.9412C11.3719 41.5 6.85714 36.8912 6.85714 31.2059V21.9412ZM20.7731 20.5C20.7731 21.8645 19.6896 22.9706 18.3529 22.9706C17.0163 22.9706 15.9328 21.8645 15.9328 20.5C15.9328 19.1355 17.0163 18.0294 18.3529 18.0294C19.6896 18.0294 20.7731 19.1355 20.7731 20.5ZM29.6471 22.9706C30.9837 22.9706 32.0672 21.8645 32.0672 20.5C32.0672 19.1355 30.9837 18.0294 29.6471 18.0294C28.3104 18.0294 27.2269 19.1355 27.2269 20.5C27.2269 21.8645 28.3104 22.9706 29.6471 22.9706ZM30.8866 25.8764C31.3195 26.2341 31.3863 26.8823 31.0359 27.3242C29.184 29.6595 26.9158 31.0876 24.0403 31.2051C22.5201 31.2671 21.0408 30.7111 19.8076 29.9698C18.5682 29.2246 17.4936 28.2428 16.7636 27.3256C16.4124 26.8844 16.4781 26.236 16.9103 25.8775C17.3426 25.519 17.9777 25.5861 18.3289 26.0273C18.9097 26.7572 19.8016 27.5768 20.831 28.1957C21.8667 28.8183 22.9589 29.1887 23.9597 29.1479C26.1262 29.0594 27.8917 28.017 29.4683 26.0288C29.8187 25.5869 30.4537 25.5186 30.8866 25.8764Z" fill="#915DC2"/>
</svg>
