<svg width="56" height="56" viewBox="0 0 56 56" fill="none" xmlns="http://www.w3.org/2000/svg">
<path d="M19.6885 2.33613C20.5638 2.30012 21.477 2.56447 22.1849 3.08373C22.4329 3.2657 22.6499 3.48947 22.9004 3.66752C22.9183 3.68036 22.9365 3.69284 22.9549 3.70498C22.9732 3.71713 22.9919 3.72891 23.0108 3.74033C23.0296 3.75176 23.0486 3.76283 23.068 3.77353C23.0872 3.78423 23.1067 3.79455 23.1264 3.80451C23.146 3.81446 23.1658 3.82403 23.1859 3.83323C23.2059 3.84243 23.2261 3.85124 23.2465 3.85966C23.2669 3.86808 23.2874 3.87612 23.308 3.88376C23.3287 3.89139 23.3496 3.89863 23.3705 3.90548C23.3914 3.91232 23.4125 3.91876 23.4337 3.9248C23.4549 3.93083 23.4763 3.93646 23.4977 3.94168C23.5191 3.9469 23.5406 3.95172 23.5622 3.95612C23.5838 3.96052 23.6055 3.9645 23.6272 3.96808C23.6489 3.97165 23.6707 3.9748 23.6926 3.97754C23.7145 3.98027 23.7364 3.98259 23.7583 3.98449C23.7804 3.98639 23.8024 3.98787 23.8244 3.98893C23.8464 3.98999 23.8684 3.99063 23.8905 3.99085C23.9125 3.99106 23.9345 3.99085 23.9565 3.99022C23.9785 3.9896 24.0006 3.98856 24.0226 3.98708C24.0446 3.98562 24.0665 3.98373 24.0884 3.98143C24.1104 3.97912 24.1322 3.97639 24.1541 3.97325C24.1759 3.97011 24.1976 3.96655 24.2193 3.96257C24.241 3.9586 24.2626 3.95421 24.2841 3.94941C24.3056 3.94461 24.327 3.9394 24.3483 3.93378C24.3697 3.92816 24.3909 3.92214 24.412 3.91571C24.433 3.90928 24.454 3.90244 24.4748 3.89521C24.4956 3.88798 24.5163 3.88036 24.5369 3.87234C24.5574 3.86432 24.5777 3.85591 24.598 3.84711C24.6182 3.83831 24.6382 3.82912 24.6581 3.81956C24.6779 3.80999 24.6976 3.80005 24.7171 3.78973C24.7366 3.77941 24.7558 3.76872 24.7749 3.75767C24.794 3.74661 24.8128 3.73519 24.8314 3.72341C24.8501 3.71165 24.8685 3.69952 24.8866 3.68704C25.195 3.47886 25.4505 3.20328 25.7663 3.00224C25.8837 2.92781 26.0045 2.8596 26.1289 2.79762C26.2533 2.73565 26.3806 2.68023 26.5106 2.63136C26.6407 2.58249 26.773 2.54044 26.9073 2.50521C27.0418 2.46997 27.1777 2.44173 27.315 2.4205C27.3793 2.40966 27.4439 2.40035 27.5087 2.39257C27.5734 2.38479 27.6384 2.37854 27.7035 2.37383C27.7686 2.36911 27.8338 2.36594 27.8989 2.36431C27.9642 2.36268 28.0294 2.36258 28.0946 2.36403C28.1599 2.36548 28.2251 2.36847 28.2902 2.37299C28.3552 2.37752 28.4201 2.38358 28.485 2.39117C28.5498 2.39877 28.6144 2.4079 28.6788 2.41855C28.7432 2.42919 28.8073 2.44136 28.8711 2.45504C28.9349 2.46871 28.9983 2.48388 29.0614 2.50056C29.1245 2.51723 29.1871 2.53539 29.2494 2.55503C29.3116 2.57466 29.3733 2.59576 29.4346 2.61831C29.4957 2.64086 29.5564 2.66485 29.6166 2.69027C29.6766 2.71569 29.7361 2.74251 29.795 2.77074C29.8537 2.79897 29.9118 2.82857 29.9693 2.85955C30.0268 2.89052 30.0834 2.92284 30.1393 2.95649C30.1952 2.99015 30.2503 3.0251 30.3045 3.06136C30.5737 3.24333 30.8019 3.47933 31.067 3.66569C31.6683 4.08828 32.4408 4.1001 33.051 3.68788C33.364 3.47649 33.626 3.20013 33.9464 2.99511C34.0577 2.92462 34.1723 2.85979 34.2901 2.80061C34.4078 2.74143 34.5282 2.68818 34.6512 2.64088C34.7742 2.59357 34.8993 2.55244 35.0264 2.51747C35.1535 2.4825 35.2819 2.45388 35.4118 2.43159C36.5147 2.2429 37.6564 2.47367 38.5713 3.1283C38.6256 3.16716 38.6788 3.20734 38.731 3.24885C38.7832 3.29034 38.8344 3.33311 38.8846 3.37715C38.9347 3.4212 38.9836 3.46647 39.0315 3.51294C39.0793 3.55941 39.126 3.60705 39.1715 3.65584C39.217 3.70464 39.2612 3.75453 39.3042 3.80552C39.3473 3.85652 39.389 3.90855 39.4295 3.96161C39.4699 4.01468 39.509 4.06872 39.5467 4.12373C39.5844 4.17873 39.6208 4.23464 39.6558 4.29145C39.6908 4.34826 39.7243 4.40591 39.7564 4.46439C39.7885 4.52287 39.8191 4.58211 39.8483 4.64211C39.8774 4.70211 39.9051 4.7628 39.9313 4.82418C39.9574 4.88555 39.982 4.94753 40.0051 5.01012C40.0282 5.07272 40.0496 5.13585 40.0695 5.19952C40.0895 5.26318 40.1079 5.3273 40.1247 5.39188C40.1414 5.45645 40.1565 5.5214 40.1701 5.58674C40.1835 5.65206 40.1954 5.71769 40.2057 5.7836C40.238 5.98786 40.2543 6.19338 40.2547 6.40018C40.2551 6.60698 40.2395 6.81257 40.2079 7.01694C39.9877 8.46474 38.9828 10.5657 38.1968 11.8064C37.8271 12.3899 37.402 12.9216 36.9991 13.4808C37.0541 13.5186 37.1082 13.5576 37.1615 13.5978C37.8814 14.1367 38.342 14.989 38.4636 15.8728C38.5922 16.8077 38.323 17.7095 37.7563 18.4561C38.1811 18.8212 38.6587 19.1354 39.093 19.4933C39.9777 20.2307 40.8059 21.0268 41.5777 21.8816C44.9828 25.6282 47.3463 30.2384 48.9557 35.0108C49.4029 36.3368 49.8381 37.6889 50.0363 39.0775C50.051 39.1812 50.0644 39.285 50.0765 39.389C50.0886 39.493 50.0994 39.5971 50.109 39.7014C50.1185 39.8057 50.1267 39.91 50.1337 40.0145C50.1406 40.119 50.1463 40.2236 50.1506 40.3282C50.155 40.4329 50.1581 40.5375 50.1599 40.6421C50.1617 40.7468 50.1622 40.8515 50.1613 40.9563C50.1605 41.061 50.1584 41.1656 50.155 41.2703C50.1517 41.3749 50.147 41.4795 50.141 41.5841C50.135 41.6886 50.1277 41.7931 50.1191 41.8974C50.1106 42.0018 50.1008 42.106 50.0896 42.2101C50.0784 42.3143 50.066 42.4182 50.0523 42.522C50.0386 42.6258 50.0236 42.7294 50.0073 42.8328C49.9911 42.9363 49.9735 43.0395 49.9546 43.1424C49.9358 43.2455 49.9157 43.3482 49.8944 43.4508C49.873 43.5532 49.8504 43.6554 49.8264 43.7575C49.8026 43.8594 49.7775 43.961 49.7511 44.0623C49.7246 44.1636 49.6969 44.2646 49.6681 44.3653C49.6392 44.4659 49.609 44.5661 49.5776 44.666C49.5463 44.7659 49.5137 44.8654 49.4798 44.9645C49.446 45.0636 49.4109 45.1623 49.3746 45.2605C49.3383 45.3587 49.3008 45.4565 49.2622 45.5537C49.2235 45.651 49.1835 45.7478 49.1424 45.8441C49.1014 45.9404 49.0591 46.0362 49.0156 46.1314C48.9722 46.2267 48.9276 46.3215 48.8818 46.4156C48.836 46.5097 48.789 46.6033 48.7409 46.6964C48.6928 46.7893 48.6435 46.8817 48.5931 46.9735C48.5427 47.0653 48.4911 47.1565 48.4385 47.247C48.3858 47.3374 48.3321 47.4273 48.2773 47.5165C48.2223 47.6056 48.1664 47.6941 48.1094 47.7819C48.0523 47.8697 47.9941 47.9568 47.9349 48.0431C47.8757 48.1295 47.8154 48.2151 47.7541 48.2999C47.6928 48.3848 47.6304 48.4689 47.567 48.5522C45.6433 51.1038 42.6554 53.0442 39.4625 53.4952C38.5656 53.707 37.5447 53.6839 36.6248 53.6837L34.4561 53.6824L26.7641 53.6829L21.0582 53.6832C19.9882 53.6832 18.8908 53.7355 17.825 53.6512C14.3629 53.3772 11.1794 51.8399 8.92323 49.176C8.85495 49.0967 8.78766 49.0166 8.72136 48.9356C8.65505 48.8547 8.58976 48.7729 8.52547 48.6904C8.46118 48.6078 8.39791 48.5245 8.33567 48.4403C8.27343 48.3562 8.21223 48.2713 8.15208 48.1857C8.09193 48.1001 8.03284 48.0138 7.97481 47.9267C7.91678 47.8396 7.85984 47.7518 7.80398 47.6633C7.74811 47.5748 7.69334 47.4856 7.63967 47.3958C7.586 47.3061 7.53344 47.2156 7.482 47.1245C7.43055 47.0333 7.38024 46.9416 7.33105 46.8493C7.28187 46.7569 7.23383 46.6639 7.18693 46.5704C7.14003 46.4768 7.09429 46.3827 7.04971 46.2881C7.00513 46.1933 6.96172 46.0981 6.91948 46.0024C6.87724 45.9067 6.83619 45.8105 6.79631 45.7137C6.75645 45.617 6.71778 45.5197 6.6803 45.422C6.64283 45.3243 6.60656 45.2262 6.57149 45.1276C6.53644 45.029 6.5026 44.93 6.46997 44.8305C6.43735 44.7311 6.40596 44.6314 6.37579 44.5312C6.34562 44.4309 6.31669 44.3303 6.289 44.2294C6.26131 44.1286 6.23487 44.0274 6.20967 43.9258C6.18447 43.8242 6.16052 43.7223 6.13783 43.6202C6.11514 43.518 6.09371 43.4156 6.07354 43.313C6.05337 43.2103 6.03446 43.1074 6.01682 43.0042C5.99919 42.9011 5.98282 42.7977 5.96772 42.6941C5.95263 42.5906 5.93881 42.4869 5.92627 42.3831C5.91373 42.2791 5.90248 42.1751 5.89249 42.0709C5.88251 41.9668 5.87381 41.8625 5.8664 41.7581C5.85898 41.6537 5.85285 41.5493 5.84801 41.4447C5.84317 41.3402 5.83961 41.2357 5.83735 41.131C5.83508 41.0264 5.8341 40.9218 5.83441 40.8171C5.83471 40.7125 5.8363 40.6079 5.83918 40.5033C5.84206 40.3987 5.84623 40.2941 5.85169 40.1896C5.85714 40.0852 5.86388 39.9807 5.87191 39.8764C6.01091 38.2339 6.48323 36.6794 7.0029 35.1227C8.57695 30.4077 10.8998 25.8388 14.2127 22.1016C14.9778 21.2388 15.821 20.3827 16.7079 19.6449C17.1932 19.2412 17.7211 18.8847 18.1998 18.4768L18.2255 18.4546C17.6489 17.6344 17.3952 16.7667 17.5527 15.7651C17.6992 14.8338 18.2258 14.0283 18.9854 13.4817C18.6699 12.9886 18.2735 12.5407 17.9503 12.0479C17.0987 10.7491 15.8444 8.23034 15.7535 6.69339C15.6874 5.57663 16.0461 4.49441 16.7991 3.66032C17.536 2.84405 18.5999 2.39246 19.6885 2.33613ZM35.5332 51.3307C36.4186 51.3316 37.3189 51.3654 38.2013 51.2907C38.3541 51.2788 38.5066 51.2635 38.6587 51.2448C38.8109 51.2262 38.9626 51.2041 39.1137 51.1785C39.2649 51.1531 39.4154 51.1243 39.5652 51.092C39.7151 51.0598 39.8641 51.0243 40.0123 50.9854C40.1606 50.9465 40.308 50.9044 40.4543 50.859C40.6007 50.8135 40.7461 50.7647 40.8903 50.7127C41.0344 50.6608 41.1774 50.6056 41.3191 50.5472C41.4609 50.4889 41.6013 50.4274 41.7402 50.3627C41.8792 50.2981 42.0167 50.2304 42.1527 50.1596C42.2886 50.0888 42.4229 50.015 42.5555 49.9382C42.6882 49.8614 42.8191 49.7816 42.9482 49.699C43.0772 49.6163 43.2044 49.5309 43.3297 49.4425C43.4549 49.3542 43.5782 49.2631 43.6994 49.1692C43.8206 49.0754 43.9396 48.9788 44.0565 48.8796C44.1734 48.7804 44.2879 48.6787 44.4002 48.5744C44.5125 48.4701 44.6225 48.3633 44.73 48.2541C44.791 48.1939 44.8512 48.1329 44.9107 48.0711C44.9701 48.0093 45.0288 47.9469 45.0867 47.8837C45.1446 47.8205 45.2018 47.7566 45.2582 47.6921C45.3145 47.6275 45.3701 47.5622 45.4248 47.4962C45.4795 47.4303 45.5334 47.3637 45.5865 47.2964C45.6397 47.2291 45.692 47.1612 45.7434 47.0926C45.7948 47.024 45.8453 46.9548 45.8951 46.885C45.9448 46.8152 45.9937 46.7447 46.0416 46.6737C46.0896 46.6027 46.1367 46.5311 46.1829 46.4589C46.2292 46.3867 46.2745 46.314 46.3189 46.2407C46.3634 46.1674 46.4069 46.0935 46.4495 46.0191C46.4921 45.9447 46.5337 45.8699 46.5745 45.7945C46.6153 45.7191 46.6552 45.6432 46.6941 45.5668C46.7329 45.4904 46.7709 45.4136 46.8079 45.3363C46.8449 45.259 46.8809 45.1812 46.916 45.103C46.9511 45.0247 46.9852 44.9461 47.0183 44.8671C47.0515 44.788 47.0837 44.7086 47.1149 44.6287C47.1461 44.5489 47.1762 44.4687 47.2055 44.3881C47.2347 44.3075 47.2629 44.2266 47.2901 44.1453C47.3173 44.0641 47.3436 43.9825 47.3688 43.9005C47.394 43.8186 47.4182 43.7364 47.4414 43.6539C47.4646 43.5713 47.4868 43.4885 47.5079 43.4055C47.5291 43.3224 47.5492 43.2391 47.5683 43.1556C47.5873 43.072 47.6054 42.9882 47.6224 42.9042C47.6394 42.8202 47.6554 42.736 47.6703 42.6516C47.6853 42.5672 47.6992 42.4826 47.7121 42.3978C47.7249 42.3131 47.7368 42.2282 47.7476 42.1432C47.7583 42.0582 47.7681 41.973 47.7768 41.8877C47.7854 41.8024 47.7931 41.7171 47.7996 41.6316C47.8062 41.5462 47.8117 41.4607 47.8162 41.3751C47.8207 41.2894 47.8241 41.2038 47.8264 41.1181C47.8288 41.0325 47.8301 40.9467 47.8303 40.861C47.8302 39.0843 47.3097 37.4331 46.749 35.7649C45.1303 30.9496 42.674 26.199 39.0472 22.5846C38.6283 22.1703 38.1934 21.7735 37.7426 21.3942C37.2917 21.015 36.8264 20.6544 36.3465 20.3125C36.1284 20.1584 35.8916 19.9697 35.6421 19.8714C35.5287 19.8266 35.4075 19.8245 35.2872 19.8252L25.5457 19.8493L22.6114 19.8495C21.9038 19.8498 21.1914 19.8701 20.4859 19.8045C20.0915 19.9168 19.3809 20.4977 19.0385 20.7607C16.098 23.0195 13.8735 25.9876 12.0804 29.2068C10.7379 31.6169 9.68335 34.2416 8.88626 36.8805C8.61234 37.7873 8.34545 38.684 8.23865 39.6288C8.21854 39.7986 8.20263 39.9688 8.19093 40.1393C8.17924 40.3099 8.17177 40.4807 8.16853 40.6516C8.16529 40.8226 8.16628 40.9935 8.1715 41.1644C8.17672 41.3353 8.18616 41.506 8.19984 41.6764C8.2135 41.8469 8.23138 42.0169 8.25346 42.1864C8.27555 42.3559 8.30181 42.5248 8.33226 42.6931C8.36271 42.8613 8.3973 43.0287 8.43603 43.1953C8.47477 43.3618 8.51759 43.5273 8.56451 43.6917C8.58844 43.7748 8.61337 43.8577 8.63932 43.9403C8.66526 44.0229 8.69221 44.1051 8.72017 44.187C8.74812 44.2689 8.77707 44.3504 8.80702 44.4315C8.83697 44.5128 8.8679 44.5936 8.89981 44.674C8.93174 44.7544 8.96463 44.8345 8.9985 44.9141C9.03238 44.9937 9.06722 45.0729 9.10303 45.1517C9.13884 45.2305 9.17561 45.3088 9.21333 45.3867C9.25105 45.4646 9.28971 45.542 9.32933 45.6189C9.36895 45.6958 9.40949 45.7723 9.45097 45.8482C9.49245 45.9241 9.53485 45.9996 9.57817 46.0745C9.62149 46.1493 9.66572 46.2237 9.71086 46.2976C9.756 46.3714 9.80203 46.4447 9.84896 46.5174C9.89589 46.5901 9.9437 46.6622 9.99238 46.7338C10.0411 46.8053 10.0906 46.8762 10.141 46.9465C10.1915 47.0169 10.2427 47.0866 10.2949 47.1556C10.347 47.2247 10.4 47.2931 10.4537 47.3609C10.5075 47.4287 10.5622 47.4957 10.6176 47.5622C10.673 47.6287 10.7293 47.6944 10.7863 47.7595C10.8433 47.8245 10.9012 47.8889 10.9598 47.9526C11.0184 48.0163 11.0778 48.0792 11.1379 48.1414C11.198 48.2036 11.259 48.2651 11.3206 48.3258C11.3823 48.3865 11.4446 48.4464 11.5078 48.5056C11.5709 48.5649 11.6347 48.6233 11.6993 48.681C11.7638 48.7386 11.8291 48.7954 11.895 48.8515C11.9609 48.9075 12.0275 48.9627 12.0948 49.0172C12.1621 49.0716 12.23 49.1251 12.2986 49.1779C12.3672 49.2307 12.4364 49.2826 12.5063 49.3336C12.5761 49.3847 12.6466 49.4349 12.7177 49.4842C12.7888 49.5336 12.8605 49.5821 12.9327 49.6297C13.005 49.6773 13.0778 49.724 13.1513 49.7698C13.2246 49.8156 13.2985 49.8605 13.3731 49.9045C13.4476 49.9486 13.5226 49.9917 13.5982 50.0338C13.8677 50.1824 14.1432 50.3188 14.4248 50.4428C14.7065 50.5669 14.9931 50.6782 15.2847 50.7766C15.5762 50.8751 15.8716 50.9604 16.1708 51.0325C16.4699 51.1047 16.7717 51.1634 17.0762 51.2086C18.0922 51.3564 19.1091 51.3316 20.1326 51.3315L23.5743 51.331L35.5332 51.3307ZM21.5525 12.8084C22.2468 12.8805 22.9842 12.8322 23.6838 12.8321L27.6943 12.8306L32.1248 12.8311C32.8885 12.8311 33.6879 12.8778 34.4481 12.8153C35.1727 12.0447 35.8178 11.2545 36.3683 10.3489C36.4779 10.1686 36.6163 9.96332 36.693 9.76834C37.1183 8.97486 37.8 7.49773 37.8996 6.626C37.9072 6.56444 37.9115 6.50266 37.9126 6.44065C37.9136 6.37864 37.9114 6.31675 37.9061 6.25496C37.9007 6.19318 37.8921 6.13185 37.8803 6.07096C37.8685 6.01008 37.8536 5.94997 37.8356 5.89064C37.6963 5.44076 37.3786 5.08867 36.9648 4.87098C36.5669 4.66161 36.0561 4.63839 35.6286 4.76889C35.145 4.91647 34.8126 5.30972 34.4108 5.59211C34.3731 5.61838 34.335 5.64401 34.2964 5.669C34.2578 5.69398 34.2188 5.7183 34.1794 5.74197C34.14 5.76564 34.1002 5.78864 34.06 5.81097C34.0199 5.83329 33.9793 5.85494 33.9384 5.87589C33.8975 5.89685 33.8562 5.91711 33.8146 5.93667C33.773 5.95624 33.7311 5.97509 33.6889 5.99323C33.6467 6.01138 33.6042 6.02881 33.5613 6.04552C33.5185 6.06224 33.4754 6.07822 33.4321 6.09347C33.3887 6.10873 33.3451 6.12326 33.3013 6.13704C33.2574 6.15082 33.2133 6.16386 33.1691 6.17616C33.1248 6.18845 33.0803 6.2 33.0356 6.21079C32.9909 6.22159 32.9461 6.23162 32.9011 6.2409C32.856 6.25018 32.8109 6.2587 32.7656 6.26645C32.7203 6.27421 32.6749 6.2812 32.6293 6.28742C32.5838 6.29364 32.5382 6.29908 32.4924 6.30376C32.4466 6.30844 32.4009 6.31235 32.355 6.31548C32.3092 6.31861 32.2633 6.32097 32.2174 6.32256C32.1715 6.32414 32.1255 6.32495 32.0795 6.32498C32.0335 6.32501 31.9876 6.32426 31.9417 6.32274C31.8957 6.32122 31.8498 6.31892 31.804 6.31585C31.7581 6.31278 31.7123 6.30894 31.6666 6.30433C31.6209 6.29971 31.5752 6.29432 31.5296 6.28816C31.4841 6.282 31.4386 6.27508 31.3934 6.26739C31.348 6.2597 31.3028 6.25124 31.2578 6.24201C31.2128 6.2328 31.1679 6.22282 31.1232 6.21209C31.0785 6.20136 31.034 6.18987 30.9898 6.17764C30.9454 6.1654 30.9013 6.15242 30.8574 6.1387C30.8136 6.12498 30.77 6.11052 30.7266 6.09532C30.6832 6.08012 30.6401 6.06419 30.5973 6.04754C30.5545 6.03089 30.5119 6.01352 30.4696 5.99543C30.4274 5.97734 30.3854 5.95854 30.3438 5.93903C30.3022 5.91952 30.2609 5.89932 30.22 5.87842C29.2054 5.36249 28.756 4.36775 27.4349 4.78214C26.9523 4.93348 26.6236 5.33259 26.218 5.61116C26.1803 5.63697 26.1421 5.66213 26.1035 5.68666C26.065 5.71119 26.0261 5.73507 25.9867 5.75828C25.9474 5.78151 25.9076 5.80406 25.8675 5.82594C25.8274 5.84783 25.7869 5.86904 25.7461 5.88956C25.7054 5.91009 25.6642 5.92993 25.6227 5.94908C25.5812 5.96822 25.5394 5.98667 25.4973 6.00441C25.4552 6.02215 25.4128 6.03918 25.3702 6.05551C25.3275 6.07183 25.2845 6.08742 25.2413 6.1023C25.1982 6.11717 25.1548 6.13132 25.1111 6.14475C25.0674 6.15816 25.0235 6.17085 24.9794 6.1828C24.9353 6.19474 24.891 6.20594 24.8465 6.2164C24.802 6.22686 24.7574 6.23658 24.7126 6.24554C24.6678 6.25449 24.6228 6.26269 24.5778 6.27015C24.5327 6.2776 24.4875 6.28429 24.4423 6.29023C24.3969 6.29616 24.3515 6.30134 24.3061 6.30575C24.2606 6.31016 24.215 6.3138 24.1695 6.31669C24.1238 6.31957 24.0782 6.32168 24.0325 6.32303C23.9869 6.32438 23.9412 6.32496 23.8955 6.32478C23.8498 6.32459 23.8041 6.32364 23.7584 6.32192C23.7128 6.3202 23.6672 6.31772 23.6216 6.31448C23.576 6.31122 23.5305 6.30721 23.4851 6.30243C23.4397 6.29766 23.3943 6.29212 23.3491 6.28582C23.3038 6.27952 23.2586 6.27246 23.2136 6.26464C23.1687 6.25683 23.1238 6.24826 23.079 6.23894C23.0343 6.22962 22.9898 6.21955 22.9453 6.20873C22.9009 6.19791 22.8568 6.18635 22.8128 6.17405C22.7687 6.16175 22.725 6.14871 22.6814 6.13495C22.6378 6.12117 22.5945 6.10667 22.5515 6.09145C22.5084 6.07622 22.4656 6.06028 22.423 6.04361C22.3805 6.02695 22.3382 6.00957 22.2963 5.99149C22.2543 5.97341 22.2126 5.95463 22.1713 5.93515C22.13 5.91567 22.0891 5.8955 22.0484 5.87465C20.909 5.29326 20.9451 4.60521 19.4544 4.71232C18.9672 4.83616 18.5849 5.08476 18.3257 5.52273C18.0614 5.96934 18.023 6.45102 18.1551 6.94621C18.6393 8.76261 19.591 10.5303 20.7848 11.9766C21.0206 12.2624 21.2707 12.567 21.5525 12.8084ZM34.8058 17.4983C35.2086 17.4848 35.5625 17.4192 35.8519 17.1089C36.0725 16.8725 36.1689 16.5754 36.1508 16.2541C36.1486 16.2155 36.1444 16.177 36.1382 16.1387C36.132 16.1005 36.124 16.0627 36.1141 16.0253C36.1041 15.9878 36.0923 15.951 36.0787 15.9147C36.065 15.8785 36.0496 15.843 36.0325 15.8083C36.0153 15.7736 35.9964 15.7398 35.9757 15.707C35.9552 15.6742 35.933 15.6425 35.9092 15.612C35.8855 15.5814 35.8602 15.552 35.8336 15.524C35.8069 15.496 35.7788 15.4693 35.7494 15.4441C35.5417 15.2678 35.3313 15.2216 35.0685 15.1981C34.4293 15.1409 33.7559 15.182 33.1125 15.182L29.3723 15.1819L24.0354 15.1825C23.1237 15.1826 22.1982 15.1491 21.2881 15.1883C20.8504 15.1949 20.4536 15.2071 20.1315 15.5549C19.9195 15.7838 19.8247 16.1135 19.8423 16.4217C19.8594 16.7203 20.0111 17.0088 20.2342 17.2052C20.4537 17.3987 20.6691 17.4528 20.95 17.4814C21.4733 17.5347 22.0293 17.4994 22.5561 17.4994L25.5107 17.4991L34.8058 17.4983Z" fill="#915DC2"/>
<path d="M27.812 25.6874C27.8566 25.6822 27.9006 25.6772 27.9455 25.6762C28.2619 25.6696 28.5795 25.7669 28.8079 25.9922C29.3222 26.4995 29.17 27.7039 29.1646 28.3872C30.1982 28.6391 31.1596 29.0172 32.0232 29.6501C32.3525 29.8915 32.5952 30.1527 32.6508 30.5783C32.6911 30.8854 32.595 31.2151 32.3997 31.4555C32.2612 31.6259 32.068 31.7557 31.8615 31.8281C31.0833 32.1009 30.4833 31.3589 29.8403 31.0469C29.1789 30.726 28.4597 30.5779 27.7268 30.6712C27.0348 30.7593 26.3559 31.0491 25.9286 31.624C25.7237 31.8999 25.63 32.2588 25.6929 32.5983C25.7559 32.9383 25.974 33.2126 26.2383 33.4233C26.7096 33.7991 27.2952 34.0263 27.8471 34.2561C28.8572 34.6768 29.9529 35.0504 30.8666 35.6596C31.7432 36.244 32.3911 37.0388 32.5927 38.0898C32.9205 39.7983 31.9722 41.3578 30.5023 42.1915C30.3183 42.2959 30.1243 42.4003 29.9253 42.4736C29.7159 42.5507 29.4891 42.6044 29.2873 42.699C29.2572 42.7131 29.2223 42.7351 29.2066 42.7661C29.1526 42.874 29.1668 43.046 29.167 43.1651C29.168 43.7392 29.2799 44.5346 28.9324 45.0223C28.7331 45.3021 28.4503 45.4401 28.1199 45.4965C28.078 45.4975 28.0362 45.4979 27.9943 45.4976C27.6789 45.4949 27.3779 45.3781 27.1592 45.1469C26.6793 44.6396 26.8285 43.4434 26.8345 42.7818C26.2598 42.7045 25.6564 42.4667 25.137 42.2159C24.5866 41.9501 23.5911 41.42 23.3932 40.8198C23.381 40.7823 23.3708 40.7442 23.3625 40.7057C23.3541 40.6671 23.3476 40.6282 23.3431 40.589C23.3387 40.5497 23.3362 40.5104 23.3356 40.4709C23.335 40.4314 23.3364 40.392 23.3397 40.3527C23.3431 40.3133 23.3484 40.2743 23.3557 40.2355C23.3629 40.1967 23.3721 40.1583 23.3832 40.1204C23.3942 40.0825 23.4072 40.0452 23.422 40.0086C23.4367 39.972 23.4533 39.9362 23.4716 39.9013C23.6158 39.6241 23.8622 39.4153 24.1653 39.3337C24.8999 39.1359 25.3712 39.6853 25.9469 40.0113C26.7878 40.4875 27.8124 40.679 28.7519 40.4082C29.3024 40.2495 29.912 39.8671 30.1839 39.3466C30.3291 39.0685 30.3683 38.7242 30.2735 38.4241C30.1788 38.1247 29.9683 37.8921 29.723 37.7058C29.2688 37.3612 28.7186 37.1502 28.1962 36.9319C27.35 36.5784 26.4603 36.2634 25.6549 35.8247C24.669 35.2874 23.7965 34.5124 23.479 33.4006C23.4623 33.3438 23.4472 33.2866 23.4335 33.2291C23.4197 33.1715 23.4074 33.1136 23.3965 33.0555C23.3856 32.9973 23.3762 32.9389 23.3683 32.8803C23.3603 32.8217 23.3537 32.7629 23.3487 32.7039C23.3437 32.6449 23.3401 32.5858 23.338 32.5267C23.3359 32.4676 23.3353 32.4084 23.3361 32.3493C23.337 32.2901 23.3393 32.231 23.3431 32.1719C23.3469 32.1128 23.3522 32.0539 23.3589 31.9951C23.3656 31.9364 23.3738 31.8778 23.3835 31.8194C23.3931 31.761 23.4042 31.7029 23.4167 31.645C23.4293 31.5872 23.4432 31.5298 23.4586 31.4727C23.474 31.4155 23.4908 31.3588 23.509 31.3025C23.5273 31.2462 23.5469 31.1904 23.5679 31.135C23.5889 31.0797 23.6112 31.0249 23.6349 30.9707C23.6586 30.9165 23.6837 30.8629 23.7101 30.81C23.7365 30.7569 23.7642 30.7047 23.7932 30.6531C24.4761 29.4281 25.5207 28.8348 26.8255 28.457C26.8328 27.8262 26.7029 26.6615 27.0597 26.1461C27.2441 25.8797 27.5001 25.7484 27.812 25.6874Z" fill="#915DC2"/>
</svg>
