<svg width="64" height="64" viewBox="0 0 64 64" fill="none" xmlns="http://www.w3.org/2000/svg">
<path d="M8.69725 20.0128C9.78557 19.9557 10.8926 19.9979 11.9835 19.9981L53.2544 19.9972C54.0028 19.9969 54.7764 19.9576 55.5205 20.0356C55.6427 20.0478 55.7642 20.0646 55.885 20.0859C56.0059 20.1072 56.1258 20.1329 56.2448 20.1632C56.3638 20.1935 56.4814 20.2281 56.5978 20.2672C56.7142 20.3062 56.8289 20.3496 56.942 20.3972C57.0552 20.4449 57.1664 20.4966 57.2756 20.5526C57.3849 20.6085 57.4919 20.6685 57.5966 20.7324C57.7014 20.7964 57.8036 20.8642 57.9034 20.9357C58.0031 21.0073 58.0999 21.0825 58.194 21.1614C58.2573 21.2137 58.3192 21.2676 58.3798 21.323C58.4403 21.3784 58.4995 21.4353 58.5573 21.4937C58.615 21.5521 58.6713 21.6118 58.726 21.6729C58.7809 21.7341 58.8341 21.7966 58.8858 21.8604C58.9374 21.9242 58.9875 21.9892 59.0359 22.0555C59.0844 22.1218 59.1312 22.1892 59.1763 22.2579C59.2213 22.3265 59.2647 22.3962 59.3064 22.4669C59.348 22.5377 59.3878 22.6094 59.4259 22.6822C59.464 22.7549 59.5002 22.8286 59.5345 22.9032C59.5689 22.9777 59.6015 23.053 59.6321 23.1292C59.6628 23.2053 59.6916 23.2822 59.7184 23.3598C59.7452 23.4374 59.7701 23.5157 59.7931 23.5944C59.8161 23.6732 59.837 23.7526 59.856 23.8325C59.875 23.9124 59.8921 23.9927 59.9071 24.0734C59.9221 24.1542 59.9351 24.2352 59.9461 24.3165C59.9571 24.3979 59.9661 24.4794 59.973 24.5613C60.0404 25.3 60.0031 26.0643 60.0023 26.8068L60.0035 55.5873C60.0038 56.2709 60.0329 56.9685 59.9478 57.6478C59.9329 57.7652 59.9139 57.8819 59.8906 57.998C59.8674 58.1141 59.8399 58.2292 59.8083 58.3433C59.7767 58.4574 59.741 58.5702 59.7011 58.6817C59.6614 58.7932 59.6176 58.9031 59.5699 59.0114C59.5221 59.1197 59.4705 59.2262 59.415 59.3308C59.3596 59.4354 59.3004 59.5378 59.2375 59.638C59.1746 59.7384 59.1081 59.8362 59.0381 59.9317C58.9682 60.0272 58.8949 60.12 58.8181 60.2102C57.9263 61.2659 56.7068 61.8729 55.3374 61.9939C54.1295 62.0404 52.9128 62.0132 51.7041 62.0133L10.7746 62.0153C10.0087 62.0155 9.22201 62.0484 8.45948 61.9685C8.33979 61.9561 8.22073 61.9393 8.10229 61.9182C7.98385 61.897 7.86634 61.8715 7.74976 61.8417C7.6332 61.8118 7.51789 61.7777 7.40383 61.7394C7.28977 61.7011 7.17727 61.6586 7.06634 61.612C6.95541 61.5654 6.84635 61.5147 6.73914 61.4602C6.63193 61.4055 6.52688 61.347 6.42398 61.2847C6.32108 61.2223 6.22061 61.1562 6.12258 61.0864C6.02454 61.0167 5.92919 60.9434 5.83655 60.8667C4.81106 60.016 4.15065 58.8205 4.02946 57.4895C3.96365 56.7669 3.99985 56.0207 4.0008 55.2945L4.00011 26.3465C4.00021 25.6814 3.97016 24.9953 4.05204 24.3344C4.06721 24.216 4.08665 24.0983 4.11038 23.9814C4.13409 23.8644 4.16202 23.7484 4.19416 23.6334C4.22631 23.5185 4.26257 23.4049 4.30296 23.2925C4.34336 23.1802 4.38777 23.0695 4.4362 22.9604C4.48464 22.8513 4.53696 22.7442 4.59319 22.6389C4.64941 22.5336 4.70937 22.4304 4.77308 22.3295C4.83679 22.2286 4.90408 22.1301 4.97494 22.034C5.04581 21.938 5.12006 21.8447 5.1977 21.754C6.10109 20.6892 7.31895 20.1307 8.69725 20.0128ZM6.00338 29.9979L6.00225 54.6083C6.0015 55.4105 5.93306 56.6904 6.03558 57.4405C6.12044 58.0617 6.43303 58.6732 6.87628 59.1144C7.35609 59.5922 7.9551 59.8788 8.62485 59.9605C9.14424 60.0239 9.67957 60.0015 10.2022 60.0009L12.5494 59.9982L52.5141 59.9974C53.4045 59.9977 54.888 60.0905 55.698 59.9045C55.7657 59.8886 55.8327 59.8703 55.8991 59.8497C55.9656 59.829 56.0312 59.8059 56.096 59.7805C56.1608 59.7552 56.2246 59.7276 56.2874 59.6978C56.3501 59.6679 56.4118 59.6358 56.4724 59.6015C56.5329 59.5673 56.5921 59.5309 56.65 59.4924C56.708 59.4539 56.7645 59.4134 56.8195 59.3709C56.8746 59.3284 56.9281 59.284 56.98 59.2378C57.0319 59.1914 57.0821 59.1434 57.1306 59.0935C57.1854 59.0388 57.2379 58.9819 57.2881 58.9229C57.3383 58.864 57.3861 58.8031 57.4315 58.7403C57.4768 58.6775 57.5196 58.613 57.5598 58.5468C57.5999 58.4806 57.6374 58.4129 57.6721 58.3437C57.7069 58.2744 57.7389 58.2039 57.768 58.1322C57.7971 58.0604 57.8233 57.9876 57.8466 57.9138C57.8699 57.8399 57.8902 57.7652 57.9075 57.6897C57.9248 57.6142 57.9391 57.5382 57.9504 57.4615C58.0754 56.5945 58.0026 55.6074 58.0025 54.7257L58.0006 36.7603C58.0006 34.5167 57.9616 32.2649 58.007 30.0222L43.4964 30.0125L39.6835 30.0149C38.8248 30.0153 37.9068 30.078 37.0596 29.925C36.303 29.7883 35.5684 29.3807 35.0303 28.8353C34.2715 28.0662 33.6209 26.4885 33.1199 25.4847L31.3939 22.0302C30.1166 21.963 28.8136 22.0123 27.534 22.0129L20.6435 22.012L18.2576 22.0162C17.8509 22.0175 17.4124 22.0582 17.0109 21.998C16.9769 22.9312 17.0023 23.8713 17.0034 24.8052C17.0053 26.4463 17.013 27.716 15.7176 28.922C15.2119 29.3929 14.5699 29.7499 13.8944 29.9034C13.2731 30.0447 12.6099 30.0139 11.9765 30.014L10.009 30.0129C8.75965 30.012 7.49775 30.0548 6.24996 30.0204C6.16736 30.0174 6.08516 30.0099 6.00338 29.9979ZM57.9953 27.9948L58.0029 26.1079C58.0068 24.904 58.0364 23.8225 57.1334 22.9027C56.4046 22.1602 55.5673 22.0144 54.5648 22.0112L35.9225 22.0132C35.168 22.0132 34.4044 22.0393 33.6511 22.0087C33.7196 22.2614 33.8784 22.518 33.9953 22.7539L34.7271 24.221L35.6526 26.07C35.823 26.4099 35.98 26.7755 36.1886 27.0935C36.3535 27.3448 36.5701 27.5647 36.8314 27.7153C37.1124 27.8774 37.4229 27.9609 37.7451 27.984C38.5754 28.0437 39.4349 28.0004 40.2676 27.9997L53.4236 27.9995C54.947 27.9997 56.4721 28.0157 57.9953 27.9948ZM6.00106 27.9937L11.9219 27.9989C12.8313 28.0027 13.6855 28.0974 14.387 27.408C15.0094 26.7964 15.003 26.0997 15.0034 25.2867C15.0038 24.2 14.9789 23.109 15.0068 22.023C13.0382 22.0094 11.0696 22.0066 9.10103 22.0144C8.18265 22.064 7.40416 22.2864 6.76995 22.9917C5.9589 23.8934 5.9988 24.9247 6.00024 26.0615L6.00106 27.9937Z" fill="#915DC2"/>
<path d="M49.5911 33.0747C50.4564 33.0282 51.3819 33.2918 52.123 33.7312C52.1894 33.7701 52.2548 33.8106 52.3191 33.8528C52.3835 33.8949 52.4468 33.9387 52.509 33.9839C52.5712 34.0292 52.6322 34.0761 52.692 34.1244C52.7519 34.1727 52.8106 34.2225 52.868 34.2738C52.9253 34.325 52.9814 34.3777 53.0363 34.4317C53.091 34.4857 53.1444 34.5411 53.1964 34.5978C53.2485 34.6544 53.2991 34.7124 53.3483 34.7715C53.3974 34.8308 53.4451 34.8912 53.4913 34.9527C53.5373 35.0142 53.5819 35.0769 53.625 35.1407C53.6681 35.2045 53.7096 35.2693 53.7494 35.3352C53.7891 35.401 53.8273 35.4678 53.8639 35.5355C53.9004 35.6032 53.9352 35.6718 53.9683 35.7413C54.0013 35.8107 54.0327 35.8809 54.0624 35.9519C54.092 36.023 54.1198 36.0947 54.1459 36.167C54.172 36.2394 54.1962 36.3124 54.2186 36.386C54.2411 36.4597 54.2616 36.5338 54.2804 36.6084C54.2996 36.6844 54.317 36.7608 54.3324 36.8377C54.3479 36.9145 54.3614 36.9917 54.373 37.0692C54.3846 37.1467 54.3942 37.2244 54.4019 37.3024C54.4096 37.3804 54.4153 37.4586 54.419 37.5369C54.4228 37.6152 54.4246 37.6934 54.4245 37.7718C54.4243 37.8502 54.4222 37.9285 54.4181 38.0068C54.4141 38.085 54.408 38.1632 54.4 38.2412C54.392 38.3192 54.3821 38.3969 54.3701 38.4743C54.3583 38.5518 54.3445 38.6289 54.3288 38.7057C54.313 38.7825 54.2953 38.8588 54.2758 38.9347C54.2562 39.0106 54.2347 39.0859 54.2114 39.1608C54.1881 39.2356 54.1628 39.3098 54.1358 39.3833C54.1088 39.4569 54.0799 39.5297 54.0491 39.6018C54.0185 39.6739 53.986 39.7452 53.9516 39.8157C53.9174 39.8862 53.8814 39.9557 53.8436 40.0244C53.8059 40.0932 53.7664 40.1609 53.7253 40.2275C53.5593 40.5003 53.3667 40.7526 53.1473 40.9845C52.1093 42.0962 50.9899 43.1489 49.9136 44.225L40.6489 53.4902C40.0838 54.0575 39.446 54.8122 38.7916 55.2482C38.0621 55.7343 35.9133 56.1535 34.959 56.3868C34.4061 56.5629 33.3399 56.8385 32.7713 56.9058C32.708 56.9134 32.6446 56.9178 32.581 56.919C32.5173 56.9203 32.4538 56.9184 32.3903 56.9133C32.3268 56.9083 32.2638 56.9001 32.2011 56.8888C32.1385 56.8774 32.0766 56.863 32.0154 56.8455C31.9541 56.828 31.8939 56.8076 31.8348 56.7842C31.7756 56.7607 31.7177 56.7343 31.6611 56.7052C31.6046 56.6759 31.5496 56.6439 31.4963 56.6093C31.4428 56.5746 31.3913 56.5374 31.3416 56.4975C31.2924 56.459 31.2452 56.4182 31.2 56.3749C31.1549 56.3317 31.1121 56.2864 31.0715 56.2388C31.0309 56.1913 30.9928 56.1418 30.9573 56.0904C30.9217 56.0391 30.8888 55.986 30.8585 55.9313C30.8283 55.8766 30.8008 55.8206 30.7761 55.7632C30.7516 55.7057 30.7299 55.6471 30.7111 55.5875C30.6925 55.5279 30.6768 55.4674 30.6641 55.4063C30.6515 55.345 30.6419 55.2833 30.6355 55.2212C30.6116 54.9829 30.64 54.747 30.6826 54.5124C30.8334 53.6817 31.0938 52.8524 31.297 52.0309C31.5139 51.1549 31.6824 50.2149 31.983 49.3657C32.0915 49.059 32.2399 48.7644 32.4469 48.5125C32.7791 48.1082 33.1628 47.7454 33.5321 47.3757L44.597 36.312C45.3398 35.5695 46.2913 34.5049 47.1074 33.903C47.8235 33.3748 48.7215 33.1548 49.5911 33.0747ZM34.7875 48.9679C34.9591 49.2057 35.1953 49.4085 35.4029 49.6155L37.7731 51.9837C38.0261 52.236 38.2855 52.5405 38.5793 52.7434C39.0558 52.2125 39.5779 51.7162 40.0821 51.2118L49.7416 41.561C48.9086 40.7129 48.0704 39.8699 47.2271 39.0319C46.8638 38.6684 46.3604 38.0712 45.95 37.8073C43.9078 39.8977 41.8168 41.9442 39.7505 44.0112C38.0988 45.6635 36.4719 47.3497 34.7875 48.9679ZM47.3908 36.3643C48.5253 37.5388 49.696 38.6852 50.856 39.8348C50.967 39.9372 51.0753 40.0465 51.1998 40.1323C51.9144 39.3219 52.5368 38.6724 52.4573 37.51C52.411 36.832 52.0771 36.2084 51.5631 35.7678C50.9056 35.2042 50.1646 35.0555 49.3208 35.1322C49.3123 35.133 49.3038 35.134 49.2951 35.135C48.4624 35.3245 47.9386 35.7199 47.3908 36.3643ZM35.1328 54.269L36.8206 53.8482C36.3791 53.4422 33.904 50.8488 33.6668 50.7638C33.5025 51.5368 33.2939 52.3035 33.1028 53.0704C32.953 53.6715 32.8236 54.2882 32.6393 54.8795C33.4724 54.6987 34.3104 54.4939 35.1328 54.269Z" fill="#915DC2"/>
<path d="M10.3651 40.7943C11.2015 40.7109 12.1839 40.7719 13.0328 40.7724L26.159 40.7733C27.3736 40.7749 28.606 40.7244 29.8184 40.7732C30.0531 40.7827 30.2879 40.8225 30.4958 40.9377C30.7089 41.0558 30.871 41.2472 30.9321 41.4849C31.0031 41.7604 30.962 42.0864 30.8041 42.3254C30.6475 42.5627 30.4228 42.6929 30.1506 42.7549C29.3759 42.8474 28.4484 42.7838 27.6536 42.7834L12.1179 42.7819C11.6561 42.7827 11.1915 42.8005 10.7301 42.7833C10.4718 42.7737 10.2121 42.7335 9.98521 42.6018C9.77628 42.4803 9.61304 42.2989 9.55813 42.0594C9.49496 41.7839 9.56541 41.4364 9.71875 41.2009C9.87411 40.9623 10.0948 40.8537 10.3651 40.7943Z" fill="#915DC2"/>
<path d="M23.524 34.5722C24.4313 34.5297 25.3558 34.5664 26.265 34.5664L36.0409 34.57C36.8305 34.5687 37.6443 34.5204 38.4306 34.5682C38.6689 34.5825 38.906 34.6325 39.1103 34.7617C39.3238 34.8967 39.466 35.0985 39.5159 35.3463C39.57 35.6155 39.5343 35.8907 39.378 36.1199C39.1831 36.406 38.9346 36.5258 38.6026 36.5874C37.6583 36.6402 36.6916 36.6012 35.7449 36.601L25.8493 36.6004C25.1383 36.6005 24.3989 36.6512 23.6924 36.6059C23.4436 36.5899 23.2003 36.5339 22.9878 36.3985C22.762 36.2547 22.5899 36.035 22.5403 35.7688C22.4901 35.4997 22.5664 35.2137 22.7285 34.995C22.9405 34.7092 23.1888 34.6212 23.524 34.5722Z" fill="#915DC2"/>
<path d="M10.642 53.1713L22.0049 53.1677C22.5053 53.1673 23.027 53.1394 23.5251 53.1875C23.7578 53.2099 23.9744 53.2584 24.158 53.4122C24.1831 53.4336 24.2071 53.4562 24.23 53.48C24.2528 53.5038 24.2745 53.5287 24.2949 53.5547C24.3152 53.5806 24.3343 53.6075 24.352 53.6353C24.3698 53.6631 24.3861 53.6918 24.4009 53.7213C24.4158 53.7507 24.4292 53.7808 24.4411 53.8115C24.453 53.8424 24.4633 53.8737 24.4721 53.9055C24.4809 53.9373 24.4881 53.9694 24.4936 54.002C24.4992 54.0345 24.5032 54.0672 24.5055 54.1002C24.5084 54.134 24.5096 54.1679 24.5089 54.2018C24.5082 54.2357 24.5058 54.2695 24.5016 54.3032C24.4976 54.3368 24.4917 54.3702 24.484 54.4033C24.4764 54.4364 24.4671 54.469 24.4561 54.501C24.4451 54.5331 24.4325 54.5646 24.4183 54.5954C24.404 54.6262 24.3882 54.6561 24.3709 54.6853C24.3536 54.7145 24.3347 54.7426 24.3144 54.7698C24.2941 54.797 24.2725 54.8231 24.2495 54.848C24.01 55.1132 23.6998 55.182 23.3581 55.198C22.4229 55.2163 21.4846 55.2003 20.5489 55.2004L12.3117 55.2015C11.7547 55.2045 11.1742 55.2398 10.6193 55.1934C10.3564 55.1714 10.0924 55.1007 9.88123 54.9363C9.68255 54.7815 9.5647 54.5644 9.53994 54.3142C9.53647 54.2783 9.53485 54.2424 9.53508 54.2063C9.53531 54.1703 9.53739 54.1344 9.5413 54.0985C9.54522 54.0627 9.55096 54.0272 9.55853 53.9919C9.5661 53.9567 9.57546 53.9219 9.58659 53.8877C9.59772 53.8534 9.61058 53.8198 9.62518 53.7868C9.63977 53.7539 9.65601 53.7217 9.6739 53.6904C9.69178 53.6592 9.71123 53.6289 9.73223 53.5995C9.75323 53.5703 9.77567 53.5422 9.79956 53.5152C10.0377 53.2465 10.3021 53.1917 10.642 53.1713Z" fill="#915DC2"/>
<path d="M10.5316 34.5727C11.1194 34.5474 11.7143 34.5658 12.3028 34.566L15.423 34.5692L17.3534 34.5642C17.7259 34.5623 18.111 34.5418 18.4821 34.5743C18.6834 34.592 18.8808 34.6327 19.0533 34.7422C19.2874 34.8908 19.4478 35.1142 19.4968 35.3885C19.5027 35.4221 19.5069 35.4559 19.5094 35.4898C19.5119 35.5238 19.5126 35.5578 19.5116 35.5918C19.5107 35.6259 19.5081 35.6598 19.5036 35.6935C19.4993 35.7274 19.4932 35.7609 19.4854 35.794C19.4776 35.8271 19.4682 35.8598 19.4571 35.892C19.4461 35.9242 19.4333 35.9557 19.419 35.9867C19.4048 36.0176 19.389 36.0477 19.3716 36.077C19.3543 36.1064 19.3355 36.1347 19.3153 36.1622C19.1289 36.416 18.876 36.534 18.5726 36.5867C17.9715 36.6182 17.3638 36.6018 16.7618 36.6017L13.6768 36.5984L11.6945 36.6077C11.3471 36.6098 10.9862 36.6309 10.6402 36.5993C10.4151 36.5787 10.1975 36.5228 10.0039 36.4022C9.78725 36.2673 9.63054 36.0675 9.57838 35.8154C9.52198 35.5428 9.58005 35.2217 9.74119 34.993C9.9391 34.7123 10.2094 34.6219 10.5316 34.5727Z" fill="#915DC2"/>
<path d="M21.4945 24.6989C21.961 24.6735 22.4369 24.6914 22.9045 24.6915H27.4591C27.8 24.6912 28.156 24.6702 28.4951 24.7012C28.6971 24.7197 28.88 24.7774 29.0494 24.8908C29.0755 24.908 29.1006 24.9266 29.1249 24.9464C29.1491 24.9662 29.1723 24.9871 29.1945 25.0092C29.2166 25.0313 29.2376 25.0545 29.2574 25.0787C29.2772 25.1029 29.2958 25.1281 29.3131 25.1542C29.3305 25.1802 29.3464 25.2071 29.361 25.2348C29.3756 25.2624 29.3888 25.2907 29.4006 25.3197C29.4124 25.3487 29.4227 25.3782 29.4315 25.4083C29.4403 25.4383 29.4476 25.4687 29.4534 25.4994C29.4596 25.5323 29.4643 25.5655 29.4673 25.5989C29.4702 25.6322 29.4715 25.6657 29.4713 25.6992C29.4709 25.7327 29.469 25.7662 29.4654 25.7994C29.4618 25.8327 29.4566 25.8658 29.4498 25.8987C29.4429 25.9315 29.4345 25.9639 29.4245 25.9959C29.4144 26.0278 29.4028 26.0592 29.3898 26.0902C29.3767 26.121 29.3621 26.1511 29.346 26.1805C29.3299 26.2099 29.3125 26.2385 29.2936 26.2662C29.1125 26.529 28.8595 26.6542 28.5531 26.7117C28.026 26.7439 27.4909 26.7265 26.9625 26.7262L22.5909 26.7249C22.2564 26.7278 21.9104 26.7559 21.5771 26.7249C21.3544 26.7043 21.1399 26.6485 20.9501 26.5259C20.7394 26.3897 20.5909 26.1822 20.5393 25.9355C20.5322 25.9004 20.5269 25.8651 20.5234 25.8294C20.52 25.7937 20.5184 25.758 20.5186 25.7222C20.5189 25.6863 20.521 25.6506 20.5249 25.615C20.5289 25.5794 20.5347 25.544 20.5423 25.509C20.5498 25.474 20.5592 25.4395 20.5704 25.4055C20.5816 25.3714 20.5944 25.3381 20.609 25.3054C20.6236 25.2727 20.6398 25.2408 20.6578 25.2098C20.6757 25.1787 20.6951 25.1487 20.7161 25.1197C20.9199 24.8373 21.1669 24.7483 21.4945 24.6989Z" fill="#915DC2"/>
<path d="M20.0119 46.9802C20.5088 46.9503 21.0138 46.9684 21.5119 46.9685L26.0041 46.9688C26.3344 46.9677 26.676 46.9439 27.0048 46.9764C27.2086 46.9965 27.4095 47.0529 27.5815 47.1669C27.6088 47.1849 27.635 47.2043 27.6603 47.225C27.6856 47.2457 27.7098 47.2676 27.7328 47.2908C27.7558 47.3139 27.7777 47.3382 27.7983 47.3635C27.8188 47.3889 27.838 47.4153 27.8559 47.4427C27.8737 47.47 27.8901 47.4982 27.9051 47.5273C27.9201 47.5563 27.9336 47.586 27.9456 47.6164C27.9576 47.6468 27.968 47.6777 27.9768 47.7092C27.9856 47.7407 27.9928 47.7725 27.9984 47.8047C28.0041 47.8373 28.0081 47.8702 28.0104 47.9032C28.0128 47.9362 28.0136 47.9692 28.0128 48.0024C28.0119 48.0355 28.0094 48.0684 28.0053 48.1013C28.0012 48.1342 27.9955 48.1668 27.9881 48.199C27.9808 48.2314 27.9719 48.2632 27.9615 48.2947C27.951 48.3261 27.939 48.3569 27.9255 48.3872C27.9121 48.4174 27.8972 48.4469 27.8808 48.4757C27.8643 48.5045 27.8466 48.5324 27.8274 48.5594C27.6476 48.808 27.3946 48.9307 27.0974 48.9728C26.5341 49.0045 25.966 48.9902 25.4019 48.9898L22.7005 48.9869C22.1739 48.9848 21.6473 48.9854 21.1208 48.9888C20.7693 48.9922 20.4051 49.0169 20.055 48.9812C19.838 48.959 19.6268 48.8988 19.4473 48.771C19.2309 48.617 19.0965 48.3835 19.0649 48.1205C19.0608 48.0863 19.0584 48.052 19.0576 48.0175C19.057 47.983 19.058 47.9486 19.0606 47.9143C19.0633 47.8799 19.0677 47.8458 19.0738 47.8118C19.0798 47.7779 19.0876 47.7443 19.097 47.7112C19.1064 47.6781 19.1175 47.6455 19.1301 47.6134C19.1428 47.5813 19.157 47.5499 19.1728 47.5193C19.1885 47.4886 19.2058 47.4588 19.2245 47.4299C19.2432 47.4009 19.2633 47.3729 19.2848 47.346C19.4809 47.1002 19.7125 47.0192 20.0119 46.9802Z" fill="#915DC2"/>
<path d="M10.5126 46.98C11.5811 46.9125 12.6868 46.9687 13.7585 46.969C14.4179 46.9693 15.3645 46.9112 15.9914 46.978C16.1883 46.999 16.3831 47.0514 16.5513 47.1589C16.579 47.1763 16.6058 47.1951 16.6316 47.2153C16.6575 47.2354 16.6822 47.2569 16.7058 47.2797C16.7293 47.3024 16.7517 47.3263 16.7729 47.3513C16.7941 47.3763 16.8139 47.4023 16.8324 47.4293C16.8509 47.4564 16.868 47.4843 16.8836 47.513C16.8993 47.5419 16.9134 47.5714 16.926 47.6017C16.9386 47.6319 16.9496 47.6627 16.959 47.694C16.9685 47.7254 16.9763 47.7572 16.9825 47.7894C16.9887 47.8226 16.9932 47.856 16.996 47.8897C16.9988 47.9232 16.9998 47.9569 16.9993 47.9907C16.9987 48.0244 16.9964 48.058 16.9924 48.0915C16.9884 48.125 16.9827 48.1583 16.9754 48.1913C16.9681 48.2242 16.9591 48.2567 16.9485 48.2887C16.9379 48.3207 16.9257 48.3522 16.9119 48.383C16.8981 48.4138 16.8828 48.4438 16.866 48.4732C16.8493 48.5024 16.8311 48.5307 16.8114 48.5582C16.6375 48.8004 16.3879 48.9288 16.098 48.9718C15.057 49.037 13.9899 48.9873 12.946 48.9892C12.1918 48.9905 11.2712 49.054 10.5421 48.9735C10.3242 48.9494 10.1278 48.9044 9.9483 48.7718C9.73452 48.614 9.60188 48.3882 9.57018 48.124C9.53954 47.8688 9.61334 47.5403 9.77462 47.3369C9.96065 47.1022 10.2286 47.0187 10.5126 46.98Z" fill="#915DC2"/>
<path d="M46.8946 24.0219C46.9106 24.0203 46.9266 24.0191 46.9426 24.0183C46.9587 24.0174 46.9748 24.017 46.9908 24.0169C47.0068 24.0168 47.0229 24.0172 47.0389 24.0179C47.055 24.0187 47.071 24.0198 47.087 24.0213C47.103 24.0228 47.1189 24.0247 47.1348 24.027C47.1507 24.0294 47.1665 24.032 47.1823 24.035C47.198 24.0381 47.2137 24.0416 47.2293 24.0454C47.2449 24.0492 47.2604 24.0534 47.2758 24.058C47.2912 24.0626 47.3065 24.0676 47.3216 24.073C47.3367 24.0784 47.3517 24.084 47.3666 24.09C47.3815 24.0961 47.3962 24.1026 47.4108 24.1094C47.4253 24.1162 47.4396 24.1233 47.4539 24.1308C47.4681 24.1383 47.4821 24.1461 47.4959 24.1543C47.5097 24.1624 47.5233 24.1709 47.5368 24.1798C47.5501 24.1886 47.5633 24.1978 47.5763 24.2073C47.5892 24.2168 47.6019 24.2266 47.6144 24.2367C47.6269 24.2468 47.6391 24.2572 47.6511 24.2679C47.6631 24.2787 47.6747 24.2897 47.6861 24.3009C47.6976 24.3122 47.7088 24.3237 47.7196 24.3355C47.7305 24.3474 47.7411 24.3594 47.7514 24.3718C47.7616 24.3841 47.7716 24.3967 47.7813 24.4095C47.7909 24.4224 47.8003 24.4354 47.8093 24.4487C47.8183 24.4619 47.8271 24.4754 47.8354 24.4892C47.8437 24.5028 47.8518 24.5167 47.8595 24.5308C47.8672 24.5449 47.8745 24.5592 47.8815 24.5737C47.8885 24.5882 47.8951 24.6028 47.9014 24.6175C47.9076 24.6323 47.9136 24.6472 47.9191 24.6623C47.9246 24.6774 47.9298 24.6926 47.9346 24.7079C47.9395 24.7232 47.9439 24.7387 47.9479 24.7542C47.952 24.7697 47.9556 24.7854 47.9589 24.801C47.9622 24.8168 47.9651 24.8326 47.9676 24.8484C47.9701 24.8642 47.9723 24.8802 47.974 24.8962C47.9758 24.9122 47.9771 24.9282 47.978 24.9442C47.979 24.9602 47.9796 24.9762 47.9798 24.9923C47.9799 25.0084 47.9797 25.0244 47.9791 25.0404C47.9785 25.0565 47.9775 25.0725 47.9761 25.0885C47.9747 25.1045 47.9729 25.1205 47.9708 25.1364C47.9686 25.1523 47.966 25.1682 47.963 25.1839C47.9601 25.1997 47.9568 25.2154 47.953 25.231C47.9493 25.2466 47.9453 25.2622 47.9408 25.2777C47.9363 25.2931 47.9314 25.3084 47.9263 25.3235C47.921 25.3387 47.9154 25.3537 47.9095 25.3687C47.9035 25.3836 47.8972 25.3983 47.8905 25.4129C47.8838 25.4275 47.8768 25.4419 47.8694 25.4563C47.8621 25.4705 47.8543 25.4846 47.8463 25.4984C47.8382 25.5123 47.8298 25.526 47.821 25.5395C47.8123 25.5529 47.8032 25.5662 47.7939 25.5793C47.7845 25.5923 47.7748 25.6051 47.7648 25.6177C47.7548 25.6302 47.7445 25.6424 47.7339 25.6545C47.7232 25.6666 47.7123 25.6784 47.7011 25.6899C47.69 25.7014 47.6785 25.7127 47.6668 25.7237C47.655 25.7346 47.643 25.7452 47.6308 25.7557C47.6185 25.766 47.606 25.776 47.5933 25.7858C47.5805 25.7955 47.5675 25.805 47.5543 25.8142C47.5411 25.8232 47.5277 25.832 47.514 25.8405C47.5003 25.849 47.4865 25.8572 47.4725 25.8649C47.4584 25.8727 47.4442 25.8802 47.4298 25.8873C47.4154 25.8944 47.4009 25.9011 47.3861 25.9075C47.3714 25.9139 47.3565 25.92 47.3415 25.9257C47.3264 25.9313 47.3113 25.9366 47.296 25.9415C47.2807 25.9464 47.2653 25.951 47.2498 25.9552C47.2343 25.9593 47.2187 25.9631 47.203 25.9665C47.1873 25.9699 47.1716 25.9729 47.1558 25.9755C47.1398 25.9782 47.1239 25.9804 47.108 25.9823C47.0919 25.9842 47.0758 25.9857 47.0596 25.9868C47.0434 25.9879 47.0272 25.9885 47.011 25.9888C46.9948 25.989 46.9786 25.9889 46.9624 25.9884C46.9461 25.9879 46.9299 25.987 46.9138 25.9857C46.8977 25.9843 46.8816 25.9826 46.8655 25.9805C46.8494 25.9784 46.8334 25.9759 46.8174 25.973C46.8015 25.9701 46.7856 25.9668 46.7698 25.9632C46.754 25.9595 46.7384 25.9554 46.7228 25.9509C46.7072 25.9465 46.6917 25.9417 46.6763 25.9364C46.6609 25.9312 46.6457 25.9256 46.6306 25.9197C46.6156 25.9137 46.6007 25.9073 46.5859 25.9005C46.5711 25.8939 46.5566 25.8868 46.5421 25.8794C46.5277 25.872 46.5135 25.8642 46.4995 25.856C46.4855 25.8479 46.4717 25.8395 46.458 25.8307C46.4444 25.8218 46.4311 25.8127 46.4179 25.8033C46.4047 25.7938 46.3918 25.784 46.3791 25.7739C46.3665 25.7637 46.3541 25.7533 46.3419 25.7427C46.3297 25.7319 46.3178 25.7209 46.3061 25.7095C46.2946 25.6983 46.2832 25.6867 46.2721 25.6748C46.2611 25.6629 46.2504 25.6508 46.2399 25.6384C46.2295 25.626 46.2193 25.6133 46.2095 25.6004C46.1997 25.5876 46.1902 25.5744 46.181 25.561C46.1718 25.5477 46.163 25.5341 46.1545 25.5203C46.146 25.5064 46.1378 25.4924 46.13 25.4783C46.1222 25.4641 46.1147 25.4497 46.1076 25.4352C46.1005 25.4206 46.0937 25.4058 46.0874 25.3909C46.081 25.376 46.075 25.3609 46.0694 25.3458C46.0637 25.3305 46.0584 25.3152 46.0535 25.2998C46.0487 25.2843 46.0442 25.2687 46.0401 25.253C46.036 25.2374 46.0322 25.2216 46.0289 25.2057C46.0256 25.1898 46.0226 25.1739 46.0201 25.1579C46.0176 25.1418 46.0154 25.1257 46.0136 25.1097C46.0119 25.0936 46.0105 25.0774 46.0095 25.0612C46.0086 25.045 46.0081 25.0288 46.0079 25.0125C46.0077 24.9964 46.008 24.9802 46.0086 24.9639C46.0092 24.9477 46.0103 24.9316 46.0118 24.9154C46.0132 24.8992 46.015 24.8832 46.0173 24.8672C46.0195 24.8511 46.0221 24.8351 46.0251 24.8192C46.0281 24.8032 46.0316 24.7874 46.0354 24.7715C46.0391 24.7558 46.0433 24.7402 46.0479 24.7247C46.0525 24.7091 46.0574 24.6936 46.0628 24.6783C46.0681 24.6629 46.0738 24.6478 46.0799 24.6328C46.086 24.6178 46.0924 24.6029 46.0993 24.5882C46.1061 24.5735 46.1133 24.5589 46.1209 24.5445C46.1284 24.5302 46.1363 24.516 46.1445 24.502C46.1528 24.4881 46.1613 24.4744 46.1703 24.4608C46.1792 24.4473 46.1884 24.434 46.198 24.4209C46.2075 24.4078 46.2174 24.3949 46.2276 24.3823C46.2378 24.3697 46.2483 24.3574 46.2591 24.3453C46.27 24.3332 46.2811 24.3214 46.2925 24.3099C46.3038 24.2983 46.3155 24.2871 46.3275 24.2762C46.3394 24.2652 46.3516 24.2545 46.3641 24.2442C46.3766 24.2338 46.3894 24.2238 46.4024 24.214C46.4153 24.2043 46.4285 24.1949 46.4419 24.1858C46.4554 24.1767 46.4691 24.168 46.4829 24.1597C46.4968 24.1512 46.5109 24.1432 46.5251 24.1354C46.5394 24.1277 46.5538 24.1204 46.5684 24.1134C46.5831 24.1064 46.5979 24.0998 46.6129 24.0935C46.6278 24.0872 46.6429 24.0813 46.6581 24.0758C46.6734 24.0703 46.6888 24.0652 46.7043 24.0604C46.7198 24.0557 46.7354 24.0513 46.7511 24.0473C46.7668 24.0433 46.7826 24.0397 46.7985 24.0364C46.8144 24.0332 46.8304 24.0304 46.8464 24.028C46.8624 24.0256 46.8785 24.0236 46.8946 24.0219Z" fill="#915DC2"/>
<path d="M51.8946 24.0219C51.9106 24.0203 51.9266 24.0191 51.9426 24.0183C51.9587 24.0174 51.9748 24.017 51.9908 24.0169C52.0068 24.0168 52.0229 24.0172 52.0389 24.0179C52.055 24.0187 52.071 24.0198 52.087 24.0213C52.103 24.0228 52.1189 24.0247 52.1348 24.027C52.1507 24.0294 52.1665 24.032 52.1823 24.035C52.198 24.0381 52.2137 24.0416 52.2293 24.0454C52.2449 24.0492 52.2603 24.0534 52.2758 24.058C52.2912 24.0626 52.3065 24.0676 52.3216 24.073C52.3367 24.0784 52.3517 24.084 52.3666 24.09C52.3815 24.0961 52.3962 24.1026 52.4108 24.1094C52.4253 24.1162 52.4396 24.1233 52.4539 24.1308C52.4681 24.1383 52.4821 24.1461 52.4959 24.1543C52.5097 24.1624 52.5233 24.1709 52.5368 24.1798C52.5501 24.1886 52.5633 24.1978 52.5763 24.2073C52.5892 24.2168 52.6019 24.2266 52.6144 24.2367C52.6269 24.2468 52.6391 24.2572 52.651 24.2679C52.663 24.2786 52.6747 24.2896 52.6861 24.3009C52.6976 24.3122 52.7088 24.3237 52.7196 24.3355C52.7305 24.3474 52.7411 24.3594 52.7514 24.3718C52.7616 24.3841 52.7716 24.3967 52.7813 24.4095C52.7909 24.4224 52.8003 24.4354 52.8093 24.4487C52.8183 24.4619 52.8271 24.4754 52.8354 24.4892C52.8437 24.5028 52.8518 24.5167 52.8595 24.5308C52.8672 24.5449 52.8745 24.5592 52.8815 24.5737C52.8885 24.5882 52.8951 24.6028 52.9014 24.6175C52.9076 24.6323 52.9136 24.6472 52.9191 24.6623C52.9246 24.6774 52.9298 24.6926 52.9346 24.7079C52.9395 24.7232 52.9439 24.7387 52.9479 24.7542C52.952 24.7697 52.9556 24.7854 52.9589 24.801C52.9622 24.8168 52.9651 24.8326 52.9676 24.8484C52.9701 24.8642 52.9723 24.8802 52.974 24.8962C52.9758 24.9122 52.9771 24.9282 52.978 24.9442C52.979 24.9602 52.9796 24.9762 52.9798 24.9923C52.9799 25.0084 52.9797 25.0244 52.9791 25.0404C52.9785 25.0565 52.9775 25.0725 52.9761 25.0885C52.9747 25.1045 52.9729 25.1205 52.9708 25.1364C52.9686 25.1523 52.966 25.1682 52.963 25.1839C52.9601 25.1997 52.9568 25.2154 52.953 25.231C52.9493 25.2466 52.9453 25.2622 52.9408 25.2777C52.9363 25.2931 52.9315 25.3084 52.9263 25.3235C52.921 25.3387 52.9154 25.3537 52.9095 25.3687C52.9035 25.3836 52.8972 25.3983 52.8905 25.4129C52.8838 25.4275 52.8768 25.4419 52.8694 25.4563C52.8621 25.4705 52.8543 25.4846 52.8463 25.4984C52.8382 25.5123 52.8298 25.526 52.821 25.5395C52.8123 25.5529 52.8032 25.5662 52.7939 25.5793C52.7845 25.5923 52.7748 25.6051 52.7648 25.6177C52.7548 25.6302 52.7445 25.6424 52.7339 25.6545C52.7232 25.6666 52.7123 25.6784 52.7011 25.6899C52.69 25.7014 52.6785 25.7127 52.6668 25.7237C52.655 25.7346 52.643 25.7452 52.6308 25.7557C52.6185 25.766 52.606 25.776 52.5933 25.7858C52.5805 25.7955 52.5675 25.805 52.5543 25.8142C52.5411 25.8232 52.5277 25.832 52.514 25.8405C52.5003 25.849 52.4865 25.8572 52.4725 25.8649C52.4584 25.8727 52.4442 25.8802 52.4298 25.8873C52.4154 25.8944 52.4009 25.9011 52.3861 25.9075C52.3714 25.9139 52.3565 25.92 52.3415 25.9257C52.3264 25.9313 52.3113 25.9366 52.296 25.9415C52.2807 25.9464 52.2653 25.951 52.2498 25.9552C52.2343 25.9593 52.2187 25.9631 52.203 25.9665C52.1873 25.9699 52.1716 25.9729 52.1556 25.9755C52.1398 25.9782 52.1239 25.9804 52.108 25.9823C52.0919 25.9842 52.0758 25.9857 52.0596 25.9868C52.0434 25.9879 52.0272 25.9885 52.011 25.9888C51.9948 25.989 51.9786 25.9889 51.9624 25.9884C51.9461 25.9879 51.9299 25.987 51.9138 25.9857C51.8977 25.9843 51.8816 25.9826 51.8655 25.9805C51.8494 25.9784 51.8334 25.9759 51.8174 25.973C51.8015 25.9701 51.7856 25.9668 51.7698 25.9632C51.754 25.9595 51.7384 25.9554 51.7228 25.9509C51.7072 25.9465 51.6917 25.9417 51.6763 25.9364C51.6609 25.9312 51.6457 25.9256 51.6306 25.9197C51.6156 25.9137 51.6006 25.9073 51.5859 25.9005C51.5711 25.8939 51.5566 25.8868 51.5421 25.8794C51.5277 25.872 51.5135 25.8642 51.4995 25.856C51.4855 25.8479 51.4717 25.8395 51.458 25.8307C51.4444 25.8218 51.4311 25.8127 51.4179 25.8033C51.4047 25.7938 51.3918 25.784 51.3791 25.7739C51.3665 25.7637 51.3541 25.7533 51.3419 25.7427C51.3297 25.7319 51.3178 25.7209 51.3061 25.7095C51.2946 25.6983 51.2832 25.6867 51.2721 25.6748C51.2611 25.6629 51.2504 25.6508 51.2399 25.6384C51.2295 25.626 51.2193 25.6133 51.2095 25.6004C51.1997 25.5876 51.1902 25.5744 51.181 25.561C51.1718 25.5477 51.163 25.5341 51.1545 25.5203C51.146 25.5064 51.1378 25.4924 51.13 25.4783C51.1222 25.4641 51.1147 25.4497 51.1076 25.4352C51.1005 25.4206 51.0937 25.4058 51.0874 25.3909C51.081 25.376 51.075 25.3609 51.0694 25.3458C51.0637 25.3305 51.0584 25.3152 51.0535 25.2998C51.0487 25.2843 51.0442 25.2687 51.0401 25.253C51.036 25.2374 51.0322 25.2216 51.0289 25.2057C51.0256 25.1898 51.0226 25.1739 51.0201 25.1579C51.0176 25.1418 51.0154 25.1257 51.0136 25.1097C51.0119 25.0936 51.0105 25.0774 51.0095 25.0612C51.0086 25.045 51.0081 25.0288 51.0079 25.0125C51.0077 24.9964 51.008 24.9802 51.0086 24.9639C51.0092 24.9477 51.0103 24.9316 51.0118 24.9154C51.0132 24.8992 51.015 24.8832 51.0173 24.8672C51.0195 24.8511 51.0221 24.8351 51.0251 24.8192C51.0281 24.8032 51.0316 24.7874 51.0354 24.7715C51.0391 24.7558 51.0433 24.7402 51.0479 24.7247C51.0525 24.7091 51.0574 24.6936 51.0628 24.6783C51.0681 24.6629 51.0738 24.6478 51.0799 24.6328C51.086 24.6178 51.0924 24.6029 51.0993 24.5882C51.1061 24.5735 51.1133 24.5589 51.1209 24.5445C51.1284 24.5302 51.1363 24.516 51.1445 24.502C51.1528 24.4881 51.1613 24.4744 51.1703 24.4608C51.1792 24.4473 51.1884 24.434 51.198 24.4209C51.2075 24.4078 51.2174 24.3949 51.2276 24.3823C51.2378 24.3697 51.2483 24.3574 51.2591 24.3453C51.27 24.3332 51.2811 24.3214 51.2925 24.3099C51.3038 24.2983 51.3155 24.2871 51.3275 24.2762C51.3394 24.2652 51.3516 24.2545 51.3641 24.2442C51.3766 24.2338 51.3894 24.2238 51.4024 24.214C51.4153 24.2043 51.4285 24.1949 51.4419 24.1858C51.4554 24.1767 51.4691 24.168 51.4829 24.1597C51.4968 24.1512 51.5109 24.1432 51.5251 24.1354C51.5394 24.1277 51.5538 24.1204 51.5684 24.1134C51.5831 24.1064 51.5979 24.0998 51.6129 24.0935C51.6278 24.0872 51.6429 24.0813 51.6581 24.0758C51.6734 24.0703 51.6888 24.0652 51.7043 24.0604C51.7198 24.0557 51.7354 24.0513 51.7511 24.0473C51.7668 24.0433 51.7826 24.0397 51.7985 24.0364C51.8144 24.0332 51.8304 24.0304 51.8464 24.028C51.8624 24.0256 51.8785 24.0236 51.8946 24.0219Z" fill="#915DC2"/>
<path d="M41.8965 24.0218C41.9125 24.0202 41.9285 24.019 41.9445 24.0182C41.9605 24.0174 41.9766 24.017 41.9926 24.0169C42.0086 24.0169 42.0247 24.0173 42.0408 24.018C42.0568 24.0189 42.0728 24.02 42.0888 24.0215C42.1047 24.0231 42.1206 24.025 42.1365 24.0273C42.1524 24.0296 42.1683 24.0323 42.184 24.0354C42.1998 24.0386 42.2154 24.0421 42.2309 24.0459C42.2465 24.0497 42.262 24.054 42.2774 24.0587C42.2927 24.0632 42.308 24.0682 42.3231 24.0735C42.3382 24.0789 42.3532 24.0847 42.368 24.0908C42.3829 24.0969 42.3976 24.1033 42.4121 24.11C42.4266 24.1169 42.441 24.124 42.4553 24.1315C42.4694 24.139 42.4834 24.1469 42.4971 24.1552C42.511 24.1633 42.5246 24.1718 42.538 24.1807C42.5513 24.1895 42.5645 24.1987 42.5774 24.2082C42.5904 24.2177 42.6031 24.2275 42.6155 24.2377C42.628 24.2477 42.6402 24.2582 42.6521 24.2689C42.6641 24.2796 42.6757 24.2906 42.6871 24.3019C42.6986 24.3132 42.7097 24.3247 42.7205 24.3365C42.7313 24.3484 42.7419 24.3604 42.7523 24.3728C42.7625 24.3851 42.7724 24.3977 42.782 24.4105C42.7917 24.4234 42.801 24.4364 42.81 24.4498C42.819 24.463 42.8277 24.4765 42.836 24.4903C42.8443 24.5039 42.8523 24.5178 42.86 24.5319C42.8677 24.546 42.875 24.5603 42.882 24.5748C42.889 24.5892 42.8956 24.6038 42.9019 24.6187C42.9081 24.6334 42.914 24.6483 42.9195 24.6634C42.925 24.6785 42.9302 24.6937 42.935 24.7089C42.9398 24.7242 42.9442 24.7397 42.9483 24.7553C42.9523 24.7708 42.9559 24.7864 42.9591 24.8022C42.9624 24.8178 42.9653 24.8336 42.9678 24.8494C42.9703 24.8653 42.9724 24.8812 42.9741 24.8972C42.9759 24.9131 42.9772 24.9291 42.9781 24.9452C42.9791 24.9612 42.9796 24.9772 42.9798 24.9933C42.9799 25.0093 42.9797 25.0253 42.9791 25.0414C42.9785 25.0574 42.9774 25.0734 42.976 25.0894C42.9746 25.1054 42.9728 25.1213 42.9706 25.1372C42.9685 25.1531 42.9659 25.1689 42.9629 25.1848C42.96 25.2005 42.9566 25.2162 42.9529 25.2318C42.9491 25.2474 42.9451 25.2629 42.9406 25.2783C42.9361 25.2937 42.9313 25.309 42.926 25.3242C42.9208 25.3393 42.9152 25.3544 42.9093 25.3693C42.9033 25.3842 42.8969 25.3989 42.8903 25.4135C42.8836 25.4281 42.8766 25.4425 42.8691 25.4568C42.8618 25.471 42.8541 25.4851 42.846 25.499C42.8379 25.5129 42.8295 25.5265 42.8208 25.5399C42.812 25.5534 42.8029 25.5667 42.7935 25.5797C42.7842 25.5927 42.7745 25.6054 42.7645 25.618C42.7544 25.6305 42.7441 25.6428 42.7335 25.6549C42.7229 25.6669 42.7121 25.6787 42.7009 25.6902C42.6896 25.7017 42.6781 25.713 42.6664 25.7239C42.6547 25.7348 42.6428 25.7455 42.6305 25.7559C42.6182 25.7662 42.6057 25.7763 42.593 25.786C42.5803 25.7958 42.5673 25.8052 42.554 25.8143C42.5408 25.8234 42.5274 25.8322 42.5138 25.8407C42.5001 25.8492 42.4863 25.8573 42.4723 25.865C42.4583 25.8729 42.4441 25.8803 42.4296 25.8874C42.4152 25.8945 42.4006 25.9012 42.3859 25.9077C42.3712 25.914 42.3563 25.92 42.3413 25.9257C42.3263 25.9313 42.3111 25.9366 42.2959 25.9415C42.2806 25.9464 42.2653 25.951 42.2498 25.9552C42.2343 25.9593 42.2186 25.9631 42.2029 25.9665C42.1872 25.9699 42.1715 25.9729 42.1556 25.9755C42.1398 25.9782 42.1239 25.9804 42.108 25.9823C42.0919 25.9842 42.0758 25.9857 42.0595 25.9867C42.0434 25.9877 42.0271 25.9884 42.0109 25.9888C41.9947 25.989 41.9785 25.9889 41.9623 25.9884C41.9461 25.9879 41.9299 25.987 41.9138 25.9857C41.8976 25.9843 41.8815 25.9826 41.8654 25.9805C41.8493 25.9784 41.8333 25.9758 41.8173 25.9729C41.8013 25.97 41.7854 25.9667 41.7696 25.963C41.7538 25.9594 41.7381 25.9553 41.7225 25.9508C41.7069 25.9464 41.6915 25.9415 41.6761 25.9363C41.6607 25.931 41.6455 25.9254 41.6304 25.9194C41.6153 25.9135 41.6004 25.9072 41.5856 25.9004C41.5709 25.8937 41.5563 25.8866 41.5419 25.8792C41.5275 25.8717 41.5133 25.8639 41.4993 25.8558C41.4852 25.8477 41.4713 25.8392 41.4578 25.8304C41.4441 25.8216 41.4307 25.8124 41.4175 25.8029C41.4043 25.7934 41.3914 25.7836 41.3788 25.7735C41.3661 25.7634 41.3537 25.7529 41.3415 25.7422C41.3293 25.7315 41.3175 25.7205 41.3059 25.7092C41.2942 25.6978 41.2829 25.6862 41.2719 25.6743C41.2608 25.6624 41.2501 25.6503 41.2396 25.6379C41.2291 25.6255 41.219 25.6128 41.2093 25.5999C41.1994 25.587 41.1899 25.5738 41.1808 25.5604C41.1716 25.5471 41.1627 25.5335 41.1541 25.5197C41.1456 25.5058 41.1375 25.4918 41.1298 25.4777C41.1219 25.4634 41.1145 25.449 41.1074 25.4344C41.1003 25.4198 41.0936 25.4051 41.0871 25.3902C41.0808 25.3752 41.0748 25.3602 41.0691 25.3449C41.0636 25.3297 41.0583 25.3143 41.0534 25.2989C41.0486 25.2834 41.0441 25.2678 41.04 25.2522C41.0358 25.2364 41.0321 25.2206 41.0289 25.2048C41.0256 25.1889 41.0226 25.1729 41.02 25.1569C41.0175 25.1409 41.0154 25.1248 41.0136 25.1087C41.0119 25.0925 41.0106 25.0763 41.0096 25.0602C41.0086 25.044 41.0081 25.0278 41.008 25.0115C41.0078 24.9953 41.0081 24.9791 41.0088 24.9629C41.0094 24.9467 41.0105 24.9304 41.0119 24.9143C41.0134 24.8982 41.0153 24.8821 41.0175 24.866C41.0198 24.8499 41.0224 24.8339 41.0254 24.818C41.0285 24.8021 41.0319 24.7862 41.0358 24.7704C41.0396 24.7547 41.0438 24.739 41.0484 24.7234C41.053 24.7079 41.058 24.6925 41.0634 24.6772C41.0687 24.6618 41.0744 24.6467 41.0805 24.6317C41.0866 24.6167 41.0931 24.6018 41.1 24.587C41.1068 24.5724 41.114 24.5578 41.1215 24.5434C41.1291 24.5291 41.137 24.5149 41.1453 24.5009C41.1535 24.487 41.1621 24.4732 41.1711 24.4597C41.1801 24.4462 41.1893 24.4329 41.1989 24.4198C41.2085 24.4067 41.2184 24.3939 41.2286 24.3813C41.2389 24.3687 41.2494 24.3564 41.2603 24.3443C41.2711 24.3322 41.2822 24.3204 41.2936 24.3089C41.3051 24.2974 41.3167 24.2862 41.3286 24.2752C41.3406 24.2642 41.3529 24.2536 41.3654 24.2433C41.3779 24.2329 41.3906 24.2229 41.4036 24.2132C41.4166 24.2035 41.4299 24.1941 41.4434 24.185C41.4568 24.1759 41.4705 24.1672 41.4844 24.1588C41.4982 24.1504 41.5123 24.1424 41.5266 24.1348C41.5409 24.127 41.5553 24.1197 41.57 24.1128C41.5847 24.1058 41.5995 24.0992 41.6144 24.0929C41.6294 24.0867 41.6445 24.0808 41.6598 24.0753C41.675 24.0698 41.6904 24.0647 41.706 24.0599C41.7215 24.0552 41.7371 24.0508 41.7529 24.0469C41.7686 24.0429 41.7843 24.0393 41.8003 24.0362C41.8162 24.033 41.8322 24.0302 41.8483 24.0278C41.8643 24.0254 41.8803 24.0234 41.8965 24.0218Z" fill="#915DC2"/>
</svg>
