<svg width="64" height="64" viewBox="0 0 64 64" fill="none" xmlns="http://www.w3.org/2000/svg">
<g clip-path="url(#clip0_524_120)">
<path d="M51.7725 14.0058C51.8806 13.999 51.9888 13.9982 52.097 14.0032C52.2053 14.0083 52.3129 14.0192 52.4199 14.036C52.5269 14.0528 52.6327 14.0754 52.7373 14.1038C52.8418 14.1321 52.9445 14.1661 53.0454 14.2057C53.348 14.3231 53.6355 14.4788 53.9216 14.6309C54.7193 15.0547 55.3269 15.4817 55.6933 16.3382C56.2273 17.5867 55.7783 18.5473 55.1935 19.6543L54.322 21.3113C54.1684 21.6043 53.9836 21.9067 53.8649 22.2144L53.8431 22.2727C55.3248 22.2903 56.973 22.0011 58.1241 23.1582C58.1802 23.2147 58.234 23.2734 58.2854 23.3343C58.3368 23.3951 58.3857 23.4579 58.432 23.5227C58.4783 23.5875 58.522 23.6541 58.563 23.7223C58.604 23.7906 58.6422 23.8605 58.6776 23.9318C58.713 24.0032 58.7454 24.0759 58.7749 24.1499C58.8045 24.2238 58.831 24.2989 58.8544 24.3751C58.8779 24.4511 58.8983 24.528 58.9156 24.6058C58.9329 24.6835 58.947 24.7619 58.958 24.8408C59.0759 25.6312 59.0035 26.5965 59.0021 27.4071L59.003 50.4917C59.0026 51.2305 58.9679 51.9824 59.0013 52.7194C59.0094 52.8987 59.0308 53.0557 59.0954 53.2242C59.2766 53.6972 59.5634 54.1637 59.7913 54.6194L61.3535 57.739C61.5446 58.1207 61.806 58.5378 61.921 58.9477C62.0174 59.2914 62.0043 59.664 62.0053 60.018C62.0089 61.2808 62.0765 62.4379 61.1074 63.4C60.621 63.8829 60.0133 64.1794 59.3331 64.2563C58.7671 64.3204 58.1733 64.2904 57.6039 64.2901L7.88345 64.2892L6.05676 64.2915C5.50308 64.2918 4.91952 64.3173 4.37533 64.2057C3.81686 64.0912 3.33276 63.8333 2.91978 63.4385C2.2949 62.8413 2.01738 62.0803 2.00186 61.2268C1.99066 60.6114 1.92637 59.562 2.06541 58.9933C2.17045 58.5637 2.45437 58.1252 2.65358 57.7276L4.15557 54.7288C4.40657 54.2275 4.71731 53.7085 4.91025 53.1843C4.96797 53.0274 4.98898 52.8813 4.99792 52.7152C5.04073 51.9204 5.00305 51.1042 5.00195 50.3077L5.00015 27.3714C4.99876 26.5433 4.92878 25.647 5.04462 24.8289C5.05525 24.7499 5.06906 24.6715 5.08607 24.5937C5.10309 24.5158 5.12324 24.4388 5.14653 24.3625C5.16983 24.2864 5.19618 24.2113 5.22558 24.1372C5.255 24.0632 5.28738 23.9904 5.32272 23.9189C5.35806 23.8475 5.39626 23.7777 5.4373 23.7094C5.47833 23.6411 5.52208 23.5746 5.56853 23.5098C5.61499 23.4451 5.66401 23.3823 5.71557 23.3215C5.76715 23.2608 5.82111 23.2023 5.87745 23.1459C5.93474 23.0883 5.99435 23.033 6.05627 22.9803C6.11819 22.9276 6.18221 22.8775 6.24832 22.8302C6.31443 22.7828 6.38241 22.7383 6.45225 22.6967C6.52209 22.655 6.59355 22.6163 6.66663 22.5807C6.73972 22.545 6.81416 22.5125 6.88997 22.4831C6.96577 22.4536 7.04268 22.4274 7.12068 22.4044C7.19868 22.3814 7.27751 22.3618 7.35716 22.3454C7.43682 22.329 7.51702 22.316 7.59776 22.3063C8.07108 22.2486 8.56403 22.2725 9.0407 22.2727L45.795 22.2728C46.1461 21.6899 46.446 21.0643 46.7618 20.4613L48.4833 17.1696C48.855 16.4591 49.1986 15.6328 49.7091 15.0166C50.2316 14.386 50.9749 14.0851 51.7725 14.0058ZM11.0014 48.2686L52.9951 48.2723L53.0008 34.3635C53.0008 32.3438 52.9664 30.3169 53.0068 28.2981C52.2759 28.2929 51.3881 28.3412 50.6776 28.2781L47.6236 34.0889L46.8656 35.5375C46.6724 35.9086 46.494 36.3512 46.2111 36.6627C45.8596 37.0495 45.3655 37.3718 44.9549 37.6953L42.4453 39.6695C42.0249 40.0008 40.6356 41.2164 40.204 41.336C39.7974 41.4488 39.2185 41.2839 38.7908 41.2832L24.1758 41.289L22.1691 41.2917C21.7386 41.2924 21.2889 41.3203 20.8623 41.2583C20.631 41.2247 20.432 41.1294 20.2661 40.9624C20.0911 40.7863 19.999 40.5608 20.004 40.3125C20.0093 40.0442 20.0944 39.7472 20.2941 39.5577C20.472 39.3888 20.7304 39.3095 20.9695 39.2848C21.5163 39.2283 22.0948 39.2702 22.6459 39.2727L37.521 39.2745C38.0403 39.2745 38.5674 39.2939 39.0855 39.2703L39.3988 37.2989C37.8284 37.2573 36.25 37.2879 34.6785 37.2882L22.7958 37.2908C22.2079 37.2914 21.5891 37.3329 21.0053 37.2729C20.7145 37.243 20.4744 37.1838 20.2653 36.9644C20.0943 36.7849 19.9966 36.5488 20.0031 36.3C20.01 36.031 20.1028 35.7262 20.3109 35.544C20.4838 35.3929 20.6876 35.3094 20.915 35.2867C21.4733 35.2309 22.0768 35.2734 22.6399 35.2734L35.0949 35.2744C36.6323 35.2747 38.1805 35.3178 39.7161 35.2712C39.8154 34.6264 39.8625 33.8898 40.0715 33.2733C40.182 32.9473 40.379 32.632 40.539 32.3272L42.2055 29.1492C42.3538 28.8656 42.4914 28.5557 42.6726 28.2922C40.0946 28.2533 37.5111 28.2888 34.9325 28.2887L13.7445 28.2883L12.0466 28.2921C11.7049 28.2942 11.3494 28.3222 11.0105 28.2732C10.9853 29.0353 11.0005 29.8014 11.0006 30.5639L11.0014 48.2686ZM51.7323 26.2717C52.3449 26.2735 53.6138 26.2033 54.1595 26.3088C54.3564 26.3469 54.5609 26.4268 54.7055 26.5699C54.8719 26.7344 54.9673 26.9673 54.9868 27.1983C55.062 28.0903 55.0033 29.1917 55.0025 30.1017L55.0011 44.6699C55.0013 46.1388 55.0455 47.6214 55.0016 49.0888C54.9916 49.4233 54.9358 49.7588 54.6839 50.0008C54.4129 50.2613 54.0616 50.2782 53.7083 50.2842L11.7874 50.2903C11.1903 50.2907 10.5825 50.3137 9.98671 50.2738C9.7024 50.2548 9.47533 50.1672 9.26765 49.967C9.10068 49.8062 9.03232 49.6026 9.01317 49.3755C8.94551 48.5732 8.99912 47.7289 8.99955 46.9222L8.99927 27.745C9.0014 27.2999 8.98193 26.8597 9.32952 26.5288C9.51333 26.3538 9.76026 26.3037 10.0059 26.2834C10.8687 26.2122 11.9385 26.2742 12.8239 26.2749L40.9218 26.2741C41.8466 26.2742 42.7876 26.3138 43.7103 26.2718L44.7536 24.2927C42.2261 24.2656 39.6963 24.2889 37.1685 24.2889L13.1033 24.2884C11.4689 24.2884 9.82158 24.2456 8.18846 24.2899C7.846 24.3068 7.51398 24.3318 7.26201 24.5981C7.08326 24.7869 7.03248 25.0286 7.01321 25.2797C6.94373 26.1849 7.00007 27.1363 7.00063 28.0467L7.00191 45.9517C7.00178 48.0567 7.02386 50.1639 7.00111 52.2687L56.995 52.2723L57.0006 28.2466C57.0009 27.3187 57.0625 26.1333 56.9848 25.2308C56.965 25.0014 56.8809 24.7417 56.7118 24.5779C56.5658 24.4367 56.3655 24.3641 56.1696 24.3263C55.8129 24.2576 55.4211 24.2832 55.059 24.2846C54.3048 24.2873 53.532 24.3272 52.7798 24.2784C52.4109 24.9193 52.0404 25.6 51.7323 26.2717ZM25.863 58.2688C29.5134 58.3168 33.1694 58.2753 36.8204 58.2748C37.2543 58.2748 37.6945 58.2898 38.1275 58.2677C37.8933 57.9239 37.648 57.4244 37.2029 57.3415C36.739 57.2552 36.2316 57.2862 35.7616 57.2867L33.812 57.2868C31.6393 57.2868 29.46 57.2491 27.2881 57.2898C26.9043 57.3083 26.6093 57.3282 26.3293 57.6253C26.1496 57.8159 26.0166 58.057 25.863 58.2688ZM4.00787 60.2707C3.99581 60.7918 3.88626 61.5428 4.27226 61.9571C4.54748 62.2523 4.96418 62.2747 5.34225 62.2772L56.8551 62.2749C57.5706 62.2752 58.3008 62.3079 59.014 62.2624C59.2945 62.2444 59.497 62.1485 59.7039 61.9632C60.1005 61.4897 59.995 60.8728 60.0076 60.2967L8.60928 60.2883L5.56241 60.2913C5.05903 60.292 4.50318 60.3449 4.00787 60.2707ZM57.3906 54.3014C55.9126 54.2392 54.4165 54.2883 52.9361 54.2884L8.05031 54.2898C7.58883 54.2903 7.11182 54.3161 6.65196 54.2842C6.42391 54.5137 6.12382 55.2522 5.96902 55.5629C5.52011 56.4641 5.08678 57.3768 4.61858 58.2679C8.54963 58.3205 12.4869 58.274 16.4185 58.2737L21.0734 58.2744C21.8639 58.2746 22.6708 58.3074 23.4596 58.2683C24.2419 57.1004 24.9214 55.6433 26.434 55.3464C27.1614 55.2037 27.9873 55.2732 28.7289 55.2732L35.4929 55.2733C36.0946 55.2729 36.727 55.2344 37.3234 55.3104C37.438 55.3248 37.5515 55.3458 37.6638 55.3736C37.776 55.4012 37.8862 55.4353 37.9944 55.4759C38.1026 55.5166 38.2081 55.5634 38.3109 55.6164C38.4135 55.6694 38.5128 55.7283 38.6086 55.7929C39.493 56.3957 39.8869 57.4497 40.5449 58.2551C41.1154 58.2977 41.6971 58.2752 42.2696 58.275L54.3594 58.2738C56.0285 58.2744 57.7124 58.3232 59.3798 58.271C58.6563 56.9874 58.076 55.6074 57.3906 54.3014ZM50.8481 16.9813C51.6508 17.3768 52.4341 17.8113 53.2304 18.2195L53.5876 18.413C53.779 18.0393 54.0295 17.631 53.8793 17.1973C53.7074 16.701 53.0723 16.4157 52.624 16.2111C52.3135 16.0694 52.0563 16.0084 51.7145 16.0326C51.2209 16.2112 51.0708 16.5464 50.8481 16.9813ZM41.3169 38.0147C41.6666 37.738 42.0095 37.451 42.3624 37.1784C42.7996 36.8375 43.2351 36.4943 43.6688 36.1488C43.1288 35.8174 42.3586 35.3948 41.7814 35.1399C41.5749 36.0859 41.4878 37.0613 41.3169 38.0147ZM49.9166 18.7564L43.2798 31.4082C42.9704 31.9989 42.6411 32.5859 42.3579 33.1897C43.2811 33.6372 44.1671 34.1674 45.095 34.6033L51.8128 21.7922C52.0906 21.2618 52.3505 20.7039 52.656 20.1905C52.0811 19.8624 51.4864 19.5639 50.9 19.2565C50.5844 19.091 50.2495 18.8809 49.9166 18.7564Z" fill="#915DC2"/>
<path d="M20.9255 43.2849C22.2428 43.2293 23.5785 43.2734 24.8975 43.2735L41.756 43.274C42.121 43.2739 42.4899 43.2553 42.8545 43.2718C43.089 43.2824 43.3246 43.3253 43.5286 43.4475C43.7564 43.584 43.9216 43.8039 43.9789 44.0643C43.9857 44.0963 43.9909 44.1285 43.9945 44.161C43.9981 44.1935 44 44.2262 44.0004 44.2589C44.0007 44.2917 43.9994 44.3243 43.9965 44.3569C43.9936 44.3895 43.9891 44.4218 43.9829 44.4539C43.9766 44.4861 43.9688 44.5178 43.9595 44.5492C43.9502 44.5805 43.9393 44.6113 43.9269 44.6417C43.9145 44.6719 43.9005 44.7015 43.8851 44.7303C43.8697 44.7592 43.8529 44.7873 43.8348 44.8144C43.6581 45.079 43.4136 45.2078 43.1093 45.2709C41.8985 45.3414 40.6623 45.2887 39.4479 45.2888L22.6868 45.2872C22.1916 45.2907 21.6895 45.3132 21.1949 45.2908C20.921 45.2784 20.645 45.2358 20.4103 45.0839C20.2039 44.9504 20.0649 44.7537 20.0213 44.5105C19.9708 44.229 20.0301 43.9008 20.2013 43.6687C20.3876 43.416 20.6315 43.334 20.9255 43.2849Z" fill="#915DC2"/>
<path d="M27.2766 31.2868C27.8451 31.2467 28.4299 31.2723 29.0004 31.2723L35.0974 31.2742C35.5969 31.2743 36.1156 31.2456 36.6131 31.2802C36.803 31.2934 36.9759 31.3335 37.142 31.4285C37.3745 31.5615 37.5416 31.7785 37.6003 32.041C37.6075 32.0737 37.6131 32.1066 37.6171 32.1398C37.6211 32.173 37.6235 32.2063 37.6243 32.2398C37.6249 32.2732 37.624 32.3066 37.6214 32.3399C37.6188 32.3733 37.6146 32.4064 37.6088 32.4393C37.6029 32.4722 37.5955 32.5048 37.5864 32.5369C37.5773 32.5691 37.5667 32.6008 37.5545 32.6319C37.5423 32.6631 37.5286 32.6935 37.5134 32.7233C37.4982 32.753 37.4816 32.782 37.4635 32.8102C37.2926 33.0762 37.0575 33.2048 36.7554 33.2693C36.1808 33.3062 35.5966 33.2882 35.0208 33.2884L29.2506 33.2904C28.6851 33.2918 28.1099 33.314 27.5453 33.2834C27.3221 33.2714 27.0528 33.2596 26.858 33.1423C26.6409 33.0115 26.4398 32.7795 26.3895 32.5255C26.335 32.2505 26.4001 31.908 26.564 31.6794C26.7463 31.4253 26.9834 31.3375 27.2766 31.2868Z" fill="#915DC2"/>
</g>
<defs>
<clipPath id="clip0_524_120">
<rect width="64" height="64" fill="white"/>
</clipPath>
</defs>
</svg>
