<svg width="56" height="56" viewBox="0 0 56 56" fill="none" xmlns="http://www.w3.org/2000/svg">
<g clip-path="url(#clip0_1088_16)">
<path d="M20.8564 1.06128L21.582 1.06226C25.215 1.14441 28.849 2.33573 31.8789 4.30542L32.29 4.58179C36.4969 7.47799 39.4399 11.8809 40.502 16.8894L40.584 17.2966C41.3576 21.376 40.8315 25.596 39.0791 29.3601L38.8994 29.7351C38.4562 30.6387 37.9328 31.4803 37.3887 32.3181C37.8007 32.6896 38.1884 33.1079 38.5732 33.4929L39.9893 34.9207C40.4532 35.3875 40.9203 35.8505 41.3945 36.3054C41.5162 36.3197 41.6388 36.3299 41.7646 36.3396C41.9004 36.35 42.0395 36.3615 42.1787 36.3826L42.3408 36.4109C43.0282 36.55 43.5732 36.8896 44.0742 37.3425L44.3027 37.5593L51.1514 44.407L53.0615 46.3162L53.7109 46.9548C53.9273 47.1758 54.1344 47.4082 54.3066 47.6589H54.3076L54.4521 47.8894C54.7686 48.4375 54.9334 49.0619 54.9268 49.698L54.918 49.9744C54.8384 51.1351 54.2606 51.8384 53.5186 52.5955L53.165 52.9509C52.2211 53.8959 51.4038 54.8247 49.9775 54.9294L49.6836 54.9392C49.0685 54.9333 48.4656 54.7744 47.9297 54.4783L47.7041 54.3425C47.5059 54.2138 47.3272 54.0607 47.1582 53.9001L45.5977 52.3396L41.6543 48.3972L38.9219 45.6648C38.6212 45.3641 38.1707 44.9471 37.7637 44.533C37.4049 44.1679 37.0603 43.7863 36.8428 43.448L36.7578 43.3054C36.4294 42.7094 36.3439 42.082 36.3203 41.4314C36.1927 41.2567 35.9783 41.033 35.7461 40.8074L35.0781 40.1677L32.3076 37.4021C31.8049 37.7068 31.3104 38.0312 30.7988 38.3337L30.2578 38.6394C27.6756 40.0199 24.8628 40.7548 21.959 40.9158L21.377 40.9402C16.2938 41.0883 11.0788 39.0517 7.39551 35.5603V35.5593C3.6059 32.0318 1.35093 27.1675 1.09961 22.0095L1.08105 21.5095C0.937913 16.2898 2.85768 11.2241 6.42383 7.40991L6.4248 7.40894L6.79395 7.02905C10.6389 3.16278 15.3709 1.20164 20.8555 1.06128H20.8564ZM41.3203 38.8826C41.2128 38.9092 41.1295 38.9396 41.0459 38.988L40.959 39.0457C40.803 39.1596 40.3635 39.568 39.9326 39.9949C39.7185 40.207 39.5083 40.4217 39.3398 40.6033C39.2545 40.6953 39.1812 40.7768 39.124 40.8445L39.0029 41.0027C38.8551 41.2443 38.8036 41.5637 38.8809 41.8328L38.9248 41.9578C38.976 42.0793 39.048 42.1903 39.1387 42.2898L39.6484 42.8279C40.1687 43.3594 40.7141 43.8727 41.2432 44.4011L45.29 48.448L47.6465 50.8064L47.9824 51.155C48.1131 51.2921 48.258 51.4434 48.4043 51.5906C48.5508 51.7379 48.6983 51.8801 48.833 51.9988C48.969 52.1186 49.0873 52.2107 49.1777 52.2605L49.2568 52.2996C49.4445 52.3813 49.6568 52.4023 49.8652 52.3738C49.9965 52.3396 50.1026 52.3011 50.208 52.24L50.3164 52.1687C50.4685 52.0577 50.9067 51.6426 51.335 51.2097C51.5478 50.9946 51.7563 50.7772 51.9219 50.5955C52.0906 50.4103 52.2069 50.2701 52.2451 50.2048L52.2959 50.1091C52.3859 49.914 52.4111 49.7048 52.3721 49.4929L52.3467 49.3865C52.3063 49.2443 52.2355 49.1258 52.1426 49.0095L52.043 48.8933C51.8093 48.6361 51.5628 48.3886 51.3125 48.1433L50.5586 47.406L47.8271 44.6736L44.2646 41.1111C44.1656 41.012 43.9994 40.8387 43.8008 40.6335C43.6016 40.4278 43.3689 40.1888 43.1367 39.9558C42.9044 39.7227 42.6725 39.4968 42.4756 39.3171C42.3252 39.1799 42.201 39.0749 42.1133 39.0134L42.0381 38.9666C41.8278 38.86 41.5814 38.8663 41.3203 38.8826ZM35.4072 34.7312L34.9482 35.1941C34.7295 35.4071 34.5055 35.6007 34.3047 35.8132C35.0928 36.5284 35.8326 37.3315 36.5781 38.0779L37.042 38.5593C37.1752 38.6947 37.3119 38.8224 37.4541 38.9324C37.8567 38.4548 38.4649 37.8753 38.9297 37.448C38.6722 37.1809 37.9756 36.4663 37.2949 35.782C36.9155 35.4005 36.5412 35.0286 36.252 34.7488C36.1073 34.6089 35.9842 34.4927 35.8926 34.4099C35.8539 34.375 35.8217 34.3464 35.7959 34.325C35.6665 34.4591 35.5377 34.5957 35.4072 34.7312ZM20.4404 3.61792C11.041 3.91427 3.54207 11.6597 3.60547 21.1179L3.61426 21.5662C3.9153 30.9653 11.6639 38.4604 21.1221 38.3923L21.5713 38.3835C30.8145 38.0826 38.2137 30.5795 38.3857 21.3328L38.3877 20.8845C38.3234 11.2831 30.4902 3.55061 20.8887 3.61011L20.4404 3.61792Z" fill="#905BC3" stroke="#905BC3" stroke-width="0.2"/>
<path d="M19.7186 12.0097C19.7728 12.0065 19.8272 12.0049 19.8815 12.0047L21.506 12.0004C22.5736 11.9986 23.5214 11.9769 24.3304 12.8C25.1976 13.6825 25.0855 14.8178 25.0837 15.9625C26.7053 15.9941 27.895 15.8801 29.1532 17.1439C29.6437 17.6392 29.9942 18.2586 30.1685 18.938C30.396 19.8441 30.3028 20.8729 30.301 21.8063L30.303 24.6409C30.3024 25.9893 30.1224 27.0684 29.1332 28.0581C27.9056 29.286 26.6931 29.2226 25.1006 29.2229L22.6473 29.2216L18.2006 29.2231C17.2285 29.2233 15.9006 29.321 14.9784 29.0891C14.3064 28.9158 13.6913 28.5657 13.1954 28.0742C12.3695 27.2488 12.0234 26.1996 12.021 25.0406L12.0233 21.9142C12.0216 20.9514 11.9183 19.8601 12.1605 18.9243C12.3395 18.2384 12.6965 17.6136 13.194 17.1147C14.3992 15.9009 15.678 15.9636 17.2447 15.9775C17.2436 14.9056 17.1371 13.8252 17.8576 12.9428C18.3335 12.36 18.986 12.0749 19.7186 12.0097ZM26.1888 26.5548C26.6059 26.5443 26.9831 26.4935 27.293 26.1761C27.4829 25.9816 27.5952 25.7355 27.6486 25.4694C27.7585 24.9208 27.6878 24.0507 27.6879 23.4595C27.6881 22.3662 27.7143 21.2676 27.6892 20.1749C27.679 19.7335 27.6158 19.3254 27.2875 19.0023C27.0997 18.8175 26.8688 18.709 26.611 18.6697C26.1731 18.6032 25.6993 18.6386 25.256 18.6398L23.0101 18.6429L18.6409 18.6418C17.8185 18.6417 16.9926 18.6254 16.1705 18.6505C15.7185 18.6581 15.3276 18.6839 14.9945 19.04C14.812 19.2351 14.7099 19.4839 14.6677 19.7469C14.5686 20.3628 14.6341 21.5333 14.6356 22.2046C14.6377 23.1793 14.5915 24.1732 14.636 25.1454C14.6546 25.5514 14.7623 25.949 15.0766 26.224C15.2488 26.3747 15.4645 26.4883 15.6907 26.5232C16.113 26.5885 16.5659 26.5588 16.9927 26.5578L18.9986 26.554L26.1888 26.5548ZM19.8476 15.9533C20.1908 15.9676 22.3123 16.0348 22.4558 15.9358C22.4592 15.9334 22.4612 15.9291 22.4639 15.9258C22.4676 15.5118 22.4662 15.0976 22.4593 14.6837C21.9484 14.6756 21.4372 14.6726 20.9262 14.674C20.584 14.6783 20.21 14.7187 19.871 14.6757C19.8062 15.0849 19.8569 15.5381 19.8476 15.9533Z" fill="#905BC3"/>
</g>
<defs>
<clipPath id="clip0_1088_16">
<rect width="56" height="56" fill="white"/>
</clipPath>
</defs>
</svg>
