<svg width="72" height="72" viewBox="0 0 72 72" fill="none" xmlns="http://www.w3.org/2000/svg">
<path d="M35.1585 48.352C33.6012 48.352 32.1718 48.0853 30.8705 47.552C29.5692 46.9973 28.4705 46.208 27.5745 45.184L30.8065 41.952C31.2118 42.5493 31.7985 43.04 32.5665 43.424C33.3558 43.7867 34.1878 43.968 35.0625 43.968C35.8518 43.968 36.5345 43.8293 37.1105 43.552C37.6865 43.2747 38.1345 42.88 38.4545 42.368C38.7958 41.856 38.9665 41.248 38.9665 40.544C38.9665 39.84 38.7958 39.2427 38.4545 38.752C38.1345 38.24 37.6545 37.8453 37.0145 37.568C36.3958 37.2907 35.6492 37.152 34.7745 37.152C34.3692 37.152 33.9425 37.184 33.4945 37.248C33.0678 37.2907 32.7052 37.3653 32.4065 37.472L34.6145 34.688C35.2118 34.5173 35.7772 34.3787 36.3105 34.272C36.8652 34.144 37.3772 34.08 37.8465 34.08C38.9985 34.08 40.0332 34.3573 40.9505 34.912C41.8678 35.4453 42.5932 36.2133 43.1265 37.216C43.6812 38.1973 43.9585 39.3707 43.9585 40.736C43.9585 42.2293 43.5852 43.552 42.8385 44.704C42.1132 45.856 41.0892 46.752 39.7665 47.392C38.4652 48.032 36.9292 48.352 35.1585 48.352ZM32.4065 37.472V34.688L37.9105 28.224L43.5425 28.192L37.8145 34.72L32.4065 37.472ZM28.9825 29.664V25.408H43.5425V28.192L39.6065 29.664H28.9825Z" fill="#111827"/>
<circle cx="36" cy="36" r="35.5" stroke="#915DC2"/>
</svg>
