<svg width="64" height="64" viewBox="0 0 64 64" fill="none" xmlns="http://www.w3.org/2000/svg">
<path d="M31.6448 4.95234C32.0433 4.94008 32.4461 4.95126 32.8446 4.96321C39.4456 5.16126 45.4125 7.27973 49.9969 12.1637C51.3736 13.6304 52.6183 15.2997 53.55 17.0857C56.4655 22.6741 56.7241 29.5055 56.5251 35.6851C56.604 35.7299 56.6809 35.7779 56.7558 35.829C57.8758 36.5936 58.6598 37.7255 58.9093 39.0661C59.0248 39.6872 59.0006 40.318 59.0014 40.9467L59.0021 42.9721L59.003 45.4144C59.0028 46.2372 59.031 47.0631 58.8705 47.875C58.8288 48.0821 58.7765 48.2866 58.7136 48.4885C58.6508 48.6903 58.5778 48.8884 58.4945 49.0826C58.4113 49.2769 58.3182 49.4663 58.2154 49.651C58.1126 49.8357 58.0005 50.0146 57.8793 50.1877C57.7743 50.338 57.6628 50.4834 57.545 50.6239C57.4272 50.7643 57.3034 50.8993 57.1736 51.0289C57.044 51.1584 56.9088 51.2819 56.7681 51.3995C56.6275 51.5172 56.4819 51.6284 56.3315 51.7331C55.4439 52.3527 54.3654 52.744 53.3835 53.1915C52.6946 53.5055 51.6939 54.0611 50.9625 54.1862C50.3454 54.2919 49.694 54.112 49.1895 53.7489C48.6646 53.3711 48.3094 52.817 48.2076 52.1769C48.0916 51.4471 48.1629 50.629 48.1639 49.8899L48.1665 45.6492L48.1648 40.0347L48.1645 38.3055C48.1645 37.9409 48.1498 37.5656 48.1844 37.2026C48.1944 37.0938 48.2116 36.9861 48.236 36.8795C48.2604 36.773 48.2919 36.6686 48.3303 36.5662C48.3688 36.4639 48.4139 36.3646 48.4656 36.2684C48.5175 36.1721 48.5755 36.0797 48.6396 35.9912C49.1055 35.3515 49.7178 35.1097 50.4753 34.9884L50.4775 34.9184C50.658 28.2586 50.4604 21.4915 45.5859 16.3762C42.4428 13.0779 38.4459 11.4692 33.9428 11.125C33.4364 11.0863 32.9229 11.0862 32.415 11.0734C27.4679 10.9983 22.6336 12.2709 18.9983 15.7759C14.8756 19.7506 13.6956 24.6252 13.5144 30.2009C13.4909 30.9247 13.4708 31.6532 13.4788 32.3775C13.4883 33.2444 13.5288 34.1147 13.5123 34.9814C14.1278 35.0562 14.7085 35.3034 15.1468 35.7484C15.516 36.1232 15.709 36.5516 15.7889 37.068C15.8735 37.6151 15.8333 38.2072 15.8331 38.7607L15.8325 41.6201L15.8335 51.3247C15.8294 52.1794 15.7241 52.887 15.0839 53.5111C14.6315 53.9521 13.9888 54.2345 13.3523 54.2191C13.0668 54.2122 12.786 54.1404 12.5184 54.0441C11.9024 53.8224 11.3008 53.5004 10.7021 53.231C9.81471 52.8316 8.85138 52.468 8.01873 51.9677C7.77546 51.8221 7.54331 51.6605 7.3223 51.4829C7.10127 51.3053 6.89346 51.1134 6.69886 50.9072C4.68628 48.7669 4.99893 46.5446 5.00077 43.86C5.00167 42.5554 4.96258 41.2401 5.00458 39.9367C5.04808 38.5871 5.55218 37.3181 6.53836 36.3771C6.67517 36.2465 6.82155 36.1195 6.97461 36.0084C7.09033 35.9244 7.25725 35.846 7.35226 35.741C7.39832 35.69 7.42755 35.6439 7.44053 35.5767C7.5142 35.1964 7.42975 34.3406 7.42188 33.9079C7.32032 28.3221 7.82511 22.1401 10.4307 17.1157C11.4205 15.2071 12.766 13.4214 14.258 11.8775C18.9384 7.03468 25.0248 5.06981 31.6448 4.95234ZM9.43845 35.013C10.1358 34.9985 10.8332 34.9946 11.5307 35.0014C11.4801 34.616 11.5011 34.207 11.4966 33.8184C11.4859 33.098 11.4839 32.3777 11.4905 31.6574C11.5378 26.2925 12.3068 20.9002 15.6539 16.5296C18.8953 12.2969 23.3223 9.94362 28.5796 9.25389C29.2645 9.16661 29.9517 9.10607 30.6413 9.07227C31.3309 9.03847 32.0207 9.03151 32.7109 9.05141C38.0573 9.17517 43.156 10.9326 46.9034 14.8535C48.1711 16.1799 49.2889 17.6911 50.1144 19.3325C52.3999 23.8762 52.6078 29.4137 52.4955 34.4105C52.4911 34.6029 52.4861 34.7972 52.4608 34.9882C53.1486 34.999 53.8776 34.949 54.5586 35.0402L54.5564 35.0017C54.5196 34.2927 54.5761 33.5569 54.586 32.8452C54.599 31.906 54.5655 30.9574 54.5254 30.0187C54.2251 23.0017 52.6281 17.1726 47.2915 12.3244C42.8688 8.30661 37.1749 6.87672 31.3155 6.98324C25.3024 7.12024 19.7809 9.01633 15.5658 13.4255C15.2184 13.7857 14.8845 14.1581 14.5641 14.5425C14.2437 14.9269 13.9377 15.3224 13.646 15.7291C13.3544 16.1358 13.0778 16.5525 12.8164 16.9792C12.555 17.4059 12.3094 17.8415 12.0796 18.2861C9.77997 22.845 9.29807 28.7149 9.41556 33.7674C9.42518 34.181 9.45326 34.5999 9.43845 35.013ZM54.5215 50.4689C55.6008 49.9182 56.4084 49.1024 56.7875 47.9331C56.8944 47.5987 56.9593 47.2563 56.9823 46.906C57.0174 46.409 57.0016 45.9035 57.0019 45.4054L57.0026 43.0401L57.0019 41.0989C57.0014 40.6335 57.0165 40.1625 56.9658 39.6994C56.9235 39.3141 56.838 38.9731 56.6583 38.6282C56.6361 38.5851 56.6129 38.5425 56.5885 38.5005C56.5643 38.4585 56.539 38.4171 56.5126 38.3764C56.4863 38.3355 56.459 38.2954 56.4308 38.256C56.4024 38.2166 56.3732 38.1779 56.343 38.1399C56.3128 38.1019 56.2816 38.0647 56.2496 38.0282C56.2176 37.9918 56.1848 37.9561 56.151 37.9212C56.1172 37.8864 56.0826 37.8524 56.0471 37.8194C56.0117 37.7862 55.9755 37.7539 55.9384 37.7226C55.9014 37.6912 55.8636 37.6607 55.825 37.6312C55.7865 37.6017 55.7473 37.5732 55.7074 37.5456C55.6675 37.5181 55.6269 37.4916 55.5856 37.466C55.5444 37.4404 55.5026 37.4158 55.4601 37.3922C55.4176 37.3687 55.3746 37.3463 55.3311 37.3249C55.2876 37.3034 55.2435 37.2831 55.199 37.2639C55.1544 37.2446 55.1094 37.2265 55.064 37.2095C55.0186 37.1924 54.9728 37.1765 54.9265 37.1617C54.1541 36.9227 53.2278 37.0086 52.4241 37.0091C51.9263 37.0094 51.4241 36.997 50.9268 37.0141C50.7451 37.0199 50.4526 36.9884 50.3171 37.1302C50.2118 37.2407 50.1838 37.3755 50.173 37.523C50.1149 38.3156 50.1601 39.1379 50.1603 39.9345L50.161 44.584L50.1619 49.3864C50.1619 50.1322 50.1133 50.9147 50.162 51.6572C50.1723 51.8116 50.1989 51.9916 50.3263 52.0955C50.4179 52.1704 50.5839 52.1945 50.6973 52.1705C51.1305 52.0785 51.695 51.7509 52.1096 51.563C52.9125 51.199 53.7284 50.8532 54.5215 50.4689ZM11.5098 51.399C11.9393 51.596 13.1811 52.2831 13.5778 52.1409C13.6743 52.1062 13.7483 52.0321 13.7848 51.9364C13.8885 51.6637 13.828 44.4582 13.828 43.6239L13.8279 39.7554C13.8279 39.0856 13.8484 38.4094 13.8241 37.7406C13.8179 37.5684 13.8028 37.3009 13.724 37.1486C13.6955 37.0936 13.5768 37.0675 13.5189 37.0555C13.0811 36.9646 12.5864 37.0077 12.1396 37.0082L10.0974 37.0146C9.18408 37.0621 8.41482 37.2865 7.78168 37.9842C7.7364 38.0336 7.69288 38.0844 7.65112 38.1369C7.60936 38.1893 7.56947 38.243 7.53143 38.2981C7.49339 38.3533 7.4573 38.4096 7.42316 38.4672C7.38902 38.5249 7.35692 38.5836 7.32685 38.6435C7.29677 38.7034 7.2688 38.7642 7.24293 38.826C7.21707 38.8878 7.19337 38.9504 7.17183 39.0139C7.1503 39.0773 7.13099 39.1414 7.11389 39.2061C7.09679 39.2709 7.08195 39.3361 7.06937 39.402C6.97451 39.8794 7.00121 40.3966 7.00102 40.8812L7.00028 42.6549L7.00066 45.3009C7.00097 45.813 6.98502 46.3317 7.01178 46.843C7.01486 46.912 7.01964 46.9809 7.02612 47.0497C7.03261 47.1186 7.0408 47.1871 7.05068 47.2555C7.06057 47.3239 7.07215 47.392 7.08541 47.4599C7.09867 47.5277 7.11361 47.5951 7.13022 47.6622C7.14682 47.7293 7.16507 47.7959 7.18498 47.8621C7.20489 47.9283 7.22642 47.9939 7.24958 48.059C7.27274 48.1241 7.2975 48.1886 7.32386 48.2525C7.35022 48.3164 7.37814 48.3796 7.40763 48.4421C7.43712 48.5046 7.46813 48.5663 7.50068 48.6272C7.53323 48.6882 7.56727 48.7484 7.6028 48.8076C7.63832 48.8669 7.67529 48.9252 7.71371 48.9827C7.75212 49.0401 7.79194 49.0966 7.83316 49.1521C7.87437 49.2075 7.91694 49.2619 7.96086 49.3154C8.00477 49.3687 8.04997 49.4209 8.09648 49.472C8.14298 49.5231 8.19072 49.5731 8.2397 49.6219C8.28867 49.6706 8.33882 49.7181 8.39016 49.7644C9.21472 50.5009 10.5033 50.9352 11.5098 51.399Z" fill="#915DC2"/>
<path d="M31.2873 15.0167C31.9483 14.996 32.6016 15.0022 33.2611 15.0531C33.3824 15.0634 33.5036 15.0751 33.6246 15.0884C33.7456 15.1016 33.8665 15.1163 33.9872 15.1325C34.1079 15.1486 34.2283 15.1663 34.3486 15.1854C34.4688 15.2044 34.5888 15.225 34.7084 15.2471C34.8282 15.2691 34.9476 15.2926 35.0668 15.3175C35.186 15.3424 35.3049 15.3688 35.4234 15.3966C35.5419 15.4244 35.6601 15.4537 35.7779 15.4845C35.8958 15.5151 36.0132 15.5473 36.1302 15.5809C36.2472 15.6144 36.3638 15.6494 36.4799 15.6859C36.5962 15.7223 36.7119 15.7601 36.8272 15.7994C36.9424 15.8386 37.0572 15.8792 37.1714 15.9212C37.2857 15.9632 37.3994 16.0066 37.5127 16.0515C37.6259 16.0963 37.7385 16.1425 37.8506 16.19C37.9626 16.2376 38.0741 16.2865 38.1851 16.3367C38.296 16.387 38.4062 16.4386 38.5158 16.4915C38.6255 16.5445 38.7345 16.5988 38.8428 16.6544C38.9511 16.7099 39.0586 16.7669 39.1656 16.8251C39.2726 16.8834 39.3788 16.9429 39.4842 17.0036C39.5897 17.0644 39.6944 17.1265 39.7984 17.1899C39.9024 17.2533 40.0055 17.3179 40.1079 17.3837C40.2103 17.4496 40.3119 17.5168 40.4127 17.5851C40.5134 17.6534 40.6133 17.723 40.7123 17.7939C40.8114 17.8646 40.9096 17.9366 41.0069 18.0097C41.1042 18.0829 41.2006 18.1573 41.2961 18.2329C41.3916 18.3084 41.4861 18.385 41.5798 18.4629C41.6734 18.5407 41.7661 18.6196 41.8578 18.6997C41.9495 18.7798 42.0402 18.861 42.1299 18.9432C42.2197 19.0256 42.3084 19.1089 42.3961 19.1934C42.4837 19.2779 42.5704 19.3634 42.6561 19.45C42.7416 19.5366 42.8262 19.6241 42.9097 19.7127C42.9931 19.8014 43.0755 19.891 43.1568 19.9816C43.2381 20.0723 43.3182 20.1639 43.3973 20.2565C43.4776 20.3502 43.5568 20.445 43.6348 20.5407C43.7129 20.6364 43.7897 20.7331 43.8653 20.8307C43.9409 20.9283 44.0153 21.0269 44.0884 21.1264C44.1617 21.2259 44.2336 21.3262 44.3043 21.4275C44.375 21.5287 44.4444 21.6308 44.5126 21.7337C44.5807 21.8367 44.6476 21.9405 44.7132 22.0451C44.7788 22.1498 44.8431 22.2552 44.9061 22.3614C44.9691 22.4676 45.0307 22.5746 45.0911 22.6824C45.1514 22.7901 45.2104 22.8986 45.2681 23.0077C45.3256 23.117 45.3819 23.2269 45.4368 23.3375C45.4918 23.4481 45.5454 23.5593 45.5976 23.6712C45.6497 23.7831 45.7005 23.8957 45.7498 24.0089C45.7992 24.122 45.8472 24.2358 45.8938 24.3502C45.9403 24.4646 45.9854 24.5795 46.0292 24.695C46.0729 24.8105 46.1151 24.9265 46.1561 25.043C46.1969 25.1596 46.2363 25.2766 46.2742 25.3941C46.3121 25.5116 46.3486 25.6296 46.3837 25.748C46.4187 25.8664 46.4522 25.9852 46.4843 26.1045C46.5164 26.2237 46.547 26.3434 46.5762 26.4634C46.6053 26.5834 46.6329 26.7037 46.6591 26.8244C46.6851 26.945 46.7098 27.066 46.7329 27.1874C46.7561 27.3086 46.7777 27.4301 46.7978 27.552C46.818 27.6738 46.8366 27.7959 46.8537 27.9182C46.8709 28.0405 46.8865 28.163 46.9006 28.2857C46.9146 28.4084 46.9271 28.5312 46.9382 28.6542C46.9492 28.7772 46.9587 28.9003 46.9667 29.0235C46.9747 29.1467 46.9811 29.2701 46.9861 29.3935C46.991 29.5168 46.9944 29.6402 46.9963 29.7637C46.9981 29.8872 46.9985 30.0107 46.9973 30.1341C46.9961 30.2576 46.9934 30.3811 46.9892 30.5045C46.9849 30.6279 46.9792 30.7512 46.9719 30.8745C46.9646 30.9977 46.9558 31.1209 46.9454 31.244C46.9344 31.3756 46.9217 31.5071 46.9072 31.6384C46.8927 31.7697 46.8764 31.9008 46.8584 32.0316C46.8405 32.1624 46.8209 32.2931 46.7994 32.4235C46.778 32.5538 46.7549 32.6839 46.7301 32.8136C46.7052 32.9433 46.6786 33.0726 46.6503 33.2017C46.6221 33.3307 46.5921 33.4594 46.5604 33.5876C46.5288 33.7159 46.4954 33.8436 46.4604 33.971C46.4254 34.0984 46.3886 34.2253 46.3502 34.3516C46.3118 34.478 46.2717 34.6039 46.2301 34.7292C46.1883 34.8546 46.1449 34.9793 46.0999 35.1035C46.0549 35.2276 46.0082 35.3512 45.9599 35.4742C45.9116 35.5971 45.8617 35.7194 45.8102 35.8411C45.7587 35.9627 45.7056 36.0836 45.6508 36.2039C45.5961 36.3241 45.5399 36.4436 45.4819 36.5622C45.4241 36.681 45.3647 36.7989 45.3037 36.9161C45.2427 37.0333 45.1801 37.1496 45.1161 37.2651C45.052 37.3807 44.9864 37.4954 44.9193 37.6091C44.8522 37.7229 44.7836 37.8357 44.7136 37.9477C44.6434 38.0597 44.5718 38.1707 44.4988 38.2807C44.4258 38.3908 44.3514 38.4999 44.2754 38.6081C44.1995 38.7162 44.1222 38.8233 44.0436 38.9293C43.9648 39.0354 43.8847 39.1404 43.8032 39.2444C43.7217 39.3483 43.6388 39.4511 43.5546 39.5529C43.4703 39.6546 43.3847 39.7552 43.2978 39.8547C43.211 39.9542 43.1228 40.0526 43.0333 40.1497C42.9438 40.2469 42.8531 40.3429 42.7611 40.4376C42.6691 40.5324 42.5758 40.626 42.4813 40.7182C42.3868 40.8106 42.2911 40.9016 42.1942 40.9914C42.0973 41.0811 41.9992 41.1696 41.8999 41.2567C41.8007 41.3439 41.7003 41.4298 41.5988 41.5144C41.4973 41.5989 41.3947 41.682 41.2909 41.7638C41.1873 41.8456 41.0825 41.926 40.9767 42.0051C40.4452 42.4044 39.8893 42.7661 39.3091 43.0905C38.9078 43.3155 38.4776 43.495 38.1132 43.7795C37.2153 44.4803 36.3592 45.2547 35.4878 45.9901L30.7462 49.9912C30.2624 50.3869 29.7904 50.7982 29.3137 51.2022C29.0478 51.4275 28.7782 51.6891 28.4772 51.8661C28.3331 51.9507 28.1808 51.9959 28.0132 51.999C27.9795 51.9996 27.9459 51.9986 27.9123 51.9959C27.8787 51.9932 27.8454 51.9888 27.8122 51.9827C27.779 51.9767 27.7462 51.9691 27.7138 51.9597C27.6815 51.9504 27.6496 51.9394 27.6183 51.9269C27.5871 51.9144 27.5565 51.9003 27.5267 51.8847C27.4968 51.8691 27.4677 51.8521 27.4396 51.8336C27.4114 51.8152 27.3842 51.7954 27.3581 51.7741C27.3318 51.7529 27.3067 51.7305 27.2828 51.7067C27.1558 51.581 27.0644 51.429 27.0353 51.2517C26.9317 50.6195 26.9991 49.6149 26.9993 48.9426L26.9977 44.1552C25.2438 43.4981 23.5839 42.5815 22.1771 41.335C19.1727 38.6728 17.2737 35.0091 17.0308 30.9809C17.0226 30.856 17.016 30.7311 17.0109 30.6061C17.0059 30.481 17.0025 30.3559 17.0006 30.2309C16.9987 30.1058 16.9983 29.9807 16.9994 29.8556C17.0007 29.7304 17.0035 29.6054 17.0078 29.4804C17.0121 29.3553 17.0181 29.2303 17.0256 29.1054C17.033 28.9805 17.042 28.8558 17.0526 28.7311C17.0632 28.6064 17.0753 28.4819 17.0891 28.3575C17.1027 28.2331 17.118 28.109 17.1348 27.985C17.1516 27.861 17.1699 27.7372 17.1898 27.6137C17.2097 27.4901 17.2312 27.3669 17.2542 27.244C17.2771 27.121 17.3016 26.9983 17.3277 26.8759C17.3538 26.7535 17.3814 26.6315 17.4104 26.5097C17.4395 26.3881 17.4701 26.2668 17.5023 26.1459C17.5344 26.0249 17.568 25.9044 17.6032 25.7844C17.6384 25.6643 17.675 25.5446 17.7132 25.4255C17.7513 25.3063 17.7909 25.1876 17.8321 25.0695C17.8731 24.9513 17.9157 24.8337 17.9598 24.7166C18.0038 24.5994 18.0493 24.4829 18.0963 24.367C18.1432 24.251 18.1916 24.1356 18.2414 24.0209C18.2914 23.9061 18.3426 23.792 18.3953 23.6785C18.4481 23.565 18.5022 23.4522 18.5577 23.3401C18.6132 23.2279 18.6701 23.1165 18.7284 23.0059C18.7868 22.8952 18.8464 22.7852 18.9074 22.676C18.9685 22.5668 19.0309 22.4584 19.0947 22.3507C19.1585 22.2431 19.2236 22.1362 19.2901 22.0302C19.3565 21.9242 19.4242 21.8191 19.4933 21.7147C19.5624 21.6104 19.6328 21.5069 19.7044 21.4044C19.7761 21.3018 19.849 21.2001 19.9232 21.0994C19.9974 20.9987 20.0729 20.8989 20.1496 20.8C20.2263 20.7011 20.3042 20.6033 20.3833 20.5064C20.4625 20.4094 20.5429 20.3136 20.6244 20.2187C20.7059 20.1238 20.7886 20.0299 20.8726 19.9371C23.5366 16.9324 27.3098 15.256 31.2873 15.0167ZM29.0203 48.8519C29.5512 48.3045 30.1957 47.823 30.7817 47.3345C31.9799 46.281 33.2234 45.2738 34.4417 44.243C35.3042 43.5131 36.1508 42.7267 37.0528 42.0482C37.4302 41.7645 37.8687 41.5886 38.2817 41.3645C38.7828 41.0887 39.2623 40.7795 39.7203 40.4368C39.8156 40.3667 39.9098 40.2952 40.0031 40.2225C40.0963 40.1497 40.1886 40.0757 40.2798 40.0005C40.3711 39.9252 40.4613 39.8487 40.5504 39.771C40.6395 39.6932 40.7276 39.6143 40.8146 39.5341C40.9016 39.4539 40.9874 39.3726 41.0722 39.2901C41.1569 39.2076 41.2406 39.124 41.3231 39.0392C41.4055 38.9544 41.4867 38.8685 41.5668 38.7815C41.647 38.6945 41.7259 38.6064 41.8036 38.5172C41.8813 38.4281 41.9578 38.3378 42.0329 38.2465C42.1082 38.1552 42.1821 38.063 42.2548 37.9697C42.3276 37.8764 42.399 37.7821 42.4691 37.6868C42.5392 37.5916 42.608 37.4954 42.6754 37.3982C42.7429 37.3011 42.8091 37.2031 42.8739 37.1041C42.9387 37.0052 43.0021 36.9054 43.0642 36.8046C43.1263 36.7039 43.1869 36.6024 43.2462 36.5001C43.3055 36.3978 43.3634 36.2946 43.4198 36.1907C43.4763 36.0867 43.5314 35.982 43.5849 35.8766C43.6385 35.7712 43.6906 35.665 43.7413 35.5581C43.792 35.4513 43.8412 35.3437 43.8889 35.2355C43.9367 35.1273 43.9829 35.0185 44.0277 34.909C44.0724 34.7995 44.1157 34.6894 44.1574 34.5787C44.1992 34.4681 44.2394 34.3568 44.2781 34.2451C44.3168 34.1334 44.354 34.0211 44.3896 33.9082C44.4251 33.7955 44.4592 33.6822 44.4918 33.5685C44.5243 33.4547 44.5553 33.3406 44.5847 33.226C44.614 33.1115 44.6418 32.9966 44.6681 32.8812C44.6943 32.7659 44.719 32.6502 44.7421 32.5342C44.7651 32.4182 44.7866 32.3019 44.8066 32.1852C44.8265 32.0686 44.8448 31.9518 44.8614 31.8347C44.8781 31.7176 44.8932 31.6004 44.9067 31.4829C44.9202 31.3654 44.9321 31.2477 44.9423 31.1299C44.9526 31.012 44.9612 30.8941 44.9682 30.776C44.9746 30.6707 44.9797 30.5654 44.9836 30.4601C44.9874 30.3547 44.99 30.2493 44.9913 30.1439C44.9926 30.0384 44.9925 29.933 44.9912 29.8276C44.9899 29.7222 44.9874 29.6168 44.9834 29.5115C44.9796 29.4061 44.9745 29.3009 44.9681 29.1956C44.9616 29.0904 44.9538 28.9852 44.9448 28.8801C44.9358 28.7751 44.9255 28.6702 44.9139 28.5654C44.9024 28.4606 44.8895 28.356 44.8754 28.2515C44.8613 28.147 44.8459 28.0427 44.8292 27.9386C44.8125 27.8345 44.7946 27.7306 44.7753 27.627C44.7561 27.5233 44.7357 27.4199 44.7139 27.3167C44.6922 27.2136 44.6692 27.1107 44.6449 27.0081C44.6207 26.9054 44.5952 26.8031 44.5684 26.7011C44.5417 26.5992 44.5137 26.4976 44.4844 26.3962C44.4553 26.2949 44.4248 26.194 44.3931 26.0935C44.3614 25.9929 44.3285 25.8927 44.2943 25.793C44.2602 25.6932 44.2249 25.5939 44.1883 25.4951C44.1517 25.3962 44.1139 25.2977 44.0749 25.1997C44.036 25.1018 43.9959 25.0044 43.9546 24.9074C43.9132 24.8104 43.8707 24.7139 43.8269 24.618C43.7833 24.522 43.7384 24.4266 43.6923 24.3317C43.6463 24.2369 43.5991 24.1426 43.5508 24.049C43.5025 23.9552 43.453 23.8621 43.4023 23.7696C43.3517 23.6771 43.3 23.5853 43.2472 23.4941C43.1944 23.4029 43.1404 23.3123 43.0853 23.2224C43.0302 23.1324 42.9741 23.0432 42.9168 22.9547C42.8596 22.8661 42.8013 22.7783 42.7419 22.6912C42.6825 22.6041 42.6221 22.5177 42.5606 22.4321C42.4991 22.3464 42.4365 22.2616 42.3729 22.1775C42.3094 22.0933 42.2448 22.01 42.1792 21.9275C42.1136 21.845 42.047 21.7633 41.9794 21.6824C41.9119 21.6014 41.8433 21.5214 41.7737 21.4421C41.7032 21.3613 41.6317 21.2813 41.5592 21.2022C41.4867 21.1231 41.4132 21.045 41.3388 20.9679C41.2643 20.8906 41.1889 20.8143 41.1126 20.739C41.0362 20.6636 40.959 20.5891 40.8808 20.5157C40.8026 20.4423 40.7234 20.3699 40.6434 20.2985C40.5634 20.2271 40.4826 20.1566 40.4008 20.0872C40.319 20.0177 40.2364 19.9493 40.1529 19.882C40.0694 19.8146 39.9851 19.7483 39.8999 19.683C39.8149 19.6177 39.7289 19.5536 39.6422 19.4905C39.5554 19.4273 39.4679 19.3653 39.3797 19.3044C39.2914 19.2434 39.2023 19.1836 39.1126 19.1249C39.0228 19.0662 38.9323 19.0086 38.8411 18.9521C38.7499 18.8957 38.658 18.8404 38.5654 18.7862C38.4729 18.7321 38.3796 18.6791 38.2857 18.6272C38.1918 18.5754 38.0972 18.5247 38.0021 18.4752C37.9069 18.4257 37.8111 18.3774 37.7147 18.3304C37.6184 18.2833 37.5214 18.2374 37.4238 18.1927C37.3263 18.1481 37.2283 18.1046 37.1297 18.0624C37.031 18.0201 36.9319 17.9791 36.8323 17.9394C36.7326 17.8996 36.6325 17.8611 36.5319 17.8239C36.4314 17.7866 36.3303 17.7506 36.2288 17.7159C36.1273 17.6812 36.0254 17.6477 35.9231 17.6155C35.8207 17.5833 35.718 17.5524 35.6149 17.5227C35.5119 17.4931 35.4084 17.4648 35.3047 17.4377C35.2009 17.4107 35.0967 17.385 34.9923 17.3605C34.8878 17.3361 34.7831 17.3129 34.6781 17.2911C34.5731 17.2693 34.4678 17.2487 34.3622 17.2295C34.2567 17.2103 34.1509 17.1924 34.0449 17.1759C33.9389 17.1593 33.8328 17.144 33.7264 17.1301C33.6201 17.1162 33.5136 17.1036 33.4069 17.0924C33.3002 17.0811 33.1934 17.0711 33.0864 17.0625C32.9795 17.0539 32.8725 17.0466 32.7654 17.0407C32.4766 17.0222 32.1874 17.0137 31.8979 17.0151C28.3249 17.0786 25.0618 18.472 22.5794 21.0476C22.5062 21.1244 22.4339 21.2022 22.3626 21.2809C22.2912 21.3594 22.2209 21.4389 22.1514 21.5194C22.0821 21.5997 22.0137 21.6809 21.9463 21.7629C21.879 21.8449 21.8126 21.9278 21.7472 22.0115C21.6819 22.0951 21.6176 22.1796 21.5543 22.2649C21.4911 22.3501 21.4289 22.4361 21.3677 22.5229C21.3065 22.6097 21.2464 22.6972 21.1874 22.7855C21.1284 22.8737 21.0705 22.9627 21.0137 23.0524C20.9569 23.142 20.9011 23.2324 20.8466 23.3235C20.792 23.4145 20.7385 23.5062 20.6861 23.5986C20.6337 23.6909 20.5826 23.7839 20.5326 23.8775C20.4825 23.9711 20.4336 24.0654 20.3858 24.1602C20.3381 24.2551 20.2915 24.3504 20.2461 24.4464C20.2006 24.5424 20.1564 24.6389 20.1134 24.736C20.0704 24.833 20.0286 24.9305 19.9879 25.0286C19.9474 25.1267 19.9079 25.2253 19.8697 25.3244C19.8315 25.4234 19.7946 25.5229 19.7588 25.6229C19.7231 25.7229 19.6885 25.8232 19.6552 25.924C19.6219 26.0248 19.5899 26.126 19.5591 26.2276C19.5282 26.3292 19.4987 26.4311 19.4704 26.5335C19.4421 26.6358 19.4151 26.7385 19.3893 26.8415C19.3635 26.9445 19.339 27.0478 19.3158 27.1514C19.2926 27.2549 19.2706 27.3588 19.2499 27.463C19.2292 27.5671 19.2098 27.6714 19.1917 27.7761C19.1736 27.8807 19.1568 27.9855 19.1412 28.0905C19.1257 28.1955 19.1114 28.3007 19.0984 28.4061C19.0855 28.5114 19.0739 28.6169 19.0634 28.7226C19.0531 28.8283 19.0441 28.9341 19.0363 29.04C19.0286 29.1458 19.0221 29.2518 19.0169 29.3579C19.0118 29.4639 19.0079 29.5699 19.0053 29.6761C19.0028 29.7822 19.0016 29.8883 19.0016 29.9945C19.0016 30.1006 19.003 30.2068 19.0057 30.313C19.0082 30.419 19.012 30.5249 19.0171 30.6307C19.0221 30.7366 19.0285 30.8425 19.0362 30.9482C19.0439 31.054 19.0529 31.1596 19.0632 31.2651C19.0734 31.3706 19.085 31.4759 19.0978 31.5811C19.1106 31.6863 19.1248 31.7914 19.1402 31.8964C19.1557 32.0012 19.1724 32.1059 19.1904 32.2104C19.2084 32.3149 19.2276 32.4191 19.2482 32.5231C19.2688 32.6271 19.2906 32.7308 19.3137 32.8342C19.3368 32.9377 19.3611 33.0409 19.3867 33.1437C19.4124 33.2466 19.4392 33.3491 19.4673 33.4513C19.4955 33.5535 19.5249 33.6553 19.5554 33.7568C19.5861 33.8583 19.618 33.9595 19.6511 34.0602C19.6842 34.1609 19.7186 34.2611 19.7541 34.361C19.7896 34.4609 19.8264 34.5603 19.8644 34.6592C19.9024 34.7582 19.9416 34.8567 19.9821 34.9547C20.0225 35.0527 20.0641 35.1502 20.1069 35.2472C20.1498 35.3442 20.1938 35.4406 20.2389 35.5365C20.2841 35.6324 20.3304 35.7277 20.3779 35.8225C20.4254 35.9173 20.4741 36.0115 20.5238 36.1051C20.5736 36.1986 20.6246 36.2915 20.6767 36.3839C20.7288 36.4762 20.782 36.5679 20.8364 36.659C20.8908 36.75 20.9462 36.8403 21.0027 36.93C21.0593 37.0196 21.1169 37.1086 21.1757 37.1969C21.2344 37.2851 21.2942 37.3726 21.3551 37.4594C21.416 37.5462 21.4779 37.6322 21.5409 37.7175C21.6039 37.8027 21.6679 37.8872 21.7329 37.9708C21.798 38.0546 21.8641 38.1375 21.9312 38.2196C21.9983 38.3016 22.0664 38.3828 22.1354 38.4632C22.2045 38.5436 22.2746 38.6232 22.3456 38.702C22.4166 38.7806 22.4886 38.8584 22.5616 38.9354C22.6345 39.0123 22.7084 39.0883 22.7832 39.1634C22.858 39.2385 22.9337 39.3127 23.0103 39.386C23.2855 39.6485 23.5714 39.8986 23.8682 40.1365C24.1649 40.3742 24.4714 40.5988 24.7874 40.8102C25.1035 41.0217 25.4281 41.2192 25.7612 41.4026C26.0943 41.586 26.4346 41.7548 26.7823 41.909C27.2479 42.1115 28.3233 42.3962 28.6551 42.674C28.9621 42.931 28.9928 43.2841 29.0024 43.6595C29.0333 44.8527 29.0034 46.0547 29.0022 47.2489C29.0017 47.7776 28.9714 48.3261 29.0203 48.8519Z" fill="#915DC2"/>
<path d="M35.799 25.2567C36.0099 25.2378 36.2102 25.2464 36.4084 25.3285C36.6422 25.4255 36.8431 25.6169 36.9336 25.8563C37.0845 26.2552 37.0086 29.6363 37.0086 30.2603C37.0085 31.363 37.0471 32.481 37.0025 33.5822C36.9949 33.7714 36.9897 34.0268 36.9085 34.1988C36.7726 34.4865 36.5147 34.6475 36.2269 34.7533C35.9782 34.7742 35.7642 34.7648 35.5359 34.6523C35.3576 34.5644 35.1502 34.3934 35.0929 34.1964C34.9234 33.6128 35.0049 32.7522 35.0047 32.1289L35.0056 29.6179C35.0064 28.537 34.9529 27.4273 35.0139 26.3495C35.0255 26.1443 35.0351 25.9165 35.1377 25.734C35.2857 25.4712 35.517 25.3374 35.799 25.2567Z" fill="#915DC2"/>
<path d="M27.8995 25.2587C28.1193 25.2453 28.3355 25.2824 28.5299 25.3884C28.7245 25.4944 28.9169 25.6941 28.9682 25.9151C29.0865 26.4254 29.0264 27.0366 29.0267 27.5602L29.0273 30.0903L29.027 32.5387C29.0269 32.9888 29.0529 33.4585 29.0098 33.9059C28.9954 34.0547 28.9429 34.19 28.8642 34.3165C28.7014 34.5779 28.4628 34.7037 28.1724 34.7768C27.9274 34.7978 27.6939 34.7487 27.4824 34.6215C27.3015 34.5126 27.1382 34.3394 27.091 34.13C26.9698 33.592 27.0278 32.9824 27.0277 32.4329L27.0268 29.9516L27.0267 27.5245C27.0268 27.0541 27.001 26.5645 27.0503 26.0973C27.0674 25.934 27.1298 25.7893 27.2217 25.6538C27.3882 25.408 27.6215 25.3161 27.8995 25.2587Z" fill="#915DC2"/>
<path d="M39.7713 26.7913C39.9743 26.7711 40.1567 26.7711 40.3519 26.8383C40.579 26.9165 40.807 27.087 40.901 27.3147C40.9645 27.4687 40.9868 27.6687 40.9984 27.8352C41.0435 28.4772 41.0087 29.1451 41.008 29.7897C41.0074 30.4486 41.0393 31.124 40.999 31.7807C40.9889 31.9472 40.9775 32.1381 40.9029 32.2887C40.7542 32.589 40.4995 32.745 40.1908 32.8446C39.9824 32.8643 39.8238 32.857 39.6274 32.779C39.4193 32.6962 39.1797 32.517 39.1003 32.2991C38.9507 31.8885 38.9714 28.3633 39.0203 27.7595C39.0332 27.6018 39.0472 27.446 39.1213 27.303C39.2674 27.0206 39.4752 26.8846 39.7713 26.7913Z" fill="#915DC2"/>
<path d="M31.9951 26.9792C32.1718 26.9854 32.342 27.0184 32.5011 27.098C32.6861 27.1906 32.9035 27.3989 32.9586 27.6039C33.102 28.1365 33.0285 29.4191 33.0285 30.0115C33.0285 30.6776 33.0645 31.3679 33.0146 32.0316C33.0018 32.2004 32.9855 32.4002 32.9001 32.5482C32.7256 32.8514 32.4353 32.9834 32.1158 33.0775C31.8468 33.0679 31.5881 32.9906 31.3772 32.8176C31.1316 32.616 31.0777 32.4109 31.0435 32.109C30.9692 31.456 31.0255 30.7374 31.0266 30.0777C31.0277 29.3564 30.9581 28.4744 31.0681 27.7735C31.097 27.5892 31.1446 27.4639 31.2668 27.3186C31.4602 27.0887 31.706 27.0104 31.9951 26.9792Z" fill="#915DC2"/>
<path d="M23.9936 26.979C24.1709 26.9851 24.3414 27.0181 24.5008 27.0979C24.6859 27.1905 24.9033 27.3988 24.9584 27.6038C25.1018 28.1364 25.0283 29.419 25.0283 30.0114C25.0283 30.6775 25.0643 31.3678 25.0144 32.0315C25.0016 32.2003 24.9853 32.4001 24.8999 32.5481C24.7254 32.8513 24.435 32.9831 24.1158 33.0774C23.8641 33.0684 23.6238 33.0013 23.4189 32.85C23.1999 32.6885 23.1064 32.5191 23.0636 32.2565C22.957 31.6016 23.0254 30.5884 23.0266 29.8984C23.0278 29.2538 22.9755 28.5613 23.0478 27.9233C23.0721 27.7084 23.0986 27.5379 23.2334 27.3603C23.4303 27.1009 23.6838 27.0154 23.9936 26.979Z" fill="#915DC2"/>
</svg>
