<svg width="145" height="28" viewBox="0 0 145 28" fill="none" xmlns="http://www.w3.org/2000/svg">
<g clip-path="url(#clip0_515_2)">
<path d="M9.35059 27.4988H3.92995V13.9793H0.237305V9.57759H3.9298V6.44548C3.9298 2.73393 5.563 0.0720215 10.969 0.0720215C12.1123 0.0720215 13.9074 0.30259 13.9074 0.30259V4.38979H12.022C10.1009 4.38979 9.35088 4.97441 9.35088 6.5907V9.57759H13.8355L13.4361 13.9793H9.35073L9.35059 27.4988ZM21.7884 9.22583C21.7094 9.22583 21.6281 9.22871 21.5477 9.23073C16.5214 9.23073 14.2217 13.0134 14.2217 18.383C14.2217 25.1472 17.2047 27.8544 21.587 27.8544C24.0943 27.8544 25.7416 26.7986 26.7428 24.8282V27.5006H31.8986V9.57946H26.7428V12.3355C25.9253 10.5623 24.2319 9.24685 21.7884 9.22583ZM23.0994 13.4606C25.2104 13.4606 26.4775 14.9338 26.4775 17.4397L26.4824 19.9991C26.4824 21.6881 25.4359 23.664 23.0994 23.664C19.5073 23.664 19.6032 19.7835 19.6032 18.491C19.6032 14.1435 21.5171 13.4606 23.0994 13.4606ZM33.9808 18.541C33.9808 16.3632 33.8766 9.23749 43.1559 9.23749C46.8808 9.23749 48.4362 10.4224 48.4362 10.4224L47.1861 14.3017C47.1861 14.3017 45.6327 13.4459 43.6086 13.4459C41.0162 13.4459 39.362 14.9495 39.362 17.595L39.3649 19.4919C39.3649 22.0339 40.961 23.7308 43.614 23.7308C45.4579 23.7308 47.1574 22.867 47.1574 22.867L48.4044 26.6652C48.4044 26.6652 46.9822 27.8576 43.182 27.8576C34.3466 27.8576 33.9809 21.4644 33.9809 18.541H33.9808ZM78.6665 9.23073C83.693 9.23073 86.0289 13.0134 86.0289 18.383C86.0289 25.1472 83.0458 27.8544 78.6635 27.8544C76.1562 27.8544 74.3028 26.7987 73.3016 24.8282V27.5006L68.2106 27.4986V0.616924L73.6159 0.14528V12.0927C74.396 10.0025 76.9597 9.23073 78.6665 9.23073ZM77.1511 13.4606C75.0401 13.4606 73.6159 14.9338 73.6159 17.4397L73.6108 19.9991C73.6077 21.6881 74.5971 23.664 77.1511 23.664C80.7432 23.664 80.6473 19.7835 80.6473 18.491C80.6473 14.1435 78.7336 13.4606 77.1511 13.4606ZM57.8147 9.24555C52.1137 9.24555 49.1039 12.3553 49.1039 17.8818V18.9086C49.1039 26.0814 53.3306 27.9281 58.3696 27.9281C63.2674 27.9281 65.4844 26.5575 65.4844 26.5575L64.473 22.9075C64.473 22.9075 61.8651 24.0176 59.0176 24.0176C56.0657 24.0176 54.7962 23.2649 54.4708 20.4267H65.9165V17.4985C65.9165 11.5037 62.5387 9.24541 57.8146 9.24541L57.8147 9.24555ZM57.9521 12.9004C59.9255 12.9004 61.2043 14.1111 61.1341 16.9189H54.4807C54.5961 13.9637 55.9751 12.9004 57.9521 12.9004ZM96.8068 9.22094C90.9523 9.22094 87.8701 12.5217 87.8701 18.4369C87.8701 26.5529 93.183 27.8593 96.8166 27.8593C102.136 27.8593 105.675 24.9942 105.675 18.5106C105.675 11.7624 101.696 9.22094 96.8068 9.22094ZM96.7331 13.4752C99.3074 13.4752 100.328 15.4028 100.328 17.597V19.4834C100.328 22.1414 98.9002 23.6788 96.7233 23.6788C94.6875 23.6788 93.2567 22.2407 93.2567 19.4834V17.597C93.2567 14.6563 94.9592 13.4752 96.7331 13.4752ZM116.443 9.22094C110.588 9.22094 107.506 12.5217 107.506 18.4369C107.506 26.5529 112.819 27.8593 116.453 27.8593C121.772 27.8593 125.311 24.9942 125.311 18.5106C125.311 11.7624 121.332 9.22094 116.443 9.22094ZM116.369 13.4752C118.944 13.4752 119.963 15.4028 119.963 17.597V19.4834C119.963 22.1414 118.536 23.6788 116.359 23.6788C114.324 23.6788 112.893 22.2407 112.893 19.4834V17.597C112.893 14.6563 114.595 13.4752 116.369 13.4752ZM127.353 27.4988V0.616924L132.774 0.14528V18.1632L138.152 9.57759H143.877L138.267 18.4697L144.093 27.4988H138.352L132.774 18.7317V27.4988H127.353Z" fill="#4A4A4A"/>
</g>
<defs>
<clipPath id="clip0_515_2">
<rect width="144" height="28" fill="white" transform="translate(0.165283)"/>
</clipPath>
</defs>
</svg>
