<svg width="130" height="28" viewBox="0 0 130 28" fill="none" xmlns="http://www.w3.org/2000/svg">
<path d="M28.7941 11.083L28.7548 10.9785L24.7923 0.655869C24.7121 0.453182 24.5694 0.281242 24.3848 0.164939C24.2471 0.0769016 24.0907 0.0223076 23.928 0.00553155C23.7654 -0.0112445 23.6011 0.0102647 23.4483 0.0683348C23.2954 0.126405 23.1584 0.219421 23.048 0.339927C22.9377 0.460434 22.8572 0.605079 22.8129 0.762268L20.1382 8.94007H9.3067L6.632 0.762268C6.58739 0.605313 6.50666 0.460941 6.39628 0.340665C6.28588 0.220389 6.14888 0.127538 5.99619 0.0695154C5.8435 0.0114927 5.67934 -0.010096 5.51681 0.00647148C5.35429 0.023039 5.19789 0.0773036 5.06008 0.164939C4.87553 0.281242 4.73282 0.453182 4.65261 0.655869L0.691966 10.9803L0.650845 11.083C0.0806278 12.5713 0.0103792 14.2044 0.450689 15.736C0.890999 17.2677 1.818 18.6148 3.09191 19.5744L3.10686 19.5856L3.1405 19.6117L9.16839 24.1234L12.159 26.3802L13.9757 27.7522C14.1889 27.913 14.4488 28 14.7159 28C14.9831 28 15.2429 27.913 15.4561 27.7522L17.2729 26.3802L20.2634 24.1234L26.3343 19.5856L26.3511 19.5725C27.625 18.6133 28.5521 17.2666 28.9927 15.7353C29.4333 14.2041 29.3636 12.5712 28.7941 11.083Z" fill="#4A4A4A"/>
<path d="M52.517 10.5491H56.7748C56.0645 6.02807 52.145 2.87903 47.0442 2.87903C41.0088 2.87903 36.48 7.31046 36.48 14.7323C36.48 22.0215 40.8051 26.5426 47.1676 26.5426C52.8777 26.5426 56.9654 22.8746 56.9654 16.9368V14.1704H47.6068V17.4314H52.9226C52.8553 20.7168 50.6591 22.7962 47.19 22.7962C43.3284 22.7962 40.6817 19.9066 40.6817 14.6875C40.6817 9.50191 43.3733 6.62353 47.1003 6.62353C49.8815 6.62353 51.7843 8.10752 52.517 10.5491Z" fill="#4A4A4A"/>
<path d="M59.7801 26.2271H63.8566V8.9606H59.7801V26.2271ZM61.8361 6.21662C63.1314 6.21662 64.1893 5.22543 64.1893 4.0121C64.1893 2.79878 63.1314 1.79639 61.8361 1.79639C60.5408 1.79639 59.4717 2.78571 59.4717 4.0121C59.4717 5.23849 60.5221 6.21662 61.8286 6.21662H61.8361Z" fill="#4A4A4A"/>
<path d="M76.0638 8.96069H72.6508V4.81299H68.5743V8.96069H66.1201V12.1097H68.5743V21.7155C68.5518 24.9654 70.9181 26.5688 73.9797 26.4736C74.7953 26.4574 75.604 26.3209 76.3797 26.0686L75.6918 22.884C75.3022 22.985 74.9018 23.0383 74.4993 23.0427C73.4732 23.0427 72.6508 22.6825 72.6508 21.0398V12.1004H76.0638V8.96069Z" fill="#4A4A4A"/>
<path d="M79.2192 26.2271H93.5553V22.729H83.3986V3.19263H79.2192V26.2271Z" fill="#4A4A4A"/>
<path d="M101.364 26.5762C104.078 26.5762 105.699 25.305 106.443 23.8546H106.577V26.2272H110.502V14.6651C110.502 10.0993 106.775 8.72729 103.475 8.72729C99.8373 8.72729 97.0449 10.3457 96.144 13.4947L99.9513 14.0361C100.355 12.8545 101.505 11.8427 103.503 11.8427C105.396 11.8427 106.432 12.8097 106.432 14.5083V14.5755C106.432 15.744 105.204 15.8019 102.151 16.1267C98.7962 16.487 95.587 17.4875 95.587 21.3795C95.5757 24.7768 98.0635 26.5762 101.364 26.5762ZM102.705 23.5896C101.004 23.5896 99.7869 22.8131 99.7869 21.3179C99.7869 19.7536 101.149 19.1021 102.964 18.8427C104.035 18.6971 106.175 18.4264 106.703 18.0008V20.0355C106.714 21.9525 105.159 23.584 102.705 23.584V23.5896Z" fill="#4A4A4A"/>
<path d="M113.504 26.2271H117.514V23.5055H117.749C118.392 24.7655 119.732 26.5314 122.706 26.5314C126.783 26.5314 129.835 23.3021 129.835 17.6125C129.835 11.8539 126.693 8.72725 122.695 8.72725C119.643 8.72725 118.37 10.5603 117.749 11.8091H117.577V3.19263H113.504V26.2271ZM117.502 17.5901C117.502 14.2301 118.944 12.0667 121.568 12.0667C124.282 12.0667 125.68 14.372 125.68 17.5901C125.68 20.8082 124.261 23.1901 121.568 23.1901C118.966 23.1901 117.502 20.9408 117.502 17.5901Z" fill="#4A4A4A"/>
</svg>
